%TF.GenerationSoftware,KiCad,Pcbnew,(7.0.0)*%
%TF.CreationDate,2023-04-14T09:45:01+02:00*%
%TF.ProjectId,overall scematic,6f766572-616c-46c2-9073-63656d617469,rev?*%
%TF.SameCoordinates,Original*%
%TF.FileFunction,Soldermask,Top*%
%TF.FilePolarity,Negative*%
%FSLAX46Y46*%
G04 Gerber Fmt 4.6, Leading zero omitted, Abs format (unit mm)*
G04 Created by KiCad (PCBNEW (7.0.0)) date 2023-04-14 09:45:01*
%MOMM*%
%LPD*%
G01*
G04 APERTURE LIST*
G04 Aperture macros list*
%AMRoundRect*
0 Rectangle with rounded corners*
0 $1 Rounding radius*
0 $2 $3 $4 $5 $6 $7 $8 $9 X,Y pos of 4 corners*
0 Add a 4 corners polygon primitive as box body*
4,1,4,$2,$3,$4,$5,$6,$7,$8,$9,$2,$3,0*
0 Add four circle primitives for the rounded corners*
1,1,$1+$1,$2,$3*
1,1,$1+$1,$4,$5*
1,1,$1+$1,$6,$7*
1,1,$1+$1,$8,$9*
0 Add four rect primitives between the rounded corners*
20,1,$1+$1,$2,$3,$4,$5,0*
20,1,$1+$1,$4,$5,$6,$7,0*
20,1,$1+$1,$6,$7,$8,$9,0*
20,1,$1+$1,$8,$9,$2,$3,0*%
G04 Aperture macros list end*
%ADD10R,1.700000X1.700000*%
%ADD11O,1.700000X1.700000*%
%ADD12C,4.000000*%
%ADD13C,2.700000*%
%ADD14RoundRect,1.625000X-2.125000X-1.625000X2.125000X-1.625000X2.125000X1.625000X-2.125000X1.625000X0*%
%ADD15R,1.150000X1.450000*%
%ADD16R,1.200000X0.650000*%
%ADD17R,1.475000X0.450000*%
%ADD18R,1.370000X1.370000*%
%ADD19C,1.370000*%
%ADD20RoundRect,0.070000X-0.650000X-0.300000X0.650000X-0.300000X0.650000X0.300000X-0.650000X0.300000X0*%
%ADD21R,1.070003X0.600000*%
%ADD22C,1.524000*%
%ADD23R,2.513000X3.402000*%
%ADD24R,1.525000X0.700000*%
%ADD25C,2.000000*%
%ADD26RoundRect,0.140000X-0.140000X-0.170000X0.140000X-0.170000X0.140000X0.170000X-0.140000X0.170000X0*%
%ADD27RoundRect,0.140000X0.170000X-0.140000X0.170000X0.140000X-0.170000X0.140000X-0.170000X-0.140000X0*%
%ADD28RoundRect,0.140000X0.140000X0.170000X-0.140000X0.170000X-0.140000X-0.170000X0.140000X-0.170000X0*%
%ADD29RoundRect,0.250000X0.650000X-0.325000X0.650000X0.325000X-0.650000X0.325000X-0.650000X-0.325000X0*%
%ADD30R,1.350000X0.400000*%
%ADD31R,1.550000X1.200000*%
%ADD32O,0.950000X1.250000*%
%ADD33R,1.550000X1.500000*%
%ADD34O,1.550000X0.890000*%
%ADD35RoundRect,0.243750X-0.243750X-0.456250X0.243750X-0.456250X0.243750X0.456250X-0.243750X0.456250X0*%
%ADD36R,1.000000X1.500000*%
%ADD37R,1.500000X2.400000*%
%ADD38R,0.600000X0.400000*%
%ADD39RoundRect,0.150000X-0.512500X-0.150000X0.512500X-0.150000X0.512500X0.150000X-0.512500X0.150000X0*%
%ADD40RoundRect,0.135000X-0.135000X-0.185000X0.135000X-0.185000X0.135000X0.185000X-0.135000X0.185000X0*%
%ADD41RoundRect,0.200000X-0.200000X-0.275000X0.200000X-0.275000X0.200000X0.275000X-0.200000X0.275000X0*%
%ADD42RoundRect,0.250000X-0.262500X-0.450000X0.262500X-0.450000X0.262500X0.450000X-0.262500X0.450000X0*%
%ADD43O,1.600000X1.600000*%
%ADD44C,1.600000*%
%ADD45C,1.400000*%
G04 APERTURE END LIST*
D10*
%TO.C,J2*%
X151999999Y-82539999D03*
D11*
X151999999Y-79999999D03*
%TD*%
D12*
%TO.C,BT1*%
X129400000Y-71475000D03*
X184600000Y-55475000D03*
D13*
X192820000Y-71475000D03*
D14*
X196650000Y-63475000D03*
X117350000Y-63475000D03*
%TD*%
D15*
%TO.C,C5*%
X197999999Y-146999999D03*
X196199999Y-146999999D03*
%TD*%
D16*
%TO.C,IC1*%
X117961999Y-92954999D03*
X117961999Y-93904999D03*
X117961999Y-94854999D03*
X115461999Y-94854999D03*
X115461999Y-93904999D03*
X115461999Y-92954999D03*
%TD*%
D17*
%TO.C,Q1*%
X127649999Y-92929999D03*
X127649999Y-93579999D03*
X127649999Y-94229999D03*
X127649999Y-94879999D03*
X121773999Y-94879999D03*
X121773999Y-94229999D03*
X121773999Y-93579999D03*
X121773999Y-92929999D03*
%TD*%
D18*
%TO.C,J13*%
X163039999Y-95379999D03*
D19*
X160500000Y-95380000D03*
X163040000Y-97920000D03*
X160500000Y-97920000D03*
X163040000Y-100460000D03*
X160500000Y-100460000D03*
X163040000Y-103000000D03*
X160500000Y-103000000D03*
X163040000Y-105540000D03*
X160500000Y-105540000D03*
X163040000Y-108080000D03*
X160500000Y-108080000D03*
X163040000Y-110620000D03*
X160500000Y-110620000D03*
X163040000Y-113160000D03*
X160500000Y-113160000D03*
X163040000Y-115700000D03*
X160500000Y-115700000D03*
X163040000Y-118240000D03*
X160500000Y-118240000D03*
X163040000Y-120780000D03*
X160500000Y-120780000D03*
X163040000Y-123320000D03*
X160500000Y-123320000D03*
X163040000Y-125860000D03*
X160500000Y-125860000D03*
X163040000Y-128400000D03*
X160500000Y-128400000D03*
X163040000Y-130940000D03*
X160500000Y-130940000D03*
X163040000Y-133480000D03*
X160500000Y-133480000D03*
X163040000Y-136020000D03*
X160500000Y-136020000D03*
X163040000Y-138560000D03*
X160500000Y-138560000D03*
X163040000Y-141100000D03*
X160500000Y-141100000D03*
X163040000Y-143640000D03*
X160500000Y-143640000D03*
%TD*%
D18*
%TO.C,J12*%
X156539999Y-95379999D03*
D19*
X154000000Y-95380000D03*
X156540000Y-97920000D03*
X154000000Y-97920000D03*
X156540000Y-100460000D03*
X154000000Y-100460000D03*
X156540000Y-103000000D03*
X154000000Y-103000000D03*
X156540000Y-105540000D03*
X154000000Y-105540000D03*
X156540000Y-108080000D03*
X154000000Y-108080000D03*
X156540000Y-110620000D03*
X154000000Y-110620000D03*
X156540000Y-113160000D03*
X154000000Y-113160000D03*
X156540000Y-115700000D03*
X154000000Y-115700000D03*
X156540000Y-118240000D03*
X154000000Y-118240000D03*
X156540000Y-120780000D03*
X154000000Y-120780000D03*
X156540000Y-123320000D03*
X154000000Y-123320000D03*
X156540000Y-125860000D03*
X154000000Y-125860000D03*
X156540000Y-128400000D03*
X154000000Y-128400000D03*
X156540000Y-130940000D03*
X154000000Y-130940000D03*
X156540000Y-133480000D03*
X154000000Y-133480000D03*
X156540000Y-136020000D03*
X154000000Y-136020000D03*
X156540000Y-138560000D03*
X154000000Y-138560000D03*
X156540000Y-141100000D03*
X154000000Y-141100000D03*
X156540000Y-143640000D03*
X154000000Y-143640000D03*
%TD*%
D20*
%TO.C,U5*%
X207000000Y-148000000D03*
X204900000Y-148950000D03*
X204900000Y-147050000D03*
%TD*%
D21*
%TO.C,U1*%
X136235076Y-99999999D03*
X133764922Y-100949961D03*
X133764922Y-99050037D03*
%TD*%
D22*
%TO.C,U3*%
X125160000Y-142320000D03*
X122620000Y-142320000D03*
X120080000Y-142320000D03*
X117540000Y-142320000D03*
X115000000Y-142320000D03*
X122620000Y-122000000D03*
X120080000Y-122000000D03*
X117540000Y-122000000D03*
X115000000Y-122000000D03*
%TD*%
%TO.C,J9*%
X150490000Y-90000000D03*
X150490000Y-92540000D03*
X150490000Y-95080000D03*
X150490000Y-97620000D03*
X150490000Y-100160000D03*
X150490000Y-102700000D03*
X150490000Y-105240000D03*
X150490000Y-107780000D03*
X150490000Y-110320000D03*
X150490000Y-112860000D03*
X150490000Y-115400000D03*
X150490000Y-117940000D03*
X150490000Y-120480000D03*
X150490000Y-123020000D03*
X150490000Y-125560000D03*
X150490000Y-128100000D03*
X150490000Y-130640000D03*
X150490000Y-133180000D03*
X150490000Y-135720000D03*
X150490000Y-138260000D03*
X150490000Y-140800000D03*
X150490000Y-143340000D03*
X150490000Y-145880000D03*
X150490000Y-148420000D03*
X167000000Y-148420000D03*
X167000000Y-145880000D03*
X167000000Y-143340000D03*
X167000000Y-140800000D03*
X167000000Y-138260000D03*
X167000000Y-135720000D03*
X167000000Y-133180000D03*
X167000000Y-130640000D03*
X167000000Y-128100000D03*
X167000000Y-125560000D03*
X167000000Y-123020000D03*
X167000000Y-120480000D03*
X167000000Y-117940000D03*
X167000000Y-115400000D03*
X167000000Y-112860000D03*
X167000000Y-110320000D03*
X167000000Y-107780000D03*
X167000000Y-105240000D03*
X167000000Y-102700000D03*
X167000000Y-100160000D03*
X167000000Y-97620000D03*
X167000000Y-95080000D03*
X167000000Y-92540000D03*
X167000000Y-90000000D03*
%TD*%
D23*
%TO.C,J3*%
X124711999Y-102904999D03*
D24*
X127423999Y-100999999D03*
X127423999Y-102269999D03*
X127423999Y-103539999D03*
X127423999Y-104809999D03*
X121999999Y-104809999D03*
X121999999Y-103539999D03*
X121999999Y-102269999D03*
X121999999Y-100999999D03*
%TD*%
D25*
%TO.C,SW1*%
X144000000Y-119000000D03*
X137500000Y-119000000D03*
X144000000Y-123500000D03*
X137500000Y-123500000D03*
%TD*%
D26*
%TO.C,C3*%
X131792000Y-101185000D03*
X130832000Y-101185000D03*
%TD*%
%TO.C,C4*%
X131792000Y-103155000D03*
X130832000Y-103155000D03*
%TD*%
D27*
%TO.C,C6*%
X130712000Y-105945000D03*
X130712000Y-106905000D03*
%TD*%
D26*
%TO.C,C2*%
X131792000Y-99215000D03*
X130832000Y-99215000D03*
%TD*%
D28*
%TO.C,C1*%
X121712000Y-97905000D03*
X122672000Y-97905000D03*
%TD*%
D29*
%TO.C,C10*%
X180000000Y-96475000D03*
X180000000Y-93525000D03*
%TD*%
D10*
%TO.C,J19*%
X177999999Y-103999999D03*
D11*
X177999999Y-106539999D03*
%TD*%
D10*
%TO.C,J4*%
X132999999Y-86459999D03*
D11*
X132999999Y-88999999D03*
%TD*%
%TO.C,J5*%
X122999999Y-87999999D03*
D10*
X122999999Y-85459999D03*
%TD*%
%TO.C,J6*%
X136999999Y-106459999D03*
D11*
X136999999Y-108999999D03*
%TD*%
%TO.C,J7*%
X127999999Y-88539999D03*
D10*
X127999999Y-85999999D03*
%TD*%
D30*
%TO.C,J1*%
X111299999Y-132199999D03*
X111299999Y-131549999D03*
X111299999Y-130899999D03*
X111299999Y-130249999D03*
X111299999Y-129599999D03*
D31*
X113999999Y-133799999D03*
D32*
X111299999Y-128399999D03*
D33*
X113999999Y-129899999D03*
D34*
X113999999Y-127399999D03*
D31*
X113999999Y-127999999D03*
D32*
X111299999Y-133399999D03*
D33*
X113999999Y-131899999D03*
D34*
X113999999Y-134399999D03*
%TD*%
D35*
%TO.C,D1*%
X126937500Y-98000000D03*
X125062500Y-98000000D03*
%TD*%
D36*
%TO.C,JP2*%
X116299999Y-88549999D03*
X114999999Y-88549999D03*
X113699999Y-88549999D03*
%TD*%
%TO.C,JP1*%
X116299999Y-84999999D03*
X114999999Y-84999999D03*
X113699999Y-84999999D03*
%TD*%
D35*
%TO.C,D2*%
X120000000Y-116000000D03*
X118125000Y-116000000D03*
%TD*%
D37*
%TO.C,U2*%
X198549999Y-142059999D03*
D38*
X199949999Y-141109999D03*
X199949999Y-142059999D03*
X199949999Y-143009999D03*
X197149999Y-143009999D03*
X197149999Y-142059999D03*
X197149999Y-141109999D03*
%TD*%
D39*
%TO.C,U4*%
X172862500Y-94050000D03*
X172862500Y-95000000D03*
X172862500Y-95950000D03*
X175137500Y-95950000D03*
X175137500Y-94050000D03*
%TD*%
D40*
%TO.C,R2*%
X131510000Y-92000000D03*
X130490000Y-92000000D03*
%TD*%
D41*
%TO.C,R10*%
X169000000Y-96000000D03*
X170650000Y-96000000D03*
%TD*%
%TO.C,R11*%
X170175000Y-90000000D03*
X171825000Y-90000000D03*
%TD*%
D42*
%TO.C,R9*%
X170087500Y-100000000D03*
X171912500Y-100000000D03*
%TD*%
%TO.C,R8*%
X193532500Y-145140000D03*
X191707500Y-145140000D03*
%TD*%
%TO.C,R7*%
X193532500Y-142190000D03*
X191707500Y-142190000D03*
%TD*%
D43*
%TO.C,R1*%
X131791999Y-109904999D03*
D44*
X121632000Y-109905000D03*
%TD*%
D43*
%TO.C,R5*%
X118791999Y-106004999D03*
D44*
X113712000Y-106005000D03*
%TD*%
D43*
%TO.C,R6*%
X118791999Y-110054999D03*
D44*
X113712000Y-110055000D03*
%TD*%
D43*
%TO.C,R3*%
X118791999Y-97904999D03*
D44*
X113712000Y-97905000D03*
%TD*%
D43*
%TO.C,R4*%
X118791999Y-101954999D03*
D44*
X113712000Y-101955000D03*
%TD*%
D45*
%TO.C,TP1*%
X136540000Y-142000000D03*
X134000000Y-142000000D03*
%TD*%
%TO.C,TP2*%
X174540000Y-84000000D03*
X172000000Y-84000000D03*
%TD*%
%TO.C,TP3*%
X122540000Y-81000000D03*
X120000000Y-81000000D03*
%TD*%
M02*
