%TF.GenerationSoftware,KiCad,Pcbnew,(7.0.0)*%
%TF.CreationDate,2023-03-20T21:56:33+02:00*%
%TF.ProjectId,overall scematic,6f766572-616c-46c2-9073-63656d617469,rev?*%
%TF.SameCoordinates,Original*%
%TF.FileFunction,Drillmap*%
%TF.FilePolarity,Positive*%
%FSLAX45Y45*%
G04 Gerber Fmt 4.5, Leading zero omitted, Abs format (unit mm)*
G04 Created by KiCad (PCBNEW (7.0.0)) date 2023-03-20 21:56:33*
%MOMM*%
%LPD*%
G01*
G04 APERTURE LIST*
%ADD10C,0.200000*%
%ADD11C,0.040000*%
%ADD12C,0.050000*%
%ADD13C,0.055000*%
%ADD14C,0.080000*%
%ADD15C,0.100000*%
%ADD16C,0.102000*%
G04 APERTURE END LIST*
D10*
D11*
X8069900Y-5237800D02*
X8109900Y-5277800D01*
X8109900Y-5237800D02*
X8069900Y-5277800D01*
X8527100Y-5796600D02*
X8567100Y-5836600D01*
X8567100Y-5796600D02*
X8527100Y-5836600D01*
X9517700Y-5021900D02*
X9557700Y-5061900D01*
X9557700Y-5021900D02*
X9517700Y-5061900D01*
X10825800Y-5517200D02*
X10865800Y-5557200D01*
X10865800Y-5517200D02*
X10825800Y-5557200D01*
X10902000Y-6342700D02*
X10942000Y-6382700D01*
X10942000Y-6342700D02*
X10902000Y-6382700D01*
X11498900Y-6571300D02*
X11538900Y-6611300D01*
X11538900Y-6571300D02*
X11498900Y-6611300D01*
X12883200Y-5949000D02*
X12923200Y-5989000D01*
X12923200Y-5949000D02*
X12883200Y-5989000D01*
X13442000Y-5822000D02*
X13482000Y-5862000D01*
X13482000Y-5822000D02*
X13442000Y-5862000D01*
X13683300Y-5872800D02*
X13723300Y-5912800D01*
X13723300Y-5872800D02*
X13683300Y-5912800D01*
D12*
X7566000Y-4035000D02*
G75*
G03*
X7566000Y-4035000I-25000J0D01*
G01*
D10*
X7566000Y-4067500D02*
X7566000Y-4002500D01*
X7566000Y-4002500D02*
G75*
G03*
X7516000Y-4002500I-25000J0D01*
G01*
X7516000Y-4002500D02*
X7516000Y-4067500D01*
X7516000Y-4067500D02*
G75*
G03*
X7566000Y-4067500I25000J0D01*
G01*
D12*
X8266000Y-4035000D02*
G75*
G03*
X8266000Y-4035000I-25000J0D01*
G01*
D10*
X8266000Y-4067500D02*
X8266000Y-4002500D01*
X8266000Y-4002500D02*
G75*
G03*
X8216000Y-4002500I-25000J0D01*
G01*
X8216000Y-4002500D02*
X8216000Y-4067500D01*
X8216000Y-4067500D02*
G75*
G03*
X8266000Y-4067500I25000J0D01*
G01*
D13*
X7641000Y-4277500D02*
X7641000Y-4332500D01*
X7613500Y-4305000D02*
X7668500Y-4305000D01*
D10*
X7656000Y-4277500D02*
X7626000Y-4277500D01*
X7626000Y-4277500D02*
G75*
G03*
X7626000Y-4332500I0J-27500D01*
G01*
X7626000Y-4332500D02*
X7656000Y-4332500D01*
X7656000Y-4332500D02*
G75*
G03*
X7656000Y-4277500I0J27500D01*
G01*
D13*
X8141000Y-4277500D02*
X8141000Y-4332500D01*
X8113500Y-4305000D02*
X8168500Y-4305000D01*
D10*
X8156000Y-4277500D02*
X8126000Y-4277500D01*
X8126000Y-4277500D02*
G75*
G03*
X8126000Y-4332500I0J-27500D01*
G01*
X8126000Y-4332500D02*
X8156000Y-4332500D01*
X8156000Y-4332500D02*
G75*
G03*
X8156000Y-4277500I0J27500D01*
G01*
D14*
X10037285Y-5362285D02*
X10037285Y-5305716D01*
X9980716Y-5305716D01*
X9980716Y-5362285D01*
X10037285Y-5362285D01*
X10037285Y-6378284D02*
X10037285Y-6321715D01*
X9980716Y-6321715D01*
X9980716Y-6378284D01*
X10037285Y-6378284D01*
X10442285Y-5362285D02*
X10442285Y-5305716D01*
X10385716Y-5305716D01*
X10385716Y-5362285D01*
X10442285Y-5362285D01*
X10442285Y-6378284D02*
X10442285Y-6321715D01*
X10385716Y-6321715D01*
X10385716Y-6378284D01*
X10442285Y-6378284D01*
X11458284Y-5362285D02*
X11458284Y-5305716D01*
X11401715Y-5305716D01*
X11401715Y-5362285D01*
X11458284Y-5362285D01*
X11458284Y-6378284D02*
X11458284Y-6321715D01*
X11401715Y-6321715D01*
X11401715Y-6378284D01*
X11458284Y-6378284D01*
X11712284Y-8156284D02*
X11712284Y-8099715D01*
X11655715Y-8099715D01*
X11655715Y-8156284D01*
X11712284Y-8156284D01*
X11966284Y-5870284D02*
X11966284Y-5813715D01*
X11909715Y-5813715D01*
X11909715Y-5870284D01*
X11966284Y-5870284D01*
X11966284Y-6886284D02*
X11966284Y-6829715D01*
X11909715Y-6829715D01*
X11909715Y-6886284D01*
X11966284Y-6886284D01*
X12728284Y-8156284D02*
X12728284Y-8099715D01*
X12671715Y-8099715D01*
X12671715Y-8156284D01*
X12728284Y-8156284D01*
D15*
X7948500Y-4723000D02*
X7998500Y-4673000D01*
X7948500Y-4623000D01*
X7898500Y-4673000D01*
X7948500Y-4723000D01*
X7948500Y-4977000D02*
X7998500Y-4927000D01*
X7948500Y-4877000D01*
X7898500Y-4927000D01*
X7948500Y-4977000D01*
X7948500Y-6374500D02*
X7998500Y-6324500D01*
X7948500Y-6274500D01*
X7898500Y-6324500D01*
X7948500Y-6374500D01*
X7948500Y-6628500D02*
X7998500Y-6578500D01*
X7948500Y-6528500D01*
X7898500Y-6578500D01*
X7948500Y-6628500D01*
X8561500Y-4268500D02*
X8611500Y-4218500D01*
X8561500Y-4168500D01*
X8511500Y-4218500D01*
X8561500Y-4268500D01*
X8815500Y-4268500D02*
X8865500Y-4218500D01*
X8815500Y-4168500D01*
X8765500Y-4218500D01*
X8815500Y-4268500D01*
X9271500Y-5454500D02*
X9321500Y-5404500D01*
X9271500Y-5354500D01*
X9221500Y-5404500D01*
X9271500Y-5454500D01*
X9525500Y-5454500D02*
X9575500Y-5404500D01*
X9525500Y-5354500D01*
X9475500Y-5404500D01*
X9525500Y-5454500D01*
X11938000Y-5130000D02*
X11988000Y-5080000D01*
X11938000Y-5030000D01*
X11888000Y-5080000D01*
X11938000Y-5130000D01*
X11938000Y-5384000D02*
X11988000Y-5334000D01*
X11938000Y-5284000D01*
X11888000Y-5334000D01*
X11938000Y-5384000D01*
X12446000Y-5384000D02*
X12496000Y-5334000D01*
X12446000Y-5284000D01*
X12396000Y-5334000D01*
X12446000Y-5384000D01*
X12446000Y-5638000D02*
X12496000Y-5588000D01*
X12446000Y-5538000D01*
X12396000Y-5588000D01*
X12446000Y-5638000D01*
D16*
X6807000Y-3251000D02*
X6909000Y-3353000D01*
X6909000Y-3251000D02*
X6807000Y-3353000D01*
X6909000Y-3302000D02*
G75*
G03*
X6909000Y-3302000I-51000J0D01*
G01*
X6807000Y-3505000D02*
X6909000Y-3607000D01*
X6909000Y-3505000D02*
X6807000Y-3607000D01*
X6909000Y-3556000D02*
G75*
G03*
X6909000Y-3556000I-51000J0D01*
G01*
X6807000Y-3759000D02*
X6909000Y-3861000D01*
X6909000Y-3759000D02*
X6807000Y-3861000D01*
X6909000Y-3810000D02*
G75*
G03*
X6909000Y-3810000I-51000J0D01*
G01*
X6807000Y-4013000D02*
X6909000Y-4115000D01*
X6909000Y-4013000D02*
X6807000Y-4115000D01*
X6909000Y-4064000D02*
G75*
G03*
X6909000Y-4064000I-51000J0D01*
G01*
X6807000Y-4267000D02*
X6909000Y-4369000D01*
X6909000Y-4267000D02*
X6807000Y-4369000D01*
X6909000Y-4318000D02*
G75*
G03*
X6909000Y-4318000I-51000J0D01*
G01*
X6807000Y-4521000D02*
X6909000Y-4623000D01*
X6909000Y-4521000D02*
X6807000Y-4623000D01*
X6909000Y-4572000D02*
G75*
G03*
X6909000Y-4572000I-51000J0D01*
G01*
X6807000Y-4775000D02*
X6909000Y-4877000D01*
X6909000Y-4775000D02*
X6807000Y-4877000D01*
X6909000Y-4826000D02*
G75*
G03*
X6909000Y-4826000I-51000J0D01*
G01*
X6807000Y-5029000D02*
X6909000Y-5131000D01*
X6909000Y-5029000D02*
X6807000Y-5131000D01*
X6909000Y-5080000D02*
G75*
G03*
X6909000Y-5080000I-51000J0D01*
G01*
X6807000Y-5283000D02*
X6909000Y-5385000D01*
X6909000Y-5283000D02*
X6807000Y-5385000D01*
X6909000Y-5334000D02*
G75*
G03*
X6909000Y-5334000I-51000J0D01*
G01*
X6807000Y-5537000D02*
X6909000Y-5639000D01*
X6909000Y-5537000D02*
X6807000Y-5639000D01*
X6909000Y-5588000D02*
G75*
G03*
X6909000Y-5588000I-51000J0D01*
G01*
X6807000Y-5791000D02*
X6909000Y-5893000D01*
X6909000Y-5791000D02*
X6807000Y-5893000D01*
X6909000Y-5842000D02*
G75*
G03*
X6909000Y-5842000I-51000J0D01*
G01*
X6807000Y-6045000D02*
X6909000Y-6147000D01*
X6909000Y-6045000D02*
X6807000Y-6147000D01*
X6909000Y-6096000D02*
G75*
G03*
X6909000Y-6096000I-51000J0D01*
G01*
X6807000Y-6299000D02*
X6909000Y-6401000D01*
X6909000Y-6299000D02*
X6807000Y-6401000D01*
X6909000Y-6350000D02*
G75*
G03*
X6909000Y-6350000I-51000J0D01*
G01*
X6807000Y-6553000D02*
X6909000Y-6655000D01*
X6909000Y-6553000D02*
X6807000Y-6655000D01*
X6909000Y-6604000D02*
G75*
G03*
X6909000Y-6604000I-51000J0D01*
G01*
X6807000Y-6807000D02*
X6909000Y-6909000D01*
X6909000Y-6807000D02*
X6807000Y-6909000D01*
X6909000Y-6858000D02*
G75*
G03*
X6909000Y-6858000I-51000J0D01*
G01*
X6807000Y-7061000D02*
X6909000Y-7163000D01*
X6909000Y-7061000D02*
X6807000Y-7163000D01*
X6909000Y-7112000D02*
G75*
G03*
X6909000Y-7112000I-51000J0D01*
G01*
X6807000Y-7315000D02*
X6909000Y-7417000D01*
X6909000Y-7315000D02*
X6807000Y-7417000D01*
X6909000Y-7366000D02*
G75*
G03*
X6909000Y-7366000I-51000J0D01*
G01*
X6807000Y-7569000D02*
X6909000Y-7671000D01*
X6909000Y-7569000D02*
X6807000Y-7671000D01*
X6909000Y-7620000D02*
G75*
G03*
X6909000Y-7620000I-51000J0D01*
G01*
X6807000Y-7823000D02*
X6909000Y-7925000D01*
X6909000Y-7823000D02*
X6807000Y-7925000D01*
X6909000Y-7874000D02*
G75*
G03*
X6909000Y-7874000I-51000J0D01*
G01*
X6807000Y-8077000D02*
X6909000Y-8179000D01*
X6909000Y-8077000D02*
X6807000Y-8179000D01*
X6909000Y-8128000D02*
G75*
G03*
X6909000Y-8128000I-51000J0D01*
G01*
X7061000Y-3251000D02*
X7163000Y-3353000D01*
X7163000Y-3251000D02*
X7061000Y-3353000D01*
X7163000Y-3302000D02*
G75*
G03*
X7163000Y-3302000I-51000J0D01*
G01*
X7061000Y-3505000D02*
X7163000Y-3607000D01*
X7163000Y-3505000D02*
X7061000Y-3607000D01*
X7163000Y-3556000D02*
G75*
G03*
X7163000Y-3556000I-51000J0D01*
G01*
X7061000Y-3759000D02*
X7163000Y-3861000D01*
X7163000Y-3759000D02*
X7061000Y-3861000D01*
X7163000Y-3810000D02*
G75*
G03*
X7163000Y-3810000I-51000J0D01*
G01*
X7061000Y-4013000D02*
X7163000Y-4115000D01*
X7163000Y-4013000D02*
X7061000Y-4115000D01*
X7163000Y-4064000D02*
G75*
G03*
X7163000Y-4064000I-51000J0D01*
G01*
X7061000Y-4267000D02*
X7163000Y-4369000D01*
X7163000Y-4267000D02*
X7061000Y-4369000D01*
X7163000Y-4318000D02*
G75*
G03*
X7163000Y-4318000I-51000J0D01*
G01*
X7061000Y-4521000D02*
X7163000Y-4623000D01*
X7163000Y-4521000D02*
X7061000Y-4623000D01*
X7163000Y-4572000D02*
G75*
G03*
X7163000Y-4572000I-51000J0D01*
G01*
X7061000Y-4775000D02*
X7163000Y-4877000D01*
X7163000Y-4775000D02*
X7061000Y-4877000D01*
X7163000Y-4826000D02*
G75*
G03*
X7163000Y-4826000I-51000J0D01*
G01*
X7061000Y-5029000D02*
X7163000Y-5131000D01*
X7163000Y-5029000D02*
X7061000Y-5131000D01*
X7163000Y-5080000D02*
G75*
G03*
X7163000Y-5080000I-51000J0D01*
G01*
X7061000Y-5283000D02*
X7163000Y-5385000D01*
X7163000Y-5283000D02*
X7061000Y-5385000D01*
X7163000Y-5334000D02*
G75*
G03*
X7163000Y-5334000I-51000J0D01*
G01*
X7061000Y-5537000D02*
X7163000Y-5639000D01*
X7163000Y-5537000D02*
X7061000Y-5639000D01*
X7163000Y-5588000D02*
G75*
G03*
X7163000Y-5588000I-51000J0D01*
G01*
X7061000Y-5791000D02*
X7163000Y-5893000D01*
X7163000Y-5791000D02*
X7061000Y-5893000D01*
X7163000Y-5842000D02*
G75*
G03*
X7163000Y-5842000I-51000J0D01*
G01*
X7061000Y-6045000D02*
X7163000Y-6147000D01*
X7163000Y-6045000D02*
X7061000Y-6147000D01*
X7163000Y-6096000D02*
G75*
G03*
X7163000Y-6096000I-51000J0D01*
G01*
X7061000Y-6299000D02*
X7163000Y-6401000D01*
X7163000Y-6299000D02*
X7061000Y-6401000D01*
X7163000Y-6350000D02*
G75*
G03*
X7163000Y-6350000I-51000J0D01*
G01*
X7061000Y-6553000D02*
X7163000Y-6655000D01*
X7163000Y-6553000D02*
X7061000Y-6655000D01*
X7163000Y-6604000D02*
G75*
G03*
X7163000Y-6604000I-51000J0D01*
G01*
X7061000Y-6807000D02*
X7163000Y-6909000D01*
X7163000Y-6807000D02*
X7061000Y-6909000D01*
X7163000Y-6858000D02*
G75*
G03*
X7163000Y-6858000I-51000J0D01*
G01*
X7061000Y-7061000D02*
X7163000Y-7163000D01*
X7163000Y-7061000D02*
X7061000Y-7163000D01*
X7163000Y-7112000D02*
G75*
G03*
X7163000Y-7112000I-51000J0D01*
G01*
X7061000Y-7315000D02*
X7163000Y-7417000D01*
X7163000Y-7315000D02*
X7061000Y-7417000D01*
X7163000Y-7366000D02*
G75*
G03*
X7163000Y-7366000I-51000J0D01*
G01*
X7061000Y-7569000D02*
X7163000Y-7671000D01*
X7163000Y-7569000D02*
X7061000Y-7671000D01*
X7163000Y-7620000D02*
G75*
G03*
X7163000Y-7620000I-51000J0D01*
G01*
X7061000Y-7823000D02*
X7163000Y-7925000D01*
X7163000Y-7823000D02*
X7061000Y-7925000D01*
X7163000Y-7874000D02*
G75*
G03*
X7163000Y-7874000I-51000J0D01*
G01*
X7061000Y-8077000D02*
X7163000Y-8179000D01*
X7163000Y-8077000D02*
X7061000Y-8179000D01*
X7163000Y-8128000D02*
G75*
G03*
X7163000Y-8128000I-51000J0D01*
G01*
X9403000Y-3759000D02*
X9505000Y-3861000D01*
X9505000Y-3759000D02*
X9403000Y-3861000D01*
X9505000Y-3810000D02*
G75*
G03*
X9505000Y-3810000I-51000J0D01*
G01*
X13873000Y-3759000D02*
X13975000Y-3861000D01*
X13975000Y-3759000D02*
X13873000Y-3861000D01*
X13975000Y-3810000D02*
G75*
G03*
X13975000Y-3810000I-51000J0D01*
G01*
X14427000Y-3251000D02*
X14529000Y-3353000D01*
X14529000Y-3251000D02*
X14427000Y-3353000D01*
X14529000Y-3302000D02*
G75*
G03*
X14529000Y-3302000I-51000J0D01*
G01*
X14427000Y-3505000D02*
X14529000Y-3607000D01*
X14529000Y-3505000D02*
X14427000Y-3607000D01*
X14529000Y-3556000D02*
G75*
G03*
X14529000Y-3556000I-51000J0D01*
G01*
X14427000Y-3759000D02*
X14529000Y-3861000D01*
X14529000Y-3759000D02*
X14427000Y-3861000D01*
X14529000Y-3810000D02*
G75*
G03*
X14529000Y-3810000I-51000J0D01*
G01*
X14427000Y-4013000D02*
X14529000Y-4115000D01*
X14529000Y-4013000D02*
X14427000Y-4115000D01*
X14529000Y-4064000D02*
G75*
G03*
X14529000Y-4064000I-51000J0D01*
G01*
X14427000Y-4267000D02*
X14529000Y-4369000D01*
X14529000Y-4267000D02*
X14427000Y-4369000D01*
X14529000Y-4318000D02*
G75*
G03*
X14529000Y-4318000I-51000J0D01*
G01*
X14427000Y-4521000D02*
X14529000Y-4623000D01*
X14529000Y-4521000D02*
X14427000Y-4623000D01*
X14529000Y-4572000D02*
G75*
G03*
X14529000Y-4572000I-51000J0D01*
G01*
X14427000Y-4775000D02*
X14529000Y-4877000D01*
X14529000Y-4775000D02*
X14427000Y-4877000D01*
X14529000Y-4826000D02*
G75*
G03*
X14529000Y-4826000I-51000J0D01*
G01*
X14427000Y-5029000D02*
X14529000Y-5131000D01*
X14529000Y-5029000D02*
X14427000Y-5131000D01*
X14529000Y-5080000D02*
G75*
G03*
X14529000Y-5080000I-51000J0D01*
G01*
X14427000Y-5283000D02*
X14529000Y-5385000D01*
X14529000Y-5283000D02*
X14427000Y-5385000D01*
X14529000Y-5334000D02*
G75*
G03*
X14529000Y-5334000I-51000J0D01*
G01*
X14427000Y-5537000D02*
X14529000Y-5639000D01*
X14529000Y-5537000D02*
X14427000Y-5639000D01*
X14529000Y-5588000D02*
G75*
G03*
X14529000Y-5588000I-51000J0D01*
G01*
X14427000Y-5791000D02*
X14529000Y-5893000D01*
X14529000Y-5791000D02*
X14427000Y-5893000D01*
X14529000Y-5842000D02*
G75*
G03*
X14529000Y-5842000I-51000J0D01*
G01*
X14427000Y-6045000D02*
X14529000Y-6147000D01*
X14529000Y-6045000D02*
X14427000Y-6147000D01*
X14529000Y-6096000D02*
G75*
G03*
X14529000Y-6096000I-51000J0D01*
G01*
X14427000Y-6299000D02*
X14529000Y-6401000D01*
X14529000Y-6299000D02*
X14427000Y-6401000D01*
X14529000Y-6350000D02*
G75*
G03*
X14529000Y-6350000I-51000J0D01*
G01*
X14427000Y-6553000D02*
X14529000Y-6655000D01*
X14529000Y-6553000D02*
X14427000Y-6655000D01*
X14529000Y-6604000D02*
G75*
G03*
X14529000Y-6604000I-51000J0D01*
G01*
X14427000Y-6807000D02*
X14529000Y-6909000D01*
X14529000Y-6807000D02*
X14427000Y-6909000D01*
X14529000Y-6858000D02*
G75*
G03*
X14529000Y-6858000I-51000J0D01*
G01*
X14427000Y-7061000D02*
X14529000Y-7163000D01*
X14529000Y-7061000D02*
X14427000Y-7163000D01*
X14529000Y-7112000D02*
G75*
G03*
X14529000Y-7112000I-51000J0D01*
G01*
X14427000Y-7315000D02*
X14529000Y-7417000D01*
X14529000Y-7315000D02*
X14427000Y-7417000D01*
X14529000Y-7366000D02*
G75*
G03*
X14529000Y-7366000I-51000J0D01*
G01*
X14427000Y-7569000D02*
X14529000Y-7671000D01*
X14529000Y-7569000D02*
X14427000Y-7671000D01*
X14529000Y-7620000D02*
G75*
G03*
X14529000Y-7620000I-51000J0D01*
G01*
X14427000Y-7823000D02*
X14529000Y-7925000D01*
X14529000Y-7823000D02*
X14427000Y-7925000D01*
X14529000Y-7874000D02*
G75*
G03*
X14529000Y-7874000I-51000J0D01*
G01*
X14427000Y-8077000D02*
X14529000Y-8179000D01*
X14529000Y-8077000D02*
X14427000Y-8179000D01*
X14529000Y-8128000D02*
G75*
G03*
X14529000Y-8128000I-51000J0D01*
G01*
X14681000Y-3251000D02*
X14783000Y-3353000D01*
X14783000Y-3251000D02*
X14681000Y-3353000D01*
X14783000Y-3302000D02*
G75*
G03*
X14783000Y-3302000I-51000J0D01*
G01*
X14681000Y-3505000D02*
X14783000Y-3607000D01*
X14783000Y-3505000D02*
X14681000Y-3607000D01*
X14783000Y-3556000D02*
G75*
G03*
X14783000Y-3556000I-51000J0D01*
G01*
X14681000Y-3759000D02*
X14783000Y-3861000D01*
X14783000Y-3759000D02*
X14681000Y-3861000D01*
X14783000Y-3810000D02*
G75*
G03*
X14783000Y-3810000I-51000J0D01*
G01*
X14681000Y-4013000D02*
X14783000Y-4115000D01*
X14783000Y-4013000D02*
X14681000Y-4115000D01*
X14783000Y-4064000D02*
G75*
G03*
X14783000Y-4064000I-51000J0D01*
G01*
X14681000Y-4267000D02*
X14783000Y-4369000D01*
X14783000Y-4267000D02*
X14681000Y-4369000D01*
X14783000Y-4318000D02*
G75*
G03*
X14783000Y-4318000I-51000J0D01*
G01*
X14681000Y-4521000D02*
X14783000Y-4623000D01*
X14783000Y-4521000D02*
X14681000Y-4623000D01*
X14783000Y-4572000D02*
G75*
G03*
X14783000Y-4572000I-51000J0D01*
G01*
X14681000Y-4775000D02*
X14783000Y-4877000D01*
X14783000Y-4775000D02*
X14681000Y-4877000D01*
X14783000Y-4826000D02*
G75*
G03*
X14783000Y-4826000I-51000J0D01*
G01*
X14681000Y-5029000D02*
X14783000Y-5131000D01*
X14783000Y-5029000D02*
X14681000Y-5131000D01*
X14783000Y-5080000D02*
G75*
G03*
X14783000Y-5080000I-51000J0D01*
G01*
X14681000Y-5283000D02*
X14783000Y-5385000D01*
X14783000Y-5283000D02*
X14681000Y-5385000D01*
X14783000Y-5334000D02*
G75*
G03*
X14783000Y-5334000I-51000J0D01*
G01*
X14681000Y-5537000D02*
X14783000Y-5639000D01*
X14783000Y-5537000D02*
X14681000Y-5639000D01*
X14783000Y-5588000D02*
G75*
G03*
X14783000Y-5588000I-51000J0D01*
G01*
X14681000Y-5791000D02*
X14783000Y-5893000D01*
X14783000Y-5791000D02*
X14681000Y-5893000D01*
X14783000Y-5842000D02*
G75*
G03*
X14783000Y-5842000I-51000J0D01*
G01*
X14681000Y-6045000D02*
X14783000Y-6147000D01*
X14783000Y-6045000D02*
X14681000Y-6147000D01*
X14783000Y-6096000D02*
G75*
G03*
X14783000Y-6096000I-51000J0D01*
G01*
X14681000Y-6299000D02*
X14783000Y-6401000D01*
X14783000Y-6299000D02*
X14681000Y-6401000D01*
X14783000Y-6350000D02*
G75*
G03*
X14783000Y-6350000I-51000J0D01*
G01*
X14681000Y-6553000D02*
X14783000Y-6655000D01*
X14783000Y-6553000D02*
X14681000Y-6655000D01*
X14783000Y-6604000D02*
G75*
G03*
X14783000Y-6604000I-51000J0D01*
G01*
X14681000Y-6807000D02*
X14783000Y-6909000D01*
X14783000Y-6807000D02*
X14681000Y-6909000D01*
X14783000Y-6858000D02*
G75*
G03*
X14783000Y-6858000I-51000J0D01*
G01*
X14681000Y-7061000D02*
X14783000Y-7163000D01*
X14783000Y-7061000D02*
X14681000Y-7163000D01*
X14783000Y-7112000D02*
G75*
G03*
X14783000Y-7112000I-51000J0D01*
G01*
X14681000Y-7315000D02*
X14783000Y-7417000D01*
X14783000Y-7315000D02*
X14681000Y-7417000D01*
X14783000Y-7366000D02*
G75*
G03*
X14783000Y-7366000I-51000J0D01*
G01*
X14681000Y-7569000D02*
X14783000Y-7671000D01*
X14783000Y-7569000D02*
X14681000Y-7671000D01*
X14783000Y-7620000D02*
G75*
G03*
X14783000Y-7620000I-51000J0D01*
G01*
X14681000Y-7823000D02*
X14783000Y-7925000D01*
X14783000Y-7823000D02*
X14681000Y-7925000D01*
X14783000Y-7874000D02*
G75*
G03*
X14783000Y-7874000I-51000J0D01*
G01*
X14681000Y-8077000D02*
X14783000Y-8179000D01*
X14783000Y-8077000D02*
X14681000Y-8179000D01*
X14783000Y-8128000D02*
G75*
G03*
X14783000Y-8128000I-51000J0D01*
G01*
D10*
X247619Y-293476D02*
X247619Y-93476D01*
X247619Y-93476D02*
X295238Y-93476D01*
X295238Y-93476D02*
X323810Y-103000D01*
X323810Y-103000D02*
X342857Y-122048D01*
X342857Y-122048D02*
X352381Y-141095D01*
X352381Y-141095D02*
X361905Y-179190D01*
X361905Y-179190D02*
X361905Y-207762D01*
X361905Y-207762D02*
X352381Y-245857D01*
X352381Y-245857D02*
X342857Y-264905D01*
X342857Y-264905D02*
X323810Y-283952D01*
X323810Y-283952D02*
X295238Y-293476D01*
X295238Y-293476D02*
X247619Y-293476D01*
X447619Y-293476D02*
X447619Y-160143D01*
X447619Y-198238D02*
X457143Y-179190D01*
X457143Y-179190D02*
X466667Y-169667D01*
X466667Y-169667D02*
X485714Y-160143D01*
X485714Y-160143D02*
X504762Y-160143D01*
X571429Y-293476D02*
X571429Y-160143D01*
X571429Y-93476D02*
X561905Y-103000D01*
X561905Y-103000D02*
X571429Y-112524D01*
X571429Y-112524D02*
X580952Y-103000D01*
X580952Y-103000D02*
X571429Y-93476D01*
X571429Y-93476D02*
X571429Y-112524D01*
X695238Y-293476D02*
X676190Y-283952D01*
X676190Y-283952D02*
X666667Y-264905D01*
X666667Y-264905D02*
X666667Y-93476D01*
X800000Y-293476D02*
X780952Y-283952D01*
X780952Y-283952D02*
X771428Y-264905D01*
X771428Y-264905D02*
X771428Y-93476D01*
X996190Y-293476D02*
X996190Y-93476D01*
X996190Y-93476D02*
X1062857Y-236333D01*
X1062857Y-236333D02*
X1129524Y-93476D01*
X1129524Y-93476D02*
X1129524Y-293476D01*
X1310476Y-293476D02*
X1310476Y-188714D01*
X1310476Y-188714D02*
X1300952Y-169667D01*
X1300952Y-169667D02*
X1281905Y-160143D01*
X1281905Y-160143D02*
X1243809Y-160143D01*
X1243809Y-160143D02*
X1224762Y-169667D01*
X1310476Y-283952D02*
X1291429Y-293476D01*
X1291429Y-293476D02*
X1243809Y-293476D01*
X1243809Y-293476D02*
X1224762Y-283952D01*
X1224762Y-283952D02*
X1215238Y-264905D01*
X1215238Y-264905D02*
X1215238Y-245857D01*
X1215238Y-245857D02*
X1224762Y-226809D01*
X1224762Y-226809D02*
X1243809Y-217286D01*
X1243809Y-217286D02*
X1291429Y-217286D01*
X1291429Y-217286D02*
X1310476Y-207762D01*
X1405714Y-160143D02*
X1405714Y-360143D01*
X1405714Y-169667D02*
X1424762Y-160143D01*
X1424762Y-160143D02*
X1462857Y-160143D01*
X1462857Y-160143D02*
X1481905Y-169667D01*
X1481905Y-169667D02*
X1491428Y-179190D01*
X1491428Y-179190D02*
X1500952Y-198238D01*
X1500952Y-198238D02*
X1500952Y-255381D01*
X1500952Y-255381D02*
X1491428Y-274429D01*
X1491428Y-274429D02*
X1481905Y-283952D01*
X1481905Y-283952D02*
X1462857Y-293476D01*
X1462857Y-293476D02*
X1424762Y-293476D01*
X1424762Y-293476D02*
X1405714Y-283952D01*
X1586667Y-274429D02*
X1596190Y-283952D01*
X1596190Y-283952D02*
X1586667Y-293476D01*
X1586667Y-293476D02*
X1577143Y-283952D01*
X1577143Y-283952D02*
X1586667Y-274429D01*
X1586667Y-274429D02*
X1586667Y-293476D01*
X1586667Y-169667D02*
X1596190Y-179190D01*
X1596190Y-179190D02*
X1586667Y-188714D01*
X1586667Y-188714D02*
X1577143Y-179190D01*
X1577143Y-179190D02*
X1586667Y-169667D01*
X1586667Y-169667D02*
X1586667Y-188714D01*
D11*
X-40000Y-620000D02*
X0Y-660000D01*
X0Y-620000D02*
X-40000Y-660000D01*
D10*
X285714Y-513476D02*
X304762Y-513476D01*
X304762Y-513476D02*
X323810Y-523000D01*
X323810Y-523000D02*
X333333Y-532524D01*
X333333Y-532524D02*
X342857Y-551571D01*
X342857Y-551571D02*
X352381Y-589667D01*
X352381Y-589667D02*
X352381Y-637286D01*
X352381Y-637286D02*
X342857Y-675381D01*
X342857Y-675381D02*
X333333Y-694429D01*
X333333Y-694429D02*
X323810Y-703952D01*
X323810Y-703952D02*
X304762Y-713476D01*
X304762Y-713476D02*
X285714Y-713476D01*
X285714Y-713476D02*
X266667Y-703952D01*
X266667Y-703952D02*
X257143Y-694429D01*
X257143Y-694429D02*
X247619Y-675381D01*
X247619Y-675381D02*
X238095Y-637286D01*
X238095Y-637286D02*
X238095Y-589667D01*
X238095Y-589667D02*
X247619Y-551571D01*
X247619Y-551571D02*
X257143Y-532524D01*
X257143Y-532524D02*
X266667Y-523000D01*
X266667Y-523000D02*
X285714Y-513476D01*
X438095Y-694429D02*
X447619Y-703952D01*
X447619Y-703952D02*
X438095Y-713476D01*
X438095Y-713476D02*
X428571Y-703952D01*
X428571Y-703952D02*
X438095Y-694429D01*
X438095Y-694429D02*
X438095Y-713476D01*
X619048Y-580143D02*
X619048Y-713476D01*
X571429Y-503952D02*
X523809Y-646810D01*
X523809Y-646810D02*
X647619Y-646810D01*
X761905Y-513476D02*
X780952Y-513476D01*
X780952Y-513476D02*
X800000Y-523000D01*
X800000Y-523000D02*
X809524Y-532524D01*
X809524Y-532524D02*
X819048Y-551571D01*
X819048Y-551571D02*
X828571Y-589667D01*
X828571Y-589667D02*
X828571Y-637286D01*
X828571Y-637286D02*
X819048Y-675381D01*
X819048Y-675381D02*
X809524Y-694429D01*
X809524Y-694429D02*
X800000Y-703952D01*
X800000Y-703952D02*
X780952Y-713476D01*
X780952Y-713476D02*
X761905Y-713476D01*
X761905Y-713476D02*
X742857Y-703952D01*
X742857Y-703952D02*
X733333Y-694429D01*
X733333Y-694429D02*
X723809Y-675381D01*
X723809Y-675381D02*
X714286Y-637286D01*
X714286Y-637286D02*
X714286Y-589667D01*
X714286Y-589667D02*
X723809Y-551571D01*
X723809Y-551571D02*
X733333Y-532524D01*
X733333Y-532524D02*
X742857Y-523000D01*
X742857Y-523000D02*
X761905Y-513476D01*
X952381Y-513476D02*
X971429Y-513476D01*
X971429Y-513476D02*
X990476Y-523000D01*
X990476Y-523000D02*
X1000000Y-532524D01*
X1000000Y-532524D02*
X1009524Y-551571D01*
X1009524Y-551571D02*
X1019048Y-589667D01*
X1019048Y-589667D02*
X1019048Y-637286D01*
X1019048Y-637286D02*
X1009524Y-675381D01*
X1009524Y-675381D02*
X1000000Y-694429D01*
X1000000Y-694429D02*
X990476Y-703952D01*
X990476Y-703952D02*
X971429Y-713476D01*
X971429Y-713476D02*
X952381Y-713476D01*
X952381Y-713476D02*
X933333Y-703952D01*
X933333Y-703952D02*
X923809Y-694429D01*
X923809Y-694429D02*
X914286Y-675381D01*
X914286Y-675381D02*
X904762Y-637286D01*
X904762Y-637286D02*
X904762Y-589667D01*
X904762Y-589667D02*
X914286Y-551571D01*
X914286Y-551571D02*
X923809Y-532524D01*
X923809Y-532524D02*
X933333Y-523000D01*
X933333Y-523000D02*
X952381Y-513476D01*
X1104762Y-713476D02*
X1104762Y-580143D01*
X1104762Y-599190D02*
X1114286Y-589667D01*
X1114286Y-589667D02*
X1133333Y-580143D01*
X1133333Y-580143D02*
X1161905Y-580143D01*
X1161905Y-580143D02*
X1180952Y-589667D01*
X1180952Y-589667D02*
X1190476Y-608714D01*
X1190476Y-608714D02*
X1190476Y-713476D01*
X1190476Y-608714D02*
X1200000Y-589667D01*
X1200000Y-589667D02*
X1219048Y-580143D01*
X1219048Y-580143D02*
X1247619Y-580143D01*
X1247619Y-580143D02*
X1266667Y-589667D01*
X1266667Y-589667D02*
X1276191Y-608714D01*
X1276191Y-608714D02*
X1276191Y-713476D01*
X1371429Y-713476D02*
X1371429Y-580143D01*
X1371429Y-599190D02*
X1380952Y-589667D01*
X1380952Y-589667D02*
X1400000Y-580143D01*
X1400000Y-580143D02*
X1428571Y-580143D01*
X1428571Y-580143D02*
X1447619Y-589667D01*
X1447619Y-589667D02*
X1457143Y-608714D01*
X1457143Y-608714D02*
X1457143Y-713476D01*
X1457143Y-608714D02*
X1466667Y-589667D01*
X1466667Y-589667D02*
X1485714Y-580143D01*
X1485714Y-580143D02*
X1514286Y-580143D01*
X1514286Y-580143D02*
X1533333Y-589667D01*
X1533333Y-589667D02*
X1542857Y-608714D01*
X1542857Y-608714D02*
X1542857Y-713476D01*
X1900952Y-503952D02*
X1729524Y-761095D01*
X2125714Y-513476D02*
X2144762Y-513476D01*
X2144762Y-513476D02*
X2163810Y-523000D01*
X2163810Y-523000D02*
X2173333Y-532524D01*
X2173333Y-532524D02*
X2182857Y-551571D01*
X2182857Y-551571D02*
X2192381Y-589667D01*
X2192381Y-589667D02*
X2192381Y-637286D01*
X2192381Y-637286D02*
X2182857Y-675381D01*
X2182857Y-675381D02*
X2173333Y-694429D01*
X2173333Y-694429D02*
X2163810Y-703952D01*
X2163810Y-703952D02*
X2144762Y-713476D01*
X2144762Y-713476D02*
X2125714Y-713476D01*
X2125714Y-713476D02*
X2106667Y-703952D01*
X2106667Y-703952D02*
X2097143Y-694429D01*
X2097143Y-694429D02*
X2087619Y-675381D01*
X2087619Y-675381D02*
X2078095Y-637286D01*
X2078095Y-637286D02*
X2078095Y-589667D01*
X2078095Y-589667D02*
X2087619Y-551571D01*
X2087619Y-551571D02*
X2097143Y-532524D01*
X2097143Y-532524D02*
X2106667Y-523000D01*
X2106667Y-523000D02*
X2125714Y-513476D01*
X2278095Y-694429D02*
X2287619Y-703952D01*
X2287619Y-703952D02*
X2278095Y-713476D01*
X2278095Y-713476D02*
X2268572Y-703952D01*
X2268572Y-703952D02*
X2278095Y-694429D01*
X2278095Y-694429D02*
X2278095Y-713476D01*
X2411429Y-513476D02*
X2430476Y-513476D01*
X2430476Y-513476D02*
X2449524Y-523000D01*
X2449524Y-523000D02*
X2459048Y-532524D01*
X2459048Y-532524D02*
X2468572Y-551571D01*
X2468572Y-551571D02*
X2478095Y-589667D01*
X2478095Y-589667D02*
X2478095Y-637286D01*
X2478095Y-637286D02*
X2468572Y-675381D01*
X2468572Y-675381D02*
X2459048Y-694429D01*
X2459048Y-694429D02*
X2449524Y-703952D01*
X2449524Y-703952D02*
X2430476Y-713476D01*
X2430476Y-713476D02*
X2411429Y-713476D01*
X2411429Y-713476D02*
X2392381Y-703952D01*
X2392381Y-703952D02*
X2382857Y-694429D01*
X2382857Y-694429D02*
X2373333Y-675381D01*
X2373333Y-675381D02*
X2363810Y-637286D01*
X2363810Y-637286D02*
X2363810Y-589667D01*
X2363810Y-589667D02*
X2373333Y-551571D01*
X2373333Y-551571D02*
X2382857Y-532524D01*
X2382857Y-532524D02*
X2392381Y-523000D01*
X2392381Y-523000D02*
X2411429Y-513476D01*
X2668572Y-713476D02*
X2554286Y-713476D01*
X2611429Y-713476D02*
X2611429Y-513476D01*
X2611429Y-513476D02*
X2592381Y-542048D01*
X2592381Y-542048D02*
X2573333Y-561095D01*
X2573333Y-561095D02*
X2554286Y-570619D01*
X2849524Y-513476D02*
X2754286Y-513476D01*
X2754286Y-513476D02*
X2744762Y-608714D01*
X2744762Y-608714D02*
X2754286Y-599190D01*
X2754286Y-599190D02*
X2773333Y-589667D01*
X2773333Y-589667D02*
X2820952Y-589667D01*
X2820952Y-589667D02*
X2840000Y-599190D01*
X2840000Y-599190D02*
X2849524Y-608714D01*
X2849524Y-608714D02*
X2859048Y-627762D01*
X2859048Y-627762D02*
X2859048Y-675381D01*
X2859048Y-675381D02*
X2849524Y-694429D01*
X2849524Y-694429D02*
X2840000Y-703952D01*
X2840000Y-703952D02*
X2820952Y-713476D01*
X2820952Y-713476D02*
X2773333Y-713476D01*
X2773333Y-713476D02*
X2754286Y-703952D01*
X2754286Y-703952D02*
X2744762Y-694429D01*
X2925714Y-513476D02*
X3059048Y-513476D01*
X3059048Y-513476D02*
X2973333Y-713476D01*
X3125714Y-513476D02*
X3125714Y-551571D01*
X3201905Y-513476D02*
X3201905Y-551571D01*
X3464762Y-789667D02*
X3455238Y-780143D01*
X3455238Y-780143D02*
X3436191Y-751571D01*
X3436191Y-751571D02*
X3426667Y-732524D01*
X3426667Y-732524D02*
X3417143Y-703952D01*
X3417143Y-703952D02*
X3407619Y-656333D01*
X3407619Y-656333D02*
X3407619Y-618238D01*
X3407619Y-618238D02*
X3417143Y-570619D01*
X3417143Y-570619D02*
X3426667Y-542048D01*
X3426667Y-542048D02*
X3436191Y-523000D01*
X3436191Y-523000D02*
X3455238Y-494428D01*
X3455238Y-494428D02*
X3464762Y-484905D01*
X3550476Y-713476D02*
X3588571Y-713476D01*
X3588571Y-713476D02*
X3607619Y-703952D01*
X3607619Y-703952D02*
X3617143Y-694429D01*
X3617143Y-694429D02*
X3636191Y-665857D01*
X3636191Y-665857D02*
X3645714Y-627762D01*
X3645714Y-627762D02*
X3645714Y-551571D01*
X3645714Y-551571D02*
X3636191Y-532524D01*
X3636191Y-532524D02*
X3626667Y-523000D01*
X3626667Y-523000D02*
X3607619Y-513476D01*
X3607619Y-513476D02*
X3569524Y-513476D01*
X3569524Y-513476D02*
X3550476Y-523000D01*
X3550476Y-523000D02*
X3540952Y-532524D01*
X3540952Y-532524D02*
X3531429Y-551571D01*
X3531429Y-551571D02*
X3531429Y-599190D01*
X3531429Y-599190D02*
X3540952Y-618238D01*
X3540952Y-618238D02*
X3550476Y-627762D01*
X3550476Y-627762D02*
X3569524Y-637286D01*
X3569524Y-637286D02*
X3607619Y-637286D01*
X3607619Y-637286D02*
X3626667Y-627762D01*
X3626667Y-627762D02*
X3636191Y-618238D01*
X3636191Y-618238D02*
X3645714Y-599190D01*
X3851429Y-713476D02*
X3851429Y-513476D01*
X3937143Y-713476D02*
X3937143Y-608714D01*
X3937143Y-608714D02*
X3927619Y-589667D01*
X3927619Y-589667D02*
X3908572Y-580143D01*
X3908572Y-580143D02*
X3880000Y-580143D01*
X3880000Y-580143D02*
X3860952Y-589667D01*
X3860952Y-589667D02*
X3851429Y-599190D01*
X4060952Y-713476D02*
X4041905Y-703952D01*
X4041905Y-703952D02*
X4032381Y-694429D01*
X4032381Y-694429D02*
X4022857Y-675381D01*
X4022857Y-675381D02*
X4022857Y-618238D01*
X4022857Y-618238D02*
X4032381Y-599190D01*
X4032381Y-599190D02*
X4041905Y-589667D01*
X4041905Y-589667D02*
X4060952Y-580143D01*
X4060952Y-580143D02*
X4089524Y-580143D01*
X4089524Y-580143D02*
X4108572Y-589667D01*
X4108572Y-589667D02*
X4118095Y-599190D01*
X4118095Y-599190D02*
X4127619Y-618238D01*
X4127619Y-618238D02*
X4127619Y-675381D01*
X4127619Y-675381D02*
X4118095Y-694429D01*
X4118095Y-694429D02*
X4108572Y-703952D01*
X4108572Y-703952D02*
X4089524Y-713476D01*
X4089524Y-713476D02*
X4060952Y-713476D01*
X4241905Y-713476D02*
X4222857Y-703952D01*
X4222857Y-703952D02*
X4213334Y-684905D01*
X4213334Y-684905D02*
X4213334Y-513476D01*
X4394286Y-703952D02*
X4375238Y-713476D01*
X4375238Y-713476D02*
X4337143Y-713476D01*
X4337143Y-713476D02*
X4318095Y-703952D01*
X4318095Y-703952D02*
X4308572Y-684905D01*
X4308572Y-684905D02*
X4308572Y-608714D01*
X4308572Y-608714D02*
X4318095Y-589667D01*
X4318095Y-589667D02*
X4337143Y-580143D01*
X4337143Y-580143D02*
X4375238Y-580143D01*
X4375238Y-580143D02*
X4394286Y-589667D01*
X4394286Y-589667D02*
X4403810Y-608714D01*
X4403810Y-608714D02*
X4403810Y-627762D01*
X4403810Y-627762D02*
X4308572Y-646810D01*
X4480000Y-703952D02*
X4499048Y-713476D01*
X4499048Y-713476D02*
X4537143Y-713476D01*
X4537143Y-713476D02*
X4556191Y-703952D01*
X4556191Y-703952D02*
X4565715Y-684905D01*
X4565715Y-684905D02*
X4565715Y-675381D01*
X4565715Y-675381D02*
X4556191Y-656333D01*
X4556191Y-656333D02*
X4537143Y-646810D01*
X4537143Y-646810D02*
X4508572Y-646810D01*
X4508572Y-646810D02*
X4489524Y-637286D01*
X4489524Y-637286D02*
X4480000Y-618238D01*
X4480000Y-618238D02*
X4480000Y-608714D01*
X4480000Y-608714D02*
X4489524Y-589667D01*
X4489524Y-589667D02*
X4508572Y-580143D01*
X4508572Y-580143D02*
X4537143Y-580143D01*
X4537143Y-580143D02*
X4556191Y-589667D01*
X4632381Y-789667D02*
X4641905Y-780143D01*
X4641905Y-780143D02*
X4660953Y-751571D01*
X4660953Y-751571D02*
X4670476Y-732524D01*
X4670476Y-732524D02*
X4680000Y-703952D01*
X4680000Y-703952D02*
X4689524Y-656333D01*
X4689524Y-656333D02*
X4689524Y-618238D01*
X4689524Y-618238D02*
X4680000Y-570619D01*
X4680000Y-570619D02*
X4670476Y-542048D01*
X4670476Y-542048D02*
X4660953Y-523000D01*
X4660953Y-523000D02*
X4641905Y-494428D01*
X4641905Y-494428D02*
X4632381Y-484905D01*
D12*
X0Y-904000D02*
G75*
G03*
X0Y-904000I-25000J0D01*
G01*
D10*
X285714Y-777476D02*
X304762Y-777476D01*
X304762Y-777476D02*
X323810Y-787000D01*
X323810Y-787000D02*
X333333Y-796524D01*
X333333Y-796524D02*
X342857Y-815571D01*
X342857Y-815571D02*
X352381Y-853667D01*
X352381Y-853667D02*
X352381Y-901286D01*
X352381Y-901286D02*
X342857Y-939381D01*
X342857Y-939381D02*
X333333Y-958428D01*
X333333Y-958428D02*
X323810Y-967952D01*
X323810Y-967952D02*
X304762Y-977476D01*
X304762Y-977476D02*
X285714Y-977476D01*
X285714Y-977476D02*
X266667Y-967952D01*
X266667Y-967952D02*
X257143Y-958428D01*
X257143Y-958428D02*
X247619Y-939381D01*
X247619Y-939381D02*
X238095Y-901286D01*
X238095Y-901286D02*
X238095Y-853667D01*
X238095Y-853667D02*
X247619Y-815571D01*
X247619Y-815571D02*
X257143Y-796524D01*
X257143Y-796524D02*
X266667Y-787000D01*
X266667Y-787000D02*
X285714Y-777476D01*
X438095Y-958428D02*
X447619Y-967952D01*
X447619Y-967952D02*
X438095Y-977476D01*
X438095Y-977476D02*
X428571Y-967952D01*
X428571Y-967952D02*
X438095Y-958428D01*
X438095Y-958428D02*
X438095Y-977476D01*
X628571Y-777476D02*
X533333Y-777476D01*
X533333Y-777476D02*
X523809Y-872714D01*
X523809Y-872714D02*
X533333Y-863190D01*
X533333Y-863190D02*
X552381Y-853667D01*
X552381Y-853667D02*
X600000Y-853667D01*
X600000Y-853667D02*
X619048Y-863190D01*
X619048Y-863190D02*
X628571Y-872714D01*
X628571Y-872714D02*
X638095Y-891762D01*
X638095Y-891762D02*
X638095Y-939381D01*
X638095Y-939381D02*
X628571Y-958428D01*
X628571Y-958428D02*
X619048Y-967952D01*
X619048Y-967952D02*
X600000Y-977476D01*
X600000Y-977476D02*
X552381Y-977476D01*
X552381Y-977476D02*
X533333Y-967952D01*
X533333Y-967952D02*
X523809Y-958428D01*
X761905Y-777476D02*
X780952Y-777476D01*
X780952Y-777476D02*
X800000Y-787000D01*
X800000Y-787000D02*
X809524Y-796524D01*
X809524Y-796524D02*
X819048Y-815571D01*
X819048Y-815571D02*
X828571Y-853667D01*
X828571Y-853667D02*
X828571Y-901286D01*
X828571Y-901286D02*
X819048Y-939381D01*
X819048Y-939381D02*
X809524Y-958428D01*
X809524Y-958428D02*
X800000Y-967952D01*
X800000Y-967952D02*
X780952Y-977476D01*
X780952Y-977476D02*
X761905Y-977476D01*
X761905Y-977476D02*
X742857Y-967952D01*
X742857Y-967952D02*
X733333Y-958428D01*
X733333Y-958428D02*
X723809Y-939381D01*
X723809Y-939381D02*
X714286Y-901286D01*
X714286Y-901286D02*
X714286Y-853667D01*
X714286Y-853667D02*
X723809Y-815571D01*
X723809Y-815571D02*
X733333Y-796524D01*
X733333Y-796524D02*
X742857Y-787000D01*
X742857Y-787000D02*
X761905Y-777476D01*
X952381Y-777476D02*
X971429Y-777476D01*
X971429Y-777476D02*
X990476Y-787000D01*
X990476Y-787000D02*
X1000000Y-796524D01*
X1000000Y-796524D02*
X1009524Y-815571D01*
X1009524Y-815571D02*
X1019048Y-853667D01*
X1019048Y-853667D02*
X1019048Y-901286D01*
X1019048Y-901286D02*
X1009524Y-939381D01*
X1009524Y-939381D02*
X1000000Y-958428D01*
X1000000Y-958428D02*
X990476Y-967952D01*
X990476Y-967952D02*
X971429Y-977476D01*
X971429Y-977476D02*
X952381Y-977476D01*
X952381Y-977476D02*
X933333Y-967952D01*
X933333Y-967952D02*
X923809Y-958428D01*
X923809Y-958428D02*
X914286Y-939381D01*
X914286Y-939381D02*
X904762Y-901286D01*
X904762Y-901286D02*
X904762Y-853667D01*
X904762Y-853667D02*
X914286Y-815571D01*
X914286Y-815571D02*
X923809Y-796524D01*
X923809Y-796524D02*
X933333Y-787000D01*
X933333Y-787000D02*
X952381Y-777476D01*
X1104762Y-977476D02*
X1104762Y-844143D01*
X1104762Y-863190D02*
X1114286Y-853667D01*
X1114286Y-853667D02*
X1133333Y-844143D01*
X1133333Y-844143D02*
X1161905Y-844143D01*
X1161905Y-844143D02*
X1180952Y-853667D01*
X1180952Y-853667D02*
X1190476Y-872714D01*
X1190476Y-872714D02*
X1190476Y-977476D01*
X1190476Y-872714D02*
X1200000Y-853667D01*
X1200000Y-853667D02*
X1219048Y-844143D01*
X1219048Y-844143D02*
X1247619Y-844143D01*
X1247619Y-844143D02*
X1266667Y-853667D01*
X1266667Y-853667D02*
X1276191Y-872714D01*
X1276191Y-872714D02*
X1276191Y-977476D01*
X1371429Y-977476D02*
X1371429Y-844143D01*
X1371429Y-863190D02*
X1380952Y-853667D01*
X1380952Y-853667D02*
X1400000Y-844143D01*
X1400000Y-844143D02*
X1428571Y-844143D01*
X1428571Y-844143D02*
X1447619Y-853667D01*
X1447619Y-853667D02*
X1457143Y-872714D01*
X1457143Y-872714D02*
X1457143Y-977476D01*
X1457143Y-872714D02*
X1466667Y-853667D01*
X1466667Y-853667D02*
X1485714Y-844143D01*
X1485714Y-844143D02*
X1514286Y-844143D01*
X1514286Y-844143D02*
X1533333Y-853667D01*
X1533333Y-853667D02*
X1542857Y-872714D01*
X1542857Y-872714D02*
X1542857Y-977476D01*
X1900952Y-767952D02*
X1729524Y-1025095D01*
X2125714Y-777476D02*
X2144762Y-777476D01*
X2144762Y-777476D02*
X2163810Y-787000D01*
X2163810Y-787000D02*
X2173333Y-796524D01*
X2173333Y-796524D02*
X2182857Y-815571D01*
X2182857Y-815571D02*
X2192381Y-853667D01*
X2192381Y-853667D02*
X2192381Y-901286D01*
X2192381Y-901286D02*
X2182857Y-939381D01*
X2182857Y-939381D02*
X2173333Y-958428D01*
X2173333Y-958428D02*
X2163810Y-967952D01*
X2163810Y-967952D02*
X2144762Y-977476D01*
X2144762Y-977476D02*
X2125714Y-977476D01*
X2125714Y-977476D02*
X2106667Y-967952D01*
X2106667Y-967952D02*
X2097143Y-958428D01*
X2097143Y-958428D02*
X2087619Y-939381D01*
X2087619Y-939381D02*
X2078095Y-901286D01*
X2078095Y-901286D02*
X2078095Y-853667D01*
X2078095Y-853667D02*
X2087619Y-815571D01*
X2087619Y-815571D02*
X2097143Y-796524D01*
X2097143Y-796524D02*
X2106667Y-787000D01*
X2106667Y-787000D02*
X2125714Y-777476D01*
X2278095Y-958428D02*
X2287619Y-967952D01*
X2287619Y-967952D02*
X2278095Y-977476D01*
X2278095Y-977476D02*
X2268572Y-967952D01*
X2268572Y-967952D02*
X2278095Y-958428D01*
X2278095Y-958428D02*
X2278095Y-977476D01*
X2411429Y-777476D02*
X2430476Y-777476D01*
X2430476Y-777476D02*
X2449524Y-787000D01*
X2449524Y-787000D02*
X2459048Y-796524D01*
X2459048Y-796524D02*
X2468572Y-815571D01*
X2468572Y-815571D02*
X2478095Y-853667D01*
X2478095Y-853667D02*
X2478095Y-901286D01*
X2478095Y-901286D02*
X2468572Y-939381D01*
X2468572Y-939381D02*
X2459048Y-958428D01*
X2459048Y-958428D02*
X2449524Y-967952D01*
X2449524Y-967952D02*
X2430476Y-977476D01*
X2430476Y-977476D02*
X2411429Y-977476D01*
X2411429Y-977476D02*
X2392381Y-967952D01*
X2392381Y-967952D02*
X2382857Y-958428D01*
X2382857Y-958428D02*
X2373333Y-939381D01*
X2373333Y-939381D02*
X2363810Y-901286D01*
X2363810Y-901286D02*
X2363810Y-853667D01*
X2363810Y-853667D02*
X2373333Y-815571D01*
X2373333Y-815571D02*
X2382857Y-796524D01*
X2382857Y-796524D02*
X2392381Y-787000D01*
X2392381Y-787000D02*
X2411429Y-777476D01*
X2668572Y-977476D02*
X2554286Y-977476D01*
X2611429Y-977476D02*
X2611429Y-777476D01*
X2611429Y-777476D02*
X2592381Y-806048D01*
X2592381Y-806048D02*
X2573333Y-825095D01*
X2573333Y-825095D02*
X2554286Y-834619D01*
X2763810Y-977476D02*
X2801905Y-977476D01*
X2801905Y-977476D02*
X2820952Y-967952D01*
X2820952Y-967952D02*
X2830476Y-958428D01*
X2830476Y-958428D02*
X2849524Y-929857D01*
X2849524Y-929857D02*
X2859048Y-891762D01*
X2859048Y-891762D02*
X2859048Y-815571D01*
X2859048Y-815571D02*
X2849524Y-796524D01*
X2849524Y-796524D02*
X2840000Y-787000D01*
X2840000Y-787000D02*
X2820952Y-777476D01*
X2820952Y-777476D02*
X2782857Y-777476D01*
X2782857Y-777476D02*
X2763810Y-787000D01*
X2763810Y-787000D02*
X2754286Y-796524D01*
X2754286Y-796524D02*
X2744762Y-815571D01*
X2744762Y-815571D02*
X2744762Y-863190D01*
X2744762Y-863190D02*
X2754286Y-882238D01*
X2754286Y-882238D02*
X2763810Y-891762D01*
X2763810Y-891762D02*
X2782857Y-901286D01*
X2782857Y-901286D02*
X2820952Y-901286D01*
X2820952Y-901286D02*
X2840000Y-891762D01*
X2840000Y-891762D02*
X2849524Y-882238D01*
X2849524Y-882238D02*
X2859048Y-863190D01*
X2925714Y-777476D02*
X3059048Y-777476D01*
X3059048Y-777476D02*
X2973333Y-977476D01*
X3125714Y-777476D02*
X3125714Y-815571D01*
X3201905Y-777476D02*
X3201905Y-815571D01*
X3464762Y-1053667D02*
X3455238Y-1044143D01*
X3455238Y-1044143D02*
X3436191Y-1015571D01*
X3436191Y-1015571D02*
X3426667Y-996524D01*
X3426667Y-996524D02*
X3417143Y-967952D01*
X3417143Y-967952D02*
X3407619Y-920333D01*
X3407619Y-920333D02*
X3407619Y-882238D01*
X3407619Y-882238D02*
X3417143Y-834619D01*
X3417143Y-834619D02*
X3426667Y-806048D01*
X3426667Y-806048D02*
X3436191Y-787000D01*
X3436191Y-787000D02*
X3455238Y-758428D01*
X3455238Y-758428D02*
X3464762Y-748905D01*
X3579048Y-777476D02*
X3598095Y-777476D01*
X3598095Y-777476D02*
X3617143Y-787000D01*
X3617143Y-787000D02*
X3626667Y-796524D01*
X3626667Y-796524D02*
X3636191Y-815571D01*
X3636191Y-815571D02*
X3645714Y-853667D01*
X3645714Y-853667D02*
X3645714Y-901286D01*
X3645714Y-901286D02*
X3636191Y-939381D01*
X3636191Y-939381D02*
X3626667Y-958428D01*
X3626667Y-958428D02*
X3617143Y-967952D01*
X3617143Y-967952D02*
X3598095Y-977476D01*
X3598095Y-977476D02*
X3579048Y-977476D01*
X3579048Y-977476D02*
X3560000Y-967952D01*
X3560000Y-967952D02*
X3550476Y-958428D01*
X3550476Y-958428D02*
X3540952Y-939381D01*
X3540952Y-939381D02*
X3531429Y-901286D01*
X3531429Y-901286D02*
X3531429Y-853667D01*
X3531429Y-853667D02*
X3540952Y-815571D01*
X3540952Y-815571D02*
X3550476Y-796524D01*
X3550476Y-796524D02*
X3560000Y-787000D01*
X3560000Y-787000D02*
X3579048Y-777476D01*
X3851429Y-977476D02*
X3851429Y-777476D01*
X3937143Y-977476D02*
X3937143Y-872714D01*
X3937143Y-872714D02*
X3927619Y-853667D01*
X3927619Y-853667D02*
X3908572Y-844143D01*
X3908572Y-844143D02*
X3880000Y-844143D01*
X3880000Y-844143D02*
X3860952Y-853667D01*
X3860952Y-853667D02*
X3851429Y-863190D01*
X4060952Y-977476D02*
X4041905Y-967952D01*
X4041905Y-967952D02*
X4032381Y-958428D01*
X4032381Y-958428D02*
X4022857Y-939381D01*
X4022857Y-939381D02*
X4022857Y-882238D01*
X4022857Y-882238D02*
X4032381Y-863190D01*
X4032381Y-863190D02*
X4041905Y-853667D01*
X4041905Y-853667D02*
X4060952Y-844143D01*
X4060952Y-844143D02*
X4089524Y-844143D01*
X4089524Y-844143D02*
X4108572Y-853667D01*
X4108572Y-853667D02*
X4118095Y-863190D01*
X4118095Y-863190D02*
X4127619Y-882238D01*
X4127619Y-882238D02*
X4127619Y-939381D01*
X4127619Y-939381D02*
X4118095Y-958428D01*
X4118095Y-958428D02*
X4108572Y-967952D01*
X4108572Y-967952D02*
X4089524Y-977476D01*
X4089524Y-977476D02*
X4060952Y-977476D01*
X4241905Y-977476D02*
X4222857Y-967952D01*
X4222857Y-967952D02*
X4213334Y-948905D01*
X4213334Y-948905D02*
X4213334Y-777476D01*
X4394286Y-967952D02*
X4375238Y-977476D01*
X4375238Y-977476D02*
X4337143Y-977476D01*
X4337143Y-977476D02*
X4318095Y-967952D01*
X4318095Y-967952D02*
X4308572Y-948905D01*
X4308572Y-948905D02*
X4308572Y-872714D01*
X4308572Y-872714D02*
X4318095Y-853667D01*
X4318095Y-853667D02*
X4337143Y-844143D01*
X4337143Y-844143D02*
X4375238Y-844143D01*
X4375238Y-844143D02*
X4394286Y-853667D01*
X4394286Y-853667D02*
X4403810Y-872714D01*
X4403810Y-872714D02*
X4403810Y-891762D01*
X4403810Y-891762D02*
X4308572Y-910809D01*
X4480000Y-967952D02*
X4499048Y-977476D01*
X4499048Y-977476D02*
X4537143Y-977476D01*
X4537143Y-977476D02*
X4556191Y-967952D01*
X4556191Y-967952D02*
X4565715Y-948905D01*
X4565715Y-948905D02*
X4565715Y-939381D01*
X4565715Y-939381D02*
X4556191Y-920333D01*
X4556191Y-920333D02*
X4537143Y-910809D01*
X4537143Y-910809D02*
X4508572Y-910809D01*
X4508572Y-910809D02*
X4489524Y-901286D01*
X4489524Y-901286D02*
X4480000Y-882238D01*
X4480000Y-882238D02*
X4480000Y-872714D01*
X4480000Y-872714D02*
X4489524Y-853667D01*
X4489524Y-853667D02*
X4508572Y-844143D01*
X4508572Y-844143D02*
X4537143Y-844143D01*
X4537143Y-844143D02*
X4556191Y-853667D01*
X4771429Y-901286D02*
X4923810Y-901286D01*
X4847619Y-977476D02*
X4847619Y-825095D01*
X5129524Y-796524D02*
X5139048Y-787000D01*
X5139048Y-787000D02*
X5158095Y-777476D01*
X5158095Y-777476D02*
X5205715Y-777476D01*
X5205715Y-777476D02*
X5224762Y-787000D01*
X5224762Y-787000D02*
X5234286Y-796524D01*
X5234286Y-796524D02*
X5243810Y-815571D01*
X5243810Y-815571D02*
X5243810Y-834619D01*
X5243810Y-834619D02*
X5234286Y-863190D01*
X5234286Y-863190D02*
X5120000Y-977476D01*
X5120000Y-977476D02*
X5243810Y-977476D01*
X5440000Y-967952D02*
X5459048Y-977476D01*
X5459048Y-977476D02*
X5497143Y-977476D01*
X5497143Y-977476D02*
X5516191Y-967952D01*
X5516191Y-967952D02*
X5525715Y-948905D01*
X5525715Y-948905D02*
X5525715Y-939381D01*
X5525715Y-939381D02*
X5516191Y-920333D01*
X5516191Y-920333D02*
X5497143Y-910809D01*
X5497143Y-910809D02*
X5468572Y-910809D01*
X5468572Y-910809D02*
X5449524Y-901286D01*
X5449524Y-901286D02*
X5440000Y-882238D01*
X5440000Y-882238D02*
X5440000Y-872714D01*
X5440000Y-872714D02*
X5449524Y-853667D01*
X5449524Y-853667D02*
X5468572Y-844143D01*
X5468572Y-844143D02*
X5497143Y-844143D01*
X5497143Y-844143D02*
X5516191Y-853667D01*
X5640000Y-977476D02*
X5620953Y-967952D01*
X5620953Y-967952D02*
X5611429Y-948905D01*
X5611429Y-948905D02*
X5611429Y-777476D01*
X5744762Y-977476D02*
X5725714Y-967952D01*
X5725714Y-967952D02*
X5716191Y-958428D01*
X5716191Y-958428D02*
X5706667Y-939381D01*
X5706667Y-939381D02*
X5706667Y-882238D01*
X5706667Y-882238D02*
X5716191Y-863190D01*
X5716191Y-863190D02*
X5725714Y-853667D01*
X5725714Y-853667D02*
X5744762Y-844143D01*
X5744762Y-844143D02*
X5773334Y-844143D01*
X5773334Y-844143D02*
X5792381Y-853667D01*
X5792381Y-853667D02*
X5801905Y-863190D01*
X5801905Y-863190D02*
X5811429Y-882238D01*
X5811429Y-882238D02*
X5811429Y-939381D01*
X5811429Y-939381D02*
X5801905Y-958428D01*
X5801905Y-958428D02*
X5792381Y-967952D01*
X5792381Y-967952D02*
X5773334Y-977476D01*
X5773334Y-977476D02*
X5744762Y-977476D01*
X5868572Y-844143D02*
X5944762Y-844143D01*
X5897143Y-777476D02*
X5897143Y-948905D01*
X5897143Y-948905D02*
X5906667Y-967952D01*
X5906667Y-967952D02*
X5925714Y-977476D01*
X5925714Y-977476D02*
X5944762Y-977476D01*
X6001905Y-967952D02*
X6020953Y-977476D01*
X6020953Y-977476D02*
X6059048Y-977476D01*
X6059048Y-977476D02*
X6078095Y-967952D01*
X6078095Y-967952D02*
X6087619Y-948905D01*
X6087619Y-948905D02*
X6087619Y-939381D01*
X6087619Y-939381D02*
X6078095Y-920333D01*
X6078095Y-920333D02*
X6059048Y-910809D01*
X6059048Y-910809D02*
X6030476Y-910809D01*
X6030476Y-910809D02*
X6011429Y-901286D01*
X6011429Y-901286D02*
X6001905Y-882238D01*
X6001905Y-882238D02*
X6001905Y-872714D01*
X6001905Y-872714D02*
X6011429Y-853667D01*
X6011429Y-853667D02*
X6030476Y-844143D01*
X6030476Y-844143D02*
X6059048Y-844143D01*
X6059048Y-844143D02*
X6078095Y-853667D01*
X6154286Y-1053667D02*
X6163810Y-1044143D01*
X6163810Y-1044143D02*
X6182857Y-1015571D01*
X6182857Y-1015571D02*
X6192381Y-996524D01*
X6192381Y-996524D02*
X6201905Y-967952D01*
X6201905Y-967952D02*
X6211429Y-920333D01*
X6211429Y-920333D02*
X6211429Y-882238D01*
X6211429Y-882238D02*
X6201905Y-834619D01*
X6201905Y-834619D02*
X6192381Y-806048D01*
X6192381Y-806048D02*
X6182857Y-787000D01*
X6182857Y-787000D02*
X6163810Y-758428D01*
X6163810Y-758428D02*
X6154286Y-748905D01*
D13*
X-27500Y-1140500D02*
X-27500Y-1195500D01*
X-55000Y-1168000D02*
X0Y-1168000D01*
D10*
X285714Y-1041476D02*
X304762Y-1041476D01*
X304762Y-1041476D02*
X323810Y-1051000D01*
X323810Y-1051000D02*
X333333Y-1060524D01*
X333333Y-1060524D02*
X342857Y-1079571D01*
X342857Y-1079571D02*
X352381Y-1117667D01*
X352381Y-1117667D02*
X352381Y-1165286D01*
X352381Y-1165286D02*
X342857Y-1203381D01*
X342857Y-1203381D02*
X333333Y-1222429D01*
X333333Y-1222429D02*
X323810Y-1231952D01*
X323810Y-1231952D02*
X304762Y-1241476D01*
X304762Y-1241476D02*
X285714Y-1241476D01*
X285714Y-1241476D02*
X266667Y-1231952D01*
X266667Y-1231952D02*
X257143Y-1222429D01*
X257143Y-1222429D02*
X247619Y-1203381D01*
X247619Y-1203381D02*
X238095Y-1165286D01*
X238095Y-1165286D02*
X238095Y-1117667D01*
X238095Y-1117667D02*
X247619Y-1079571D01*
X247619Y-1079571D02*
X257143Y-1060524D01*
X257143Y-1060524D02*
X266667Y-1051000D01*
X266667Y-1051000D02*
X285714Y-1041476D01*
X438095Y-1222429D02*
X447619Y-1231952D01*
X447619Y-1231952D02*
X438095Y-1241476D01*
X438095Y-1241476D02*
X428571Y-1231952D01*
X428571Y-1231952D02*
X438095Y-1222429D01*
X438095Y-1222429D02*
X438095Y-1241476D01*
X628571Y-1041476D02*
X533333Y-1041476D01*
X533333Y-1041476D02*
X523809Y-1136714D01*
X523809Y-1136714D02*
X533333Y-1127190D01*
X533333Y-1127190D02*
X552381Y-1117667D01*
X552381Y-1117667D02*
X600000Y-1117667D01*
X600000Y-1117667D02*
X619048Y-1127190D01*
X619048Y-1127190D02*
X628571Y-1136714D01*
X628571Y-1136714D02*
X638095Y-1155762D01*
X638095Y-1155762D02*
X638095Y-1203381D01*
X638095Y-1203381D02*
X628571Y-1222429D01*
X628571Y-1222429D02*
X619048Y-1231952D01*
X619048Y-1231952D02*
X600000Y-1241476D01*
X600000Y-1241476D02*
X552381Y-1241476D01*
X552381Y-1241476D02*
X533333Y-1231952D01*
X533333Y-1231952D02*
X523809Y-1222429D01*
X819048Y-1041476D02*
X723809Y-1041476D01*
X723809Y-1041476D02*
X714286Y-1136714D01*
X714286Y-1136714D02*
X723809Y-1127190D01*
X723809Y-1127190D02*
X742857Y-1117667D01*
X742857Y-1117667D02*
X790476Y-1117667D01*
X790476Y-1117667D02*
X809524Y-1127190D01*
X809524Y-1127190D02*
X819048Y-1136714D01*
X819048Y-1136714D02*
X828571Y-1155762D01*
X828571Y-1155762D02*
X828571Y-1203381D01*
X828571Y-1203381D02*
X819048Y-1222429D01*
X819048Y-1222429D02*
X809524Y-1231952D01*
X809524Y-1231952D02*
X790476Y-1241476D01*
X790476Y-1241476D02*
X742857Y-1241476D01*
X742857Y-1241476D02*
X723809Y-1231952D01*
X723809Y-1231952D02*
X714286Y-1222429D01*
X952381Y-1041476D02*
X971429Y-1041476D01*
X971429Y-1041476D02*
X990476Y-1051000D01*
X990476Y-1051000D02*
X1000000Y-1060524D01*
X1000000Y-1060524D02*
X1009524Y-1079571D01*
X1009524Y-1079571D02*
X1019048Y-1117667D01*
X1019048Y-1117667D02*
X1019048Y-1165286D01*
X1019048Y-1165286D02*
X1009524Y-1203381D01*
X1009524Y-1203381D02*
X1000000Y-1222429D01*
X1000000Y-1222429D02*
X990476Y-1231952D01*
X990476Y-1231952D02*
X971429Y-1241476D01*
X971429Y-1241476D02*
X952381Y-1241476D01*
X952381Y-1241476D02*
X933333Y-1231952D01*
X933333Y-1231952D02*
X923809Y-1222429D01*
X923809Y-1222429D02*
X914286Y-1203381D01*
X914286Y-1203381D02*
X904762Y-1165286D01*
X904762Y-1165286D02*
X904762Y-1117667D01*
X904762Y-1117667D02*
X914286Y-1079571D01*
X914286Y-1079571D02*
X923809Y-1060524D01*
X923809Y-1060524D02*
X933333Y-1051000D01*
X933333Y-1051000D02*
X952381Y-1041476D01*
X1104762Y-1241476D02*
X1104762Y-1108143D01*
X1104762Y-1127190D02*
X1114286Y-1117667D01*
X1114286Y-1117667D02*
X1133333Y-1108143D01*
X1133333Y-1108143D02*
X1161905Y-1108143D01*
X1161905Y-1108143D02*
X1180952Y-1117667D01*
X1180952Y-1117667D02*
X1190476Y-1136714D01*
X1190476Y-1136714D02*
X1190476Y-1241476D01*
X1190476Y-1136714D02*
X1200000Y-1117667D01*
X1200000Y-1117667D02*
X1219048Y-1108143D01*
X1219048Y-1108143D02*
X1247619Y-1108143D01*
X1247619Y-1108143D02*
X1266667Y-1117667D01*
X1266667Y-1117667D02*
X1276191Y-1136714D01*
X1276191Y-1136714D02*
X1276191Y-1241476D01*
X1371429Y-1241476D02*
X1371429Y-1108143D01*
X1371429Y-1127190D02*
X1380952Y-1117667D01*
X1380952Y-1117667D02*
X1400000Y-1108143D01*
X1400000Y-1108143D02*
X1428571Y-1108143D01*
X1428571Y-1108143D02*
X1447619Y-1117667D01*
X1447619Y-1117667D02*
X1457143Y-1136714D01*
X1457143Y-1136714D02*
X1457143Y-1241476D01*
X1457143Y-1136714D02*
X1466667Y-1117667D01*
X1466667Y-1117667D02*
X1485714Y-1108143D01*
X1485714Y-1108143D02*
X1514286Y-1108143D01*
X1514286Y-1108143D02*
X1533333Y-1117667D01*
X1533333Y-1117667D02*
X1542857Y-1136714D01*
X1542857Y-1136714D02*
X1542857Y-1241476D01*
X1900952Y-1031952D02*
X1729524Y-1289095D01*
X2125714Y-1041476D02*
X2144762Y-1041476D01*
X2144762Y-1041476D02*
X2163810Y-1051000D01*
X2163810Y-1051000D02*
X2173333Y-1060524D01*
X2173333Y-1060524D02*
X2182857Y-1079571D01*
X2182857Y-1079571D02*
X2192381Y-1117667D01*
X2192381Y-1117667D02*
X2192381Y-1165286D01*
X2192381Y-1165286D02*
X2182857Y-1203381D01*
X2182857Y-1203381D02*
X2173333Y-1222429D01*
X2173333Y-1222429D02*
X2163810Y-1231952D01*
X2163810Y-1231952D02*
X2144762Y-1241476D01*
X2144762Y-1241476D02*
X2125714Y-1241476D01*
X2125714Y-1241476D02*
X2106667Y-1231952D01*
X2106667Y-1231952D02*
X2097143Y-1222429D01*
X2097143Y-1222429D02*
X2087619Y-1203381D01*
X2087619Y-1203381D02*
X2078095Y-1165286D01*
X2078095Y-1165286D02*
X2078095Y-1117667D01*
X2078095Y-1117667D02*
X2087619Y-1079571D01*
X2087619Y-1079571D02*
X2097143Y-1060524D01*
X2097143Y-1060524D02*
X2106667Y-1051000D01*
X2106667Y-1051000D02*
X2125714Y-1041476D01*
X2278095Y-1222429D02*
X2287619Y-1231952D01*
X2287619Y-1231952D02*
X2278095Y-1241476D01*
X2278095Y-1241476D02*
X2268572Y-1231952D01*
X2268572Y-1231952D02*
X2278095Y-1222429D01*
X2278095Y-1222429D02*
X2278095Y-1241476D01*
X2411429Y-1041476D02*
X2430476Y-1041476D01*
X2430476Y-1041476D02*
X2449524Y-1051000D01*
X2449524Y-1051000D02*
X2459048Y-1060524D01*
X2459048Y-1060524D02*
X2468572Y-1079571D01*
X2468572Y-1079571D02*
X2478095Y-1117667D01*
X2478095Y-1117667D02*
X2478095Y-1165286D01*
X2478095Y-1165286D02*
X2468572Y-1203381D01*
X2468572Y-1203381D02*
X2459048Y-1222429D01*
X2459048Y-1222429D02*
X2449524Y-1231952D01*
X2449524Y-1231952D02*
X2430476Y-1241476D01*
X2430476Y-1241476D02*
X2411429Y-1241476D01*
X2411429Y-1241476D02*
X2392381Y-1231952D01*
X2392381Y-1231952D02*
X2382857Y-1222429D01*
X2382857Y-1222429D02*
X2373333Y-1203381D01*
X2373333Y-1203381D02*
X2363810Y-1165286D01*
X2363810Y-1165286D02*
X2363810Y-1117667D01*
X2363810Y-1117667D02*
X2373333Y-1079571D01*
X2373333Y-1079571D02*
X2382857Y-1060524D01*
X2382857Y-1060524D02*
X2392381Y-1051000D01*
X2392381Y-1051000D02*
X2411429Y-1041476D01*
X2554286Y-1060524D02*
X2563810Y-1051000D01*
X2563810Y-1051000D02*
X2582857Y-1041476D01*
X2582857Y-1041476D02*
X2630476Y-1041476D01*
X2630476Y-1041476D02*
X2649524Y-1051000D01*
X2649524Y-1051000D02*
X2659048Y-1060524D01*
X2659048Y-1060524D02*
X2668572Y-1079571D01*
X2668572Y-1079571D02*
X2668572Y-1098619D01*
X2668572Y-1098619D02*
X2659048Y-1127190D01*
X2659048Y-1127190D02*
X2544762Y-1241476D01*
X2544762Y-1241476D02*
X2668572Y-1241476D01*
X2859048Y-1241476D02*
X2744762Y-1241476D01*
X2801905Y-1241476D02*
X2801905Y-1041476D01*
X2801905Y-1041476D02*
X2782857Y-1070048D01*
X2782857Y-1070048D02*
X2763810Y-1089095D01*
X2763810Y-1089095D02*
X2744762Y-1098619D01*
X2925714Y-1041476D02*
X3059048Y-1041476D01*
X3059048Y-1041476D02*
X2973333Y-1241476D01*
X3125714Y-1041476D02*
X3125714Y-1079571D01*
X3201905Y-1041476D02*
X3201905Y-1079571D01*
X3464762Y-1317667D02*
X3455238Y-1308143D01*
X3455238Y-1308143D02*
X3436191Y-1279571D01*
X3436191Y-1279571D02*
X3426667Y-1260524D01*
X3426667Y-1260524D02*
X3417143Y-1231952D01*
X3417143Y-1231952D02*
X3407619Y-1184333D01*
X3407619Y-1184333D02*
X3407619Y-1146238D01*
X3407619Y-1146238D02*
X3417143Y-1098619D01*
X3417143Y-1098619D02*
X3426667Y-1070048D01*
X3426667Y-1070048D02*
X3436191Y-1051000D01*
X3436191Y-1051000D02*
X3455238Y-1022428D01*
X3455238Y-1022428D02*
X3464762Y-1012905D01*
X3579048Y-1041476D02*
X3598095Y-1041476D01*
X3598095Y-1041476D02*
X3617143Y-1051000D01*
X3617143Y-1051000D02*
X3626667Y-1060524D01*
X3626667Y-1060524D02*
X3636191Y-1079571D01*
X3636191Y-1079571D02*
X3645714Y-1117667D01*
X3645714Y-1117667D02*
X3645714Y-1165286D01*
X3645714Y-1165286D02*
X3636191Y-1203381D01*
X3636191Y-1203381D02*
X3626667Y-1222429D01*
X3626667Y-1222429D02*
X3617143Y-1231952D01*
X3617143Y-1231952D02*
X3598095Y-1241476D01*
X3598095Y-1241476D02*
X3579048Y-1241476D01*
X3579048Y-1241476D02*
X3560000Y-1231952D01*
X3560000Y-1231952D02*
X3550476Y-1222429D01*
X3550476Y-1222429D02*
X3540952Y-1203381D01*
X3540952Y-1203381D02*
X3531429Y-1165286D01*
X3531429Y-1165286D02*
X3531429Y-1117667D01*
X3531429Y-1117667D02*
X3540952Y-1079571D01*
X3540952Y-1079571D02*
X3550476Y-1060524D01*
X3550476Y-1060524D02*
X3560000Y-1051000D01*
X3560000Y-1051000D02*
X3579048Y-1041476D01*
X3851429Y-1241476D02*
X3851429Y-1041476D01*
X3937143Y-1241476D02*
X3937143Y-1136714D01*
X3937143Y-1136714D02*
X3927619Y-1117667D01*
X3927619Y-1117667D02*
X3908572Y-1108143D01*
X3908572Y-1108143D02*
X3880000Y-1108143D01*
X3880000Y-1108143D02*
X3860952Y-1117667D01*
X3860952Y-1117667D02*
X3851429Y-1127190D01*
X4060952Y-1241476D02*
X4041905Y-1231952D01*
X4041905Y-1231952D02*
X4032381Y-1222429D01*
X4032381Y-1222429D02*
X4022857Y-1203381D01*
X4022857Y-1203381D02*
X4022857Y-1146238D01*
X4022857Y-1146238D02*
X4032381Y-1127190D01*
X4032381Y-1127190D02*
X4041905Y-1117667D01*
X4041905Y-1117667D02*
X4060952Y-1108143D01*
X4060952Y-1108143D02*
X4089524Y-1108143D01*
X4089524Y-1108143D02*
X4108572Y-1117667D01*
X4108572Y-1117667D02*
X4118095Y-1127190D01*
X4118095Y-1127190D02*
X4127619Y-1146238D01*
X4127619Y-1146238D02*
X4127619Y-1203381D01*
X4127619Y-1203381D02*
X4118095Y-1222429D01*
X4118095Y-1222429D02*
X4108572Y-1231952D01*
X4108572Y-1231952D02*
X4089524Y-1241476D01*
X4089524Y-1241476D02*
X4060952Y-1241476D01*
X4241905Y-1241476D02*
X4222857Y-1231952D01*
X4222857Y-1231952D02*
X4213334Y-1212905D01*
X4213334Y-1212905D02*
X4213334Y-1041476D01*
X4394286Y-1231952D02*
X4375238Y-1241476D01*
X4375238Y-1241476D02*
X4337143Y-1241476D01*
X4337143Y-1241476D02*
X4318095Y-1231952D01*
X4318095Y-1231952D02*
X4308572Y-1212905D01*
X4308572Y-1212905D02*
X4308572Y-1136714D01*
X4308572Y-1136714D02*
X4318095Y-1117667D01*
X4318095Y-1117667D02*
X4337143Y-1108143D01*
X4337143Y-1108143D02*
X4375238Y-1108143D01*
X4375238Y-1108143D02*
X4394286Y-1117667D01*
X4394286Y-1117667D02*
X4403810Y-1136714D01*
X4403810Y-1136714D02*
X4403810Y-1155762D01*
X4403810Y-1155762D02*
X4308572Y-1174810D01*
X4480000Y-1231952D02*
X4499048Y-1241476D01*
X4499048Y-1241476D02*
X4537143Y-1241476D01*
X4537143Y-1241476D02*
X4556191Y-1231952D01*
X4556191Y-1231952D02*
X4565715Y-1212905D01*
X4565715Y-1212905D02*
X4565715Y-1203381D01*
X4565715Y-1203381D02*
X4556191Y-1184333D01*
X4556191Y-1184333D02*
X4537143Y-1174810D01*
X4537143Y-1174810D02*
X4508572Y-1174810D01*
X4508572Y-1174810D02*
X4489524Y-1165286D01*
X4489524Y-1165286D02*
X4480000Y-1146238D01*
X4480000Y-1146238D02*
X4480000Y-1136714D01*
X4480000Y-1136714D02*
X4489524Y-1117667D01*
X4489524Y-1117667D02*
X4508572Y-1108143D01*
X4508572Y-1108143D02*
X4537143Y-1108143D01*
X4537143Y-1108143D02*
X4556191Y-1117667D01*
X4771429Y-1165286D02*
X4923810Y-1165286D01*
X4847619Y-1241476D02*
X4847619Y-1089095D01*
X5129524Y-1060524D02*
X5139048Y-1051000D01*
X5139048Y-1051000D02*
X5158095Y-1041476D01*
X5158095Y-1041476D02*
X5205715Y-1041476D01*
X5205715Y-1041476D02*
X5224762Y-1051000D01*
X5224762Y-1051000D02*
X5234286Y-1060524D01*
X5234286Y-1060524D02*
X5243810Y-1079571D01*
X5243810Y-1079571D02*
X5243810Y-1098619D01*
X5243810Y-1098619D02*
X5234286Y-1127190D01*
X5234286Y-1127190D02*
X5120000Y-1241476D01*
X5120000Y-1241476D02*
X5243810Y-1241476D01*
X5440000Y-1231952D02*
X5459048Y-1241476D01*
X5459048Y-1241476D02*
X5497143Y-1241476D01*
X5497143Y-1241476D02*
X5516191Y-1231952D01*
X5516191Y-1231952D02*
X5525715Y-1212905D01*
X5525715Y-1212905D02*
X5525715Y-1203381D01*
X5525715Y-1203381D02*
X5516191Y-1184333D01*
X5516191Y-1184333D02*
X5497143Y-1174810D01*
X5497143Y-1174810D02*
X5468572Y-1174810D01*
X5468572Y-1174810D02*
X5449524Y-1165286D01*
X5449524Y-1165286D02*
X5440000Y-1146238D01*
X5440000Y-1146238D02*
X5440000Y-1136714D01*
X5440000Y-1136714D02*
X5449524Y-1117667D01*
X5449524Y-1117667D02*
X5468572Y-1108143D01*
X5468572Y-1108143D02*
X5497143Y-1108143D01*
X5497143Y-1108143D02*
X5516191Y-1117667D01*
X5640000Y-1241476D02*
X5620953Y-1231952D01*
X5620953Y-1231952D02*
X5611429Y-1212905D01*
X5611429Y-1212905D02*
X5611429Y-1041476D01*
X5744762Y-1241476D02*
X5725714Y-1231952D01*
X5725714Y-1231952D02*
X5716191Y-1222429D01*
X5716191Y-1222429D02*
X5706667Y-1203381D01*
X5706667Y-1203381D02*
X5706667Y-1146238D01*
X5706667Y-1146238D02*
X5716191Y-1127190D01*
X5716191Y-1127190D02*
X5725714Y-1117667D01*
X5725714Y-1117667D02*
X5744762Y-1108143D01*
X5744762Y-1108143D02*
X5773334Y-1108143D01*
X5773334Y-1108143D02*
X5792381Y-1117667D01*
X5792381Y-1117667D02*
X5801905Y-1127190D01*
X5801905Y-1127190D02*
X5811429Y-1146238D01*
X5811429Y-1146238D02*
X5811429Y-1203381D01*
X5811429Y-1203381D02*
X5801905Y-1222429D01*
X5801905Y-1222429D02*
X5792381Y-1231952D01*
X5792381Y-1231952D02*
X5773334Y-1241476D01*
X5773334Y-1241476D02*
X5744762Y-1241476D01*
X5868572Y-1108143D02*
X5944762Y-1108143D01*
X5897143Y-1041476D02*
X5897143Y-1212905D01*
X5897143Y-1212905D02*
X5906667Y-1231952D01*
X5906667Y-1231952D02*
X5925714Y-1241476D01*
X5925714Y-1241476D02*
X5944762Y-1241476D01*
X6001905Y-1231952D02*
X6020953Y-1241476D01*
X6020953Y-1241476D02*
X6059048Y-1241476D01*
X6059048Y-1241476D02*
X6078095Y-1231952D01*
X6078095Y-1231952D02*
X6087619Y-1212905D01*
X6087619Y-1212905D02*
X6087619Y-1203381D01*
X6087619Y-1203381D02*
X6078095Y-1184333D01*
X6078095Y-1184333D02*
X6059048Y-1174810D01*
X6059048Y-1174810D02*
X6030476Y-1174810D01*
X6030476Y-1174810D02*
X6011429Y-1165286D01*
X6011429Y-1165286D02*
X6001905Y-1146238D01*
X6001905Y-1146238D02*
X6001905Y-1136714D01*
X6001905Y-1136714D02*
X6011429Y-1117667D01*
X6011429Y-1117667D02*
X6030476Y-1108143D01*
X6030476Y-1108143D02*
X6059048Y-1108143D01*
X6059048Y-1108143D02*
X6078095Y-1117667D01*
X6154286Y-1317667D02*
X6163810Y-1308143D01*
X6163810Y-1308143D02*
X6182857Y-1279571D01*
X6182857Y-1279571D02*
X6192381Y-1260524D01*
X6192381Y-1260524D02*
X6201905Y-1231952D01*
X6201905Y-1231952D02*
X6211429Y-1184333D01*
X6211429Y-1184333D02*
X6211429Y-1146238D01*
X6211429Y-1146238D02*
X6201905Y-1098619D01*
X6201905Y-1098619D02*
X6192381Y-1070048D01*
X6192381Y-1070048D02*
X6182857Y-1051000D01*
X6182857Y-1051000D02*
X6163810Y-1022428D01*
X6163810Y-1022428D02*
X6154286Y-1012905D01*
D14*
X-11715Y-1460284D02*
X-11715Y-1403715D01*
X-68285Y-1403715D01*
X-68285Y-1460284D01*
X-11715Y-1460284D01*
D10*
X285714Y-1305476D02*
X304762Y-1305476D01*
X304762Y-1305476D02*
X323810Y-1315000D01*
X323810Y-1315000D02*
X333333Y-1324524D01*
X333333Y-1324524D02*
X342857Y-1343571D01*
X342857Y-1343571D02*
X352381Y-1381667D01*
X352381Y-1381667D02*
X352381Y-1429286D01*
X352381Y-1429286D02*
X342857Y-1467381D01*
X342857Y-1467381D02*
X333333Y-1486428D01*
X333333Y-1486428D02*
X323810Y-1495952D01*
X323810Y-1495952D02*
X304762Y-1505476D01*
X304762Y-1505476D02*
X285714Y-1505476D01*
X285714Y-1505476D02*
X266667Y-1495952D01*
X266667Y-1495952D02*
X257143Y-1486428D01*
X257143Y-1486428D02*
X247619Y-1467381D01*
X247619Y-1467381D02*
X238095Y-1429286D01*
X238095Y-1429286D02*
X238095Y-1381667D01*
X238095Y-1381667D02*
X247619Y-1343571D01*
X247619Y-1343571D02*
X257143Y-1324524D01*
X257143Y-1324524D02*
X266667Y-1315000D01*
X266667Y-1315000D02*
X285714Y-1305476D01*
X438095Y-1486428D02*
X447619Y-1495952D01*
X447619Y-1495952D02*
X438095Y-1505476D01*
X438095Y-1505476D02*
X428571Y-1495952D01*
X428571Y-1495952D02*
X438095Y-1486428D01*
X438095Y-1486428D02*
X438095Y-1505476D01*
X561905Y-1391190D02*
X542857Y-1381667D01*
X542857Y-1381667D02*
X533333Y-1372143D01*
X533333Y-1372143D02*
X523809Y-1353095D01*
X523809Y-1353095D02*
X523809Y-1343571D01*
X523809Y-1343571D02*
X533333Y-1324524D01*
X533333Y-1324524D02*
X542857Y-1315000D01*
X542857Y-1315000D02*
X561905Y-1305476D01*
X561905Y-1305476D02*
X600000Y-1305476D01*
X600000Y-1305476D02*
X619048Y-1315000D01*
X619048Y-1315000D02*
X628571Y-1324524D01*
X628571Y-1324524D02*
X638095Y-1343571D01*
X638095Y-1343571D02*
X638095Y-1353095D01*
X638095Y-1353095D02*
X628571Y-1372143D01*
X628571Y-1372143D02*
X619048Y-1381667D01*
X619048Y-1381667D02*
X600000Y-1391190D01*
X600000Y-1391190D02*
X561905Y-1391190D01*
X561905Y-1391190D02*
X542857Y-1400714D01*
X542857Y-1400714D02*
X533333Y-1410238D01*
X533333Y-1410238D02*
X523809Y-1429286D01*
X523809Y-1429286D02*
X523809Y-1467381D01*
X523809Y-1467381D02*
X533333Y-1486428D01*
X533333Y-1486428D02*
X542857Y-1495952D01*
X542857Y-1495952D02*
X561905Y-1505476D01*
X561905Y-1505476D02*
X600000Y-1505476D01*
X600000Y-1505476D02*
X619048Y-1495952D01*
X619048Y-1495952D02*
X628571Y-1486428D01*
X628571Y-1486428D02*
X638095Y-1467381D01*
X638095Y-1467381D02*
X638095Y-1429286D01*
X638095Y-1429286D02*
X628571Y-1410238D01*
X628571Y-1410238D02*
X619048Y-1400714D01*
X619048Y-1400714D02*
X600000Y-1391190D01*
X761905Y-1305476D02*
X780952Y-1305476D01*
X780952Y-1305476D02*
X800000Y-1315000D01*
X800000Y-1315000D02*
X809524Y-1324524D01*
X809524Y-1324524D02*
X819048Y-1343571D01*
X819048Y-1343571D02*
X828571Y-1381667D01*
X828571Y-1381667D02*
X828571Y-1429286D01*
X828571Y-1429286D02*
X819048Y-1467381D01*
X819048Y-1467381D02*
X809524Y-1486428D01*
X809524Y-1486428D02*
X800000Y-1495952D01*
X800000Y-1495952D02*
X780952Y-1505476D01*
X780952Y-1505476D02*
X761905Y-1505476D01*
X761905Y-1505476D02*
X742857Y-1495952D01*
X742857Y-1495952D02*
X733333Y-1486428D01*
X733333Y-1486428D02*
X723809Y-1467381D01*
X723809Y-1467381D02*
X714286Y-1429286D01*
X714286Y-1429286D02*
X714286Y-1381667D01*
X714286Y-1381667D02*
X723809Y-1343571D01*
X723809Y-1343571D02*
X733333Y-1324524D01*
X733333Y-1324524D02*
X742857Y-1315000D01*
X742857Y-1315000D02*
X761905Y-1305476D01*
X952381Y-1305476D02*
X971429Y-1305476D01*
X971429Y-1305476D02*
X990476Y-1315000D01*
X990476Y-1315000D02*
X1000000Y-1324524D01*
X1000000Y-1324524D02*
X1009524Y-1343571D01*
X1009524Y-1343571D02*
X1019048Y-1381667D01*
X1019048Y-1381667D02*
X1019048Y-1429286D01*
X1019048Y-1429286D02*
X1009524Y-1467381D01*
X1009524Y-1467381D02*
X1000000Y-1486428D01*
X1000000Y-1486428D02*
X990476Y-1495952D01*
X990476Y-1495952D02*
X971429Y-1505476D01*
X971429Y-1505476D02*
X952381Y-1505476D01*
X952381Y-1505476D02*
X933333Y-1495952D01*
X933333Y-1495952D02*
X923809Y-1486428D01*
X923809Y-1486428D02*
X914286Y-1467381D01*
X914286Y-1467381D02*
X904762Y-1429286D01*
X904762Y-1429286D02*
X904762Y-1381667D01*
X904762Y-1381667D02*
X914286Y-1343571D01*
X914286Y-1343571D02*
X923809Y-1324524D01*
X923809Y-1324524D02*
X933333Y-1315000D01*
X933333Y-1315000D02*
X952381Y-1305476D01*
X1104762Y-1505476D02*
X1104762Y-1372143D01*
X1104762Y-1391190D02*
X1114286Y-1381667D01*
X1114286Y-1381667D02*
X1133333Y-1372143D01*
X1133333Y-1372143D02*
X1161905Y-1372143D01*
X1161905Y-1372143D02*
X1180952Y-1381667D01*
X1180952Y-1381667D02*
X1190476Y-1400714D01*
X1190476Y-1400714D02*
X1190476Y-1505476D01*
X1190476Y-1400714D02*
X1200000Y-1381667D01*
X1200000Y-1381667D02*
X1219048Y-1372143D01*
X1219048Y-1372143D02*
X1247619Y-1372143D01*
X1247619Y-1372143D02*
X1266667Y-1381667D01*
X1266667Y-1381667D02*
X1276191Y-1400714D01*
X1276191Y-1400714D02*
X1276191Y-1505476D01*
X1371429Y-1505476D02*
X1371429Y-1372143D01*
X1371429Y-1391190D02*
X1380952Y-1381667D01*
X1380952Y-1381667D02*
X1400000Y-1372143D01*
X1400000Y-1372143D02*
X1428571Y-1372143D01*
X1428571Y-1372143D02*
X1447619Y-1381667D01*
X1447619Y-1381667D02*
X1457143Y-1400714D01*
X1457143Y-1400714D02*
X1457143Y-1505476D01*
X1457143Y-1400714D02*
X1466667Y-1381667D01*
X1466667Y-1381667D02*
X1485714Y-1372143D01*
X1485714Y-1372143D02*
X1514286Y-1372143D01*
X1514286Y-1372143D02*
X1533333Y-1381667D01*
X1533333Y-1381667D02*
X1542857Y-1400714D01*
X1542857Y-1400714D02*
X1542857Y-1505476D01*
X1900952Y-1295952D02*
X1729524Y-1553095D01*
X2125714Y-1305476D02*
X2144762Y-1305476D01*
X2144762Y-1305476D02*
X2163810Y-1315000D01*
X2163810Y-1315000D02*
X2173333Y-1324524D01*
X2173333Y-1324524D02*
X2182857Y-1343571D01*
X2182857Y-1343571D02*
X2192381Y-1381667D01*
X2192381Y-1381667D02*
X2192381Y-1429286D01*
X2192381Y-1429286D02*
X2182857Y-1467381D01*
X2182857Y-1467381D02*
X2173333Y-1486428D01*
X2173333Y-1486428D02*
X2163810Y-1495952D01*
X2163810Y-1495952D02*
X2144762Y-1505476D01*
X2144762Y-1505476D02*
X2125714Y-1505476D01*
X2125714Y-1505476D02*
X2106667Y-1495952D01*
X2106667Y-1495952D02*
X2097143Y-1486428D01*
X2097143Y-1486428D02*
X2087619Y-1467381D01*
X2087619Y-1467381D02*
X2078095Y-1429286D01*
X2078095Y-1429286D02*
X2078095Y-1381667D01*
X2078095Y-1381667D02*
X2087619Y-1343571D01*
X2087619Y-1343571D02*
X2097143Y-1324524D01*
X2097143Y-1324524D02*
X2106667Y-1315000D01*
X2106667Y-1315000D02*
X2125714Y-1305476D01*
X2278095Y-1486428D02*
X2287619Y-1495952D01*
X2287619Y-1495952D02*
X2278095Y-1505476D01*
X2278095Y-1505476D02*
X2268572Y-1495952D01*
X2268572Y-1495952D02*
X2278095Y-1486428D01*
X2278095Y-1486428D02*
X2278095Y-1505476D01*
X2411429Y-1305476D02*
X2430476Y-1305476D01*
X2430476Y-1305476D02*
X2449524Y-1315000D01*
X2449524Y-1315000D02*
X2459048Y-1324524D01*
X2459048Y-1324524D02*
X2468572Y-1343571D01*
X2468572Y-1343571D02*
X2478095Y-1381667D01*
X2478095Y-1381667D02*
X2478095Y-1429286D01*
X2478095Y-1429286D02*
X2468572Y-1467381D01*
X2468572Y-1467381D02*
X2459048Y-1486428D01*
X2459048Y-1486428D02*
X2449524Y-1495952D01*
X2449524Y-1495952D02*
X2430476Y-1505476D01*
X2430476Y-1505476D02*
X2411429Y-1505476D01*
X2411429Y-1505476D02*
X2392381Y-1495952D01*
X2392381Y-1495952D02*
X2382857Y-1486428D01*
X2382857Y-1486428D02*
X2373333Y-1467381D01*
X2373333Y-1467381D02*
X2363810Y-1429286D01*
X2363810Y-1429286D02*
X2363810Y-1381667D01*
X2363810Y-1381667D02*
X2373333Y-1343571D01*
X2373333Y-1343571D02*
X2382857Y-1324524D01*
X2382857Y-1324524D02*
X2392381Y-1315000D01*
X2392381Y-1315000D02*
X2411429Y-1305476D01*
X2544762Y-1305476D02*
X2668572Y-1305476D01*
X2668572Y-1305476D02*
X2601905Y-1381667D01*
X2601905Y-1381667D02*
X2630476Y-1381667D01*
X2630476Y-1381667D02*
X2649524Y-1391190D01*
X2649524Y-1391190D02*
X2659048Y-1400714D01*
X2659048Y-1400714D02*
X2668572Y-1419762D01*
X2668572Y-1419762D02*
X2668572Y-1467381D01*
X2668572Y-1467381D02*
X2659048Y-1486428D01*
X2659048Y-1486428D02*
X2649524Y-1495952D01*
X2649524Y-1495952D02*
X2630476Y-1505476D01*
X2630476Y-1505476D02*
X2573333Y-1505476D01*
X2573333Y-1505476D02*
X2554286Y-1495952D01*
X2554286Y-1495952D02*
X2544762Y-1486428D01*
X2859048Y-1505476D02*
X2744762Y-1505476D01*
X2801905Y-1505476D02*
X2801905Y-1305476D01*
X2801905Y-1305476D02*
X2782857Y-1334048D01*
X2782857Y-1334048D02*
X2763810Y-1353095D01*
X2763810Y-1353095D02*
X2744762Y-1362619D01*
X3040000Y-1305476D02*
X2944762Y-1305476D01*
X2944762Y-1305476D02*
X2935238Y-1400714D01*
X2935238Y-1400714D02*
X2944762Y-1391190D01*
X2944762Y-1391190D02*
X2963810Y-1381667D01*
X2963810Y-1381667D02*
X3011429Y-1381667D01*
X3011429Y-1381667D02*
X3030476Y-1391190D01*
X3030476Y-1391190D02*
X3040000Y-1400714D01*
X3040000Y-1400714D02*
X3049524Y-1419762D01*
X3049524Y-1419762D02*
X3049524Y-1467381D01*
X3049524Y-1467381D02*
X3040000Y-1486428D01*
X3040000Y-1486428D02*
X3030476Y-1495952D01*
X3030476Y-1495952D02*
X3011429Y-1505476D01*
X3011429Y-1505476D02*
X2963810Y-1505476D01*
X2963810Y-1505476D02*
X2944762Y-1495952D01*
X2944762Y-1495952D02*
X2935238Y-1486428D01*
X3125714Y-1305476D02*
X3125714Y-1343571D01*
X3201905Y-1305476D02*
X3201905Y-1343571D01*
X3464762Y-1581667D02*
X3455238Y-1572143D01*
X3455238Y-1572143D02*
X3436191Y-1543571D01*
X3436191Y-1543571D02*
X3426667Y-1524524D01*
X3426667Y-1524524D02*
X3417143Y-1495952D01*
X3417143Y-1495952D02*
X3407619Y-1448333D01*
X3407619Y-1448333D02*
X3407619Y-1410238D01*
X3407619Y-1410238D02*
X3417143Y-1362619D01*
X3417143Y-1362619D02*
X3426667Y-1334048D01*
X3426667Y-1334048D02*
X3436191Y-1315000D01*
X3436191Y-1315000D02*
X3455238Y-1286429D01*
X3455238Y-1286429D02*
X3464762Y-1276905D01*
X3645714Y-1505476D02*
X3531429Y-1505476D01*
X3588571Y-1505476D02*
X3588571Y-1305476D01*
X3588571Y-1305476D02*
X3569524Y-1334048D01*
X3569524Y-1334048D02*
X3550476Y-1353095D01*
X3550476Y-1353095D02*
X3531429Y-1362619D01*
X3769524Y-1305476D02*
X3788572Y-1305476D01*
X3788572Y-1305476D02*
X3807619Y-1315000D01*
X3807619Y-1315000D02*
X3817143Y-1324524D01*
X3817143Y-1324524D02*
X3826667Y-1343571D01*
X3826667Y-1343571D02*
X3836191Y-1381667D01*
X3836191Y-1381667D02*
X3836191Y-1429286D01*
X3836191Y-1429286D02*
X3826667Y-1467381D01*
X3826667Y-1467381D02*
X3817143Y-1486428D01*
X3817143Y-1486428D02*
X3807619Y-1495952D01*
X3807619Y-1495952D02*
X3788572Y-1505476D01*
X3788572Y-1505476D02*
X3769524Y-1505476D01*
X3769524Y-1505476D02*
X3750476Y-1495952D01*
X3750476Y-1495952D02*
X3740952Y-1486428D01*
X3740952Y-1486428D02*
X3731429Y-1467381D01*
X3731429Y-1467381D02*
X3721905Y-1429286D01*
X3721905Y-1429286D02*
X3721905Y-1381667D01*
X3721905Y-1381667D02*
X3731429Y-1343571D01*
X3731429Y-1343571D02*
X3740952Y-1324524D01*
X3740952Y-1324524D02*
X3750476Y-1315000D01*
X3750476Y-1315000D02*
X3769524Y-1305476D01*
X4041905Y-1505476D02*
X4041905Y-1305476D01*
X4127619Y-1505476D02*
X4127619Y-1400714D01*
X4127619Y-1400714D02*
X4118095Y-1381667D01*
X4118095Y-1381667D02*
X4099048Y-1372143D01*
X4099048Y-1372143D02*
X4070476Y-1372143D01*
X4070476Y-1372143D02*
X4051429Y-1381667D01*
X4051429Y-1381667D02*
X4041905Y-1391190D01*
X4251429Y-1505476D02*
X4232381Y-1495952D01*
X4232381Y-1495952D02*
X4222857Y-1486428D01*
X4222857Y-1486428D02*
X4213334Y-1467381D01*
X4213334Y-1467381D02*
X4213334Y-1410238D01*
X4213334Y-1410238D02*
X4222857Y-1391190D01*
X4222857Y-1391190D02*
X4232381Y-1381667D01*
X4232381Y-1381667D02*
X4251429Y-1372143D01*
X4251429Y-1372143D02*
X4280000Y-1372143D01*
X4280000Y-1372143D02*
X4299048Y-1381667D01*
X4299048Y-1381667D02*
X4308572Y-1391190D01*
X4308572Y-1391190D02*
X4318095Y-1410238D01*
X4318095Y-1410238D02*
X4318095Y-1467381D01*
X4318095Y-1467381D02*
X4308572Y-1486428D01*
X4308572Y-1486428D02*
X4299048Y-1495952D01*
X4299048Y-1495952D02*
X4280000Y-1505476D01*
X4280000Y-1505476D02*
X4251429Y-1505476D01*
X4432381Y-1505476D02*
X4413334Y-1495952D01*
X4413334Y-1495952D02*
X4403810Y-1476905D01*
X4403810Y-1476905D02*
X4403810Y-1305476D01*
X4584762Y-1495952D02*
X4565715Y-1505476D01*
X4565715Y-1505476D02*
X4527619Y-1505476D01*
X4527619Y-1505476D02*
X4508572Y-1495952D01*
X4508572Y-1495952D02*
X4499048Y-1476905D01*
X4499048Y-1476905D02*
X4499048Y-1400714D01*
X4499048Y-1400714D02*
X4508572Y-1381667D01*
X4508572Y-1381667D02*
X4527619Y-1372143D01*
X4527619Y-1372143D02*
X4565715Y-1372143D01*
X4565715Y-1372143D02*
X4584762Y-1381667D01*
X4584762Y-1381667D02*
X4594286Y-1400714D01*
X4594286Y-1400714D02*
X4594286Y-1419762D01*
X4594286Y-1419762D02*
X4499048Y-1438809D01*
X4670476Y-1495952D02*
X4689524Y-1505476D01*
X4689524Y-1505476D02*
X4727619Y-1505476D01*
X4727619Y-1505476D02*
X4746667Y-1495952D01*
X4746667Y-1495952D02*
X4756191Y-1476905D01*
X4756191Y-1476905D02*
X4756191Y-1467381D01*
X4756191Y-1467381D02*
X4746667Y-1448333D01*
X4746667Y-1448333D02*
X4727619Y-1438809D01*
X4727619Y-1438809D02*
X4699048Y-1438809D01*
X4699048Y-1438809D02*
X4680000Y-1429286D01*
X4680000Y-1429286D02*
X4670476Y-1410238D01*
X4670476Y-1410238D02*
X4670476Y-1400714D01*
X4670476Y-1400714D02*
X4680000Y-1381667D01*
X4680000Y-1381667D02*
X4699048Y-1372143D01*
X4699048Y-1372143D02*
X4727619Y-1372143D01*
X4727619Y-1372143D02*
X4746667Y-1381667D01*
X4822857Y-1581667D02*
X4832381Y-1572143D01*
X4832381Y-1572143D02*
X4851429Y-1543571D01*
X4851429Y-1543571D02*
X4860953Y-1524524D01*
X4860953Y-1524524D02*
X4870476Y-1495952D01*
X4870476Y-1495952D02*
X4880000Y-1448333D01*
X4880000Y-1448333D02*
X4880000Y-1410238D01*
X4880000Y-1410238D02*
X4870476Y-1362619D01*
X4870476Y-1362619D02*
X4860953Y-1334048D01*
X4860953Y-1334048D02*
X4851429Y-1315000D01*
X4851429Y-1315000D02*
X4832381Y-1286429D01*
X4832381Y-1286429D02*
X4822857Y-1276905D01*
D15*
X-50000Y-1746000D02*
X0Y-1696000D01*
X-50000Y-1646000D01*
X-100000Y-1696000D01*
X-50000Y-1746000D01*
D10*
X352381Y-1769476D02*
X238095Y-1769476D01*
X295238Y-1769476D02*
X295238Y-1569476D01*
X295238Y-1569476D02*
X276190Y-1598048D01*
X276190Y-1598048D02*
X257143Y-1617095D01*
X257143Y-1617095D02*
X238095Y-1626619D01*
X438095Y-1750428D02*
X447619Y-1759952D01*
X447619Y-1759952D02*
X438095Y-1769476D01*
X438095Y-1769476D02*
X428571Y-1759952D01*
X428571Y-1759952D02*
X438095Y-1750428D01*
X438095Y-1750428D02*
X438095Y-1769476D01*
X571429Y-1569476D02*
X590476Y-1569476D01*
X590476Y-1569476D02*
X609524Y-1579000D01*
X609524Y-1579000D02*
X619048Y-1588524D01*
X619048Y-1588524D02*
X628571Y-1607571D01*
X628571Y-1607571D02*
X638095Y-1645667D01*
X638095Y-1645667D02*
X638095Y-1693286D01*
X638095Y-1693286D02*
X628571Y-1731381D01*
X628571Y-1731381D02*
X619048Y-1750428D01*
X619048Y-1750428D02*
X609524Y-1759952D01*
X609524Y-1759952D02*
X590476Y-1769476D01*
X590476Y-1769476D02*
X571429Y-1769476D01*
X571429Y-1769476D02*
X552381Y-1759952D01*
X552381Y-1759952D02*
X542857Y-1750428D01*
X542857Y-1750428D02*
X533333Y-1731381D01*
X533333Y-1731381D02*
X523809Y-1693286D01*
X523809Y-1693286D02*
X523809Y-1645667D01*
X523809Y-1645667D02*
X533333Y-1607571D01*
X533333Y-1607571D02*
X542857Y-1588524D01*
X542857Y-1588524D02*
X552381Y-1579000D01*
X552381Y-1579000D02*
X571429Y-1569476D01*
X761905Y-1569476D02*
X780952Y-1569476D01*
X780952Y-1569476D02*
X800000Y-1579000D01*
X800000Y-1579000D02*
X809524Y-1588524D01*
X809524Y-1588524D02*
X819048Y-1607571D01*
X819048Y-1607571D02*
X828571Y-1645667D01*
X828571Y-1645667D02*
X828571Y-1693286D01*
X828571Y-1693286D02*
X819048Y-1731381D01*
X819048Y-1731381D02*
X809524Y-1750428D01*
X809524Y-1750428D02*
X800000Y-1759952D01*
X800000Y-1759952D02*
X780952Y-1769476D01*
X780952Y-1769476D02*
X761905Y-1769476D01*
X761905Y-1769476D02*
X742857Y-1759952D01*
X742857Y-1759952D02*
X733333Y-1750428D01*
X733333Y-1750428D02*
X723809Y-1731381D01*
X723809Y-1731381D02*
X714286Y-1693286D01*
X714286Y-1693286D02*
X714286Y-1645667D01*
X714286Y-1645667D02*
X723809Y-1607571D01*
X723809Y-1607571D02*
X733333Y-1588524D01*
X733333Y-1588524D02*
X742857Y-1579000D01*
X742857Y-1579000D02*
X761905Y-1569476D01*
X952381Y-1569476D02*
X971429Y-1569476D01*
X971429Y-1569476D02*
X990476Y-1579000D01*
X990476Y-1579000D02*
X1000000Y-1588524D01*
X1000000Y-1588524D02*
X1009524Y-1607571D01*
X1009524Y-1607571D02*
X1019048Y-1645667D01*
X1019048Y-1645667D02*
X1019048Y-1693286D01*
X1019048Y-1693286D02*
X1009524Y-1731381D01*
X1009524Y-1731381D02*
X1000000Y-1750428D01*
X1000000Y-1750428D02*
X990476Y-1759952D01*
X990476Y-1759952D02*
X971429Y-1769476D01*
X971429Y-1769476D02*
X952381Y-1769476D01*
X952381Y-1769476D02*
X933333Y-1759952D01*
X933333Y-1759952D02*
X923809Y-1750428D01*
X923809Y-1750428D02*
X914286Y-1731381D01*
X914286Y-1731381D02*
X904762Y-1693286D01*
X904762Y-1693286D02*
X904762Y-1645667D01*
X904762Y-1645667D02*
X914286Y-1607571D01*
X914286Y-1607571D02*
X923809Y-1588524D01*
X923809Y-1588524D02*
X933333Y-1579000D01*
X933333Y-1579000D02*
X952381Y-1569476D01*
X1104762Y-1769476D02*
X1104762Y-1636143D01*
X1104762Y-1655190D02*
X1114286Y-1645667D01*
X1114286Y-1645667D02*
X1133333Y-1636143D01*
X1133333Y-1636143D02*
X1161905Y-1636143D01*
X1161905Y-1636143D02*
X1180952Y-1645667D01*
X1180952Y-1645667D02*
X1190476Y-1664714D01*
X1190476Y-1664714D02*
X1190476Y-1769476D01*
X1190476Y-1664714D02*
X1200000Y-1645667D01*
X1200000Y-1645667D02*
X1219048Y-1636143D01*
X1219048Y-1636143D02*
X1247619Y-1636143D01*
X1247619Y-1636143D02*
X1266667Y-1645667D01*
X1266667Y-1645667D02*
X1276191Y-1664714D01*
X1276191Y-1664714D02*
X1276191Y-1769476D01*
X1371429Y-1769476D02*
X1371429Y-1636143D01*
X1371429Y-1655190D02*
X1380952Y-1645667D01*
X1380952Y-1645667D02*
X1400000Y-1636143D01*
X1400000Y-1636143D02*
X1428571Y-1636143D01*
X1428571Y-1636143D02*
X1447619Y-1645667D01*
X1447619Y-1645667D02*
X1457143Y-1664714D01*
X1457143Y-1664714D02*
X1457143Y-1769476D01*
X1457143Y-1664714D02*
X1466667Y-1645667D01*
X1466667Y-1645667D02*
X1485714Y-1636143D01*
X1485714Y-1636143D02*
X1514286Y-1636143D01*
X1514286Y-1636143D02*
X1533333Y-1645667D01*
X1533333Y-1645667D02*
X1542857Y-1664714D01*
X1542857Y-1664714D02*
X1542857Y-1769476D01*
X1900952Y-1559952D02*
X1729524Y-1817095D01*
X2125714Y-1569476D02*
X2144762Y-1569476D01*
X2144762Y-1569476D02*
X2163810Y-1579000D01*
X2163810Y-1579000D02*
X2173333Y-1588524D01*
X2173333Y-1588524D02*
X2182857Y-1607571D01*
X2182857Y-1607571D02*
X2192381Y-1645667D01*
X2192381Y-1645667D02*
X2192381Y-1693286D01*
X2192381Y-1693286D02*
X2182857Y-1731381D01*
X2182857Y-1731381D02*
X2173333Y-1750428D01*
X2173333Y-1750428D02*
X2163810Y-1759952D01*
X2163810Y-1759952D02*
X2144762Y-1769476D01*
X2144762Y-1769476D02*
X2125714Y-1769476D01*
X2125714Y-1769476D02*
X2106667Y-1759952D01*
X2106667Y-1759952D02*
X2097143Y-1750428D01*
X2097143Y-1750428D02*
X2087619Y-1731381D01*
X2087619Y-1731381D02*
X2078095Y-1693286D01*
X2078095Y-1693286D02*
X2078095Y-1645667D01*
X2078095Y-1645667D02*
X2087619Y-1607571D01*
X2087619Y-1607571D02*
X2097143Y-1588524D01*
X2097143Y-1588524D02*
X2106667Y-1579000D01*
X2106667Y-1579000D02*
X2125714Y-1569476D01*
X2278095Y-1750428D02*
X2287619Y-1759952D01*
X2287619Y-1759952D02*
X2278095Y-1769476D01*
X2278095Y-1769476D02*
X2268572Y-1759952D01*
X2268572Y-1759952D02*
X2278095Y-1750428D01*
X2278095Y-1750428D02*
X2278095Y-1769476D01*
X2411429Y-1569476D02*
X2430476Y-1569476D01*
X2430476Y-1569476D02*
X2449524Y-1579000D01*
X2449524Y-1579000D02*
X2459048Y-1588524D01*
X2459048Y-1588524D02*
X2468572Y-1607571D01*
X2468572Y-1607571D02*
X2478095Y-1645667D01*
X2478095Y-1645667D02*
X2478095Y-1693286D01*
X2478095Y-1693286D02*
X2468572Y-1731381D01*
X2468572Y-1731381D02*
X2459048Y-1750428D01*
X2459048Y-1750428D02*
X2449524Y-1759952D01*
X2449524Y-1759952D02*
X2430476Y-1769476D01*
X2430476Y-1769476D02*
X2411429Y-1769476D01*
X2411429Y-1769476D02*
X2392381Y-1759952D01*
X2392381Y-1759952D02*
X2382857Y-1750428D01*
X2382857Y-1750428D02*
X2373333Y-1731381D01*
X2373333Y-1731381D02*
X2363810Y-1693286D01*
X2363810Y-1693286D02*
X2363810Y-1645667D01*
X2363810Y-1645667D02*
X2373333Y-1607571D01*
X2373333Y-1607571D02*
X2382857Y-1588524D01*
X2382857Y-1588524D02*
X2392381Y-1579000D01*
X2392381Y-1579000D02*
X2411429Y-1569476D01*
X2544762Y-1569476D02*
X2668572Y-1569476D01*
X2668572Y-1569476D02*
X2601905Y-1645667D01*
X2601905Y-1645667D02*
X2630476Y-1645667D01*
X2630476Y-1645667D02*
X2649524Y-1655190D01*
X2649524Y-1655190D02*
X2659048Y-1664714D01*
X2659048Y-1664714D02*
X2668572Y-1683762D01*
X2668572Y-1683762D02*
X2668572Y-1731381D01*
X2668572Y-1731381D02*
X2659048Y-1750428D01*
X2659048Y-1750428D02*
X2649524Y-1759952D01*
X2649524Y-1759952D02*
X2630476Y-1769476D01*
X2630476Y-1769476D02*
X2573333Y-1769476D01*
X2573333Y-1769476D02*
X2554286Y-1759952D01*
X2554286Y-1759952D02*
X2544762Y-1750428D01*
X2763810Y-1769476D02*
X2801905Y-1769476D01*
X2801905Y-1769476D02*
X2820952Y-1759952D01*
X2820952Y-1759952D02*
X2830476Y-1750428D01*
X2830476Y-1750428D02*
X2849524Y-1721857D01*
X2849524Y-1721857D02*
X2859048Y-1683762D01*
X2859048Y-1683762D02*
X2859048Y-1607571D01*
X2859048Y-1607571D02*
X2849524Y-1588524D01*
X2849524Y-1588524D02*
X2840000Y-1579000D01*
X2840000Y-1579000D02*
X2820952Y-1569476D01*
X2820952Y-1569476D02*
X2782857Y-1569476D01*
X2782857Y-1569476D02*
X2763810Y-1579000D01*
X2763810Y-1579000D02*
X2754286Y-1588524D01*
X2754286Y-1588524D02*
X2744762Y-1607571D01*
X2744762Y-1607571D02*
X2744762Y-1655190D01*
X2744762Y-1655190D02*
X2754286Y-1674238D01*
X2754286Y-1674238D02*
X2763810Y-1683762D01*
X2763810Y-1683762D02*
X2782857Y-1693286D01*
X2782857Y-1693286D02*
X2820952Y-1693286D01*
X2820952Y-1693286D02*
X2840000Y-1683762D01*
X2840000Y-1683762D02*
X2849524Y-1674238D01*
X2849524Y-1674238D02*
X2859048Y-1655190D01*
X3030476Y-1636143D02*
X3030476Y-1769476D01*
X2982857Y-1559952D02*
X2935238Y-1702809D01*
X2935238Y-1702809D02*
X3059048Y-1702809D01*
X3125714Y-1569476D02*
X3125714Y-1607571D01*
X3201905Y-1569476D02*
X3201905Y-1607571D01*
X3464762Y-1845667D02*
X3455238Y-1836143D01*
X3455238Y-1836143D02*
X3436191Y-1807571D01*
X3436191Y-1807571D02*
X3426667Y-1788524D01*
X3426667Y-1788524D02*
X3417143Y-1759952D01*
X3417143Y-1759952D02*
X3407619Y-1712333D01*
X3407619Y-1712333D02*
X3407619Y-1674238D01*
X3407619Y-1674238D02*
X3417143Y-1626619D01*
X3417143Y-1626619D02*
X3426667Y-1598048D01*
X3426667Y-1598048D02*
X3436191Y-1579000D01*
X3436191Y-1579000D02*
X3455238Y-1550428D01*
X3455238Y-1550428D02*
X3464762Y-1540905D01*
X3645714Y-1769476D02*
X3531429Y-1769476D01*
X3588571Y-1769476D02*
X3588571Y-1569476D01*
X3588571Y-1569476D02*
X3569524Y-1598048D01*
X3569524Y-1598048D02*
X3550476Y-1617095D01*
X3550476Y-1617095D02*
X3531429Y-1626619D01*
X3721905Y-1588524D02*
X3731429Y-1579000D01*
X3731429Y-1579000D02*
X3750476Y-1569476D01*
X3750476Y-1569476D02*
X3798095Y-1569476D01*
X3798095Y-1569476D02*
X3817143Y-1579000D01*
X3817143Y-1579000D02*
X3826667Y-1588524D01*
X3826667Y-1588524D02*
X3836191Y-1607571D01*
X3836191Y-1607571D02*
X3836191Y-1626619D01*
X3836191Y-1626619D02*
X3826667Y-1655190D01*
X3826667Y-1655190D02*
X3712381Y-1769476D01*
X3712381Y-1769476D02*
X3836191Y-1769476D01*
X4041905Y-1769476D02*
X4041905Y-1569476D01*
X4127619Y-1769476D02*
X4127619Y-1664714D01*
X4127619Y-1664714D02*
X4118095Y-1645667D01*
X4118095Y-1645667D02*
X4099048Y-1636143D01*
X4099048Y-1636143D02*
X4070476Y-1636143D01*
X4070476Y-1636143D02*
X4051429Y-1645667D01*
X4051429Y-1645667D02*
X4041905Y-1655190D01*
X4251429Y-1769476D02*
X4232381Y-1759952D01*
X4232381Y-1759952D02*
X4222857Y-1750428D01*
X4222857Y-1750428D02*
X4213334Y-1731381D01*
X4213334Y-1731381D02*
X4213334Y-1674238D01*
X4213334Y-1674238D02*
X4222857Y-1655190D01*
X4222857Y-1655190D02*
X4232381Y-1645667D01*
X4232381Y-1645667D02*
X4251429Y-1636143D01*
X4251429Y-1636143D02*
X4280000Y-1636143D01*
X4280000Y-1636143D02*
X4299048Y-1645667D01*
X4299048Y-1645667D02*
X4308572Y-1655190D01*
X4308572Y-1655190D02*
X4318095Y-1674238D01*
X4318095Y-1674238D02*
X4318095Y-1731381D01*
X4318095Y-1731381D02*
X4308572Y-1750428D01*
X4308572Y-1750428D02*
X4299048Y-1759952D01*
X4299048Y-1759952D02*
X4280000Y-1769476D01*
X4280000Y-1769476D02*
X4251429Y-1769476D01*
X4432381Y-1769476D02*
X4413334Y-1759952D01*
X4413334Y-1759952D02*
X4403810Y-1740905D01*
X4403810Y-1740905D02*
X4403810Y-1569476D01*
X4584762Y-1759952D02*
X4565715Y-1769476D01*
X4565715Y-1769476D02*
X4527619Y-1769476D01*
X4527619Y-1769476D02*
X4508572Y-1759952D01*
X4508572Y-1759952D02*
X4499048Y-1740905D01*
X4499048Y-1740905D02*
X4499048Y-1664714D01*
X4499048Y-1664714D02*
X4508572Y-1645667D01*
X4508572Y-1645667D02*
X4527619Y-1636143D01*
X4527619Y-1636143D02*
X4565715Y-1636143D01*
X4565715Y-1636143D02*
X4584762Y-1645667D01*
X4584762Y-1645667D02*
X4594286Y-1664714D01*
X4594286Y-1664714D02*
X4594286Y-1683762D01*
X4594286Y-1683762D02*
X4499048Y-1702809D01*
X4670476Y-1759952D02*
X4689524Y-1769476D01*
X4689524Y-1769476D02*
X4727619Y-1769476D01*
X4727619Y-1769476D02*
X4746667Y-1759952D01*
X4746667Y-1759952D02*
X4756191Y-1740905D01*
X4756191Y-1740905D02*
X4756191Y-1731381D01*
X4756191Y-1731381D02*
X4746667Y-1712333D01*
X4746667Y-1712333D02*
X4727619Y-1702809D01*
X4727619Y-1702809D02*
X4699048Y-1702809D01*
X4699048Y-1702809D02*
X4680000Y-1693286D01*
X4680000Y-1693286D02*
X4670476Y-1674238D01*
X4670476Y-1674238D02*
X4670476Y-1664714D01*
X4670476Y-1664714D02*
X4680000Y-1645667D01*
X4680000Y-1645667D02*
X4699048Y-1636143D01*
X4699048Y-1636143D02*
X4727619Y-1636143D01*
X4727619Y-1636143D02*
X4746667Y-1645667D01*
X4822857Y-1845667D02*
X4832381Y-1836143D01*
X4832381Y-1836143D02*
X4851429Y-1807571D01*
X4851429Y-1807571D02*
X4860953Y-1788524D01*
X4860953Y-1788524D02*
X4870476Y-1759952D01*
X4870476Y-1759952D02*
X4880000Y-1712333D01*
X4880000Y-1712333D02*
X4880000Y-1674238D01*
X4880000Y-1674238D02*
X4870476Y-1626619D01*
X4870476Y-1626619D02*
X4860953Y-1598048D01*
X4860953Y-1598048D02*
X4851429Y-1579000D01*
X4851429Y-1579000D02*
X4832381Y-1550428D01*
X4832381Y-1550428D02*
X4822857Y-1540905D01*
D16*
X-102000Y-1909000D02*
X0Y-2011000D01*
X0Y-1909000D02*
X-102000Y-2011000D01*
X0Y-1960000D02*
G75*
G03*
X0Y-1960000I-51000J0D01*
G01*
D10*
X352381Y-2033476D02*
X238095Y-2033476D01*
X295238Y-2033476D02*
X295238Y-1833476D01*
X295238Y-1833476D02*
X276190Y-1862048D01*
X276190Y-1862048D02*
X257143Y-1881095D01*
X257143Y-1881095D02*
X238095Y-1890619D01*
X438095Y-2014428D02*
X447619Y-2023952D01*
X447619Y-2023952D02*
X438095Y-2033476D01*
X438095Y-2033476D02*
X428571Y-2023952D01*
X428571Y-2023952D02*
X438095Y-2014428D01*
X438095Y-2014428D02*
X438095Y-2033476D01*
X571429Y-1833476D02*
X590476Y-1833476D01*
X590476Y-1833476D02*
X609524Y-1843000D01*
X609524Y-1843000D02*
X619048Y-1852524D01*
X619048Y-1852524D02*
X628571Y-1871571D01*
X628571Y-1871571D02*
X638095Y-1909667D01*
X638095Y-1909667D02*
X638095Y-1957286D01*
X638095Y-1957286D02*
X628571Y-1995381D01*
X628571Y-1995381D02*
X619048Y-2014428D01*
X619048Y-2014428D02*
X609524Y-2023952D01*
X609524Y-2023952D02*
X590476Y-2033476D01*
X590476Y-2033476D02*
X571429Y-2033476D01*
X571429Y-2033476D02*
X552381Y-2023952D01*
X552381Y-2023952D02*
X542857Y-2014428D01*
X542857Y-2014428D02*
X533333Y-1995381D01*
X533333Y-1995381D02*
X523809Y-1957286D01*
X523809Y-1957286D02*
X523809Y-1909667D01*
X523809Y-1909667D02*
X533333Y-1871571D01*
X533333Y-1871571D02*
X542857Y-1852524D01*
X542857Y-1852524D02*
X552381Y-1843000D01*
X552381Y-1843000D02*
X571429Y-1833476D01*
X714286Y-1852524D02*
X723809Y-1843000D01*
X723809Y-1843000D02*
X742857Y-1833476D01*
X742857Y-1833476D02*
X790476Y-1833476D01*
X790476Y-1833476D02*
X809524Y-1843000D01*
X809524Y-1843000D02*
X819048Y-1852524D01*
X819048Y-1852524D02*
X828571Y-1871571D01*
X828571Y-1871571D02*
X828571Y-1890619D01*
X828571Y-1890619D02*
X819048Y-1919190D01*
X819048Y-1919190D02*
X704762Y-2033476D01*
X704762Y-2033476D02*
X828571Y-2033476D01*
X952381Y-1833476D02*
X971429Y-1833476D01*
X971429Y-1833476D02*
X990476Y-1843000D01*
X990476Y-1843000D02*
X1000000Y-1852524D01*
X1000000Y-1852524D02*
X1009524Y-1871571D01*
X1009524Y-1871571D02*
X1019048Y-1909667D01*
X1019048Y-1909667D02*
X1019048Y-1957286D01*
X1019048Y-1957286D02*
X1009524Y-1995381D01*
X1009524Y-1995381D02*
X1000000Y-2014428D01*
X1000000Y-2014428D02*
X990476Y-2023952D01*
X990476Y-2023952D02*
X971429Y-2033476D01*
X971429Y-2033476D02*
X952381Y-2033476D01*
X952381Y-2033476D02*
X933333Y-2023952D01*
X933333Y-2023952D02*
X923809Y-2014428D01*
X923809Y-2014428D02*
X914286Y-1995381D01*
X914286Y-1995381D02*
X904762Y-1957286D01*
X904762Y-1957286D02*
X904762Y-1909667D01*
X904762Y-1909667D02*
X914286Y-1871571D01*
X914286Y-1871571D02*
X923809Y-1852524D01*
X923809Y-1852524D02*
X933333Y-1843000D01*
X933333Y-1843000D02*
X952381Y-1833476D01*
X1104762Y-2033476D02*
X1104762Y-1900143D01*
X1104762Y-1919190D02*
X1114286Y-1909667D01*
X1114286Y-1909667D02*
X1133333Y-1900143D01*
X1133333Y-1900143D02*
X1161905Y-1900143D01*
X1161905Y-1900143D02*
X1180952Y-1909667D01*
X1180952Y-1909667D02*
X1190476Y-1928714D01*
X1190476Y-1928714D02*
X1190476Y-2033476D01*
X1190476Y-1928714D02*
X1200000Y-1909667D01*
X1200000Y-1909667D02*
X1219048Y-1900143D01*
X1219048Y-1900143D02*
X1247619Y-1900143D01*
X1247619Y-1900143D02*
X1266667Y-1909667D01*
X1266667Y-1909667D02*
X1276191Y-1928714D01*
X1276191Y-1928714D02*
X1276191Y-2033476D01*
X1371429Y-2033476D02*
X1371429Y-1900143D01*
X1371429Y-1919190D02*
X1380952Y-1909667D01*
X1380952Y-1909667D02*
X1400000Y-1900143D01*
X1400000Y-1900143D02*
X1428571Y-1900143D01*
X1428571Y-1900143D02*
X1447619Y-1909667D01*
X1447619Y-1909667D02*
X1457143Y-1928714D01*
X1457143Y-1928714D02*
X1457143Y-2033476D01*
X1457143Y-1928714D02*
X1466667Y-1909667D01*
X1466667Y-1909667D02*
X1485714Y-1900143D01*
X1485714Y-1900143D02*
X1514286Y-1900143D01*
X1514286Y-1900143D02*
X1533333Y-1909667D01*
X1533333Y-1909667D02*
X1542857Y-1928714D01*
X1542857Y-1928714D02*
X1542857Y-2033476D01*
X1900952Y-1823952D02*
X1729524Y-2081095D01*
X2125714Y-1833476D02*
X2144762Y-1833476D01*
X2144762Y-1833476D02*
X2163810Y-1843000D01*
X2163810Y-1843000D02*
X2173333Y-1852524D01*
X2173333Y-1852524D02*
X2182857Y-1871571D01*
X2182857Y-1871571D02*
X2192381Y-1909667D01*
X2192381Y-1909667D02*
X2192381Y-1957286D01*
X2192381Y-1957286D02*
X2182857Y-1995381D01*
X2182857Y-1995381D02*
X2173333Y-2014428D01*
X2173333Y-2014428D02*
X2163810Y-2023952D01*
X2163810Y-2023952D02*
X2144762Y-2033476D01*
X2144762Y-2033476D02*
X2125714Y-2033476D01*
X2125714Y-2033476D02*
X2106667Y-2023952D01*
X2106667Y-2023952D02*
X2097143Y-2014428D01*
X2097143Y-2014428D02*
X2087619Y-1995381D01*
X2087619Y-1995381D02*
X2078095Y-1957286D01*
X2078095Y-1957286D02*
X2078095Y-1909667D01*
X2078095Y-1909667D02*
X2087619Y-1871571D01*
X2087619Y-1871571D02*
X2097143Y-1852524D01*
X2097143Y-1852524D02*
X2106667Y-1843000D01*
X2106667Y-1843000D02*
X2125714Y-1833476D01*
X2278095Y-2014428D02*
X2287619Y-2023952D01*
X2287619Y-2023952D02*
X2278095Y-2033476D01*
X2278095Y-2033476D02*
X2268572Y-2023952D01*
X2268572Y-2023952D02*
X2278095Y-2014428D01*
X2278095Y-2014428D02*
X2278095Y-2033476D01*
X2411429Y-1833476D02*
X2430476Y-1833476D01*
X2430476Y-1833476D02*
X2449524Y-1843000D01*
X2449524Y-1843000D02*
X2459048Y-1852524D01*
X2459048Y-1852524D02*
X2468572Y-1871571D01*
X2468572Y-1871571D02*
X2478095Y-1909667D01*
X2478095Y-1909667D02*
X2478095Y-1957286D01*
X2478095Y-1957286D02*
X2468572Y-1995381D01*
X2468572Y-1995381D02*
X2459048Y-2014428D01*
X2459048Y-2014428D02*
X2449524Y-2023952D01*
X2449524Y-2023952D02*
X2430476Y-2033476D01*
X2430476Y-2033476D02*
X2411429Y-2033476D01*
X2411429Y-2033476D02*
X2392381Y-2023952D01*
X2392381Y-2023952D02*
X2382857Y-2014428D01*
X2382857Y-2014428D02*
X2373333Y-1995381D01*
X2373333Y-1995381D02*
X2363810Y-1957286D01*
X2363810Y-1957286D02*
X2363810Y-1909667D01*
X2363810Y-1909667D02*
X2373333Y-1871571D01*
X2373333Y-1871571D02*
X2382857Y-1852524D01*
X2382857Y-1852524D02*
X2392381Y-1843000D01*
X2392381Y-1843000D02*
X2411429Y-1833476D01*
X2649524Y-1900143D02*
X2649524Y-2033476D01*
X2601905Y-1823952D02*
X2554286Y-1966809D01*
X2554286Y-1966809D02*
X2678095Y-1966809D01*
X2792381Y-1833476D02*
X2811429Y-1833476D01*
X2811429Y-1833476D02*
X2830476Y-1843000D01*
X2830476Y-1843000D02*
X2840000Y-1852524D01*
X2840000Y-1852524D02*
X2849524Y-1871571D01*
X2849524Y-1871571D02*
X2859048Y-1909667D01*
X2859048Y-1909667D02*
X2859048Y-1957286D01*
X2859048Y-1957286D02*
X2849524Y-1995381D01*
X2849524Y-1995381D02*
X2840000Y-2014428D01*
X2840000Y-2014428D02*
X2830476Y-2023952D01*
X2830476Y-2023952D02*
X2811429Y-2033476D01*
X2811429Y-2033476D02*
X2792381Y-2033476D01*
X2792381Y-2033476D02*
X2773333Y-2023952D01*
X2773333Y-2023952D02*
X2763810Y-2014428D01*
X2763810Y-2014428D02*
X2754286Y-1995381D01*
X2754286Y-1995381D02*
X2744762Y-1957286D01*
X2744762Y-1957286D02*
X2744762Y-1909667D01*
X2744762Y-1909667D02*
X2754286Y-1871571D01*
X2754286Y-1871571D02*
X2763810Y-1852524D01*
X2763810Y-1852524D02*
X2773333Y-1843000D01*
X2773333Y-1843000D02*
X2792381Y-1833476D01*
X2935238Y-1852524D02*
X2944762Y-1843000D01*
X2944762Y-1843000D02*
X2963810Y-1833476D01*
X2963810Y-1833476D02*
X3011429Y-1833476D01*
X3011429Y-1833476D02*
X3030476Y-1843000D01*
X3030476Y-1843000D02*
X3040000Y-1852524D01*
X3040000Y-1852524D02*
X3049524Y-1871571D01*
X3049524Y-1871571D02*
X3049524Y-1890619D01*
X3049524Y-1890619D02*
X3040000Y-1919190D01*
X3040000Y-1919190D02*
X2925714Y-2033476D01*
X2925714Y-2033476D02*
X3049524Y-2033476D01*
X3125714Y-1833476D02*
X3125714Y-1871571D01*
X3201905Y-1833476D02*
X3201905Y-1871571D01*
X3464762Y-2109667D02*
X3455238Y-2100143D01*
X3455238Y-2100143D02*
X3436191Y-2071571D01*
X3436191Y-2071571D02*
X3426667Y-2052524D01*
X3426667Y-2052524D02*
X3417143Y-2023952D01*
X3417143Y-2023952D02*
X3407619Y-1976333D01*
X3407619Y-1976333D02*
X3407619Y-1938238D01*
X3407619Y-1938238D02*
X3417143Y-1890619D01*
X3417143Y-1890619D02*
X3426667Y-1862048D01*
X3426667Y-1862048D02*
X3436191Y-1843000D01*
X3436191Y-1843000D02*
X3455238Y-1814428D01*
X3455238Y-1814428D02*
X3464762Y-1804905D01*
X3569524Y-1919190D02*
X3550476Y-1909667D01*
X3550476Y-1909667D02*
X3540952Y-1900143D01*
X3540952Y-1900143D02*
X3531429Y-1881095D01*
X3531429Y-1881095D02*
X3531429Y-1871571D01*
X3531429Y-1871571D02*
X3540952Y-1852524D01*
X3540952Y-1852524D02*
X3550476Y-1843000D01*
X3550476Y-1843000D02*
X3569524Y-1833476D01*
X3569524Y-1833476D02*
X3607619Y-1833476D01*
X3607619Y-1833476D02*
X3626667Y-1843000D01*
X3626667Y-1843000D02*
X3636191Y-1852524D01*
X3636191Y-1852524D02*
X3645714Y-1871571D01*
X3645714Y-1871571D02*
X3645714Y-1881095D01*
X3645714Y-1881095D02*
X3636191Y-1900143D01*
X3636191Y-1900143D02*
X3626667Y-1909667D01*
X3626667Y-1909667D02*
X3607619Y-1919190D01*
X3607619Y-1919190D02*
X3569524Y-1919190D01*
X3569524Y-1919190D02*
X3550476Y-1928714D01*
X3550476Y-1928714D02*
X3540952Y-1938238D01*
X3540952Y-1938238D02*
X3531429Y-1957286D01*
X3531429Y-1957286D02*
X3531429Y-1995381D01*
X3531429Y-1995381D02*
X3540952Y-2014428D01*
X3540952Y-2014428D02*
X3550476Y-2023952D01*
X3550476Y-2023952D02*
X3569524Y-2033476D01*
X3569524Y-2033476D02*
X3607619Y-2033476D01*
X3607619Y-2033476D02*
X3626667Y-2023952D01*
X3626667Y-2023952D02*
X3636191Y-2014428D01*
X3636191Y-2014428D02*
X3645714Y-1995381D01*
X3645714Y-1995381D02*
X3645714Y-1957286D01*
X3645714Y-1957286D02*
X3636191Y-1938238D01*
X3636191Y-1938238D02*
X3626667Y-1928714D01*
X3626667Y-1928714D02*
X3607619Y-1919190D01*
X3721905Y-1852524D02*
X3731429Y-1843000D01*
X3731429Y-1843000D02*
X3750476Y-1833476D01*
X3750476Y-1833476D02*
X3798095Y-1833476D01*
X3798095Y-1833476D02*
X3817143Y-1843000D01*
X3817143Y-1843000D02*
X3826667Y-1852524D01*
X3826667Y-1852524D02*
X3836191Y-1871571D01*
X3836191Y-1871571D02*
X3836191Y-1890619D01*
X3836191Y-1890619D02*
X3826667Y-1919190D01*
X3826667Y-1919190D02*
X3712381Y-2033476D01*
X3712381Y-2033476D02*
X3836191Y-2033476D01*
X4041905Y-2033476D02*
X4041905Y-1833476D01*
X4127619Y-2033476D02*
X4127619Y-1928714D01*
X4127619Y-1928714D02*
X4118095Y-1909667D01*
X4118095Y-1909667D02*
X4099048Y-1900143D01*
X4099048Y-1900143D02*
X4070476Y-1900143D01*
X4070476Y-1900143D02*
X4051429Y-1909667D01*
X4051429Y-1909667D02*
X4041905Y-1919190D01*
X4251429Y-2033476D02*
X4232381Y-2023952D01*
X4232381Y-2023952D02*
X4222857Y-2014428D01*
X4222857Y-2014428D02*
X4213334Y-1995381D01*
X4213334Y-1995381D02*
X4213334Y-1938238D01*
X4213334Y-1938238D02*
X4222857Y-1919190D01*
X4222857Y-1919190D02*
X4232381Y-1909667D01*
X4232381Y-1909667D02*
X4251429Y-1900143D01*
X4251429Y-1900143D02*
X4280000Y-1900143D01*
X4280000Y-1900143D02*
X4299048Y-1909667D01*
X4299048Y-1909667D02*
X4308572Y-1919190D01*
X4308572Y-1919190D02*
X4318095Y-1938238D01*
X4318095Y-1938238D02*
X4318095Y-1995381D01*
X4318095Y-1995381D02*
X4308572Y-2014428D01*
X4308572Y-2014428D02*
X4299048Y-2023952D01*
X4299048Y-2023952D02*
X4280000Y-2033476D01*
X4280000Y-2033476D02*
X4251429Y-2033476D01*
X4432381Y-2033476D02*
X4413334Y-2023952D01*
X4413334Y-2023952D02*
X4403810Y-2004905D01*
X4403810Y-2004905D02*
X4403810Y-1833476D01*
X4584762Y-2023952D02*
X4565715Y-2033476D01*
X4565715Y-2033476D02*
X4527619Y-2033476D01*
X4527619Y-2033476D02*
X4508572Y-2023952D01*
X4508572Y-2023952D02*
X4499048Y-2004905D01*
X4499048Y-2004905D02*
X4499048Y-1928714D01*
X4499048Y-1928714D02*
X4508572Y-1909667D01*
X4508572Y-1909667D02*
X4527619Y-1900143D01*
X4527619Y-1900143D02*
X4565715Y-1900143D01*
X4565715Y-1900143D02*
X4584762Y-1909667D01*
X4584762Y-1909667D02*
X4594286Y-1928714D01*
X4594286Y-1928714D02*
X4594286Y-1947762D01*
X4594286Y-1947762D02*
X4499048Y-1966809D01*
X4670476Y-2023952D02*
X4689524Y-2033476D01*
X4689524Y-2033476D02*
X4727619Y-2033476D01*
X4727619Y-2033476D02*
X4746667Y-2023952D01*
X4746667Y-2023952D02*
X4756191Y-2004905D01*
X4756191Y-2004905D02*
X4756191Y-1995381D01*
X4756191Y-1995381D02*
X4746667Y-1976333D01*
X4746667Y-1976333D02*
X4727619Y-1966809D01*
X4727619Y-1966809D02*
X4699048Y-1966809D01*
X4699048Y-1966809D02*
X4680000Y-1957286D01*
X4680000Y-1957286D02*
X4670476Y-1938238D01*
X4670476Y-1938238D02*
X4670476Y-1928714D01*
X4670476Y-1928714D02*
X4680000Y-1909667D01*
X4680000Y-1909667D02*
X4699048Y-1900143D01*
X4699048Y-1900143D02*
X4727619Y-1900143D01*
X4727619Y-1900143D02*
X4746667Y-1909667D01*
X4822857Y-2109667D02*
X4832381Y-2100143D01*
X4832381Y-2100143D02*
X4851429Y-2071571D01*
X4851429Y-2071571D02*
X4860953Y-2052524D01*
X4860953Y-2052524D02*
X4870476Y-2023952D01*
X4870476Y-2023952D02*
X4880000Y-1976333D01*
X4880000Y-1976333D02*
X4880000Y-1938238D01*
X4880000Y-1938238D02*
X4870476Y-1890619D01*
X4870476Y-1890619D02*
X4860953Y-1862048D01*
X4860953Y-1862048D02*
X4851429Y-1843000D01*
X4851429Y-1843000D02*
X4832381Y-1814428D01*
X4832381Y-1814428D02*
X4822857Y-1804905D01*
M02*
