%TF.GenerationSoftware,KiCad,Pcbnew,(7.0.0)*%
%TF.CreationDate,2023-03-20T22:32:51+02:00*%
%TF.ProjectId,overall scematic,6f766572-616c-46c2-9073-63656d617469,rev?*%
%TF.SameCoordinates,Original*%
%TF.FileFunction,Soldermask,Top*%
%TF.FilePolarity,Negative*%
%FSLAX46Y46*%
G04 Gerber Fmt 4.6, Leading zero omitted, Abs format (unit mm)*
G04 Created by KiCad (PCBNEW (7.0.0)) date 2023-03-20 22:32:51*
%MOMM*%
%LPD*%
G01*
G04 APERTURE LIST*
G04 Aperture macros list*
%AMRoundRect*
0 Rectangle with rounded corners*
0 $1 Rounding radius*
0 $2 $3 $4 $5 $6 $7 $8 $9 X,Y pos of 4 corners*
0 Add a 4 corners polygon primitive as box body*
4,1,4,$2,$3,$4,$5,$6,$7,$8,$9,$2,$3,0*
0 Add four circle primitives for the rounded corners*
1,1,$1+$1,$2,$3*
1,1,$1+$1,$4,$5*
1,1,$1+$1,$6,$7*
1,1,$1+$1,$8,$9*
0 Add four rect primitives between the rounded corners*
20,1,$1+$1,$2,$3,$4,$5,0*
20,1,$1+$1,$4,$5,$6,$7,0*
20,1,$1+$1,$6,$7,$8,$9,0*
20,1,$1+$1,$8,$9,$2,$3,0*%
%AMFreePoly0*
4,1,9,3.862500,-0.866500,0.737500,-0.866500,0.737500,-0.450000,-0.737500,-0.450000,-0.737500,0.450000,0.737500,0.450000,0.737500,0.866500,3.862500,0.866500,3.862500,-0.866500,3.862500,-0.866500,$1*%
G04 Aperture macros list end*
%ADD10R,1.700000X1.700000*%
%ADD11O,1.700000X1.700000*%
%ADD12R,2.000000X2.000000*%
%ADD13C,2.000000*%
%ADD14C,1.600000*%
%ADD15O,1.600000X1.600000*%
%ADD16R,0.650000X1.200000*%
%ADD17RoundRect,0.150000X-0.512500X-0.150000X0.512500X-0.150000X0.512500X0.150000X-0.512500X0.150000X0*%
%ADD18RoundRect,0.140000X0.140000X0.170000X-0.140000X0.170000X-0.140000X-0.170000X0.140000X-0.170000X0*%
%ADD19R,0.700000X1.525000*%
%ADD20R,3.402000X2.513000*%
%ADD21R,1.300000X0.900000*%
%ADD22FreePoly0,180.000000*%
%ADD23RoundRect,0.140000X0.170000X-0.140000X0.170000X0.140000X-0.170000X0.140000X-0.170000X-0.140000X0*%
%ADD24R,0.400000X1.350000*%
%ADD25O,0.890000X1.550000*%
%ADD26R,1.200000X1.550000*%
%ADD27O,1.250000X0.950000*%
%ADD28R,1.500000X1.550000*%
%ADD29R,0.400000X0.600000*%
%ADD30R,2.400000X1.500000*%
%ADD31RoundRect,0.135000X-0.185000X0.135000X-0.185000X-0.135000X0.185000X-0.135000X0.185000X0.135000X0*%
%ADD32RoundRect,0.140000X-0.140000X-0.170000X0.140000X-0.170000X0.140000X0.170000X-0.140000X0.170000X0*%
%ADD33RoundRect,0.243750X-0.456250X0.243750X-0.456250X-0.243750X0.456250X-0.243750X0.456250X0.243750X0*%
%ADD34RoundRect,0.070000X-0.300000X0.650000X-0.300000X-0.650000X0.300000X-0.650000X0.300000X0.650000X0*%
%ADD35RoundRect,0.243750X0.456250X-0.243750X0.456250X0.243750X-0.456250X0.243750X-0.456250X-0.243750X0*%
%ADD36R,1.450000X1.150000*%
%ADD37R,1.370000X1.370000*%
%ADD38C,1.370000*%
%ADD39R,0.450000X1.475000*%
G04 APERTURE END LIST*
D10*
%TO.C,J6*%
X79484999Y-63244999D03*
D11*
X79484999Y-65784999D03*
%TD*%
D10*
%TO.C,J5*%
X95254999Y-54044999D03*
D11*
X92714999Y-54044999D03*
%TD*%
D10*
%TO.C,J4*%
X79484999Y-46729999D03*
D11*
X79484999Y-49269999D03*
%TD*%
D10*
%TO.C,J2*%
X85614999Y-42184999D03*
D11*
X88154999Y-42184999D03*
%TD*%
D12*
%TO.C,BT1*%
X94539999Y-38099999D03*
D13*
X139240000Y-38100000D03*
%TD*%
D14*
%TO.C,R3*%
X104140000Y-53340000D03*
D15*
X104139999Y-63499999D03*
%TD*%
D10*
%TO.C,J11*%
X124459999Y-53339999D03*
D11*
X124459999Y-55879999D03*
%TD*%
D16*
%TO.C,IC1*%
X116839999Y-76159999D03*
X117789999Y-76159999D03*
X118739999Y-76159999D03*
X118739999Y-73659999D03*
X117789999Y-73659999D03*
X116839999Y-73659999D03*
%TD*%
D17*
%TO.C,U2*%
X130705000Y-60700000D03*
X130705000Y-61650000D03*
X130705000Y-62600000D03*
X132980000Y-62600000D03*
X132980000Y-60700000D03*
%TD*%
D18*
%TO.C,C2*%
X81800000Y-52605000D03*
X80840000Y-52605000D03*
%TD*%
D19*
%TO.C,J3*%
X111124999Y-55707999D03*
X109854999Y-55707999D03*
X108584999Y-55707999D03*
X107314999Y-55707999D03*
X107314999Y-61131999D03*
X108584999Y-61131999D03*
X109854999Y-61131999D03*
X111124999Y-61131999D03*
D20*
X109219999Y-58419999D03*
%TD*%
D14*
%TO.C,R6*%
X119380000Y-68580000D03*
D15*
X119379999Y-58419999D03*
%TD*%
D21*
%TO.C,U1*%
X83269999Y-58389999D03*
D22*
X83182500Y-56890000D03*
D21*
X83269999Y-55389999D03*
%TD*%
D14*
%TO.C,R1*%
X114300000Y-53340000D03*
D15*
X114299999Y-63499999D03*
%TD*%
D14*
%TO.C,R5*%
X116840000Y-81280000D03*
D15*
X126999999Y-81279999D03*
%TD*%
D10*
%TO.C,J10*%
X119379999Y-53339999D03*
D11*
X119379999Y-50799999D03*
%TD*%
D23*
%TO.C,C4*%
X93980000Y-51280000D03*
X93980000Y-50320000D03*
%TD*%
D24*
%TO.C,J1*%
X80209999Y-43049999D03*
X79559999Y-43049999D03*
X78909999Y-43049999D03*
X78259999Y-43049999D03*
X77609999Y-43049999D03*
D25*
X82409999Y-40349999D03*
D26*
X81809999Y-40349999D03*
D27*
X81409999Y-43049999D03*
D28*
X79909999Y-40349999D03*
X77909999Y-40349999D03*
D27*
X76409999Y-43049999D03*
D26*
X76009999Y-40349999D03*
D25*
X75409999Y-40349999D03*
%TD*%
D29*
%TO.C,U4*%
X136159999Y-58919999D03*
X137109999Y-58919999D03*
X138059999Y-58919999D03*
X138059999Y-56119999D03*
X137109999Y-56119999D03*
X136159999Y-56119999D03*
D30*
X137109999Y-57519999D03*
%TD*%
D31*
%TO.C,R2*%
X111760000Y-65020000D03*
X111760000Y-66040000D03*
%TD*%
D32*
%TO.C,C3*%
X80840000Y-60225000D03*
X81800000Y-60225000D03*
%TD*%
D33*
%TO.C,D1*%
X106680000Y-49862500D03*
X106680000Y-51737500D03*
%TD*%
D34*
%TO.C,U5*%
X131390000Y-55420000D03*
X129490000Y-55420000D03*
X130440000Y-57520000D03*
%TD*%
D14*
%TO.C,R4*%
X100090000Y-53340000D03*
D15*
X100089999Y-63499999D03*
%TD*%
D35*
%TO.C,D2*%
X101600000Y-49197500D03*
X101600000Y-47322500D03*
%TD*%
D18*
%TO.C,C1*%
X110180000Y-63500000D03*
X109220000Y-63500000D03*
%TD*%
D36*
%TO.C,C5*%
X142189999Y-56619999D03*
X142189999Y-58419999D03*
%TD*%
D37*
%TO.C,J8*%
X147319999Y-33019999D03*
D38*
X144780000Y-33020000D03*
X147320000Y-35560000D03*
X144780000Y-35560000D03*
X147320000Y-38100000D03*
X144780000Y-38100000D03*
X147320000Y-40640000D03*
X144780000Y-40640000D03*
X147320000Y-43180000D03*
X144780000Y-43180000D03*
X147320000Y-45720000D03*
X144780000Y-45720000D03*
X147320000Y-48260000D03*
X144780000Y-48260000D03*
X147320000Y-50800000D03*
X144780000Y-50800000D03*
X147320000Y-53340000D03*
X144780000Y-53340000D03*
X147320000Y-55880000D03*
X144780000Y-55880000D03*
X147320000Y-58420000D03*
X144780000Y-58420000D03*
X147320000Y-60960000D03*
X144780000Y-60960000D03*
X147320000Y-63500000D03*
X144780000Y-63500000D03*
X147320000Y-66040000D03*
X144780000Y-66040000D03*
X147320000Y-68580000D03*
X144780000Y-68580000D03*
X147320000Y-71120000D03*
X144780000Y-71120000D03*
X147320000Y-73660000D03*
X144780000Y-73660000D03*
X147320000Y-76200000D03*
X144780000Y-76200000D03*
X147320000Y-78740000D03*
X144780000Y-78740000D03*
X147320000Y-81280000D03*
X144780000Y-81280000D03*
%TD*%
D37*
%TO.C,J9*%
X71119999Y-33019999D03*
D38*
X68580000Y-33020000D03*
X71120000Y-35560000D03*
X68580000Y-35560000D03*
X71120000Y-38100000D03*
X68580000Y-38100000D03*
X71120000Y-40640000D03*
X68580000Y-40640000D03*
X71120000Y-43180000D03*
X68580000Y-43180000D03*
X71120000Y-45720000D03*
X68580000Y-45720000D03*
X71120000Y-48260000D03*
X68580000Y-48260000D03*
X71120000Y-50800000D03*
X68580000Y-50800000D03*
X71120000Y-53340000D03*
X68580000Y-53340000D03*
X71120000Y-55880000D03*
X68580000Y-55880000D03*
X71120000Y-58420000D03*
X68580000Y-58420000D03*
X71120000Y-60960000D03*
X68580000Y-60960000D03*
X71120000Y-63500000D03*
X68580000Y-63500000D03*
X71120000Y-66040000D03*
X68580000Y-66040000D03*
X71120000Y-68580000D03*
X68580000Y-68580000D03*
X71120000Y-71120000D03*
X68580000Y-71120000D03*
X71120000Y-73660000D03*
X68580000Y-73660000D03*
X71120000Y-76200000D03*
X68580000Y-76200000D03*
X71120000Y-78740000D03*
X68580000Y-78740000D03*
X71120000Y-81280000D03*
X68580000Y-81280000D03*
%TD*%
D32*
%TO.C,C6*%
X123980000Y-58420000D03*
X124940000Y-58420000D03*
%TD*%
D39*
%TO.C,Q1*%
X123809999Y-76597999D03*
X124459999Y-76597999D03*
X125109999Y-76597999D03*
X125759999Y-76597999D03*
X125759999Y-70721999D03*
X125109999Y-70721999D03*
X124459999Y-70721999D03*
X123809999Y-70721999D03*
%TD*%
M02*
