%TF.GenerationSoftware,KiCad,Pcbnew,(7.0.0)*%
%TF.CreationDate,2023-04-27T10:38:24+02:00*%
%TF.ProjectId,overall scematic,6f766572-616c-46c2-9073-63656d617469,rev?*%
%TF.SameCoordinates,Original*%
%TF.FileFunction,Legend,Top*%
%TF.FilePolarity,Positive*%
%FSLAX46Y46*%
G04 Gerber Fmt 4.6, Leading zero omitted, Abs format (unit mm)*
G04 Created by KiCad (PCBNEW (7.0.0)) date 2023-04-27 10:38:24*
%MOMM*%
%LPD*%
G01*
G04 APERTURE LIST*
G04 Aperture macros list*
%AMRoundRect*
0 Rectangle with rounded corners*
0 $1 Rounding radius*
0 $2 $3 $4 $5 $6 $7 $8 $9 X,Y pos of 4 corners*
0 Add a 4 corners polygon primitive as box body*
4,1,4,$2,$3,$4,$5,$6,$7,$8,$9,$2,$3,0*
0 Add four circle primitives for the rounded corners*
1,1,$1+$1,$2,$3*
1,1,$1+$1,$4,$5*
1,1,$1+$1,$6,$7*
1,1,$1+$1,$8,$9*
0 Add four rect primitives between the rounded corners*
20,1,$1+$1,$2,$3,$4,$5,0*
20,1,$1+$1,$4,$5,$6,$7,0*
20,1,$1+$1,$6,$7,$8,$9,0*
20,1,$1+$1,$8,$9,$2,$3,0*%
G04 Aperture macros list end*
%ADD10C,0.150000*%
%ADD11C,0.254000*%
%ADD12C,0.120000*%
%ADD13C,1.000000*%
%ADD14C,0.200000*%
%ADD15C,0.100000*%
%ADD16C,0.152400*%
%ADD17C,0.059995*%
%ADD18RoundRect,0.140000X-0.140000X-0.170000X0.140000X-0.170000X0.140000X0.170000X-0.140000X0.170000X0*%
%ADD19C,1.400000*%
%ADD20C,1.600000*%
%ADD21O,1.600000X1.600000*%
%ADD22R,1.700000X1.700000*%
%ADD23O,1.700000X1.700000*%
%ADD24R,1.000000X1.500000*%
%ADD25C,4.000000*%
%ADD26C,2.700000*%
%ADD27RoundRect,1.625000X-2.125000X-1.625000X2.125000X-1.625000X2.125000X1.625000X-2.125000X1.625000X0*%
%ADD28R,1.350000X0.400000*%
%ADD29O,1.550000X0.890000*%
%ADD30R,1.550000X1.200000*%
%ADD31O,0.950000X1.250000*%
%ADD32R,1.550000X1.500000*%
%ADD33R,1.475000X0.450000*%
%ADD34RoundRect,0.135000X-0.135000X-0.185000X0.135000X-0.185000X0.135000X0.185000X-0.135000X0.185000X0*%
%ADD35R,0.600000X0.400000*%
%ADD36R,1.500000X2.400000*%
%ADD37R,1.200000X0.650000*%
%ADD38R,1.150000X1.450000*%
%ADD39RoundRect,0.070000X-0.650000X-0.300000X0.650000X-0.300000X0.650000X0.300000X-0.650000X0.300000X0*%
%ADD40RoundRect,0.243750X-0.243750X-0.456250X0.243750X-0.456250X0.243750X0.456250X-0.243750X0.456250X0*%
%ADD41RoundRect,0.200000X-0.200000X-0.275000X0.200000X-0.275000X0.200000X0.275000X-0.200000X0.275000X0*%
%ADD42RoundRect,0.150000X-0.512500X-0.150000X0.512500X-0.150000X0.512500X0.150000X-0.512500X0.150000X0*%
%ADD43C,1.524000*%
%ADD44C,2.000000*%
%ADD45RoundRect,0.250000X-0.262500X-0.450000X0.262500X-0.450000X0.262500X0.450000X-0.262500X0.450000X0*%
%ADD46RoundRect,0.140000X0.140000X0.170000X-0.140000X0.170000X-0.140000X-0.170000X0.140000X-0.170000X0*%
%ADD47RoundRect,0.250000X0.650000X-0.325000X0.650000X0.325000X-0.650000X0.325000X-0.650000X-0.325000X0*%
%ADD48RoundRect,0.140000X0.170000X-0.140000X0.170000X0.140000X-0.170000X0.140000X-0.170000X-0.140000X0*%
%ADD49R,1.525000X0.700000*%
%ADD50R,2.513000X3.402000*%
%ADD51R,1.070003X0.600000*%
G04 APERTURE END LIST*
D10*
X188000000Y-135000000D02*
X210000000Y-135000000D01*
X210000000Y-135000000D02*
X210000000Y-152000000D01*
X210000000Y-152000000D02*
X188000000Y-152000000D01*
X188000000Y-152000000D02*
X188000000Y-135000000D01*
%TO.C,C2*%
X131145333Y-98327142D02*
X131097714Y-98374761D01*
X131097714Y-98374761D02*
X130954857Y-98422380D01*
X130954857Y-98422380D02*
X130859619Y-98422380D01*
X130859619Y-98422380D02*
X130716762Y-98374761D01*
X130716762Y-98374761D02*
X130621524Y-98279523D01*
X130621524Y-98279523D02*
X130573905Y-98184285D01*
X130573905Y-98184285D02*
X130526286Y-97993809D01*
X130526286Y-97993809D02*
X130526286Y-97850952D01*
X130526286Y-97850952D02*
X130573905Y-97660476D01*
X130573905Y-97660476D02*
X130621524Y-97565238D01*
X130621524Y-97565238D02*
X130716762Y-97470000D01*
X130716762Y-97470000D02*
X130859619Y-97422380D01*
X130859619Y-97422380D02*
X130954857Y-97422380D01*
X130954857Y-97422380D02*
X131097714Y-97470000D01*
X131097714Y-97470000D02*
X131145333Y-97517619D01*
X131526286Y-97517619D02*
X131573905Y-97470000D01*
X131573905Y-97470000D02*
X131669143Y-97422380D01*
X131669143Y-97422380D02*
X131907238Y-97422380D01*
X131907238Y-97422380D02*
X132002476Y-97470000D01*
X132002476Y-97470000D02*
X132050095Y-97517619D01*
X132050095Y-97517619D02*
X132097714Y-97612857D01*
X132097714Y-97612857D02*
X132097714Y-97708095D01*
X132097714Y-97708095D02*
X132050095Y-97850952D01*
X132050095Y-97850952D02*
X131478667Y-98422380D01*
X131478667Y-98422380D02*
X132097714Y-98422380D01*
%TO.C,TP3*%
X120038095Y-78367380D02*
X120609523Y-78367380D01*
X120323809Y-79367380D02*
X120323809Y-78367380D01*
X120942857Y-79367380D02*
X120942857Y-78367380D01*
X120942857Y-78367380D02*
X121323809Y-78367380D01*
X121323809Y-78367380D02*
X121419047Y-78415000D01*
X121419047Y-78415000D02*
X121466666Y-78462619D01*
X121466666Y-78462619D02*
X121514285Y-78557857D01*
X121514285Y-78557857D02*
X121514285Y-78700714D01*
X121514285Y-78700714D02*
X121466666Y-78795952D01*
X121466666Y-78795952D02*
X121419047Y-78843571D01*
X121419047Y-78843571D02*
X121323809Y-78891190D01*
X121323809Y-78891190D02*
X120942857Y-78891190D01*
X121847619Y-78367380D02*
X122466666Y-78367380D01*
X122466666Y-78367380D02*
X122133333Y-78748333D01*
X122133333Y-78748333D02*
X122276190Y-78748333D01*
X122276190Y-78748333D02*
X122371428Y-78795952D01*
X122371428Y-78795952D02*
X122419047Y-78843571D01*
X122419047Y-78843571D02*
X122466666Y-78938809D01*
X122466666Y-78938809D02*
X122466666Y-79176904D01*
X122466666Y-79176904D02*
X122419047Y-79272142D01*
X122419047Y-79272142D02*
X122371428Y-79319761D01*
X122371428Y-79319761D02*
X122276190Y-79367380D01*
X122276190Y-79367380D02*
X121990476Y-79367380D01*
X121990476Y-79367380D02*
X121895238Y-79319761D01*
X121895238Y-79319761D02*
X121847619Y-79272142D01*
%TO.C,C4*%
X131145333Y-102267142D02*
X131097714Y-102314761D01*
X131097714Y-102314761D02*
X130954857Y-102362380D01*
X130954857Y-102362380D02*
X130859619Y-102362380D01*
X130859619Y-102362380D02*
X130716762Y-102314761D01*
X130716762Y-102314761D02*
X130621524Y-102219523D01*
X130621524Y-102219523D02*
X130573905Y-102124285D01*
X130573905Y-102124285D02*
X130526286Y-101933809D01*
X130526286Y-101933809D02*
X130526286Y-101790952D01*
X130526286Y-101790952D02*
X130573905Y-101600476D01*
X130573905Y-101600476D02*
X130621524Y-101505238D01*
X130621524Y-101505238D02*
X130716762Y-101410000D01*
X130716762Y-101410000D02*
X130859619Y-101362380D01*
X130859619Y-101362380D02*
X130954857Y-101362380D01*
X130954857Y-101362380D02*
X131097714Y-101410000D01*
X131097714Y-101410000D02*
X131145333Y-101457619D01*
X132002476Y-101695714D02*
X132002476Y-102362380D01*
X131764381Y-101314761D02*
X131526286Y-102029047D01*
X131526286Y-102029047D02*
X132145333Y-102029047D01*
%TO.C,C3*%
X131145333Y-100297142D02*
X131097714Y-100344761D01*
X131097714Y-100344761D02*
X130954857Y-100392380D01*
X130954857Y-100392380D02*
X130859619Y-100392380D01*
X130859619Y-100392380D02*
X130716762Y-100344761D01*
X130716762Y-100344761D02*
X130621524Y-100249523D01*
X130621524Y-100249523D02*
X130573905Y-100154285D01*
X130573905Y-100154285D02*
X130526286Y-99963809D01*
X130526286Y-99963809D02*
X130526286Y-99820952D01*
X130526286Y-99820952D02*
X130573905Y-99630476D01*
X130573905Y-99630476D02*
X130621524Y-99535238D01*
X130621524Y-99535238D02*
X130716762Y-99440000D01*
X130716762Y-99440000D02*
X130859619Y-99392380D01*
X130859619Y-99392380D02*
X130954857Y-99392380D01*
X130954857Y-99392380D02*
X131097714Y-99440000D01*
X131097714Y-99440000D02*
X131145333Y-99487619D01*
X131478667Y-99392380D02*
X132097714Y-99392380D01*
X132097714Y-99392380D02*
X131764381Y-99773333D01*
X131764381Y-99773333D02*
X131907238Y-99773333D01*
X131907238Y-99773333D02*
X132002476Y-99820952D01*
X132002476Y-99820952D02*
X132050095Y-99868571D01*
X132050095Y-99868571D02*
X132097714Y-99963809D01*
X132097714Y-99963809D02*
X132097714Y-100201904D01*
X132097714Y-100201904D02*
X132050095Y-100297142D01*
X132050095Y-100297142D02*
X132002476Y-100344761D01*
X132002476Y-100344761D02*
X131907238Y-100392380D01*
X131907238Y-100392380D02*
X131621524Y-100392380D01*
X131621524Y-100392380D02*
X131526286Y-100344761D01*
X131526286Y-100344761D02*
X131478667Y-100297142D01*
%TO.C,R5*%
X116085333Y-104002380D02*
X115752000Y-103526190D01*
X115513905Y-104002380D02*
X115513905Y-103002380D01*
X115513905Y-103002380D02*
X115894857Y-103002380D01*
X115894857Y-103002380D02*
X115990095Y-103050000D01*
X115990095Y-103050000D02*
X116037714Y-103097619D01*
X116037714Y-103097619D02*
X116085333Y-103192857D01*
X116085333Y-103192857D02*
X116085333Y-103335714D01*
X116085333Y-103335714D02*
X116037714Y-103430952D01*
X116037714Y-103430952D02*
X115990095Y-103478571D01*
X115990095Y-103478571D02*
X115894857Y-103526190D01*
X115894857Y-103526190D02*
X115513905Y-103526190D01*
X116990095Y-103002380D02*
X116513905Y-103002380D01*
X116513905Y-103002380D02*
X116466286Y-103478571D01*
X116466286Y-103478571D02*
X116513905Y-103430952D01*
X116513905Y-103430952D02*
X116609143Y-103383333D01*
X116609143Y-103383333D02*
X116847238Y-103383333D01*
X116847238Y-103383333D02*
X116942476Y-103430952D01*
X116942476Y-103430952D02*
X116990095Y-103478571D01*
X116990095Y-103478571D02*
X117037714Y-103573809D01*
X117037714Y-103573809D02*
X117037714Y-103811904D01*
X117037714Y-103811904D02*
X116990095Y-103907142D01*
X116990095Y-103907142D02*
X116942476Y-103954761D01*
X116942476Y-103954761D02*
X116847238Y-104002380D01*
X116847238Y-104002380D02*
X116609143Y-104002380D01*
X116609143Y-104002380D02*
X116513905Y-103954761D01*
X116513905Y-103954761D02*
X116466286Y-103907142D01*
%TO.C,J19*%
X177190476Y-101037380D02*
X177190476Y-101751666D01*
X177190476Y-101751666D02*
X177142857Y-101894523D01*
X177142857Y-101894523D02*
X177047619Y-101989761D01*
X177047619Y-101989761D02*
X176904762Y-102037380D01*
X176904762Y-102037380D02*
X176809524Y-102037380D01*
X178190476Y-102037380D02*
X177619048Y-102037380D01*
X177904762Y-102037380D02*
X177904762Y-101037380D01*
X177904762Y-101037380D02*
X177809524Y-101180238D01*
X177809524Y-101180238D02*
X177714286Y-101275476D01*
X177714286Y-101275476D02*
X177619048Y-101323095D01*
X178666667Y-102037380D02*
X178857143Y-102037380D01*
X178857143Y-102037380D02*
X178952381Y-101989761D01*
X178952381Y-101989761D02*
X179000000Y-101942142D01*
X179000000Y-101942142D02*
X179095238Y-101799285D01*
X179095238Y-101799285D02*
X179142857Y-101608809D01*
X179142857Y-101608809D02*
X179142857Y-101227857D01*
X179142857Y-101227857D02*
X179095238Y-101132619D01*
X179095238Y-101132619D02*
X179047619Y-101085000D01*
X179047619Y-101085000D02*
X178952381Y-101037380D01*
X178952381Y-101037380D02*
X178761905Y-101037380D01*
X178761905Y-101037380D02*
X178666667Y-101085000D01*
X178666667Y-101085000D02*
X178619048Y-101132619D01*
X178619048Y-101132619D02*
X178571429Y-101227857D01*
X178571429Y-101227857D02*
X178571429Y-101465952D01*
X178571429Y-101465952D02*
X178619048Y-101561190D01*
X178619048Y-101561190D02*
X178666667Y-101608809D01*
X178666667Y-101608809D02*
X178761905Y-101656428D01*
X178761905Y-101656428D02*
X178952381Y-101656428D01*
X178952381Y-101656428D02*
X179047619Y-101608809D01*
X179047619Y-101608809D02*
X179095238Y-101561190D01*
X179095238Y-101561190D02*
X179142857Y-101465952D01*
%TO.C,JP2*%
X114166666Y-86117380D02*
X114166666Y-86831666D01*
X114166666Y-86831666D02*
X114119047Y-86974523D01*
X114119047Y-86974523D02*
X114023809Y-87069761D01*
X114023809Y-87069761D02*
X113880952Y-87117380D01*
X113880952Y-87117380D02*
X113785714Y-87117380D01*
X114642857Y-87117380D02*
X114642857Y-86117380D01*
X114642857Y-86117380D02*
X115023809Y-86117380D01*
X115023809Y-86117380D02*
X115119047Y-86165000D01*
X115119047Y-86165000D02*
X115166666Y-86212619D01*
X115166666Y-86212619D02*
X115214285Y-86307857D01*
X115214285Y-86307857D02*
X115214285Y-86450714D01*
X115214285Y-86450714D02*
X115166666Y-86545952D01*
X115166666Y-86545952D02*
X115119047Y-86593571D01*
X115119047Y-86593571D02*
X115023809Y-86641190D01*
X115023809Y-86641190D02*
X114642857Y-86641190D01*
X115595238Y-86212619D02*
X115642857Y-86165000D01*
X115642857Y-86165000D02*
X115738095Y-86117380D01*
X115738095Y-86117380D02*
X115976190Y-86117380D01*
X115976190Y-86117380D02*
X116071428Y-86165000D01*
X116071428Y-86165000D02*
X116119047Y-86212619D01*
X116119047Y-86212619D02*
X116166666Y-86307857D01*
X116166666Y-86307857D02*
X116166666Y-86403095D01*
X116166666Y-86403095D02*
X116119047Y-86545952D01*
X116119047Y-86545952D02*
X115547619Y-87117380D01*
X115547619Y-87117380D02*
X116166666Y-87117380D01*
X112685714Y-88917380D02*
X112114286Y-88917380D01*
X112400000Y-88917380D02*
X112400000Y-87917380D01*
X112400000Y-87917380D02*
X112304762Y-88060238D01*
X112304762Y-88060238D02*
X112209524Y-88155476D01*
X112209524Y-88155476D02*
X112114286Y-88203095D01*
X117266667Y-87917380D02*
X117885714Y-87917380D01*
X117885714Y-87917380D02*
X117552381Y-88298333D01*
X117552381Y-88298333D02*
X117695238Y-88298333D01*
X117695238Y-88298333D02*
X117790476Y-88345952D01*
X117790476Y-88345952D02*
X117838095Y-88393571D01*
X117838095Y-88393571D02*
X117885714Y-88488809D01*
X117885714Y-88488809D02*
X117885714Y-88726904D01*
X117885714Y-88726904D02*
X117838095Y-88822142D01*
X117838095Y-88822142D02*
X117790476Y-88869761D01*
X117790476Y-88869761D02*
X117695238Y-88917380D01*
X117695238Y-88917380D02*
X117409524Y-88917380D01*
X117409524Y-88917380D02*
X117314286Y-88869761D01*
X117314286Y-88869761D02*
X117266667Y-88822142D01*
%TO.C,BT1*%
X156214285Y-63343571D02*
X156357142Y-63391190D01*
X156357142Y-63391190D02*
X156404761Y-63438809D01*
X156404761Y-63438809D02*
X156452380Y-63534047D01*
X156452380Y-63534047D02*
X156452380Y-63676904D01*
X156452380Y-63676904D02*
X156404761Y-63772142D01*
X156404761Y-63772142D02*
X156357142Y-63819761D01*
X156357142Y-63819761D02*
X156261904Y-63867380D01*
X156261904Y-63867380D02*
X155880952Y-63867380D01*
X155880952Y-63867380D02*
X155880952Y-62867380D01*
X155880952Y-62867380D02*
X156214285Y-62867380D01*
X156214285Y-62867380D02*
X156309523Y-62915000D01*
X156309523Y-62915000D02*
X156357142Y-62962619D01*
X156357142Y-62962619D02*
X156404761Y-63057857D01*
X156404761Y-63057857D02*
X156404761Y-63153095D01*
X156404761Y-63153095D02*
X156357142Y-63248333D01*
X156357142Y-63248333D02*
X156309523Y-63295952D01*
X156309523Y-63295952D02*
X156214285Y-63343571D01*
X156214285Y-63343571D02*
X155880952Y-63343571D01*
X156738095Y-62867380D02*
X157309523Y-62867380D01*
X157023809Y-63867380D02*
X157023809Y-62867380D01*
X158166666Y-63867380D02*
X157595238Y-63867380D01*
X157880952Y-63867380D02*
X157880952Y-62867380D01*
X157880952Y-62867380D02*
X157785714Y-63010238D01*
X157785714Y-63010238D02*
X157690476Y-63105476D01*
X157690476Y-63105476D02*
X157595238Y-63153095D01*
%TO.C,TP1*%
X134038095Y-139367380D02*
X134609523Y-139367380D01*
X134323809Y-140367380D02*
X134323809Y-139367380D01*
X134942857Y-140367380D02*
X134942857Y-139367380D01*
X134942857Y-139367380D02*
X135323809Y-139367380D01*
X135323809Y-139367380D02*
X135419047Y-139415000D01*
X135419047Y-139415000D02*
X135466666Y-139462619D01*
X135466666Y-139462619D02*
X135514285Y-139557857D01*
X135514285Y-139557857D02*
X135514285Y-139700714D01*
X135514285Y-139700714D02*
X135466666Y-139795952D01*
X135466666Y-139795952D02*
X135419047Y-139843571D01*
X135419047Y-139843571D02*
X135323809Y-139891190D01*
X135323809Y-139891190D02*
X134942857Y-139891190D01*
X136466666Y-140367380D02*
X135895238Y-140367380D01*
X136180952Y-140367380D02*
X136180952Y-139367380D01*
X136180952Y-139367380D02*
X136085714Y-139510238D01*
X136085714Y-139510238D02*
X135990476Y-139605476D01*
X135990476Y-139605476D02*
X135895238Y-139653095D01*
%TO.C,J1*%
X115667380Y-132733333D02*
X116381666Y-132733333D01*
X116381666Y-132733333D02*
X116524523Y-132780952D01*
X116524523Y-132780952D02*
X116619761Y-132876190D01*
X116619761Y-132876190D02*
X116667380Y-133019047D01*
X116667380Y-133019047D02*
X116667380Y-133114285D01*
X116667380Y-131733333D02*
X116667380Y-132304761D01*
X116667380Y-132019047D02*
X115667380Y-132019047D01*
X115667380Y-132019047D02*
X115810238Y-132114285D01*
X115810238Y-132114285D02*
X115905476Y-132209523D01*
X115905476Y-132209523D02*
X115953095Y-132304761D01*
D11*
%TO.C,Q1*%
X124591047Y-94492526D02*
X124470095Y-94432050D01*
X124470095Y-94432050D02*
X124349142Y-94311097D01*
X124349142Y-94311097D02*
X124167714Y-94129669D01*
X124167714Y-94129669D02*
X124046761Y-94069192D01*
X124046761Y-94069192D02*
X123925809Y-94069192D01*
X123986285Y-94371573D02*
X123865333Y-94311097D01*
X123865333Y-94311097D02*
X123744380Y-94190145D01*
X123744380Y-94190145D02*
X123683904Y-93948240D01*
X123683904Y-93948240D02*
X123683904Y-93524907D01*
X123683904Y-93524907D02*
X123744380Y-93283002D01*
X123744380Y-93283002D02*
X123865333Y-93162050D01*
X123865333Y-93162050D02*
X123986285Y-93101573D01*
X123986285Y-93101573D02*
X124228190Y-93101573D01*
X124228190Y-93101573D02*
X124349142Y-93162050D01*
X124349142Y-93162050D02*
X124470095Y-93283002D01*
X124470095Y-93283002D02*
X124530571Y-93524907D01*
X124530571Y-93524907D02*
X124530571Y-93948240D01*
X124530571Y-93948240D02*
X124470095Y-94190145D01*
X124470095Y-94190145D02*
X124349142Y-94311097D01*
X124349142Y-94311097D02*
X124228190Y-94371573D01*
X124228190Y-94371573D02*
X123986285Y-94371573D01*
X125740095Y-94371573D02*
X125014380Y-94371573D01*
X125377237Y-94371573D02*
X125377237Y-93101573D01*
X125377237Y-93101573D02*
X125256285Y-93283002D01*
X125256285Y-93283002D02*
X125135333Y-93403954D01*
X125135333Y-93403954D02*
X125014380Y-93464430D01*
D10*
%TO.C,R2*%
X130833333Y-91197380D02*
X130500000Y-90721190D01*
X130261905Y-91197380D02*
X130261905Y-90197380D01*
X130261905Y-90197380D02*
X130642857Y-90197380D01*
X130642857Y-90197380D02*
X130738095Y-90245000D01*
X130738095Y-90245000D02*
X130785714Y-90292619D01*
X130785714Y-90292619D02*
X130833333Y-90387857D01*
X130833333Y-90387857D02*
X130833333Y-90530714D01*
X130833333Y-90530714D02*
X130785714Y-90625952D01*
X130785714Y-90625952D02*
X130738095Y-90673571D01*
X130738095Y-90673571D02*
X130642857Y-90721190D01*
X130642857Y-90721190D02*
X130261905Y-90721190D01*
X131214286Y-90292619D02*
X131261905Y-90245000D01*
X131261905Y-90245000D02*
X131357143Y-90197380D01*
X131357143Y-90197380D02*
X131595238Y-90197380D01*
X131595238Y-90197380D02*
X131690476Y-90245000D01*
X131690476Y-90245000D02*
X131738095Y-90292619D01*
X131738095Y-90292619D02*
X131785714Y-90387857D01*
X131785714Y-90387857D02*
X131785714Y-90483095D01*
X131785714Y-90483095D02*
X131738095Y-90625952D01*
X131738095Y-90625952D02*
X131166667Y-91197380D01*
X131166667Y-91197380D02*
X131785714Y-91197380D01*
%TO.C,JP1*%
X114166666Y-82567380D02*
X114166666Y-83281666D01*
X114166666Y-83281666D02*
X114119047Y-83424523D01*
X114119047Y-83424523D02*
X114023809Y-83519761D01*
X114023809Y-83519761D02*
X113880952Y-83567380D01*
X113880952Y-83567380D02*
X113785714Y-83567380D01*
X114642857Y-83567380D02*
X114642857Y-82567380D01*
X114642857Y-82567380D02*
X115023809Y-82567380D01*
X115023809Y-82567380D02*
X115119047Y-82615000D01*
X115119047Y-82615000D02*
X115166666Y-82662619D01*
X115166666Y-82662619D02*
X115214285Y-82757857D01*
X115214285Y-82757857D02*
X115214285Y-82900714D01*
X115214285Y-82900714D02*
X115166666Y-82995952D01*
X115166666Y-82995952D02*
X115119047Y-83043571D01*
X115119047Y-83043571D02*
X115023809Y-83091190D01*
X115023809Y-83091190D02*
X114642857Y-83091190D01*
X116166666Y-83567380D02*
X115595238Y-83567380D01*
X115880952Y-83567380D02*
X115880952Y-82567380D01*
X115880952Y-82567380D02*
X115785714Y-82710238D01*
X115785714Y-82710238D02*
X115690476Y-82805476D01*
X115690476Y-82805476D02*
X115595238Y-82853095D01*
X117266667Y-84367380D02*
X117885714Y-84367380D01*
X117885714Y-84367380D02*
X117552381Y-84748333D01*
X117552381Y-84748333D02*
X117695238Y-84748333D01*
X117695238Y-84748333D02*
X117790476Y-84795952D01*
X117790476Y-84795952D02*
X117838095Y-84843571D01*
X117838095Y-84843571D02*
X117885714Y-84938809D01*
X117885714Y-84938809D02*
X117885714Y-85176904D01*
X117885714Y-85176904D02*
X117838095Y-85272142D01*
X117838095Y-85272142D02*
X117790476Y-85319761D01*
X117790476Y-85319761D02*
X117695238Y-85367380D01*
X117695238Y-85367380D02*
X117409524Y-85367380D01*
X117409524Y-85367380D02*
X117314286Y-85319761D01*
X117314286Y-85319761D02*
X117266667Y-85272142D01*
X112685714Y-85367380D02*
X112114286Y-85367380D01*
X112400000Y-85367380D02*
X112400000Y-84367380D01*
X112400000Y-84367380D02*
X112304762Y-84510238D01*
X112304762Y-84510238D02*
X112209524Y-84605476D01*
X112209524Y-84605476D02*
X112114286Y-84653095D01*
%TO.C,U2*%
X197788095Y-138757380D02*
X197788095Y-139566904D01*
X197788095Y-139566904D02*
X197835714Y-139662142D01*
X197835714Y-139662142D02*
X197883333Y-139709761D01*
X197883333Y-139709761D02*
X197978571Y-139757380D01*
X197978571Y-139757380D02*
X198169047Y-139757380D01*
X198169047Y-139757380D02*
X198264285Y-139709761D01*
X198264285Y-139709761D02*
X198311904Y-139662142D01*
X198311904Y-139662142D02*
X198359523Y-139566904D01*
X198359523Y-139566904D02*
X198359523Y-138757380D01*
X198788095Y-138852619D02*
X198835714Y-138805000D01*
X198835714Y-138805000D02*
X198930952Y-138757380D01*
X198930952Y-138757380D02*
X199169047Y-138757380D01*
X199169047Y-138757380D02*
X199264285Y-138805000D01*
X199264285Y-138805000D02*
X199311904Y-138852619D01*
X199311904Y-138852619D02*
X199359523Y-138947857D01*
X199359523Y-138947857D02*
X199359523Y-139043095D01*
X199359523Y-139043095D02*
X199311904Y-139185952D01*
X199311904Y-139185952D02*
X198740476Y-139757380D01*
X198740476Y-139757380D02*
X199359523Y-139757380D01*
D11*
%TO.C,IC1*%
X115472237Y-94371573D02*
X115472237Y-93101573D01*
X116802714Y-94250621D02*
X116742238Y-94311097D01*
X116742238Y-94311097D02*
X116560809Y-94371573D01*
X116560809Y-94371573D02*
X116439857Y-94371573D01*
X116439857Y-94371573D02*
X116258428Y-94311097D01*
X116258428Y-94311097D02*
X116137476Y-94190145D01*
X116137476Y-94190145D02*
X116076999Y-94069192D01*
X116076999Y-94069192D02*
X116016523Y-93827288D01*
X116016523Y-93827288D02*
X116016523Y-93645859D01*
X116016523Y-93645859D02*
X116076999Y-93403954D01*
X116076999Y-93403954D02*
X116137476Y-93283002D01*
X116137476Y-93283002D02*
X116258428Y-93162050D01*
X116258428Y-93162050D02*
X116439857Y-93101573D01*
X116439857Y-93101573D02*
X116560809Y-93101573D01*
X116560809Y-93101573D02*
X116742238Y-93162050D01*
X116742238Y-93162050D02*
X116802714Y-93222526D01*
X118012238Y-94371573D02*
X117286523Y-94371573D01*
X117649380Y-94371573D02*
X117649380Y-93101573D01*
X117649380Y-93101573D02*
X117528428Y-93283002D01*
X117528428Y-93283002D02*
X117407476Y-93403954D01*
X117407476Y-93403954D02*
X117286523Y-93464430D01*
D10*
%TO.C,R4*%
X116085333Y-99952380D02*
X115752000Y-99476190D01*
X115513905Y-99952380D02*
X115513905Y-98952380D01*
X115513905Y-98952380D02*
X115894857Y-98952380D01*
X115894857Y-98952380D02*
X115990095Y-99000000D01*
X115990095Y-99000000D02*
X116037714Y-99047619D01*
X116037714Y-99047619D02*
X116085333Y-99142857D01*
X116085333Y-99142857D02*
X116085333Y-99285714D01*
X116085333Y-99285714D02*
X116037714Y-99380952D01*
X116037714Y-99380952D02*
X115990095Y-99428571D01*
X115990095Y-99428571D02*
X115894857Y-99476190D01*
X115894857Y-99476190D02*
X115513905Y-99476190D01*
X116942476Y-99285714D02*
X116942476Y-99952380D01*
X116704381Y-98904761D02*
X116466286Y-99619047D01*
X116466286Y-99619047D02*
X117085333Y-99619047D01*
%TO.C,C5*%
X198308333Y-145637142D02*
X198260714Y-145684761D01*
X198260714Y-145684761D02*
X198117857Y-145732380D01*
X198117857Y-145732380D02*
X198022619Y-145732380D01*
X198022619Y-145732380D02*
X197879762Y-145684761D01*
X197879762Y-145684761D02*
X197784524Y-145589523D01*
X197784524Y-145589523D02*
X197736905Y-145494285D01*
X197736905Y-145494285D02*
X197689286Y-145303809D01*
X197689286Y-145303809D02*
X197689286Y-145160952D01*
X197689286Y-145160952D02*
X197736905Y-144970476D01*
X197736905Y-144970476D02*
X197784524Y-144875238D01*
X197784524Y-144875238D02*
X197879762Y-144780000D01*
X197879762Y-144780000D02*
X198022619Y-144732380D01*
X198022619Y-144732380D02*
X198117857Y-144732380D01*
X198117857Y-144732380D02*
X198260714Y-144780000D01*
X198260714Y-144780000D02*
X198308333Y-144827619D01*
X199213095Y-144732380D02*
X198736905Y-144732380D01*
X198736905Y-144732380D02*
X198689286Y-145208571D01*
X198689286Y-145208571D02*
X198736905Y-145160952D01*
X198736905Y-145160952D02*
X198832143Y-145113333D01*
X198832143Y-145113333D02*
X199070238Y-145113333D01*
X199070238Y-145113333D02*
X199165476Y-145160952D01*
X199165476Y-145160952D02*
X199213095Y-145208571D01*
X199213095Y-145208571D02*
X199260714Y-145303809D01*
X199260714Y-145303809D02*
X199260714Y-145541904D01*
X199260714Y-145541904D02*
X199213095Y-145637142D01*
X199213095Y-145637142D02*
X199165476Y-145684761D01*
X199165476Y-145684761D02*
X199070238Y-145732380D01*
X199070238Y-145732380D02*
X198832143Y-145732380D01*
X198832143Y-145732380D02*
X198736905Y-145684761D01*
X198736905Y-145684761D02*
X198689286Y-145637142D01*
%TO.C,U5*%
X205213095Y-143992380D02*
X205213095Y-144801904D01*
X205213095Y-144801904D02*
X205260714Y-144897142D01*
X205260714Y-144897142D02*
X205308333Y-144944761D01*
X205308333Y-144944761D02*
X205403571Y-144992380D01*
X205403571Y-144992380D02*
X205594047Y-144992380D01*
X205594047Y-144992380D02*
X205689285Y-144944761D01*
X205689285Y-144944761D02*
X205736904Y-144897142D01*
X205736904Y-144897142D02*
X205784523Y-144801904D01*
X205784523Y-144801904D02*
X205784523Y-143992380D01*
X206736904Y-143992380D02*
X206260714Y-143992380D01*
X206260714Y-143992380D02*
X206213095Y-144468571D01*
X206213095Y-144468571D02*
X206260714Y-144420952D01*
X206260714Y-144420952D02*
X206355952Y-144373333D01*
X206355952Y-144373333D02*
X206594047Y-144373333D01*
X206594047Y-144373333D02*
X206689285Y-144420952D01*
X206689285Y-144420952D02*
X206736904Y-144468571D01*
X206736904Y-144468571D02*
X206784523Y-144563809D01*
X206784523Y-144563809D02*
X206784523Y-144801904D01*
X206784523Y-144801904D02*
X206736904Y-144897142D01*
X206736904Y-144897142D02*
X206689285Y-144944761D01*
X206689285Y-144944761D02*
X206594047Y-144992380D01*
X206594047Y-144992380D02*
X206355952Y-144992380D01*
X206355952Y-144992380D02*
X206260714Y-144944761D01*
X206260714Y-144944761D02*
X206213095Y-144897142D01*
%TO.C,R6*%
X116085333Y-108052380D02*
X115752000Y-107576190D01*
X115513905Y-108052380D02*
X115513905Y-107052380D01*
X115513905Y-107052380D02*
X115894857Y-107052380D01*
X115894857Y-107052380D02*
X115990095Y-107100000D01*
X115990095Y-107100000D02*
X116037714Y-107147619D01*
X116037714Y-107147619D02*
X116085333Y-107242857D01*
X116085333Y-107242857D02*
X116085333Y-107385714D01*
X116085333Y-107385714D02*
X116037714Y-107480952D01*
X116037714Y-107480952D02*
X115990095Y-107528571D01*
X115990095Y-107528571D02*
X115894857Y-107576190D01*
X115894857Y-107576190D02*
X115513905Y-107576190D01*
X116942476Y-107052380D02*
X116752000Y-107052380D01*
X116752000Y-107052380D02*
X116656762Y-107100000D01*
X116656762Y-107100000D02*
X116609143Y-107147619D01*
X116609143Y-107147619D02*
X116513905Y-107290476D01*
X116513905Y-107290476D02*
X116466286Y-107480952D01*
X116466286Y-107480952D02*
X116466286Y-107861904D01*
X116466286Y-107861904D02*
X116513905Y-107957142D01*
X116513905Y-107957142D02*
X116561524Y-108004761D01*
X116561524Y-108004761D02*
X116656762Y-108052380D01*
X116656762Y-108052380D02*
X116847238Y-108052380D01*
X116847238Y-108052380D02*
X116942476Y-108004761D01*
X116942476Y-108004761D02*
X116990095Y-107957142D01*
X116990095Y-107957142D02*
X117037714Y-107861904D01*
X117037714Y-107861904D02*
X117037714Y-107623809D01*
X117037714Y-107623809D02*
X116990095Y-107528571D01*
X116990095Y-107528571D02*
X116942476Y-107480952D01*
X116942476Y-107480952D02*
X116847238Y-107433333D01*
X116847238Y-107433333D02*
X116656762Y-107433333D01*
X116656762Y-107433333D02*
X116561524Y-107480952D01*
X116561524Y-107480952D02*
X116513905Y-107528571D01*
X116513905Y-107528571D02*
X116466286Y-107623809D01*
%TO.C,D2*%
X118324405Y-114717380D02*
X118324405Y-113717380D01*
X118324405Y-113717380D02*
X118562500Y-113717380D01*
X118562500Y-113717380D02*
X118705357Y-113765000D01*
X118705357Y-113765000D02*
X118800595Y-113860238D01*
X118800595Y-113860238D02*
X118848214Y-113955476D01*
X118848214Y-113955476D02*
X118895833Y-114145952D01*
X118895833Y-114145952D02*
X118895833Y-114288809D01*
X118895833Y-114288809D02*
X118848214Y-114479285D01*
X118848214Y-114479285D02*
X118800595Y-114574523D01*
X118800595Y-114574523D02*
X118705357Y-114669761D01*
X118705357Y-114669761D02*
X118562500Y-114717380D01*
X118562500Y-114717380D02*
X118324405Y-114717380D01*
X119276786Y-113812619D02*
X119324405Y-113765000D01*
X119324405Y-113765000D02*
X119419643Y-113717380D01*
X119419643Y-113717380D02*
X119657738Y-113717380D01*
X119657738Y-113717380D02*
X119752976Y-113765000D01*
X119752976Y-113765000D02*
X119800595Y-113812619D01*
X119800595Y-113812619D02*
X119848214Y-113907857D01*
X119848214Y-113907857D02*
X119848214Y-114003095D01*
X119848214Y-114003095D02*
X119800595Y-114145952D01*
X119800595Y-114145952D02*
X119229167Y-114717380D01*
X119229167Y-114717380D02*
X119848214Y-114717380D01*
%TO.C,R11*%
X170357142Y-88937380D02*
X170023809Y-88461190D01*
X169785714Y-88937380D02*
X169785714Y-87937380D01*
X169785714Y-87937380D02*
X170166666Y-87937380D01*
X170166666Y-87937380D02*
X170261904Y-87985000D01*
X170261904Y-87985000D02*
X170309523Y-88032619D01*
X170309523Y-88032619D02*
X170357142Y-88127857D01*
X170357142Y-88127857D02*
X170357142Y-88270714D01*
X170357142Y-88270714D02*
X170309523Y-88365952D01*
X170309523Y-88365952D02*
X170261904Y-88413571D01*
X170261904Y-88413571D02*
X170166666Y-88461190D01*
X170166666Y-88461190D02*
X169785714Y-88461190D01*
X171309523Y-88937380D02*
X170738095Y-88937380D01*
X171023809Y-88937380D02*
X171023809Y-87937380D01*
X171023809Y-87937380D02*
X170928571Y-88080238D01*
X170928571Y-88080238D02*
X170833333Y-88175476D01*
X170833333Y-88175476D02*
X170738095Y-88223095D01*
X172261904Y-88937380D02*
X171690476Y-88937380D01*
X171976190Y-88937380D02*
X171976190Y-87937380D01*
X171976190Y-87937380D02*
X171880952Y-88080238D01*
X171880952Y-88080238D02*
X171785714Y-88175476D01*
X171785714Y-88175476D02*
X171690476Y-88223095D01*
%TO.C,U4*%
X173238095Y-91967380D02*
X173238095Y-92776904D01*
X173238095Y-92776904D02*
X173285714Y-92872142D01*
X173285714Y-92872142D02*
X173333333Y-92919761D01*
X173333333Y-92919761D02*
X173428571Y-92967380D01*
X173428571Y-92967380D02*
X173619047Y-92967380D01*
X173619047Y-92967380D02*
X173714285Y-92919761D01*
X173714285Y-92919761D02*
X173761904Y-92872142D01*
X173761904Y-92872142D02*
X173809523Y-92776904D01*
X173809523Y-92776904D02*
X173809523Y-91967380D01*
X174714285Y-92300714D02*
X174714285Y-92967380D01*
X174476190Y-91919761D02*
X174238095Y-92634047D01*
X174238095Y-92634047D02*
X174857142Y-92634047D01*
%TO.C,J6*%
X136666666Y-104497380D02*
X136666666Y-105211666D01*
X136666666Y-105211666D02*
X136619047Y-105354523D01*
X136619047Y-105354523D02*
X136523809Y-105449761D01*
X136523809Y-105449761D02*
X136380952Y-105497380D01*
X136380952Y-105497380D02*
X136285714Y-105497380D01*
X137571428Y-104497380D02*
X137380952Y-104497380D01*
X137380952Y-104497380D02*
X137285714Y-104545000D01*
X137285714Y-104545000D02*
X137238095Y-104592619D01*
X137238095Y-104592619D02*
X137142857Y-104735476D01*
X137142857Y-104735476D02*
X137095238Y-104925952D01*
X137095238Y-104925952D02*
X137095238Y-105306904D01*
X137095238Y-105306904D02*
X137142857Y-105402142D01*
X137142857Y-105402142D02*
X137190476Y-105449761D01*
X137190476Y-105449761D02*
X137285714Y-105497380D01*
X137285714Y-105497380D02*
X137476190Y-105497380D01*
X137476190Y-105497380D02*
X137571428Y-105449761D01*
X137571428Y-105449761D02*
X137619047Y-105402142D01*
X137619047Y-105402142D02*
X137666666Y-105306904D01*
X137666666Y-105306904D02*
X137666666Y-105068809D01*
X137666666Y-105068809D02*
X137619047Y-104973571D01*
X137619047Y-104973571D02*
X137571428Y-104925952D01*
X137571428Y-104925952D02*
X137476190Y-104878333D01*
X137476190Y-104878333D02*
X137285714Y-104878333D01*
X137285714Y-104878333D02*
X137190476Y-104925952D01*
X137190476Y-104925952D02*
X137142857Y-104973571D01*
X137142857Y-104973571D02*
X137095238Y-105068809D01*
%TO.C,U3*%
X117867380Y-132761904D02*
X118676904Y-132761904D01*
X118676904Y-132761904D02*
X118772142Y-132714285D01*
X118772142Y-132714285D02*
X118819761Y-132666666D01*
X118819761Y-132666666D02*
X118867380Y-132571428D01*
X118867380Y-132571428D02*
X118867380Y-132380952D01*
X118867380Y-132380952D02*
X118819761Y-132285714D01*
X118819761Y-132285714D02*
X118772142Y-132238095D01*
X118772142Y-132238095D02*
X118676904Y-132190476D01*
X118676904Y-132190476D02*
X117867380Y-132190476D01*
X117867380Y-131809523D02*
X117867380Y-131190476D01*
X117867380Y-131190476D02*
X118248333Y-131523809D01*
X118248333Y-131523809D02*
X118248333Y-131380952D01*
X118248333Y-131380952D02*
X118295952Y-131285714D01*
X118295952Y-131285714D02*
X118343571Y-131238095D01*
X118343571Y-131238095D02*
X118438809Y-131190476D01*
X118438809Y-131190476D02*
X118676904Y-131190476D01*
X118676904Y-131190476D02*
X118772142Y-131238095D01*
X118772142Y-131238095D02*
X118819761Y-131285714D01*
X118819761Y-131285714D02*
X118867380Y-131380952D01*
X118867380Y-131380952D02*
X118867380Y-131666666D01*
X118867380Y-131666666D02*
X118819761Y-131761904D01*
X118819761Y-131761904D02*
X118772142Y-131809523D01*
%TO.C,SW1*%
X139416667Y-117319761D02*
X139559524Y-117367380D01*
X139559524Y-117367380D02*
X139797619Y-117367380D01*
X139797619Y-117367380D02*
X139892857Y-117319761D01*
X139892857Y-117319761D02*
X139940476Y-117272142D01*
X139940476Y-117272142D02*
X139988095Y-117176904D01*
X139988095Y-117176904D02*
X139988095Y-117081666D01*
X139988095Y-117081666D02*
X139940476Y-116986428D01*
X139940476Y-116986428D02*
X139892857Y-116938809D01*
X139892857Y-116938809D02*
X139797619Y-116891190D01*
X139797619Y-116891190D02*
X139607143Y-116843571D01*
X139607143Y-116843571D02*
X139511905Y-116795952D01*
X139511905Y-116795952D02*
X139464286Y-116748333D01*
X139464286Y-116748333D02*
X139416667Y-116653095D01*
X139416667Y-116653095D02*
X139416667Y-116557857D01*
X139416667Y-116557857D02*
X139464286Y-116462619D01*
X139464286Y-116462619D02*
X139511905Y-116415000D01*
X139511905Y-116415000D02*
X139607143Y-116367380D01*
X139607143Y-116367380D02*
X139845238Y-116367380D01*
X139845238Y-116367380D02*
X139988095Y-116415000D01*
X140321429Y-116367380D02*
X140559524Y-117367380D01*
X140559524Y-117367380D02*
X140750000Y-116653095D01*
X140750000Y-116653095D02*
X140940476Y-117367380D01*
X140940476Y-117367380D02*
X141178572Y-116367380D01*
X142083333Y-117367380D02*
X141511905Y-117367380D01*
X141797619Y-117367380D02*
X141797619Y-116367380D01*
X141797619Y-116367380D02*
X141702381Y-116510238D01*
X141702381Y-116510238D02*
X141607143Y-116605476D01*
X141607143Y-116605476D02*
X141511905Y-116653095D01*
%TO.C,R7*%
X192453333Y-140907380D02*
X192120000Y-140431190D01*
X191881905Y-140907380D02*
X191881905Y-139907380D01*
X191881905Y-139907380D02*
X192262857Y-139907380D01*
X192262857Y-139907380D02*
X192358095Y-139955000D01*
X192358095Y-139955000D02*
X192405714Y-140002619D01*
X192405714Y-140002619D02*
X192453333Y-140097857D01*
X192453333Y-140097857D02*
X192453333Y-140240714D01*
X192453333Y-140240714D02*
X192405714Y-140335952D01*
X192405714Y-140335952D02*
X192358095Y-140383571D01*
X192358095Y-140383571D02*
X192262857Y-140431190D01*
X192262857Y-140431190D02*
X191881905Y-140431190D01*
X192786667Y-139907380D02*
X193453333Y-139907380D01*
X193453333Y-139907380D02*
X193024762Y-140907380D01*
%TO.C,D1*%
X125261905Y-96717380D02*
X125261905Y-95717380D01*
X125261905Y-95717380D02*
X125500000Y-95717380D01*
X125500000Y-95717380D02*
X125642857Y-95765000D01*
X125642857Y-95765000D02*
X125738095Y-95860238D01*
X125738095Y-95860238D02*
X125785714Y-95955476D01*
X125785714Y-95955476D02*
X125833333Y-96145952D01*
X125833333Y-96145952D02*
X125833333Y-96288809D01*
X125833333Y-96288809D02*
X125785714Y-96479285D01*
X125785714Y-96479285D02*
X125738095Y-96574523D01*
X125738095Y-96574523D02*
X125642857Y-96669761D01*
X125642857Y-96669761D02*
X125500000Y-96717380D01*
X125500000Y-96717380D02*
X125261905Y-96717380D01*
X126785714Y-96717380D02*
X126214286Y-96717380D01*
X126500000Y-96717380D02*
X126500000Y-95717380D01*
X126500000Y-95717380D02*
X126404762Y-95860238D01*
X126404762Y-95860238D02*
X126309524Y-95955476D01*
X126309524Y-95955476D02*
X126214286Y-96003095D01*
%TO.C,J7*%
X127666666Y-83037380D02*
X127666666Y-83751666D01*
X127666666Y-83751666D02*
X127619047Y-83894523D01*
X127619047Y-83894523D02*
X127523809Y-83989761D01*
X127523809Y-83989761D02*
X127380952Y-84037380D01*
X127380952Y-84037380D02*
X127285714Y-84037380D01*
X128047619Y-83037380D02*
X128714285Y-83037380D01*
X128714285Y-83037380D02*
X128285714Y-84037380D01*
%TO.C,C1*%
X122025333Y-99337142D02*
X121977714Y-99384761D01*
X121977714Y-99384761D02*
X121834857Y-99432380D01*
X121834857Y-99432380D02*
X121739619Y-99432380D01*
X121739619Y-99432380D02*
X121596762Y-99384761D01*
X121596762Y-99384761D02*
X121501524Y-99289523D01*
X121501524Y-99289523D02*
X121453905Y-99194285D01*
X121453905Y-99194285D02*
X121406286Y-99003809D01*
X121406286Y-99003809D02*
X121406286Y-98860952D01*
X121406286Y-98860952D02*
X121453905Y-98670476D01*
X121453905Y-98670476D02*
X121501524Y-98575238D01*
X121501524Y-98575238D02*
X121596762Y-98480000D01*
X121596762Y-98480000D02*
X121739619Y-98432380D01*
X121739619Y-98432380D02*
X121834857Y-98432380D01*
X121834857Y-98432380D02*
X121977714Y-98480000D01*
X121977714Y-98480000D02*
X122025333Y-98527619D01*
X122977714Y-99432380D02*
X122406286Y-99432380D01*
X122692000Y-99432380D02*
X122692000Y-98432380D01*
X122692000Y-98432380D02*
X122596762Y-98575238D01*
X122596762Y-98575238D02*
X122501524Y-98670476D01*
X122501524Y-98670476D02*
X122406286Y-98718095D01*
%TO.C,TP2*%
X172038095Y-81367380D02*
X172609523Y-81367380D01*
X172323809Y-82367380D02*
X172323809Y-81367380D01*
X172942857Y-82367380D02*
X172942857Y-81367380D01*
X172942857Y-81367380D02*
X173323809Y-81367380D01*
X173323809Y-81367380D02*
X173419047Y-81415000D01*
X173419047Y-81415000D02*
X173466666Y-81462619D01*
X173466666Y-81462619D02*
X173514285Y-81557857D01*
X173514285Y-81557857D02*
X173514285Y-81700714D01*
X173514285Y-81700714D02*
X173466666Y-81795952D01*
X173466666Y-81795952D02*
X173419047Y-81843571D01*
X173419047Y-81843571D02*
X173323809Y-81891190D01*
X173323809Y-81891190D02*
X172942857Y-81891190D01*
X173895238Y-81462619D02*
X173942857Y-81415000D01*
X173942857Y-81415000D02*
X174038095Y-81367380D01*
X174038095Y-81367380D02*
X174276190Y-81367380D01*
X174276190Y-81367380D02*
X174371428Y-81415000D01*
X174371428Y-81415000D02*
X174419047Y-81462619D01*
X174419047Y-81462619D02*
X174466666Y-81557857D01*
X174466666Y-81557857D02*
X174466666Y-81653095D01*
X174466666Y-81653095D02*
X174419047Y-81795952D01*
X174419047Y-81795952D02*
X173847619Y-82367380D01*
X173847619Y-82367380D02*
X174466666Y-82367380D01*
%TO.C,R1*%
X126545333Y-107902380D02*
X126212000Y-107426190D01*
X125973905Y-107902380D02*
X125973905Y-106902380D01*
X125973905Y-106902380D02*
X126354857Y-106902380D01*
X126354857Y-106902380D02*
X126450095Y-106950000D01*
X126450095Y-106950000D02*
X126497714Y-106997619D01*
X126497714Y-106997619D02*
X126545333Y-107092857D01*
X126545333Y-107092857D02*
X126545333Y-107235714D01*
X126545333Y-107235714D02*
X126497714Y-107330952D01*
X126497714Y-107330952D02*
X126450095Y-107378571D01*
X126450095Y-107378571D02*
X126354857Y-107426190D01*
X126354857Y-107426190D02*
X125973905Y-107426190D01*
X127497714Y-107902380D02*
X126926286Y-107902380D01*
X127212000Y-107902380D02*
X127212000Y-106902380D01*
X127212000Y-106902380D02*
X127116762Y-107045238D01*
X127116762Y-107045238D02*
X127021524Y-107140476D01*
X127021524Y-107140476D02*
X126926286Y-107188095D01*
%TO.C,C10*%
X178422142Y-95642857D02*
X178469761Y-95690476D01*
X178469761Y-95690476D02*
X178517380Y-95833333D01*
X178517380Y-95833333D02*
X178517380Y-95928571D01*
X178517380Y-95928571D02*
X178469761Y-96071428D01*
X178469761Y-96071428D02*
X178374523Y-96166666D01*
X178374523Y-96166666D02*
X178279285Y-96214285D01*
X178279285Y-96214285D02*
X178088809Y-96261904D01*
X178088809Y-96261904D02*
X177945952Y-96261904D01*
X177945952Y-96261904D02*
X177755476Y-96214285D01*
X177755476Y-96214285D02*
X177660238Y-96166666D01*
X177660238Y-96166666D02*
X177565000Y-96071428D01*
X177565000Y-96071428D02*
X177517380Y-95928571D01*
X177517380Y-95928571D02*
X177517380Y-95833333D01*
X177517380Y-95833333D02*
X177565000Y-95690476D01*
X177565000Y-95690476D02*
X177612619Y-95642857D01*
X178517380Y-94690476D02*
X178517380Y-95261904D01*
X178517380Y-94976190D02*
X177517380Y-94976190D01*
X177517380Y-94976190D02*
X177660238Y-95071428D01*
X177660238Y-95071428D02*
X177755476Y-95166666D01*
X177755476Y-95166666D02*
X177803095Y-95261904D01*
X177517380Y-94071428D02*
X177517380Y-93976190D01*
X177517380Y-93976190D02*
X177565000Y-93880952D01*
X177565000Y-93880952D02*
X177612619Y-93833333D01*
X177612619Y-93833333D02*
X177707857Y-93785714D01*
X177707857Y-93785714D02*
X177898333Y-93738095D01*
X177898333Y-93738095D02*
X178136428Y-93738095D01*
X178136428Y-93738095D02*
X178326904Y-93785714D01*
X178326904Y-93785714D02*
X178422142Y-93833333D01*
X178422142Y-93833333D02*
X178469761Y-93880952D01*
X178469761Y-93880952D02*
X178517380Y-93976190D01*
X178517380Y-93976190D02*
X178517380Y-94071428D01*
X178517380Y-94071428D02*
X178469761Y-94166666D01*
X178469761Y-94166666D02*
X178422142Y-94214285D01*
X178422142Y-94214285D02*
X178326904Y-94261904D01*
X178326904Y-94261904D02*
X178136428Y-94309523D01*
X178136428Y-94309523D02*
X177898333Y-94309523D01*
X177898333Y-94309523D02*
X177707857Y-94261904D01*
X177707857Y-94261904D02*
X177612619Y-94214285D01*
X177612619Y-94214285D02*
X177565000Y-94166666D01*
X177565000Y-94166666D02*
X177517380Y-94071428D01*
%TO.C,R10*%
X169182142Y-94937380D02*
X168848809Y-94461190D01*
X168610714Y-94937380D02*
X168610714Y-93937380D01*
X168610714Y-93937380D02*
X168991666Y-93937380D01*
X168991666Y-93937380D02*
X169086904Y-93985000D01*
X169086904Y-93985000D02*
X169134523Y-94032619D01*
X169134523Y-94032619D02*
X169182142Y-94127857D01*
X169182142Y-94127857D02*
X169182142Y-94270714D01*
X169182142Y-94270714D02*
X169134523Y-94365952D01*
X169134523Y-94365952D02*
X169086904Y-94413571D01*
X169086904Y-94413571D02*
X168991666Y-94461190D01*
X168991666Y-94461190D02*
X168610714Y-94461190D01*
X170134523Y-94937380D02*
X169563095Y-94937380D01*
X169848809Y-94937380D02*
X169848809Y-93937380D01*
X169848809Y-93937380D02*
X169753571Y-94080238D01*
X169753571Y-94080238D02*
X169658333Y-94175476D01*
X169658333Y-94175476D02*
X169563095Y-94223095D01*
X170753571Y-93937380D02*
X170848809Y-93937380D01*
X170848809Y-93937380D02*
X170944047Y-93985000D01*
X170944047Y-93985000D02*
X170991666Y-94032619D01*
X170991666Y-94032619D02*
X171039285Y-94127857D01*
X171039285Y-94127857D02*
X171086904Y-94318333D01*
X171086904Y-94318333D02*
X171086904Y-94556428D01*
X171086904Y-94556428D02*
X171039285Y-94746904D01*
X171039285Y-94746904D02*
X170991666Y-94842142D01*
X170991666Y-94842142D02*
X170944047Y-94889761D01*
X170944047Y-94889761D02*
X170848809Y-94937380D01*
X170848809Y-94937380D02*
X170753571Y-94937380D01*
X170753571Y-94937380D02*
X170658333Y-94889761D01*
X170658333Y-94889761D02*
X170610714Y-94842142D01*
X170610714Y-94842142D02*
X170563095Y-94746904D01*
X170563095Y-94746904D02*
X170515476Y-94556428D01*
X170515476Y-94556428D02*
X170515476Y-94318333D01*
X170515476Y-94318333D02*
X170563095Y-94127857D01*
X170563095Y-94127857D02*
X170610714Y-94032619D01*
X170610714Y-94032619D02*
X170658333Y-93985000D01*
X170658333Y-93985000D02*
X170753571Y-93937380D01*
%TO.C,C6*%
X129824142Y-106591666D02*
X129871761Y-106639285D01*
X129871761Y-106639285D02*
X129919380Y-106782142D01*
X129919380Y-106782142D02*
X129919380Y-106877380D01*
X129919380Y-106877380D02*
X129871761Y-107020237D01*
X129871761Y-107020237D02*
X129776523Y-107115475D01*
X129776523Y-107115475D02*
X129681285Y-107163094D01*
X129681285Y-107163094D02*
X129490809Y-107210713D01*
X129490809Y-107210713D02*
X129347952Y-107210713D01*
X129347952Y-107210713D02*
X129157476Y-107163094D01*
X129157476Y-107163094D02*
X129062238Y-107115475D01*
X129062238Y-107115475D02*
X128967000Y-107020237D01*
X128967000Y-107020237D02*
X128919380Y-106877380D01*
X128919380Y-106877380D02*
X128919380Y-106782142D01*
X128919380Y-106782142D02*
X128967000Y-106639285D01*
X128967000Y-106639285D02*
X129014619Y-106591666D01*
X128919380Y-105734523D02*
X128919380Y-105924999D01*
X128919380Y-105924999D02*
X128967000Y-106020237D01*
X128967000Y-106020237D02*
X129014619Y-106067856D01*
X129014619Y-106067856D02*
X129157476Y-106163094D01*
X129157476Y-106163094D02*
X129347952Y-106210713D01*
X129347952Y-106210713D02*
X129728904Y-106210713D01*
X129728904Y-106210713D02*
X129824142Y-106163094D01*
X129824142Y-106163094D02*
X129871761Y-106115475D01*
X129871761Y-106115475D02*
X129919380Y-106020237D01*
X129919380Y-106020237D02*
X129919380Y-105829761D01*
X129919380Y-105829761D02*
X129871761Y-105734523D01*
X129871761Y-105734523D02*
X129824142Y-105686904D01*
X129824142Y-105686904D02*
X129728904Y-105639285D01*
X129728904Y-105639285D02*
X129490809Y-105639285D01*
X129490809Y-105639285D02*
X129395571Y-105686904D01*
X129395571Y-105686904D02*
X129347952Y-105734523D01*
X129347952Y-105734523D02*
X129300333Y-105829761D01*
X129300333Y-105829761D02*
X129300333Y-106020237D01*
X129300333Y-106020237D02*
X129347952Y-106115475D01*
X129347952Y-106115475D02*
X129395571Y-106163094D01*
X129395571Y-106163094D02*
X129490809Y-106210713D01*
%TO.C,R9*%
X170833333Y-98717380D02*
X170500000Y-98241190D01*
X170261905Y-98717380D02*
X170261905Y-97717380D01*
X170261905Y-97717380D02*
X170642857Y-97717380D01*
X170642857Y-97717380D02*
X170738095Y-97765000D01*
X170738095Y-97765000D02*
X170785714Y-97812619D01*
X170785714Y-97812619D02*
X170833333Y-97907857D01*
X170833333Y-97907857D02*
X170833333Y-98050714D01*
X170833333Y-98050714D02*
X170785714Y-98145952D01*
X170785714Y-98145952D02*
X170738095Y-98193571D01*
X170738095Y-98193571D02*
X170642857Y-98241190D01*
X170642857Y-98241190D02*
X170261905Y-98241190D01*
X171309524Y-98717380D02*
X171500000Y-98717380D01*
X171500000Y-98717380D02*
X171595238Y-98669761D01*
X171595238Y-98669761D02*
X171642857Y-98622142D01*
X171642857Y-98622142D02*
X171738095Y-98479285D01*
X171738095Y-98479285D02*
X171785714Y-98288809D01*
X171785714Y-98288809D02*
X171785714Y-97907857D01*
X171785714Y-97907857D02*
X171738095Y-97812619D01*
X171738095Y-97812619D02*
X171690476Y-97765000D01*
X171690476Y-97765000D02*
X171595238Y-97717380D01*
X171595238Y-97717380D02*
X171404762Y-97717380D01*
X171404762Y-97717380D02*
X171309524Y-97765000D01*
X171309524Y-97765000D02*
X171261905Y-97812619D01*
X171261905Y-97812619D02*
X171214286Y-97907857D01*
X171214286Y-97907857D02*
X171214286Y-98145952D01*
X171214286Y-98145952D02*
X171261905Y-98241190D01*
X171261905Y-98241190D02*
X171309524Y-98288809D01*
X171309524Y-98288809D02*
X171404762Y-98336428D01*
X171404762Y-98336428D02*
X171595238Y-98336428D01*
X171595238Y-98336428D02*
X171690476Y-98288809D01*
X171690476Y-98288809D02*
X171738095Y-98241190D01*
X171738095Y-98241190D02*
X171785714Y-98145952D01*
%TO.C,J2*%
X151666666Y-84237380D02*
X151666666Y-84951666D01*
X151666666Y-84951666D02*
X151619047Y-85094523D01*
X151619047Y-85094523D02*
X151523809Y-85189761D01*
X151523809Y-85189761D02*
X151380952Y-85237380D01*
X151380952Y-85237380D02*
X151285714Y-85237380D01*
X152095238Y-84332619D02*
X152142857Y-84285000D01*
X152142857Y-84285000D02*
X152238095Y-84237380D01*
X152238095Y-84237380D02*
X152476190Y-84237380D01*
X152476190Y-84237380D02*
X152571428Y-84285000D01*
X152571428Y-84285000D02*
X152619047Y-84332619D01*
X152619047Y-84332619D02*
X152666666Y-84427857D01*
X152666666Y-84427857D02*
X152666666Y-84523095D01*
X152666666Y-84523095D02*
X152619047Y-84665952D01*
X152619047Y-84665952D02*
X152047619Y-85237380D01*
X152047619Y-85237380D02*
X152666666Y-85237380D01*
D11*
%TO.C,J3*%
X124288667Y-102101573D02*
X124288667Y-103008716D01*
X124288667Y-103008716D02*
X124228190Y-103190145D01*
X124228190Y-103190145D02*
X124107238Y-103311097D01*
X124107238Y-103311097D02*
X123925809Y-103371573D01*
X123925809Y-103371573D02*
X123804857Y-103371573D01*
X124772476Y-102101573D02*
X125558667Y-102101573D01*
X125558667Y-102101573D02*
X125135333Y-102585383D01*
X125135333Y-102585383D02*
X125316762Y-102585383D01*
X125316762Y-102585383D02*
X125437714Y-102645859D01*
X125437714Y-102645859D02*
X125498190Y-102706335D01*
X125498190Y-102706335D02*
X125558667Y-102827288D01*
X125558667Y-102827288D02*
X125558667Y-103129669D01*
X125558667Y-103129669D02*
X125498190Y-103250621D01*
X125498190Y-103250621D02*
X125437714Y-103311097D01*
X125437714Y-103311097D02*
X125316762Y-103371573D01*
X125316762Y-103371573D02*
X124953905Y-103371573D01*
X124953905Y-103371573D02*
X124832952Y-103311097D01*
X124832952Y-103311097D02*
X124772476Y-103250621D01*
D10*
%TO.C,U1*%
X134238095Y-102903575D02*
X134238095Y-103713099D01*
X134238095Y-103713099D02*
X134285714Y-103808337D01*
X134285714Y-103808337D02*
X134333333Y-103855956D01*
X134333333Y-103855956D02*
X134428571Y-103903575D01*
X134428571Y-103903575D02*
X134619047Y-103903575D01*
X134619047Y-103903575D02*
X134714285Y-103855956D01*
X134714285Y-103855956D02*
X134761904Y-103808337D01*
X134761904Y-103808337D02*
X134809523Y-103713099D01*
X134809523Y-103713099D02*
X134809523Y-102903575D01*
X135809523Y-103903575D02*
X135238095Y-103903575D01*
X135523809Y-103903575D02*
X135523809Y-102903575D01*
X135523809Y-102903575D02*
X135428571Y-103046433D01*
X135428571Y-103046433D02*
X135333333Y-103141671D01*
X135333333Y-103141671D02*
X135238095Y-103189290D01*
%TO.C,R3*%
X116085333Y-95902380D02*
X115752000Y-95426190D01*
X115513905Y-95902380D02*
X115513905Y-94902380D01*
X115513905Y-94902380D02*
X115894857Y-94902380D01*
X115894857Y-94902380D02*
X115990095Y-94950000D01*
X115990095Y-94950000D02*
X116037714Y-94997619D01*
X116037714Y-94997619D02*
X116085333Y-95092857D01*
X116085333Y-95092857D02*
X116085333Y-95235714D01*
X116085333Y-95235714D02*
X116037714Y-95330952D01*
X116037714Y-95330952D02*
X115990095Y-95378571D01*
X115990095Y-95378571D02*
X115894857Y-95426190D01*
X115894857Y-95426190D02*
X115513905Y-95426190D01*
X116418667Y-94902380D02*
X117037714Y-94902380D01*
X117037714Y-94902380D02*
X116704381Y-95283333D01*
X116704381Y-95283333D02*
X116847238Y-95283333D01*
X116847238Y-95283333D02*
X116942476Y-95330952D01*
X116942476Y-95330952D02*
X116990095Y-95378571D01*
X116990095Y-95378571D02*
X117037714Y-95473809D01*
X117037714Y-95473809D02*
X117037714Y-95711904D01*
X117037714Y-95711904D02*
X116990095Y-95807142D01*
X116990095Y-95807142D02*
X116942476Y-95854761D01*
X116942476Y-95854761D02*
X116847238Y-95902380D01*
X116847238Y-95902380D02*
X116561524Y-95902380D01*
X116561524Y-95902380D02*
X116466286Y-95854761D01*
X116466286Y-95854761D02*
X116418667Y-95807142D01*
%TO.C,J5*%
X122666666Y-82497380D02*
X122666666Y-83211666D01*
X122666666Y-83211666D02*
X122619047Y-83354523D01*
X122619047Y-83354523D02*
X122523809Y-83449761D01*
X122523809Y-83449761D02*
X122380952Y-83497380D01*
X122380952Y-83497380D02*
X122285714Y-83497380D01*
X123619047Y-82497380D02*
X123142857Y-82497380D01*
X123142857Y-82497380D02*
X123095238Y-82973571D01*
X123095238Y-82973571D02*
X123142857Y-82925952D01*
X123142857Y-82925952D02*
X123238095Y-82878333D01*
X123238095Y-82878333D02*
X123476190Y-82878333D01*
X123476190Y-82878333D02*
X123571428Y-82925952D01*
X123571428Y-82925952D02*
X123619047Y-82973571D01*
X123619047Y-82973571D02*
X123666666Y-83068809D01*
X123666666Y-83068809D02*
X123666666Y-83306904D01*
X123666666Y-83306904D02*
X123619047Y-83402142D01*
X123619047Y-83402142D02*
X123571428Y-83449761D01*
X123571428Y-83449761D02*
X123476190Y-83497380D01*
X123476190Y-83497380D02*
X123238095Y-83497380D01*
X123238095Y-83497380D02*
X123142857Y-83449761D01*
X123142857Y-83449761D02*
X123095238Y-83402142D01*
%TO.C,J4*%
X132666666Y-83497380D02*
X132666666Y-84211666D01*
X132666666Y-84211666D02*
X132619047Y-84354523D01*
X132619047Y-84354523D02*
X132523809Y-84449761D01*
X132523809Y-84449761D02*
X132380952Y-84497380D01*
X132380952Y-84497380D02*
X132285714Y-84497380D01*
X133571428Y-83830714D02*
X133571428Y-84497380D01*
X133333333Y-83449761D02*
X133095238Y-84164047D01*
X133095238Y-84164047D02*
X133714285Y-84164047D01*
%TO.C,R8*%
X192453333Y-143857380D02*
X192120000Y-143381190D01*
X191881905Y-143857380D02*
X191881905Y-142857380D01*
X191881905Y-142857380D02*
X192262857Y-142857380D01*
X192262857Y-142857380D02*
X192358095Y-142905000D01*
X192358095Y-142905000D02*
X192405714Y-142952619D01*
X192405714Y-142952619D02*
X192453333Y-143047857D01*
X192453333Y-143047857D02*
X192453333Y-143190714D01*
X192453333Y-143190714D02*
X192405714Y-143285952D01*
X192405714Y-143285952D02*
X192358095Y-143333571D01*
X192358095Y-143333571D02*
X192262857Y-143381190D01*
X192262857Y-143381190D02*
X191881905Y-143381190D01*
X193024762Y-143285952D02*
X192929524Y-143238333D01*
X192929524Y-143238333D02*
X192881905Y-143190714D01*
X192881905Y-143190714D02*
X192834286Y-143095476D01*
X192834286Y-143095476D02*
X192834286Y-143047857D01*
X192834286Y-143047857D02*
X192881905Y-142952619D01*
X192881905Y-142952619D02*
X192929524Y-142905000D01*
X192929524Y-142905000D02*
X193024762Y-142857380D01*
X193024762Y-142857380D02*
X193215238Y-142857380D01*
X193215238Y-142857380D02*
X193310476Y-142905000D01*
X193310476Y-142905000D02*
X193358095Y-142952619D01*
X193358095Y-142952619D02*
X193405714Y-143047857D01*
X193405714Y-143047857D02*
X193405714Y-143095476D01*
X193405714Y-143095476D02*
X193358095Y-143190714D01*
X193358095Y-143190714D02*
X193310476Y-143238333D01*
X193310476Y-143238333D02*
X193215238Y-143285952D01*
X193215238Y-143285952D02*
X193024762Y-143285952D01*
X193024762Y-143285952D02*
X192929524Y-143333571D01*
X192929524Y-143333571D02*
X192881905Y-143381190D01*
X192881905Y-143381190D02*
X192834286Y-143476428D01*
X192834286Y-143476428D02*
X192834286Y-143666904D01*
X192834286Y-143666904D02*
X192881905Y-143762142D01*
X192881905Y-143762142D02*
X192929524Y-143809761D01*
X192929524Y-143809761D02*
X193024762Y-143857380D01*
X193024762Y-143857380D02*
X193215238Y-143857380D01*
X193215238Y-143857380D02*
X193310476Y-143809761D01*
X193310476Y-143809761D02*
X193358095Y-143762142D01*
X193358095Y-143762142D02*
X193405714Y-143666904D01*
X193405714Y-143666904D02*
X193405714Y-143476428D01*
X193405714Y-143476428D02*
X193358095Y-143381190D01*
X193358095Y-143381190D02*
X193310476Y-143333571D01*
X193310476Y-143333571D02*
X193215238Y-143285952D01*
D12*
%TO.C,C2*%
X131204164Y-98855000D02*
X131419836Y-98855000D01*
X131204164Y-99575000D02*
X131419836Y-99575000D01*
D10*
%TO.C,TP3*%
X118970000Y-80600000D02*
X119470000Y-80100000D01*
X118970000Y-81400000D02*
X118970000Y-80600000D01*
X119470000Y-80100000D02*
X123070000Y-80100000D01*
X119470000Y-81900000D02*
X118970000Y-81400000D01*
X123070000Y-80100000D02*
X123570000Y-80600000D01*
X123070000Y-81900000D02*
X119470000Y-81900000D01*
X123570000Y-80600000D02*
X123570000Y-81400000D01*
X123570000Y-81400000D02*
X123070000Y-81900000D01*
D12*
%TO.C,C4*%
X131204164Y-102795000D02*
X131419836Y-102795000D01*
X131204164Y-103515000D02*
X131419836Y-103515000D01*
%TO.C,C3*%
X131204164Y-100825000D02*
X131419836Y-100825000D01*
X131204164Y-101545000D02*
X131419836Y-101545000D01*
%TO.C,R5*%
X115082000Y-106005000D02*
X117692000Y-106005000D01*
X115082000Y-106005000D02*
G75*
G03*
X115082000Y-106005000I-1370000J0D01*
G01*
%TO.C,J19*%
X176670000Y-102670000D02*
X178000000Y-102670000D01*
X176670000Y-104000000D02*
X176670000Y-102670000D01*
X176670000Y-105270000D02*
X176670000Y-107870000D01*
X176670000Y-105270000D02*
X179330000Y-105270000D01*
X176670000Y-107870000D02*
X179330000Y-107870000D01*
X179330000Y-105270000D02*
X179330000Y-107870000D01*
%TO.C,JP2*%
X112950000Y-87550000D02*
X117050000Y-87550000D01*
X112950000Y-89550000D02*
X112950000Y-87550000D01*
X117050000Y-87550000D02*
X117050000Y-89550000D01*
X117050000Y-89550000D02*
X112950000Y-89550000D01*
D10*
%TO.C,BT1*%
X118475000Y-53150000D02*
X195525000Y-53150000D01*
X118475000Y-73800000D02*
X195525000Y-73800000D01*
X118480900Y-60122200D02*
X118480900Y-53149900D01*
X118480900Y-73800100D02*
X118480900Y-66815100D01*
D13*
X184500000Y-60975000D02*
X184500000Y-65975000D01*
X187000000Y-63449600D02*
X182000000Y-63449600D01*
D10*
X195519100Y-53162600D02*
X195519100Y-60173000D01*
X195519100Y-73787400D02*
X195519100Y-66777000D01*
%TO.C,TP1*%
X132970000Y-141600000D02*
X133470000Y-141100000D01*
X132970000Y-142400000D02*
X132970000Y-141600000D01*
X133470000Y-141100000D02*
X137070000Y-141100000D01*
X133470000Y-142900000D02*
X132970000Y-142400000D01*
X137070000Y-141100000D02*
X137570000Y-141600000D01*
X137070000Y-142900000D02*
X133470000Y-142900000D01*
X137570000Y-141600000D02*
X137570000Y-142400000D01*
X137570000Y-142400000D02*
X137070000Y-142900000D01*
D12*
%TO.C,J1*%
X114460000Y-128640000D02*
X114460000Y-129060000D01*
X112480000Y-128640000D02*
X114460000Y-128640000D01*
X110110000Y-128640000D02*
X110510000Y-128640000D01*
X114690000Y-130640000D02*
X115140000Y-130640000D01*
X115140000Y-131090000D02*
X115140000Y-130640000D01*
X114460000Y-136160000D02*
X114460000Y-135740000D01*
X112480000Y-136160000D02*
X114460000Y-136160000D01*
X110510000Y-136160000D02*
X110110000Y-136160000D01*
D14*
%TO.C,Q1*%
X121037000Y-92355000D02*
X122512000Y-92355000D01*
X122862000Y-92440000D02*
X126562000Y-92440000D01*
X122862000Y-95370000D02*
X122862000Y-92440000D01*
X126562000Y-92440000D02*
X126562000Y-95370000D01*
X126562000Y-95370000D02*
X122862000Y-95370000D01*
D12*
%TO.C,R2*%
X130846359Y-91620000D02*
X131153641Y-91620000D01*
X130846359Y-92380000D02*
X131153641Y-92380000D01*
%TO.C,JP1*%
X112950000Y-84000000D02*
X117050000Y-84000000D01*
X112950000Y-86000000D02*
X112950000Y-84000000D01*
X117050000Y-84000000D02*
X117050000Y-86000000D01*
X117050000Y-86000000D02*
X112950000Y-86000000D01*
D10*
%TO.C,U2*%
X199650000Y-143760000D02*
X197450000Y-143760000D01*
X200025000Y-140360000D02*
X197075000Y-140360000D01*
D14*
%TO.C,IC1*%
X114862000Y-92280000D02*
X116062000Y-92280000D01*
X116412000Y-92480000D02*
X117012000Y-92480000D01*
X116412000Y-95330000D02*
X116412000Y-92480000D01*
X117012000Y-92480000D02*
X117012000Y-95330000D01*
X117012000Y-95330000D02*
X116412000Y-95330000D01*
D12*
%TO.C,R4*%
X115082000Y-101955000D02*
X117692000Y-101955000D01*
X115082000Y-101955000D02*
G75*
G03*
X115082000Y-101955000I-1370000J0D01*
G01*
D14*
%TO.C,C5*%
X197100000Y-146450000D02*
X197100000Y-147550000D01*
D15*
%TO.C,U5*%
X205125000Y-146625000D02*
X205125000Y-146675000D01*
X205125000Y-146675000D02*
X204350000Y-146675000D01*
X205125000Y-149650000D02*
X205125000Y-149300000D01*
X205500000Y-146350000D02*
X205125000Y-146625000D01*
X205600000Y-149650000D02*
X205125000Y-149650000D01*
X205775000Y-146350000D02*
X205500000Y-146350000D01*
X206400000Y-146350000D02*
X206775000Y-146350000D01*
X206775000Y-146350000D02*
X206775000Y-146650000D01*
X206775000Y-149350000D02*
X206775000Y-149650000D01*
X206775000Y-149425000D02*
X206775000Y-149300000D01*
X206775000Y-149650000D02*
X206325000Y-149650000D01*
D12*
%TO.C,R6*%
X115082000Y-110055000D02*
X117692000Y-110055000D01*
X115082000Y-110055000D02*
G75*
G03*
X115082000Y-110055000I-1370000J0D01*
G01*
%TO.C,D2*%
X117377500Y-115040000D02*
X117377500Y-116960000D01*
X117377500Y-116960000D02*
X120062500Y-116960000D01*
X120062500Y-115040000D02*
X117377500Y-115040000D01*
%TO.C,R11*%
X170762742Y-89477500D02*
X171237258Y-89477500D01*
X170762742Y-90522500D02*
X171237258Y-90522500D01*
%TO.C,U4*%
X174000000Y-93440000D02*
X172200000Y-93440000D01*
X174000000Y-93440000D02*
X174800000Y-93440000D01*
X174000000Y-96560000D02*
X173200000Y-96560000D01*
X174000000Y-96560000D02*
X174800000Y-96560000D01*
%TO.C,J6*%
X135670000Y-105130000D02*
X137000000Y-105130000D01*
X135670000Y-106460000D02*
X135670000Y-105130000D01*
X135670000Y-107730000D02*
X135670000Y-110330000D01*
X135670000Y-107730000D02*
X138330000Y-107730000D01*
X135670000Y-110330000D02*
X138330000Y-110330000D01*
X138330000Y-107730000D02*
X138330000Y-110330000D01*
%TO.C,U3*%
X109920000Y-120730000D02*
X128970000Y-120730000D01*
X109920000Y-143590000D02*
X109920000Y-120730000D01*
X128970000Y-120730000D02*
X128970000Y-143590000D01*
X128970000Y-143590000D02*
X109920000Y-143590000D01*
%TO.C,SW1*%
X137250000Y-120500000D02*
X137250000Y-122000000D01*
X138500000Y-124500000D02*
X143000000Y-124500000D01*
X143000000Y-118000000D02*
X138500000Y-118000000D01*
X144250000Y-122000000D02*
X144250000Y-120500000D01*
%TO.C,R7*%
X192392936Y-141455000D02*
X192847064Y-141455000D01*
X192392936Y-142925000D02*
X192847064Y-142925000D01*
%TO.C,D1*%
X124315000Y-97040000D02*
X124315000Y-98960000D01*
X124315000Y-98960000D02*
X127000000Y-98960000D01*
X127000000Y-97040000D02*
X124315000Y-97040000D01*
%TO.C,J7*%
X126670000Y-84670000D02*
X128000000Y-84670000D01*
X126670000Y-86000000D02*
X126670000Y-84670000D01*
X126670000Y-87270000D02*
X126670000Y-89870000D01*
X126670000Y-87270000D02*
X129330000Y-87270000D01*
X126670000Y-89870000D02*
X129330000Y-89870000D01*
X129330000Y-87270000D02*
X129330000Y-89870000D01*
%TO.C,C1*%
X122299836Y-98265000D02*
X122084164Y-98265000D01*
X122299836Y-97545000D02*
X122084164Y-97545000D01*
D10*
%TO.C,TP2*%
X170970000Y-83600000D02*
X171470000Y-83100000D01*
X170970000Y-84400000D02*
X170970000Y-83600000D01*
X171470000Y-83100000D02*
X175070000Y-83100000D01*
X171470000Y-84900000D02*
X170970000Y-84400000D01*
X175070000Y-83100000D02*
X175570000Y-83600000D01*
X175070000Y-84900000D02*
X171470000Y-84900000D01*
X175570000Y-83600000D02*
X175570000Y-84400000D01*
X175570000Y-84400000D02*
X175070000Y-84900000D01*
D12*
%TO.C,R1*%
X122672000Y-109905000D02*
X123442000Y-109905000D01*
X123442000Y-108535000D02*
X123442000Y-111275000D01*
X123442000Y-111275000D02*
X129982000Y-111275000D01*
X129982000Y-108535000D02*
X123442000Y-108535000D01*
X129982000Y-111275000D02*
X129982000Y-108535000D01*
X130752000Y-109905000D02*
X129982000Y-109905000D01*
%TO.C,C10*%
X179090000Y-95711252D02*
X179090000Y-94288748D01*
X180910000Y-95711252D02*
X180910000Y-94288748D01*
%TO.C,R10*%
X169587742Y-95477500D02*
X170062258Y-95477500D01*
X169587742Y-96522500D02*
X170062258Y-96522500D01*
%TO.C,J9*%
X168270000Y-88730000D02*
X149220000Y-88730000D01*
X168270000Y-88730000D02*
X168270000Y-149690000D01*
X168270000Y-149690000D02*
X149220000Y-149690000D01*
X149220000Y-149690000D02*
X149220000Y-88730000D01*
%TO.C,C6*%
X130352000Y-106532836D02*
X130352000Y-106317164D01*
X131072000Y-106532836D02*
X131072000Y-106317164D01*
%TO.C,R9*%
X170772936Y-99265000D02*
X171227064Y-99265000D01*
X170772936Y-100735000D02*
X171227064Y-100735000D01*
%TO.C,J2*%
X153330000Y-83870000D02*
X152000000Y-83870000D01*
X153330000Y-82540000D02*
X153330000Y-83870000D01*
X153330000Y-81270000D02*
X153330000Y-78670000D01*
X153330000Y-81270000D02*
X150670000Y-81270000D01*
X153330000Y-78670000D02*
X150670000Y-78670000D01*
X150670000Y-81270000D02*
X150670000Y-78670000D01*
D14*
%TO.C,J3*%
X121237000Y-100300000D02*
X122762000Y-100300000D01*
D16*
%TO.C,U1*%
X135876327Y-101536195D02*
X135876327Y-100494590D01*
X135876327Y-98463805D02*
X135876327Y-99505410D01*
X134123927Y-101536195D02*
X135876327Y-101536195D01*
X134123927Y-100455398D02*
X134123927Y-99544602D01*
X134123927Y-98463805D02*
X135876327Y-98463805D01*
D17*
X133630124Y-98540005D02*
G75*
G03*
X133630124Y-98540005I-29997J0D01*
G01*
D12*
%TO.C,R3*%
X115082000Y-97905000D02*
X117692000Y-97905000D01*
X115082000Y-97905000D02*
G75*
G03*
X115082000Y-97905000I-1370000J0D01*
G01*
%TO.C,J5*%
X121670000Y-84130000D02*
X123000000Y-84130000D01*
X121670000Y-85460000D02*
X121670000Y-84130000D01*
X121670000Y-86730000D02*
X121670000Y-89330000D01*
X121670000Y-86730000D02*
X124330000Y-86730000D01*
X121670000Y-89330000D02*
X124330000Y-89330000D01*
X124330000Y-86730000D02*
X124330000Y-89330000D01*
%TO.C,J4*%
X131670000Y-85130000D02*
X133000000Y-85130000D01*
X131670000Y-86460000D02*
X131670000Y-85130000D01*
X131670000Y-87730000D02*
X131670000Y-90330000D01*
X131670000Y-87730000D02*
X134330000Y-87730000D01*
X131670000Y-90330000D02*
X134330000Y-90330000D01*
X134330000Y-87730000D02*
X134330000Y-90330000D01*
%TO.C,R8*%
X192392936Y-144405000D02*
X192847064Y-144405000D01*
X192392936Y-145875000D02*
X192847064Y-145875000D01*
%TD*%
%LPC*%
D18*
%TO.C,C2*%
X130832000Y-99215000D03*
X131792000Y-99215000D03*
%TD*%
D19*
%TO.C,TP3*%
X120000000Y-81000000D03*
X122540000Y-81000000D03*
%TD*%
D18*
%TO.C,C4*%
X130832000Y-103155000D03*
X131792000Y-103155000D03*
%TD*%
%TO.C,C3*%
X130832000Y-101185000D03*
X131792000Y-101185000D03*
%TD*%
D20*
%TO.C,R5*%
X113712000Y-106005000D03*
D21*
X118791999Y-106004999D03*
%TD*%
D22*
%TO.C,J19*%
X177999999Y-103999999D03*
D23*
X177999999Y-106539999D03*
%TD*%
D24*
%TO.C,JP2*%
X113699999Y-88549999D03*
X114999999Y-88549999D03*
X116299999Y-88549999D03*
%TD*%
D25*
%TO.C,BT1*%
X129400000Y-71475000D03*
X184600000Y-55475000D03*
D26*
X192820000Y-71475000D03*
D27*
X196650000Y-63475000D03*
X117350000Y-63475000D03*
%TD*%
D19*
%TO.C,TP1*%
X134000000Y-142000000D03*
X136540000Y-142000000D03*
%TD*%
D28*
%TO.C,J1*%
X114199999Y-131099999D03*
X114199999Y-131749999D03*
X114199999Y-132399999D03*
X114199999Y-133049999D03*
X114199999Y-133699999D03*
D29*
X111499999Y-128899999D03*
D30*
X111499999Y-129499999D03*
D31*
X114199999Y-129899999D03*
D32*
X111499999Y-131399999D03*
X111499999Y-133399999D03*
D31*
X114199999Y-134899999D03*
D30*
X111499999Y-135299999D03*
D29*
X111499999Y-135899999D03*
%TD*%
D33*
%TO.C,Q1*%
X121773999Y-92929999D03*
X121773999Y-93579999D03*
X121773999Y-94229999D03*
X121773999Y-94879999D03*
X127649999Y-94879999D03*
X127649999Y-94229999D03*
X127649999Y-93579999D03*
X127649999Y-92929999D03*
%TD*%
D34*
%TO.C,R2*%
X130490000Y-92000000D03*
X131510000Y-92000000D03*
%TD*%
D24*
%TO.C,JP1*%
X113699999Y-84999999D03*
X114999999Y-84999999D03*
X116299999Y-84999999D03*
%TD*%
D35*
%TO.C,U2*%
X197149999Y-141109999D03*
X197149999Y-142059999D03*
X197149999Y-143009999D03*
X199949999Y-143009999D03*
X199949999Y-142059999D03*
X199949999Y-141109999D03*
D36*
X198549999Y-142059999D03*
%TD*%
D37*
%TO.C,IC1*%
X115461999Y-92954999D03*
X115461999Y-93904999D03*
X115461999Y-94854999D03*
X117961999Y-94854999D03*
X117961999Y-93904999D03*
X117961999Y-92954999D03*
%TD*%
D20*
%TO.C,R4*%
X113712000Y-101955000D03*
D21*
X118791999Y-101954999D03*
%TD*%
D38*
%TO.C,C5*%
X196199999Y-146999999D03*
X197999999Y-146999999D03*
%TD*%
D39*
%TO.C,U5*%
X204900000Y-147050000D03*
X204900000Y-148950000D03*
X207000000Y-148000000D03*
%TD*%
D20*
%TO.C,R6*%
X113712000Y-110055000D03*
D21*
X118791999Y-110054999D03*
%TD*%
D40*
%TO.C,D2*%
X118125000Y-116000000D03*
X120000000Y-116000000D03*
%TD*%
D41*
%TO.C,R11*%
X170175000Y-90000000D03*
X171825000Y-90000000D03*
%TD*%
D42*
%TO.C,U4*%
X172862500Y-94050000D03*
X172862500Y-95000000D03*
X172862500Y-95950000D03*
X175137500Y-95950000D03*
X175137500Y-94050000D03*
%TD*%
D22*
%TO.C,J6*%
X136999999Y-106459999D03*
D23*
X136999999Y-108999999D03*
%TD*%
D43*
%TO.C,U3*%
X125160000Y-142320000D03*
X122620000Y-142320000D03*
X120080000Y-142320000D03*
X117540000Y-142320000D03*
X115000000Y-142320000D03*
X122620000Y-122000000D03*
X120080000Y-122000000D03*
X117540000Y-122000000D03*
X115000000Y-122000000D03*
%TD*%
D44*
%TO.C,SW1*%
X137500000Y-119000000D03*
X144000000Y-119000000D03*
X137500000Y-123500000D03*
X144000000Y-123500000D03*
%TD*%
D45*
%TO.C,R7*%
X191707500Y-142190000D03*
X193532500Y-142190000D03*
%TD*%
D40*
%TO.C,D1*%
X125062500Y-98000000D03*
X126937500Y-98000000D03*
%TD*%
D22*
%TO.C,J7*%
X127999999Y-85999999D03*
D23*
X127999999Y-88539999D03*
%TD*%
D46*
%TO.C,C1*%
X122672000Y-97905000D03*
X121712000Y-97905000D03*
%TD*%
D19*
%TO.C,TP2*%
X172000000Y-84000000D03*
X174540000Y-84000000D03*
%TD*%
D20*
%TO.C,R1*%
X121632000Y-109905000D03*
D21*
X131791999Y-109904999D03*
%TD*%
D47*
%TO.C,C10*%
X180000000Y-96475000D03*
X180000000Y-93525000D03*
%TD*%
D41*
%TO.C,R10*%
X169000000Y-96000000D03*
X170650000Y-96000000D03*
%TD*%
D43*
%TO.C,J9*%
X150490000Y-90000000D03*
X150490000Y-92540000D03*
X150490000Y-95080000D03*
X150490000Y-97620000D03*
X150490000Y-100160000D03*
X150490000Y-102700000D03*
X150490000Y-105240000D03*
X150490000Y-107780000D03*
X150490000Y-110320000D03*
X150490000Y-112860000D03*
X150490000Y-115400000D03*
X150490000Y-117940000D03*
X150490000Y-120480000D03*
X150490000Y-123020000D03*
X150490000Y-125560000D03*
X150490000Y-128100000D03*
X150490000Y-130640000D03*
X150490000Y-133180000D03*
X150490000Y-135720000D03*
X150490000Y-138260000D03*
X150490000Y-140800000D03*
X150490000Y-143340000D03*
X150490000Y-145880000D03*
X150490000Y-148420000D03*
X167000000Y-148420000D03*
X167000000Y-145880000D03*
X167000000Y-143340000D03*
X167000000Y-140800000D03*
X167000000Y-138260000D03*
X167000000Y-135720000D03*
X167000000Y-133180000D03*
X167000000Y-130640000D03*
X167000000Y-128100000D03*
X167000000Y-125560000D03*
X167000000Y-123020000D03*
X167000000Y-120480000D03*
X167000000Y-117940000D03*
X167000000Y-115400000D03*
X167000000Y-112860000D03*
X167000000Y-110320000D03*
X167000000Y-107780000D03*
X167000000Y-105240000D03*
X167000000Y-102700000D03*
X167000000Y-100160000D03*
X167000000Y-97620000D03*
X167000000Y-95080000D03*
X167000000Y-92540000D03*
X167000000Y-90000000D03*
%TD*%
D48*
%TO.C,C6*%
X130712000Y-106905000D03*
X130712000Y-105945000D03*
%TD*%
D45*
%TO.C,R9*%
X170087500Y-100000000D03*
X171912500Y-100000000D03*
%TD*%
D22*
%TO.C,J2*%
X151999999Y-82539999D03*
D23*
X151999999Y-79999999D03*
%TD*%
D49*
%TO.C,J3*%
X121999999Y-100999999D03*
X121999999Y-102269999D03*
X121999999Y-103539999D03*
X121999999Y-104809999D03*
X127423999Y-104809999D03*
X127423999Y-103539999D03*
X127423999Y-102269999D03*
X127423999Y-100999999D03*
D50*
X124711999Y-102904999D03*
%TD*%
D51*
%TO.C,U1*%
X133764922Y-99050037D03*
X133764922Y-100949961D03*
X136235076Y-99999999D03*
%TD*%
D20*
%TO.C,R3*%
X113712000Y-97905000D03*
D21*
X118791999Y-97904999D03*
%TD*%
D22*
%TO.C,J5*%
X122999999Y-85459999D03*
D23*
X122999999Y-87999999D03*
%TD*%
D22*
%TO.C,J4*%
X132999999Y-86459999D03*
D23*
X132999999Y-88999999D03*
%TD*%
D45*
%TO.C,R8*%
X191707500Y-145140000D03*
X193532500Y-145140000D03*
%TD*%
M02*
