%TF.GenerationSoftware,KiCad,Pcbnew,(7.0.0)*%
%TF.CreationDate,2023-05-09T10:08:37+02:00*%
%TF.ProjectId,overall scematic,6f766572-616c-46c2-9073-63656d617469,rev?*%
%TF.SameCoordinates,Original*%
%TF.FileFunction,Soldermask,Top*%
%TF.FilePolarity,Negative*%
%FSLAX46Y46*%
G04 Gerber Fmt 4.6, Leading zero omitted, Abs format (unit mm)*
G04 Created by KiCad (PCBNEW (7.0.0)) date 2023-05-09 10:08:37*
%MOMM*%
%LPD*%
G01*
G04 APERTURE LIST*
G04 Aperture macros list*
%AMRoundRect*
0 Rectangle with rounded corners*
0 $1 Rounding radius*
0 $2 $3 $4 $5 $6 $7 $8 $9 X,Y pos of 4 corners*
0 Add a 4 corners polygon primitive as box body*
4,1,4,$2,$3,$4,$5,$6,$7,$8,$9,$2,$3,0*
0 Add four circle primitives for the rounded corners*
1,1,$1+$1,$2,$3*
1,1,$1+$1,$4,$5*
1,1,$1+$1,$6,$7*
1,1,$1+$1,$8,$9*
0 Add four rect primitives between the rounded corners*
20,1,$1+$1,$2,$3,$4,$5,0*
20,1,$1+$1,$4,$5,$6,$7,0*
20,1,$1+$1,$6,$7,$8,$9,0*
20,1,$1+$1,$8,$9,$2,$3,0*%
G04 Aperture macros list end*
%ADD10RoundRect,0.140000X-0.140000X-0.170000X0.140000X-0.170000X0.140000X0.170000X-0.140000X0.170000X0*%
%ADD11C,1.400000*%
%ADD12R,1.700000X1.700000*%
%ADD13O,1.700000X1.700000*%
%ADD14C,1.600000*%
%ADD15O,1.600000X1.600000*%
%ADD16R,1.874066X0.543390*%
%ADD17RoundRect,0.271695X0.665338X0.000000X-0.665338X0.000000X-0.665338X0.000000X0.665338X0.000000X0*%
%ADD18C,4.000000*%
%ADD19C,2.700000*%
%ADD20RoundRect,1.625000X-2.125000X-1.625000X2.125000X-1.625000X2.125000X1.625000X-2.125000X1.625000X0*%
%ADD21R,1.350000X0.400000*%
%ADD22O,1.550000X0.890000*%
%ADD23R,1.550000X1.200000*%
%ADD24O,0.950000X1.250000*%
%ADD25R,1.550000X1.500000*%
%ADD26R,1.475000X0.450000*%
%ADD27RoundRect,0.135000X-0.135000X-0.185000X0.135000X-0.185000X0.135000X0.185000X-0.135000X0.185000X0*%
%ADD28R,0.600000X0.400000*%
%ADD29R,1.500000X2.400000*%
%ADD30R,1.200000X0.650000*%
%ADD31R,1.150000X1.450000*%
%ADD32RoundRect,0.070000X-0.650000X-0.300000X0.650000X-0.300000X0.650000X0.300000X-0.650000X0.300000X0*%
%ADD33RoundRect,0.243750X-0.243750X-0.456250X0.243750X-0.456250X0.243750X0.456250X-0.243750X0.456250X0*%
%ADD34RoundRect,0.200000X-0.200000X-0.275000X0.200000X-0.275000X0.200000X0.275000X-0.200000X0.275000X0*%
%ADD35C,1.524000*%
%ADD36C,2.000000*%
%ADD37RoundRect,0.250000X-0.262500X-0.450000X0.262500X-0.450000X0.262500X0.450000X-0.262500X0.450000X0*%
%ADD38RoundRect,0.140000X0.140000X0.170000X-0.140000X0.170000X-0.140000X-0.170000X0.140000X-0.170000X0*%
%ADD39RoundRect,0.250000X0.650000X-0.325000X0.650000X0.325000X-0.650000X0.325000X-0.650000X-0.325000X0*%
%ADD40RoundRect,0.140000X0.170000X-0.140000X0.170000X0.140000X-0.170000X0.140000X-0.170000X-0.140000X0*%
%ADD41R,1.525000X0.700000*%
%ADD42R,2.513000X3.402000*%
%ADD43R,1.070003X0.600000*%
G04 APERTURE END LIST*
D10*
%TO.C,C2*%
X130832000Y-99215000D03*
X131792000Y-99215000D03*
%TD*%
D11*
%TO.C,TP3*%
X120000000Y-81000000D03*
X122540000Y-81000000D03*
%TD*%
D10*
%TO.C,C4*%
X130832000Y-103155000D03*
X131792000Y-103155000D03*
%TD*%
%TO.C,C3*%
X130832000Y-101185000D03*
X131792000Y-101185000D03*
%TD*%
D12*
%TO.C,J8*%
X111849999Y-74459999D03*
D13*
X111849999Y-76999999D03*
%TD*%
D14*
%TO.C,R5*%
X113712000Y-106005000D03*
D15*
X118791999Y-106004999D03*
%TD*%
D12*
%TO.C,J19*%
X177999999Y-103999999D03*
D13*
X177999999Y-106539999D03*
%TD*%
D16*
%TO.C,U6*%
X174316066Y-105904999D03*
D17*
X174316067Y-104635000D03*
X174316067Y-103365000D03*
X174316067Y-102095000D03*
X169683933Y-102095000D03*
X169683933Y-103365000D03*
X169683933Y-104635000D03*
X169683933Y-105905000D03*
%TD*%
D18*
%TO.C,BT1*%
X129400000Y-71475000D03*
X184600000Y-55475000D03*
D19*
X192820000Y-71475000D03*
D20*
X196650000Y-63475000D03*
X117350000Y-63475000D03*
%TD*%
D12*
%TO.C,J10*%
X116499999Y-74459999D03*
D13*
X116499999Y-76999999D03*
%TD*%
D11*
%TO.C,TP1*%
X134000000Y-142000000D03*
X136540000Y-142000000D03*
%TD*%
D21*
%TO.C,J1*%
X114199999Y-131099999D03*
X114199999Y-131749999D03*
X114199999Y-132399999D03*
X114199999Y-133049999D03*
X114199999Y-133699999D03*
D22*
X111499999Y-128899999D03*
D23*
X111499999Y-129499999D03*
D24*
X114199999Y-129899999D03*
D25*
X111499999Y-131399999D03*
X111499999Y-133399999D03*
D24*
X114199999Y-134899999D03*
D23*
X111499999Y-135299999D03*
D22*
X111499999Y-135899999D03*
%TD*%
D26*
%TO.C,Q1*%
X121773999Y-92929999D03*
X121773999Y-93579999D03*
X121773999Y-94229999D03*
X121773999Y-94879999D03*
X127649999Y-94879999D03*
X127649999Y-94229999D03*
X127649999Y-93579999D03*
X127649999Y-92929999D03*
%TD*%
D27*
%TO.C,R2*%
X130490000Y-92000000D03*
X131510000Y-92000000D03*
%TD*%
D28*
%TO.C,U2*%
X197149999Y-141109999D03*
X197149999Y-142059999D03*
X197149999Y-143009999D03*
X199949999Y-143009999D03*
X199949999Y-142059999D03*
X199949999Y-141109999D03*
D29*
X198549999Y-142059999D03*
%TD*%
D30*
%TO.C,IC1*%
X115461999Y-92954999D03*
X115461999Y-93904999D03*
X115461999Y-94854999D03*
X117961999Y-94854999D03*
X117961999Y-93904999D03*
X117961999Y-92954999D03*
%TD*%
D14*
%TO.C,R4*%
X113712000Y-101955000D03*
D15*
X118791999Y-101954999D03*
%TD*%
D31*
%TO.C,C5*%
X196199999Y-146999999D03*
X197999999Y-146999999D03*
%TD*%
D32*
%TO.C,U5*%
X204900000Y-147050000D03*
X204900000Y-148950000D03*
X207000000Y-148000000D03*
%TD*%
D14*
%TO.C,R6*%
X113712000Y-110055000D03*
D15*
X118791999Y-110054999D03*
%TD*%
D33*
%TO.C,D2*%
X118125000Y-116000000D03*
X120000000Y-116000000D03*
%TD*%
D34*
%TO.C,R11*%
X170175000Y-90000000D03*
X171825000Y-90000000D03*
%TD*%
D12*
%TO.C,J6*%
X136999999Y-106459999D03*
D13*
X136999999Y-108999999D03*
%TD*%
D35*
%TO.C,U3*%
X125160000Y-142320000D03*
X122620000Y-142320000D03*
X120080000Y-142320000D03*
X117540000Y-142320000D03*
X115000000Y-142320000D03*
X122620000Y-122000000D03*
X120080000Y-122000000D03*
X117540000Y-122000000D03*
X115000000Y-122000000D03*
%TD*%
D36*
%TO.C,SW1*%
X137500000Y-119000000D03*
X144000000Y-119000000D03*
X137500000Y-123500000D03*
X144000000Y-123500000D03*
%TD*%
D37*
%TO.C,R7*%
X191707500Y-142190000D03*
X193532500Y-142190000D03*
%TD*%
D33*
%TO.C,D1*%
X125062500Y-98000000D03*
X126937500Y-98000000D03*
%TD*%
D12*
%TO.C,J7*%
X127999999Y-85999999D03*
D13*
X127999999Y-88539999D03*
%TD*%
D38*
%TO.C,C1*%
X122672000Y-97905000D03*
X121712000Y-97905000D03*
%TD*%
D11*
%TO.C,TP2*%
X172000000Y-84000000D03*
X174540000Y-84000000D03*
%TD*%
D14*
%TO.C,R1*%
X121632000Y-109905000D03*
D15*
X131791999Y-109904999D03*
%TD*%
D39*
%TO.C,C10*%
X180000000Y-96475000D03*
X180000000Y-93525000D03*
%TD*%
D34*
%TO.C,R10*%
X169000000Y-96000000D03*
X170650000Y-96000000D03*
%TD*%
D35*
%TO.C,J9*%
X150490000Y-90000000D03*
X150490000Y-92540000D03*
X150490000Y-95080000D03*
X150490000Y-97620000D03*
X150490000Y-100160000D03*
X150490000Y-102700000D03*
X150490000Y-105240000D03*
X150490000Y-107780000D03*
X150490000Y-110320000D03*
X150490000Y-112860000D03*
X150490000Y-115400000D03*
X150490000Y-117940000D03*
X150490000Y-120480000D03*
X150490000Y-123020000D03*
X150490000Y-125560000D03*
X150490000Y-128100000D03*
X150490000Y-130640000D03*
X150490000Y-133180000D03*
X150490000Y-135720000D03*
X150490000Y-138260000D03*
X150490000Y-140800000D03*
X150490000Y-143340000D03*
X150490000Y-145880000D03*
X150490000Y-148420000D03*
X167000000Y-148420000D03*
X167000000Y-145880000D03*
X167000000Y-143340000D03*
X167000000Y-140800000D03*
X167000000Y-138260000D03*
X167000000Y-135720000D03*
X167000000Y-133180000D03*
X167000000Y-130640000D03*
X167000000Y-128100000D03*
X167000000Y-125560000D03*
X167000000Y-123020000D03*
X167000000Y-120480000D03*
X167000000Y-117940000D03*
X167000000Y-115400000D03*
X167000000Y-112860000D03*
X167000000Y-110320000D03*
X167000000Y-107780000D03*
X167000000Y-105240000D03*
X167000000Y-102700000D03*
X167000000Y-100160000D03*
X167000000Y-97620000D03*
X167000000Y-95080000D03*
X167000000Y-92540000D03*
X167000000Y-90000000D03*
%TD*%
D40*
%TO.C,C6*%
X130712000Y-106905000D03*
X130712000Y-105945000D03*
%TD*%
D37*
%TO.C,R9*%
X170087500Y-100000000D03*
X171912500Y-100000000D03*
%TD*%
D12*
%TO.C,J2*%
X151999999Y-82539999D03*
D13*
X151999999Y-79999999D03*
%TD*%
D41*
%TO.C,J3*%
X121999999Y-100999999D03*
X121999999Y-102269999D03*
X121999999Y-103539999D03*
X121999999Y-104809999D03*
X127423999Y-104809999D03*
X127423999Y-103539999D03*
X127423999Y-102269999D03*
X127423999Y-100999999D03*
D42*
X124711999Y-102904999D03*
%TD*%
D43*
%TO.C,U1*%
X133764922Y-99050037D03*
X133764922Y-100949961D03*
X136235076Y-99999999D03*
%TD*%
D14*
%TO.C,R3*%
X113712000Y-97905000D03*
D15*
X118791999Y-97904999D03*
%TD*%
D12*
%TO.C,J5*%
X122999999Y-85459999D03*
D13*
X122999999Y-87999999D03*
%TD*%
D12*
%TO.C,J4*%
X132999999Y-86459999D03*
D13*
X132999999Y-88999999D03*
%TD*%
D37*
%TO.C,R8*%
X191707500Y-145140000D03*
X193532500Y-145140000D03*
%TD*%
M02*
