M48
; DRILL file {KiCad (7.0.0)} date Mon May  8 18:45:39 2023
; FORMAT={-:-/ absolute / inch / decimal}
; #@! TF.CreationDate,2023-05-08T18:45:39+02:00
; #@! TF.GenerationSoftware,Kicad,Pcbnew,(7.0.0)
; #@! TF.FileFunction,Plated,1,2,PTH
FMAT,2
INCH
; #@! TA.AperFunction,Plated,PTH,ViaDrill
T1C0.0157
; #@! TA.AperFunction,Plated,PTH,ComponentDrill
T2C0.0197
; #@! TA.AperFunction,Plated,PTH,ComponentDrill
T3C0.0217
; #@! TA.AperFunction,Plated,PTH,ComponentDrill
T4C0.0300
; #@! TA.AperFunction,Plated,PTH,ComponentDrill
T5C0.0315
; #@! TA.AperFunction,Plated,PTH,ComponentDrill
T6C0.0394
; #@! TA.AperFunction,Plated,PTH,ComponentDrill
T7C0.0433
; #@! TA.AperFunction,Plated,PTH,ComponentDrill
T8C0.0945
; #@! TA.AperFunction,Plated,PTH,ComponentDrill
T9C0.1457
%
G90
G05
T1
X4.7165Y-3.6972
X4.7623Y-4.0916
X4.7638Y-3.9764
X4.7858Y-3.8559
X4.8781Y-3.8281
X4.8923Y-4.1429
X5.1331Y-3.9453
X5.139Y-3.5842
X5.1874Y-4.0598
X5.2362Y-3.8583
X6.7323Y-3.7008
X6.7717Y-3.8583
X6.8701Y-4.2323
X6.9094Y-3.9567
X7.0472Y-3.5827
X7.7618Y-5.5929
X7.7953Y-5.7874
X7.9083Y-5.559
X7.9361Y-5.6822
X7.9484Y-5.5933
X8.1496Y-5.8268
T4
X4.5276Y-4.8031
X4.5276Y-5.6031
X4.6276Y-4.8031
X4.6276Y-5.6031
X4.7276Y-4.8031
X4.7276Y-5.6031
X4.8276Y-4.8031
X4.8276Y-5.6031
X4.9276Y-5.6031
X5.9248Y-3.5433
X5.9248Y-3.6433
X5.9248Y-3.7433
X5.9248Y-3.8433
X5.9248Y-3.9433
X5.9248Y-4.0433
X5.9248Y-4.1433
X5.9248Y-4.2433
X5.9248Y-4.3433
X5.9248Y-4.4433
X5.9248Y-4.5433
X5.9248Y-4.6433
X5.9248Y-4.7433
X5.9248Y-4.8433
X5.9248Y-4.9433
X5.9248Y-5.0433
X5.9248Y-5.1433
X5.9248Y-5.2433
X5.9248Y-5.3433
X5.9248Y-5.4433
X5.9248Y-5.5433
X5.9248Y-5.6433
X5.9248Y-5.7433
X5.9248Y-5.8433
X6.5748Y-3.5433
X6.5748Y-3.6433
X6.5748Y-3.7433
X6.5748Y-3.8433
X6.5748Y-3.9433
X6.5748Y-4.0433
X6.5748Y-4.1433
X6.5748Y-4.2433
X6.5748Y-4.3433
X6.5748Y-4.4433
X6.5748Y-4.5433
X6.5748Y-4.6433
X6.5748Y-4.7433
X6.5748Y-4.8433
X6.5748Y-4.9433
X6.5748Y-5.0433
X6.5748Y-5.1433
X6.5748Y-5.2433
X6.5748Y-5.3433
X6.5748Y-5.4433
X6.5748Y-5.5433
X6.5748Y-5.6433
X6.5748Y-5.7433
X6.5748Y-5.8433
T5
X4.4769Y-3.8545
X4.4769Y-4.014
X4.4769Y-4.1734
X4.4769Y-4.3329
X4.6769Y-3.8545
X4.6769Y-4.014
X4.6769Y-4.1734
X4.6769Y-4.3329
X4.7244Y-3.189
X4.7887Y-4.327
X4.8244Y-3.189
X5.1887Y-4.327
X5.2756Y-5.5906
X5.3756Y-5.5906
X6.7717Y-3.3071
X6.8717Y-3.3071
T6
X4.4035Y-2.9315
X4.4035Y-3.0315
X4.5866Y-2.9315
X4.5866Y-3.0315
X4.8425Y-3.3646
X4.8425Y-3.4646
X5.0394Y-3.3858
X5.0394Y-3.4858
X5.2362Y-3.4039
X5.2362Y-3.5039
X5.3937Y-4.1913
X5.3937Y-4.2913
X5.9843Y-3.1496
X5.9843Y-3.2496
X7.0079Y-4.0945
X7.0079Y-4.1945
T7
X5.4134Y-4.685
X5.4134Y-4.8622
X5.6693Y-4.685
X5.6693Y-4.8622
T8
X7.5913Y-2.814
T9
X5.0945Y-2.814
X7.2677Y-2.1841
T2
G00X4.4026Y-5.0748
M15
G01X4.377Y-5.0748
M16
G05
G00X4.4026Y-5.3504
M15
G01X4.377Y-5.3504
M16
G05
T3
G00X4.4961Y-5.1083
M15
G01X4.4961Y-5.1201
M16
G05
G00X4.4961Y-5.3051
M15
G01X4.4961Y-5.3169
M16
G05
T0
M30
