%TF.GenerationSoftware,KiCad,Pcbnew,(7.0.0)*%
%TF.CreationDate,2023-05-08T18:45:39+02:00*%
%TF.ProjectId,overall scematic,6f766572-616c-46c2-9073-63656d617469,rev?*%
%TF.SameCoordinates,Original*%
%TF.FileFunction,Soldermask,Bot*%
%TF.FilePolarity,Negative*%
%FSLAX46Y46*%
G04 Gerber Fmt 4.6, Leading zero omitted, Abs format (unit mm)*
G04 Created by KiCad (PCBNEW (7.0.0)) date 2023-05-08 18:45:39*
%MOMM*%
%LPD*%
G01*
G04 APERTURE LIST*
%ADD10C,1.400000*%
%ADD11R,1.700000X1.700000*%
%ADD12O,1.700000X1.700000*%
%ADD13C,1.600000*%
%ADD14O,1.600000X1.600000*%
%ADD15C,4.000000*%
%ADD16C,2.700000*%
%ADD17O,1.550000X0.890000*%
%ADD18O,0.950000X1.250000*%
%ADD19C,1.524000*%
%ADD20C,2.000000*%
G04 APERTURE END LIST*
D10*
%TO.C,TP3*%
X120000000Y-81000000D03*
X122540000Y-81000000D03*
%TD*%
D11*
%TO.C,J8*%
X111849999Y-74459999D03*
D12*
X111849999Y-76999999D03*
%TD*%
D13*
%TO.C,R5*%
X113712000Y-106005000D03*
D14*
X118791999Y-106004999D03*
%TD*%
D11*
%TO.C,J19*%
X177999999Y-103999999D03*
D12*
X177999999Y-106539999D03*
%TD*%
D15*
%TO.C,BT1*%
X129400000Y-71475000D03*
X184600000Y-55475000D03*
D16*
X192820000Y-71475000D03*
%TD*%
D11*
%TO.C,J10*%
X116499999Y-74459999D03*
D12*
X116499999Y-76999999D03*
%TD*%
D10*
%TO.C,TP1*%
X134000000Y-142000000D03*
X136540000Y-142000000D03*
%TD*%
D17*
%TO.C,J1*%
X111499999Y-128899999D03*
D18*
X114199999Y-129899999D03*
X114199999Y-134899999D03*
D17*
X111499999Y-135899999D03*
%TD*%
D13*
%TO.C,R4*%
X113712000Y-101955000D03*
D14*
X118791999Y-101954999D03*
%TD*%
D13*
%TO.C,R6*%
X113712000Y-110055000D03*
D14*
X118791999Y-110054999D03*
%TD*%
D11*
%TO.C,J6*%
X136999999Y-106459999D03*
D12*
X136999999Y-108999999D03*
%TD*%
D19*
%TO.C,U3*%
X125160000Y-142320000D03*
X122620000Y-142320000D03*
X120080000Y-142320000D03*
X117540000Y-142320000D03*
X115000000Y-142320000D03*
X122620000Y-122000000D03*
X120080000Y-122000000D03*
X117540000Y-122000000D03*
X115000000Y-122000000D03*
%TD*%
D20*
%TO.C,SW1*%
X137500000Y-119000000D03*
X144000000Y-119000000D03*
X137500000Y-123500000D03*
X144000000Y-123500000D03*
%TD*%
D11*
%TO.C,J7*%
X127999999Y-85999999D03*
D12*
X127999999Y-88539999D03*
%TD*%
D10*
%TO.C,TP2*%
X172000000Y-84000000D03*
X174540000Y-84000000D03*
%TD*%
D13*
%TO.C,R1*%
X121632000Y-109905000D03*
D14*
X131791999Y-109904999D03*
%TD*%
D19*
%TO.C,J9*%
X150490000Y-90000000D03*
X150490000Y-92540000D03*
X150490000Y-95080000D03*
X150490000Y-97620000D03*
X150490000Y-100160000D03*
X150490000Y-102700000D03*
X150490000Y-105240000D03*
X150490000Y-107780000D03*
X150490000Y-110320000D03*
X150490000Y-112860000D03*
X150490000Y-115400000D03*
X150490000Y-117940000D03*
X150490000Y-120480000D03*
X150490000Y-123020000D03*
X150490000Y-125560000D03*
X150490000Y-128100000D03*
X150490000Y-130640000D03*
X150490000Y-133180000D03*
X150490000Y-135720000D03*
X150490000Y-138260000D03*
X150490000Y-140800000D03*
X150490000Y-143340000D03*
X150490000Y-145880000D03*
X150490000Y-148420000D03*
X167000000Y-148420000D03*
X167000000Y-145880000D03*
X167000000Y-143340000D03*
X167000000Y-140800000D03*
X167000000Y-138260000D03*
X167000000Y-135720000D03*
X167000000Y-133180000D03*
X167000000Y-130640000D03*
X167000000Y-128100000D03*
X167000000Y-125560000D03*
X167000000Y-123020000D03*
X167000000Y-120480000D03*
X167000000Y-117940000D03*
X167000000Y-115400000D03*
X167000000Y-112860000D03*
X167000000Y-110320000D03*
X167000000Y-107780000D03*
X167000000Y-105240000D03*
X167000000Y-102700000D03*
X167000000Y-100160000D03*
X167000000Y-97620000D03*
X167000000Y-95080000D03*
X167000000Y-92540000D03*
X167000000Y-90000000D03*
%TD*%
D11*
%TO.C,J2*%
X151999999Y-82539999D03*
D12*
X151999999Y-79999999D03*
%TD*%
D13*
%TO.C,R3*%
X113712000Y-97905000D03*
D14*
X118791999Y-97904999D03*
%TD*%
D11*
%TO.C,J5*%
X122999999Y-85459999D03*
D12*
X122999999Y-87999999D03*
%TD*%
D11*
%TO.C,J4*%
X132999999Y-86459999D03*
D12*
X132999999Y-88999999D03*
%TD*%
M02*
