%TF.GenerationSoftware,KiCad,Pcbnew,(7.0.0)*%
%TF.CreationDate,2023-04-04T11:35:40+02:00*%
%TF.ProjectId,overall scematic,6f766572-616c-46c2-9073-63656d617469,rev?*%
%TF.SameCoordinates,Original*%
%TF.FileFunction,Drillmap*%
%TF.FilePolarity,Positive*%
%FSLAX45Y45*%
G04 Gerber Fmt 4.5, Leading zero omitted, Abs format (unit mm)*
G04 Created by KiCad (PCBNEW (7.0.0)) date 2023-04-04 11:35:40*
%MOMM*%
%LPD*%
G01*
G04 APERTURE LIST*
%ADD10C,0.100000*%
%ADD11C,0.200000*%
%ADD12C,0.040000*%
%ADD13C,0.050000*%
%ADD14C,0.055000*%
%ADD15C,0.080000*%
%ADD16C,0.102000*%
G04 APERTURE END LIST*
D10*
X13970000Y-13957300D02*
X5130800Y-13944600D01*
X5130800Y-13944600D02*
X5118100Y-6337300D01*
X5118100Y-6337300D02*
X13970000Y-6337300D01*
X13970000Y-6337300D02*
X13970000Y-13957300D01*
D11*
D12*
X6114100Y-8463600D02*
X6154100Y-8503600D01*
X6154100Y-8463600D02*
X6114100Y-8503600D01*
X6279200Y-9720900D02*
X6319200Y-9760900D01*
X6319200Y-9720900D02*
X6279200Y-9760900D01*
X6647500Y-10787700D02*
X6687500Y-10827700D01*
X6687500Y-10787700D02*
X6647500Y-10827700D01*
X7473000Y-9593900D02*
X7513000Y-9633900D01*
X7513000Y-9593900D02*
X7473000Y-9633900D01*
X7587300Y-9187500D02*
X7627300Y-9227500D01*
X7627300Y-9187500D02*
X7587300Y-9227500D01*
X7955600Y-8933500D02*
X7995600Y-8973500D01*
X7995600Y-8933500D02*
X7955600Y-8973500D01*
X9060500Y-6990400D02*
X9100500Y-7030400D01*
X9100500Y-6990400D02*
X9060500Y-7030400D01*
X9212900Y-6736400D02*
X9252900Y-6776400D01*
X9252900Y-6736400D02*
X9212900Y-6776400D01*
X9746300Y-7028500D02*
X9786300Y-7068500D01*
X9786300Y-7028500D02*
X9746300Y-7068500D01*
X10343200Y-6990400D02*
X10383200Y-7030400D01*
X10383200Y-6990400D02*
X10343200Y-7030400D01*
X11029000Y-8285800D02*
X11069000Y-8325800D01*
X11069000Y-8285800D02*
X11029000Y-8325800D01*
X11791000Y-9860600D02*
X11831000Y-9900600D01*
X11831000Y-9860600D02*
X11791000Y-9900600D01*
D13*
X12948100Y-13335000D02*
G75*
G03*
X12948100Y-13335000I-25000J0D01*
G01*
D11*
X12898100Y-13302500D02*
X12898100Y-13367500D01*
X12898100Y-13367500D02*
G75*
G03*
X12948100Y-13367500I25000J0D01*
G01*
X12948100Y-13367500D02*
X12948100Y-13302500D01*
X12948100Y-13302500D02*
G75*
G03*
X12898100Y-13302500I-25000J0D01*
G01*
D13*
X13648100Y-13335000D02*
G75*
G03*
X13648100Y-13335000I-25000J0D01*
G01*
D11*
X13598100Y-13302500D02*
X13598100Y-13367500D01*
X13598100Y-13367500D02*
G75*
G03*
X13648100Y-13367500I25000J0D01*
G01*
X13648100Y-13367500D02*
X13648100Y-13302500D01*
X13648100Y-13302500D02*
G75*
G03*
X13598100Y-13302500I-25000J0D01*
G01*
D14*
X13023100Y-13037500D02*
X13023100Y-13092500D01*
X12995600Y-13065000D02*
X13050600Y-13065000D01*
D11*
X13008100Y-13092500D02*
X13038100Y-13092500D01*
X13038100Y-13092500D02*
G75*
G03*
X13038100Y-13037500I0J27500D01*
G01*
X13038100Y-13037500D02*
X13008100Y-13037500D01*
X13008100Y-13037500D02*
G75*
G03*
X13008100Y-13092500I0J-27500D01*
G01*
D14*
X13523100Y-13037500D02*
X13523100Y-13092500D01*
X13495600Y-13065000D02*
X13550600Y-13065000D01*
D11*
X13508100Y-13092500D02*
X13538100Y-13092500D01*
X13538100Y-13092500D02*
G75*
G03*
X13538100Y-13037500I0J27500D01*
G01*
X13538100Y-13037500D02*
X13508100Y-13037500D01*
X13508100Y-13037500D02*
G75*
G03*
X13508100Y-13092500I0J-27500D01*
G01*
D15*
X7127584Y-7889584D02*
X7127584Y-7833015D01*
X7071015Y-7833015D01*
X7071015Y-7889584D01*
X7127584Y-7889584D01*
X7127584Y-8905585D02*
X7127584Y-8849016D01*
X7071015Y-8849016D01*
X7071015Y-8905585D01*
X7127584Y-8905585D01*
X8913285Y-9466285D02*
X8913285Y-9409716D01*
X8856716Y-9409716D01*
X8856716Y-9466285D01*
X8913285Y-9466285D01*
X8913285Y-9871285D02*
X8913285Y-9814716D01*
X8856716Y-9814716D01*
X8856716Y-9871285D01*
X8913285Y-9871285D01*
X9929285Y-9466285D02*
X9929285Y-9409716D01*
X9872716Y-9409716D01*
X9872716Y-9466285D01*
X9929285Y-9466285D01*
X9929285Y-9871285D02*
X9929285Y-9814716D01*
X9872716Y-9814716D01*
X9872716Y-9871285D01*
X9929285Y-9871285D01*
X11585284Y-8359484D02*
X11585284Y-8302915D01*
X11528715Y-8302915D01*
X11528715Y-8359484D01*
X11585284Y-8359484D01*
X12312884Y-8710185D02*
X12312884Y-8653616D01*
X12256315Y-8653616D01*
X12256315Y-8710185D01*
X12312884Y-8710185D01*
X12312884Y-9726185D02*
X12312884Y-9669616D01*
X12256315Y-9669616D01*
X12256315Y-9726185D01*
X12312884Y-9726185D01*
X12601284Y-8359484D02*
X12601284Y-8302915D01*
X12544715Y-8302915D01*
X12544715Y-8359484D01*
X12601284Y-8359484D01*
D10*
X6019800Y-10629100D02*
X6069800Y-10579100D01*
X6019800Y-10529100D01*
X5969800Y-10579100D01*
X6019800Y-10629100D01*
X6019800Y-10883100D02*
X6069800Y-10833100D01*
X6019800Y-10783100D01*
X5969800Y-10833100D01*
X6019800Y-10883100D01*
X6032500Y-11835600D02*
X6082500Y-11785600D01*
X6032500Y-11735600D01*
X5982500Y-11785600D01*
X6032500Y-11835600D01*
X6032500Y-12089600D02*
X6082500Y-12039600D01*
X6032500Y-11989600D01*
X5982500Y-12039600D01*
X6032500Y-12089600D01*
X6718300Y-7073600D02*
X6768300Y-7023600D01*
X6718300Y-6973600D01*
X6668300Y-7023600D01*
X6718300Y-7073600D01*
X6718300Y-7327600D02*
X6768300Y-7277600D01*
X6718300Y-7227600D01*
X6668300Y-7277600D01*
X6718300Y-7327600D01*
X10121900Y-10756600D02*
X10171900Y-10706600D01*
X10121900Y-10656600D01*
X10071900Y-10706600D01*
X10121900Y-10756600D01*
X10121900Y-11010600D02*
X10171900Y-10960600D01*
X10121900Y-10910600D01*
X10071900Y-10960600D01*
X10121900Y-11010600D01*
X10985500Y-11492200D02*
X11035500Y-11442200D01*
X10985500Y-11392200D01*
X10935500Y-11442200D01*
X10985500Y-11492200D01*
X10985500Y-11746200D02*
X11035500Y-11696200D01*
X10985500Y-11646200D01*
X10935500Y-11696200D01*
X10985500Y-11746200D01*
X12538600Y-13067500D02*
X12588600Y-13017500D01*
X12538600Y-12967500D01*
X12488600Y-13017500D01*
X12538600Y-13067500D01*
X12538600Y-13321500D02*
X12588600Y-13271500D01*
X12538600Y-13221500D01*
X12488600Y-13271500D01*
X12538600Y-13321500D01*
X12538600Y-13575500D02*
X12588600Y-13525500D01*
X12538600Y-13475500D01*
X12488600Y-13525500D01*
X12538600Y-13575500D01*
D16*
X5308400Y-6565700D02*
X5410400Y-6667700D01*
X5410400Y-6565700D02*
X5308400Y-6667700D01*
X5410400Y-6616700D02*
G75*
G03*
X5410400Y-6616700I-51000J0D01*
G01*
X5308400Y-6819700D02*
X5410400Y-6921700D01*
X5410400Y-6819700D02*
X5308400Y-6921700D01*
X5410400Y-6870700D02*
G75*
G03*
X5410400Y-6870700I-51000J0D01*
G01*
X5308400Y-7073700D02*
X5410400Y-7175700D01*
X5410400Y-7073700D02*
X5308400Y-7175700D01*
X5410400Y-7124700D02*
G75*
G03*
X5410400Y-7124700I-51000J0D01*
G01*
X5308400Y-7327700D02*
X5410400Y-7429700D01*
X5410400Y-7327700D02*
X5308400Y-7429700D01*
X5410400Y-7378700D02*
G75*
G03*
X5410400Y-7378700I-51000J0D01*
G01*
X5308400Y-7581700D02*
X5410400Y-7683700D01*
X5410400Y-7581700D02*
X5308400Y-7683700D01*
X5410400Y-7632700D02*
G75*
G03*
X5410400Y-7632700I-51000J0D01*
G01*
X5308400Y-7835700D02*
X5410400Y-7937700D01*
X5410400Y-7835700D02*
X5308400Y-7937700D01*
X5410400Y-7886700D02*
G75*
G03*
X5410400Y-7886700I-51000J0D01*
G01*
X5308400Y-8089700D02*
X5410400Y-8191700D01*
X5410400Y-8089700D02*
X5308400Y-8191700D01*
X5410400Y-8140700D02*
G75*
G03*
X5410400Y-8140700I-51000J0D01*
G01*
X5308400Y-8343700D02*
X5410400Y-8445700D01*
X5410400Y-8343700D02*
X5308400Y-8445700D01*
X5410400Y-8394700D02*
G75*
G03*
X5410400Y-8394700I-51000J0D01*
G01*
X5308400Y-8597700D02*
X5410400Y-8699700D01*
X5410400Y-8597700D02*
X5308400Y-8699700D01*
X5410400Y-8648700D02*
G75*
G03*
X5410400Y-8648700I-51000J0D01*
G01*
X5308400Y-8851700D02*
X5410400Y-8953700D01*
X5410400Y-8851700D02*
X5308400Y-8953700D01*
X5410400Y-8902700D02*
G75*
G03*
X5410400Y-8902700I-51000J0D01*
G01*
X5308400Y-9105700D02*
X5410400Y-9207700D01*
X5410400Y-9105700D02*
X5308400Y-9207700D01*
X5410400Y-9156700D02*
G75*
G03*
X5410400Y-9156700I-51000J0D01*
G01*
X5308400Y-9359700D02*
X5410400Y-9461700D01*
X5410400Y-9359700D02*
X5308400Y-9461700D01*
X5410400Y-9410700D02*
G75*
G03*
X5410400Y-9410700I-51000J0D01*
G01*
X5308400Y-9613700D02*
X5410400Y-9715700D01*
X5410400Y-9613700D02*
X5308400Y-9715700D01*
X5410400Y-9664700D02*
G75*
G03*
X5410400Y-9664700I-51000J0D01*
G01*
X5308400Y-9867700D02*
X5410400Y-9969700D01*
X5410400Y-9867700D02*
X5308400Y-9969700D01*
X5410400Y-9918700D02*
G75*
G03*
X5410400Y-9918700I-51000J0D01*
G01*
X5308400Y-10121700D02*
X5410400Y-10223700D01*
X5410400Y-10121700D02*
X5308400Y-10223700D01*
X5410400Y-10172700D02*
G75*
G03*
X5410400Y-10172700I-51000J0D01*
G01*
X5308400Y-10375700D02*
X5410400Y-10477700D01*
X5410400Y-10375700D02*
X5308400Y-10477700D01*
X5410400Y-10426700D02*
G75*
G03*
X5410400Y-10426700I-51000J0D01*
G01*
X5308400Y-10629700D02*
X5410400Y-10731700D01*
X5410400Y-10629700D02*
X5308400Y-10731700D01*
X5410400Y-10680700D02*
G75*
G03*
X5410400Y-10680700I-51000J0D01*
G01*
X5308400Y-10883700D02*
X5410400Y-10985700D01*
X5410400Y-10883700D02*
X5308400Y-10985700D01*
X5410400Y-10934700D02*
G75*
G03*
X5410400Y-10934700I-51000J0D01*
G01*
X5308400Y-11137700D02*
X5410400Y-11239700D01*
X5410400Y-11137700D02*
X5308400Y-11239700D01*
X5410400Y-11188700D02*
G75*
G03*
X5410400Y-11188700I-51000J0D01*
G01*
X5308400Y-11391700D02*
X5410400Y-11493700D01*
X5410400Y-11391700D02*
X5308400Y-11493700D01*
X5410400Y-11442700D02*
G75*
G03*
X5410400Y-11442700I-51000J0D01*
G01*
X5562400Y-6565700D02*
X5664400Y-6667700D01*
X5664400Y-6565700D02*
X5562400Y-6667700D01*
X5664400Y-6616700D02*
G75*
G03*
X5664400Y-6616700I-51000J0D01*
G01*
X5562400Y-6819700D02*
X5664400Y-6921700D01*
X5664400Y-6819700D02*
X5562400Y-6921700D01*
X5664400Y-6870700D02*
G75*
G03*
X5664400Y-6870700I-51000J0D01*
G01*
X5562400Y-7073700D02*
X5664400Y-7175700D01*
X5664400Y-7073700D02*
X5562400Y-7175700D01*
X5664400Y-7124700D02*
G75*
G03*
X5664400Y-7124700I-51000J0D01*
G01*
X5562400Y-7327700D02*
X5664400Y-7429700D01*
X5664400Y-7327700D02*
X5562400Y-7429700D01*
X5664400Y-7378700D02*
G75*
G03*
X5664400Y-7378700I-51000J0D01*
G01*
X5562400Y-7581700D02*
X5664400Y-7683700D01*
X5664400Y-7581700D02*
X5562400Y-7683700D01*
X5664400Y-7632700D02*
G75*
G03*
X5664400Y-7632700I-51000J0D01*
G01*
X5562400Y-7835700D02*
X5664400Y-7937700D01*
X5664400Y-7835700D02*
X5562400Y-7937700D01*
X5664400Y-7886700D02*
G75*
G03*
X5664400Y-7886700I-51000J0D01*
G01*
X5562400Y-8089700D02*
X5664400Y-8191700D01*
X5664400Y-8089700D02*
X5562400Y-8191700D01*
X5664400Y-8140700D02*
G75*
G03*
X5664400Y-8140700I-51000J0D01*
G01*
X5562400Y-8343700D02*
X5664400Y-8445700D01*
X5664400Y-8343700D02*
X5562400Y-8445700D01*
X5664400Y-8394700D02*
G75*
G03*
X5664400Y-8394700I-51000J0D01*
G01*
X5562400Y-8597700D02*
X5664400Y-8699700D01*
X5664400Y-8597700D02*
X5562400Y-8699700D01*
X5664400Y-8648700D02*
G75*
G03*
X5664400Y-8648700I-51000J0D01*
G01*
X5562400Y-8851700D02*
X5664400Y-8953700D01*
X5664400Y-8851700D02*
X5562400Y-8953700D01*
X5664400Y-8902700D02*
G75*
G03*
X5664400Y-8902700I-51000J0D01*
G01*
X5562400Y-9105700D02*
X5664400Y-9207700D01*
X5664400Y-9105700D02*
X5562400Y-9207700D01*
X5664400Y-9156700D02*
G75*
G03*
X5664400Y-9156700I-51000J0D01*
G01*
X5562400Y-9359700D02*
X5664400Y-9461700D01*
X5664400Y-9359700D02*
X5562400Y-9461700D01*
X5664400Y-9410700D02*
G75*
G03*
X5664400Y-9410700I-51000J0D01*
G01*
X5562400Y-9613700D02*
X5664400Y-9715700D01*
X5664400Y-9613700D02*
X5562400Y-9715700D01*
X5664400Y-9664700D02*
G75*
G03*
X5664400Y-9664700I-51000J0D01*
G01*
X5562400Y-9867700D02*
X5664400Y-9969700D01*
X5664400Y-9867700D02*
X5562400Y-9969700D01*
X5664400Y-9918700D02*
G75*
G03*
X5664400Y-9918700I-51000J0D01*
G01*
X5562400Y-10121700D02*
X5664400Y-10223700D01*
X5664400Y-10121700D02*
X5562400Y-10223700D01*
X5664400Y-10172700D02*
G75*
G03*
X5664400Y-10172700I-51000J0D01*
G01*
X5562400Y-10375700D02*
X5664400Y-10477700D01*
X5664400Y-10375700D02*
X5562400Y-10477700D01*
X5664400Y-10426700D02*
G75*
G03*
X5664400Y-10426700I-51000J0D01*
G01*
X5562400Y-10629700D02*
X5664400Y-10731700D01*
X5664400Y-10629700D02*
X5562400Y-10731700D01*
X5664400Y-10680700D02*
G75*
G03*
X5664400Y-10680700I-51000J0D01*
G01*
X5562400Y-10883700D02*
X5664400Y-10985700D01*
X5664400Y-10883700D02*
X5562400Y-10985700D01*
X5664400Y-10934700D02*
G75*
G03*
X5664400Y-10934700I-51000J0D01*
G01*
X5562400Y-11137700D02*
X5664400Y-11239700D01*
X5664400Y-11137700D02*
X5562400Y-11239700D01*
X5664400Y-11188700D02*
G75*
G03*
X5664400Y-11188700I-51000J0D01*
G01*
X5562400Y-11391700D02*
X5664400Y-11493700D01*
X5664400Y-11391700D02*
X5562400Y-11493700D01*
X5664400Y-11442700D02*
G75*
G03*
X5664400Y-11442700I-51000J0D01*
G01*
X6494700Y-12953800D02*
X6596700Y-13055800D01*
X6596700Y-12953800D02*
X6494700Y-13055800D01*
X6596700Y-13004800D02*
G75*
G03*
X6596700Y-13004800I-51000J0D01*
G01*
X10964700Y-12953800D02*
X11066700Y-13055800D01*
X11066700Y-12953800D02*
X10964700Y-13055800D01*
X11066700Y-13004800D02*
G75*
G03*
X11066700Y-13004800I-51000J0D01*
G01*
X13309400Y-6578400D02*
X13411400Y-6680400D01*
X13411400Y-6578400D02*
X13309400Y-6680400D01*
X13411400Y-6629400D02*
G75*
G03*
X13411400Y-6629400I-51000J0D01*
G01*
X13309400Y-6832400D02*
X13411400Y-6934400D01*
X13411400Y-6832400D02*
X13309400Y-6934400D01*
X13411400Y-6883400D02*
G75*
G03*
X13411400Y-6883400I-51000J0D01*
G01*
X13309400Y-7086400D02*
X13411400Y-7188400D01*
X13411400Y-7086400D02*
X13309400Y-7188400D01*
X13411400Y-7137400D02*
G75*
G03*
X13411400Y-7137400I-51000J0D01*
G01*
X13309400Y-7340400D02*
X13411400Y-7442400D01*
X13411400Y-7340400D02*
X13309400Y-7442400D01*
X13411400Y-7391400D02*
G75*
G03*
X13411400Y-7391400I-51000J0D01*
G01*
X13309400Y-7594400D02*
X13411400Y-7696400D01*
X13411400Y-7594400D02*
X13309400Y-7696400D01*
X13411400Y-7645400D02*
G75*
G03*
X13411400Y-7645400I-51000J0D01*
G01*
X13309400Y-7848400D02*
X13411400Y-7950400D01*
X13411400Y-7848400D02*
X13309400Y-7950400D01*
X13411400Y-7899400D02*
G75*
G03*
X13411400Y-7899400I-51000J0D01*
G01*
X13309400Y-8102400D02*
X13411400Y-8204400D01*
X13411400Y-8102400D02*
X13309400Y-8204400D01*
X13411400Y-8153400D02*
G75*
G03*
X13411400Y-8153400I-51000J0D01*
G01*
X13309400Y-8356400D02*
X13411400Y-8458400D01*
X13411400Y-8356400D02*
X13309400Y-8458400D01*
X13411400Y-8407400D02*
G75*
G03*
X13411400Y-8407400I-51000J0D01*
G01*
X13309400Y-8610400D02*
X13411400Y-8712400D01*
X13411400Y-8610400D02*
X13309400Y-8712400D01*
X13411400Y-8661400D02*
G75*
G03*
X13411400Y-8661400I-51000J0D01*
G01*
X13309400Y-8864400D02*
X13411400Y-8966400D01*
X13411400Y-8864400D02*
X13309400Y-8966400D01*
X13411400Y-8915400D02*
G75*
G03*
X13411400Y-8915400I-51000J0D01*
G01*
X13309400Y-9118400D02*
X13411400Y-9220400D01*
X13411400Y-9118400D02*
X13309400Y-9220400D01*
X13411400Y-9169400D02*
G75*
G03*
X13411400Y-9169400I-51000J0D01*
G01*
X13309400Y-9372400D02*
X13411400Y-9474400D01*
X13411400Y-9372400D02*
X13309400Y-9474400D01*
X13411400Y-9423400D02*
G75*
G03*
X13411400Y-9423400I-51000J0D01*
G01*
X13309400Y-9626400D02*
X13411400Y-9728400D01*
X13411400Y-9626400D02*
X13309400Y-9728400D01*
X13411400Y-9677400D02*
G75*
G03*
X13411400Y-9677400I-51000J0D01*
G01*
X13309400Y-9880400D02*
X13411400Y-9982400D01*
X13411400Y-9880400D02*
X13309400Y-9982400D01*
X13411400Y-9931400D02*
G75*
G03*
X13411400Y-9931400I-51000J0D01*
G01*
X13309400Y-10134400D02*
X13411400Y-10236400D01*
X13411400Y-10134400D02*
X13309400Y-10236400D01*
X13411400Y-10185400D02*
G75*
G03*
X13411400Y-10185400I-51000J0D01*
G01*
X13309400Y-10388400D02*
X13411400Y-10490400D01*
X13411400Y-10388400D02*
X13309400Y-10490400D01*
X13411400Y-10439400D02*
G75*
G03*
X13411400Y-10439400I-51000J0D01*
G01*
X13309400Y-10642400D02*
X13411400Y-10744400D01*
X13411400Y-10642400D02*
X13309400Y-10744400D01*
X13411400Y-10693400D02*
G75*
G03*
X13411400Y-10693400I-51000J0D01*
G01*
X13309400Y-10896400D02*
X13411400Y-10998400D01*
X13411400Y-10896400D02*
X13309400Y-10998400D01*
X13411400Y-10947400D02*
G75*
G03*
X13411400Y-10947400I-51000J0D01*
G01*
X13309400Y-11150400D02*
X13411400Y-11252400D01*
X13411400Y-11150400D02*
X13309400Y-11252400D01*
X13411400Y-11201400D02*
G75*
G03*
X13411400Y-11201400I-51000J0D01*
G01*
X13309400Y-11404400D02*
X13411400Y-11506400D01*
X13411400Y-11404400D02*
X13309400Y-11506400D01*
X13411400Y-11455400D02*
G75*
G03*
X13411400Y-11455400I-51000J0D01*
G01*
X13563400Y-6578400D02*
X13665400Y-6680400D01*
X13665400Y-6578400D02*
X13563400Y-6680400D01*
X13665400Y-6629400D02*
G75*
G03*
X13665400Y-6629400I-51000J0D01*
G01*
X13563400Y-6832400D02*
X13665400Y-6934400D01*
X13665400Y-6832400D02*
X13563400Y-6934400D01*
X13665400Y-6883400D02*
G75*
G03*
X13665400Y-6883400I-51000J0D01*
G01*
X13563400Y-7086400D02*
X13665400Y-7188400D01*
X13665400Y-7086400D02*
X13563400Y-7188400D01*
X13665400Y-7137400D02*
G75*
G03*
X13665400Y-7137400I-51000J0D01*
G01*
X13563400Y-7340400D02*
X13665400Y-7442400D01*
X13665400Y-7340400D02*
X13563400Y-7442400D01*
X13665400Y-7391400D02*
G75*
G03*
X13665400Y-7391400I-51000J0D01*
G01*
X13563400Y-7594400D02*
X13665400Y-7696400D01*
X13665400Y-7594400D02*
X13563400Y-7696400D01*
X13665400Y-7645400D02*
G75*
G03*
X13665400Y-7645400I-51000J0D01*
G01*
X13563400Y-7848400D02*
X13665400Y-7950400D01*
X13665400Y-7848400D02*
X13563400Y-7950400D01*
X13665400Y-7899400D02*
G75*
G03*
X13665400Y-7899400I-51000J0D01*
G01*
X13563400Y-8102400D02*
X13665400Y-8204400D01*
X13665400Y-8102400D02*
X13563400Y-8204400D01*
X13665400Y-8153400D02*
G75*
G03*
X13665400Y-8153400I-51000J0D01*
G01*
X13563400Y-8356400D02*
X13665400Y-8458400D01*
X13665400Y-8356400D02*
X13563400Y-8458400D01*
X13665400Y-8407400D02*
G75*
G03*
X13665400Y-8407400I-51000J0D01*
G01*
X13563400Y-8610400D02*
X13665400Y-8712400D01*
X13665400Y-8610400D02*
X13563400Y-8712400D01*
X13665400Y-8661400D02*
G75*
G03*
X13665400Y-8661400I-51000J0D01*
G01*
X13563400Y-8864400D02*
X13665400Y-8966400D01*
X13665400Y-8864400D02*
X13563400Y-8966400D01*
X13665400Y-8915400D02*
G75*
G03*
X13665400Y-8915400I-51000J0D01*
G01*
X13563400Y-9118400D02*
X13665400Y-9220400D01*
X13665400Y-9118400D02*
X13563400Y-9220400D01*
X13665400Y-9169400D02*
G75*
G03*
X13665400Y-9169400I-51000J0D01*
G01*
X13563400Y-9372400D02*
X13665400Y-9474400D01*
X13665400Y-9372400D02*
X13563400Y-9474400D01*
X13665400Y-9423400D02*
G75*
G03*
X13665400Y-9423400I-51000J0D01*
G01*
X13563400Y-9626400D02*
X13665400Y-9728400D01*
X13665400Y-9626400D02*
X13563400Y-9728400D01*
X13665400Y-9677400D02*
G75*
G03*
X13665400Y-9677400I-51000J0D01*
G01*
X13563400Y-9880400D02*
X13665400Y-9982400D01*
X13665400Y-9880400D02*
X13563400Y-9982400D01*
X13665400Y-9931400D02*
G75*
G03*
X13665400Y-9931400I-51000J0D01*
G01*
X13563400Y-10134400D02*
X13665400Y-10236400D01*
X13665400Y-10134400D02*
X13563400Y-10236400D01*
X13665400Y-10185400D02*
G75*
G03*
X13665400Y-10185400I-51000J0D01*
G01*
X13563400Y-10388400D02*
X13665400Y-10490400D01*
X13665400Y-10388400D02*
X13563400Y-10490400D01*
X13665400Y-10439400D02*
G75*
G03*
X13665400Y-10439400I-51000J0D01*
G01*
X13563400Y-10642400D02*
X13665400Y-10744400D01*
X13665400Y-10642400D02*
X13563400Y-10744400D01*
X13665400Y-10693400D02*
G75*
G03*
X13665400Y-10693400I-51000J0D01*
G01*
X13563400Y-10896400D02*
X13665400Y-10998400D01*
X13665400Y-10896400D02*
X13563400Y-10998400D01*
X13665400Y-10947400D02*
G75*
G03*
X13665400Y-10947400I-51000J0D01*
G01*
X13563400Y-11150400D02*
X13665400Y-11252400D01*
X13665400Y-11150400D02*
X13563400Y-11252400D01*
X13665400Y-11201400D02*
G75*
G03*
X13665400Y-11201400I-51000J0D01*
G01*
X13563400Y-11404400D02*
X13665400Y-11506400D01*
X13665400Y-11404400D02*
X13563400Y-11506400D01*
X13665400Y-11455400D02*
G75*
G03*
X13665400Y-11455400I-51000J0D01*
G01*
D11*
X5360719Y-14255776D02*
X5360719Y-14055776D01*
X5360719Y-14055776D02*
X5408338Y-14055776D01*
X5408338Y-14055776D02*
X5436910Y-14065300D01*
X5436910Y-14065300D02*
X5455957Y-14084348D01*
X5455957Y-14084348D02*
X5465481Y-14103395D01*
X5465481Y-14103395D02*
X5475005Y-14141490D01*
X5475005Y-14141490D02*
X5475005Y-14170062D01*
X5475005Y-14170062D02*
X5465481Y-14208157D01*
X5465481Y-14208157D02*
X5455957Y-14227205D01*
X5455957Y-14227205D02*
X5436910Y-14246252D01*
X5436910Y-14246252D02*
X5408338Y-14255776D01*
X5408338Y-14255776D02*
X5360719Y-14255776D01*
X5560719Y-14255776D02*
X5560719Y-14122443D01*
X5560719Y-14160538D02*
X5570243Y-14141490D01*
X5570243Y-14141490D02*
X5579767Y-14131967D01*
X5579767Y-14131967D02*
X5598814Y-14122443D01*
X5598814Y-14122443D02*
X5617862Y-14122443D01*
X5684528Y-14255776D02*
X5684528Y-14122443D01*
X5684528Y-14055776D02*
X5675005Y-14065300D01*
X5675005Y-14065300D02*
X5684528Y-14074824D01*
X5684528Y-14074824D02*
X5694052Y-14065300D01*
X5694052Y-14065300D02*
X5684528Y-14055776D01*
X5684528Y-14055776D02*
X5684528Y-14074824D01*
X5808338Y-14255776D02*
X5789290Y-14246252D01*
X5789290Y-14246252D02*
X5779767Y-14227205D01*
X5779767Y-14227205D02*
X5779767Y-14055776D01*
X5913100Y-14255776D02*
X5894052Y-14246252D01*
X5894052Y-14246252D02*
X5884528Y-14227205D01*
X5884528Y-14227205D02*
X5884528Y-14055776D01*
X6109290Y-14255776D02*
X6109290Y-14055776D01*
X6109290Y-14055776D02*
X6175957Y-14198633D01*
X6175957Y-14198633D02*
X6242624Y-14055776D01*
X6242624Y-14055776D02*
X6242624Y-14255776D01*
X6423576Y-14255776D02*
X6423576Y-14151014D01*
X6423576Y-14151014D02*
X6414052Y-14131967D01*
X6414052Y-14131967D02*
X6395005Y-14122443D01*
X6395005Y-14122443D02*
X6356909Y-14122443D01*
X6356909Y-14122443D02*
X6337862Y-14131967D01*
X6423576Y-14246252D02*
X6404528Y-14255776D01*
X6404528Y-14255776D02*
X6356909Y-14255776D01*
X6356909Y-14255776D02*
X6337862Y-14246252D01*
X6337862Y-14246252D02*
X6328338Y-14227205D01*
X6328338Y-14227205D02*
X6328338Y-14208157D01*
X6328338Y-14208157D02*
X6337862Y-14189109D01*
X6337862Y-14189109D02*
X6356909Y-14179586D01*
X6356909Y-14179586D02*
X6404528Y-14179586D01*
X6404528Y-14179586D02*
X6423576Y-14170062D01*
X6518814Y-14122443D02*
X6518814Y-14322443D01*
X6518814Y-14131967D02*
X6537862Y-14122443D01*
X6537862Y-14122443D02*
X6575957Y-14122443D01*
X6575957Y-14122443D02*
X6595005Y-14131967D01*
X6595005Y-14131967D02*
X6604528Y-14141490D01*
X6604528Y-14141490D02*
X6614052Y-14160538D01*
X6614052Y-14160538D02*
X6614052Y-14217681D01*
X6614052Y-14217681D02*
X6604528Y-14236728D01*
X6604528Y-14236728D02*
X6595005Y-14246252D01*
X6595005Y-14246252D02*
X6575957Y-14255776D01*
X6575957Y-14255776D02*
X6537862Y-14255776D01*
X6537862Y-14255776D02*
X6518814Y-14246252D01*
X6699767Y-14236728D02*
X6709290Y-14246252D01*
X6709290Y-14246252D02*
X6699767Y-14255776D01*
X6699767Y-14255776D02*
X6690243Y-14246252D01*
X6690243Y-14246252D02*
X6699767Y-14236728D01*
X6699767Y-14236728D02*
X6699767Y-14255776D01*
X6699767Y-14131967D02*
X6709290Y-14141490D01*
X6709290Y-14141490D02*
X6699767Y-14151014D01*
X6699767Y-14151014D02*
X6690243Y-14141490D01*
X6690243Y-14141490D02*
X6699767Y-14131967D01*
X6699767Y-14131967D02*
X6699767Y-14151014D01*
D12*
X5073100Y-14582300D02*
X5113100Y-14622300D01*
X5113100Y-14582300D02*
X5073100Y-14622300D01*
D11*
X5398814Y-14475776D02*
X5417862Y-14475776D01*
X5417862Y-14475776D02*
X5436910Y-14485300D01*
X5436910Y-14485300D02*
X5446433Y-14494824D01*
X5446433Y-14494824D02*
X5455957Y-14513871D01*
X5455957Y-14513871D02*
X5465481Y-14551967D01*
X5465481Y-14551967D02*
X5465481Y-14599586D01*
X5465481Y-14599586D02*
X5455957Y-14637681D01*
X5455957Y-14637681D02*
X5446433Y-14656728D01*
X5446433Y-14656728D02*
X5436910Y-14666252D01*
X5436910Y-14666252D02*
X5417862Y-14675776D01*
X5417862Y-14675776D02*
X5398814Y-14675776D01*
X5398814Y-14675776D02*
X5379767Y-14666252D01*
X5379767Y-14666252D02*
X5370243Y-14656728D01*
X5370243Y-14656728D02*
X5360719Y-14637681D01*
X5360719Y-14637681D02*
X5351195Y-14599586D01*
X5351195Y-14599586D02*
X5351195Y-14551967D01*
X5351195Y-14551967D02*
X5360719Y-14513871D01*
X5360719Y-14513871D02*
X5370243Y-14494824D01*
X5370243Y-14494824D02*
X5379767Y-14485300D01*
X5379767Y-14485300D02*
X5398814Y-14475776D01*
X5551195Y-14656728D02*
X5560719Y-14666252D01*
X5560719Y-14666252D02*
X5551195Y-14675776D01*
X5551195Y-14675776D02*
X5541671Y-14666252D01*
X5541671Y-14666252D02*
X5551195Y-14656728D01*
X5551195Y-14656728D02*
X5551195Y-14675776D01*
X5732148Y-14542443D02*
X5732148Y-14675776D01*
X5684528Y-14466252D02*
X5636909Y-14609109D01*
X5636909Y-14609109D02*
X5760719Y-14609109D01*
X5875005Y-14475776D02*
X5894052Y-14475776D01*
X5894052Y-14475776D02*
X5913100Y-14485300D01*
X5913100Y-14485300D02*
X5922624Y-14494824D01*
X5922624Y-14494824D02*
X5932148Y-14513871D01*
X5932148Y-14513871D02*
X5941671Y-14551967D01*
X5941671Y-14551967D02*
X5941671Y-14599586D01*
X5941671Y-14599586D02*
X5932148Y-14637681D01*
X5932148Y-14637681D02*
X5922624Y-14656728D01*
X5922624Y-14656728D02*
X5913100Y-14666252D01*
X5913100Y-14666252D02*
X5894052Y-14675776D01*
X5894052Y-14675776D02*
X5875005Y-14675776D01*
X5875005Y-14675776D02*
X5855957Y-14666252D01*
X5855957Y-14666252D02*
X5846433Y-14656728D01*
X5846433Y-14656728D02*
X5836909Y-14637681D01*
X5836909Y-14637681D02*
X5827386Y-14599586D01*
X5827386Y-14599586D02*
X5827386Y-14551967D01*
X5827386Y-14551967D02*
X5836909Y-14513871D01*
X5836909Y-14513871D02*
X5846433Y-14494824D01*
X5846433Y-14494824D02*
X5855957Y-14485300D01*
X5855957Y-14485300D02*
X5875005Y-14475776D01*
X6065481Y-14475776D02*
X6084529Y-14475776D01*
X6084529Y-14475776D02*
X6103576Y-14485300D01*
X6103576Y-14485300D02*
X6113100Y-14494824D01*
X6113100Y-14494824D02*
X6122624Y-14513871D01*
X6122624Y-14513871D02*
X6132148Y-14551967D01*
X6132148Y-14551967D02*
X6132148Y-14599586D01*
X6132148Y-14599586D02*
X6122624Y-14637681D01*
X6122624Y-14637681D02*
X6113100Y-14656728D01*
X6113100Y-14656728D02*
X6103576Y-14666252D01*
X6103576Y-14666252D02*
X6084529Y-14675776D01*
X6084529Y-14675776D02*
X6065481Y-14675776D01*
X6065481Y-14675776D02*
X6046433Y-14666252D01*
X6046433Y-14666252D02*
X6036909Y-14656728D01*
X6036909Y-14656728D02*
X6027386Y-14637681D01*
X6027386Y-14637681D02*
X6017862Y-14599586D01*
X6017862Y-14599586D02*
X6017862Y-14551967D01*
X6017862Y-14551967D02*
X6027386Y-14513871D01*
X6027386Y-14513871D02*
X6036909Y-14494824D01*
X6036909Y-14494824D02*
X6046433Y-14485300D01*
X6046433Y-14485300D02*
X6065481Y-14475776D01*
X6217862Y-14675776D02*
X6217862Y-14542443D01*
X6217862Y-14561490D02*
X6227386Y-14551967D01*
X6227386Y-14551967D02*
X6246433Y-14542443D01*
X6246433Y-14542443D02*
X6275005Y-14542443D01*
X6275005Y-14542443D02*
X6294052Y-14551967D01*
X6294052Y-14551967D02*
X6303576Y-14571014D01*
X6303576Y-14571014D02*
X6303576Y-14675776D01*
X6303576Y-14571014D02*
X6313100Y-14551967D01*
X6313100Y-14551967D02*
X6332148Y-14542443D01*
X6332148Y-14542443D02*
X6360719Y-14542443D01*
X6360719Y-14542443D02*
X6379767Y-14551967D01*
X6379767Y-14551967D02*
X6389290Y-14571014D01*
X6389290Y-14571014D02*
X6389290Y-14675776D01*
X6484529Y-14675776D02*
X6484529Y-14542443D01*
X6484529Y-14561490D02*
X6494052Y-14551967D01*
X6494052Y-14551967D02*
X6513100Y-14542443D01*
X6513100Y-14542443D02*
X6541671Y-14542443D01*
X6541671Y-14542443D02*
X6560719Y-14551967D01*
X6560719Y-14551967D02*
X6570243Y-14571014D01*
X6570243Y-14571014D02*
X6570243Y-14675776D01*
X6570243Y-14571014D02*
X6579767Y-14551967D01*
X6579767Y-14551967D02*
X6598814Y-14542443D01*
X6598814Y-14542443D02*
X6627386Y-14542443D01*
X6627386Y-14542443D02*
X6646433Y-14551967D01*
X6646433Y-14551967D02*
X6655957Y-14571014D01*
X6655957Y-14571014D02*
X6655957Y-14675776D01*
X7014052Y-14466252D02*
X6842624Y-14723395D01*
X7238814Y-14475776D02*
X7257862Y-14475776D01*
X7257862Y-14475776D02*
X7276910Y-14485300D01*
X7276910Y-14485300D02*
X7286433Y-14494824D01*
X7286433Y-14494824D02*
X7295957Y-14513871D01*
X7295957Y-14513871D02*
X7305481Y-14551967D01*
X7305481Y-14551967D02*
X7305481Y-14599586D01*
X7305481Y-14599586D02*
X7295957Y-14637681D01*
X7295957Y-14637681D02*
X7286433Y-14656728D01*
X7286433Y-14656728D02*
X7276910Y-14666252D01*
X7276910Y-14666252D02*
X7257862Y-14675776D01*
X7257862Y-14675776D02*
X7238814Y-14675776D01*
X7238814Y-14675776D02*
X7219767Y-14666252D01*
X7219767Y-14666252D02*
X7210243Y-14656728D01*
X7210243Y-14656728D02*
X7200719Y-14637681D01*
X7200719Y-14637681D02*
X7191195Y-14599586D01*
X7191195Y-14599586D02*
X7191195Y-14551967D01*
X7191195Y-14551967D02*
X7200719Y-14513871D01*
X7200719Y-14513871D02*
X7210243Y-14494824D01*
X7210243Y-14494824D02*
X7219767Y-14485300D01*
X7219767Y-14485300D02*
X7238814Y-14475776D01*
X7391195Y-14656728D02*
X7400719Y-14666252D01*
X7400719Y-14666252D02*
X7391195Y-14675776D01*
X7391195Y-14675776D02*
X7381671Y-14666252D01*
X7381671Y-14666252D02*
X7391195Y-14656728D01*
X7391195Y-14656728D02*
X7391195Y-14675776D01*
X7524529Y-14475776D02*
X7543576Y-14475776D01*
X7543576Y-14475776D02*
X7562624Y-14485300D01*
X7562624Y-14485300D02*
X7572148Y-14494824D01*
X7572148Y-14494824D02*
X7581671Y-14513871D01*
X7581671Y-14513871D02*
X7591195Y-14551967D01*
X7591195Y-14551967D02*
X7591195Y-14599586D01*
X7591195Y-14599586D02*
X7581671Y-14637681D01*
X7581671Y-14637681D02*
X7572148Y-14656728D01*
X7572148Y-14656728D02*
X7562624Y-14666252D01*
X7562624Y-14666252D02*
X7543576Y-14675776D01*
X7543576Y-14675776D02*
X7524529Y-14675776D01*
X7524529Y-14675776D02*
X7505481Y-14666252D01*
X7505481Y-14666252D02*
X7495957Y-14656728D01*
X7495957Y-14656728D02*
X7486433Y-14637681D01*
X7486433Y-14637681D02*
X7476910Y-14599586D01*
X7476910Y-14599586D02*
X7476910Y-14551967D01*
X7476910Y-14551967D02*
X7486433Y-14513871D01*
X7486433Y-14513871D02*
X7495957Y-14494824D01*
X7495957Y-14494824D02*
X7505481Y-14485300D01*
X7505481Y-14485300D02*
X7524529Y-14475776D01*
X7781671Y-14675776D02*
X7667386Y-14675776D01*
X7724529Y-14675776D02*
X7724529Y-14475776D01*
X7724529Y-14475776D02*
X7705481Y-14504348D01*
X7705481Y-14504348D02*
X7686433Y-14523395D01*
X7686433Y-14523395D02*
X7667386Y-14532919D01*
X7962624Y-14475776D02*
X7867386Y-14475776D01*
X7867386Y-14475776D02*
X7857862Y-14571014D01*
X7857862Y-14571014D02*
X7867386Y-14561490D01*
X7867386Y-14561490D02*
X7886433Y-14551967D01*
X7886433Y-14551967D02*
X7934052Y-14551967D01*
X7934052Y-14551967D02*
X7953100Y-14561490D01*
X7953100Y-14561490D02*
X7962624Y-14571014D01*
X7962624Y-14571014D02*
X7972148Y-14590062D01*
X7972148Y-14590062D02*
X7972148Y-14637681D01*
X7972148Y-14637681D02*
X7962624Y-14656728D01*
X7962624Y-14656728D02*
X7953100Y-14666252D01*
X7953100Y-14666252D02*
X7934052Y-14675776D01*
X7934052Y-14675776D02*
X7886433Y-14675776D01*
X7886433Y-14675776D02*
X7867386Y-14666252D01*
X7867386Y-14666252D02*
X7857862Y-14656728D01*
X8038814Y-14475776D02*
X8172148Y-14475776D01*
X8172148Y-14475776D02*
X8086433Y-14675776D01*
X8238814Y-14475776D02*
X8238814Y-14513871D01*
X8315005Y-14475776D02*
X8315005Y-14513871D01*
X8577862Y-14751967D02*
X8568338Y-14742443D01*
X8568338Y-14742443D02*
X8549291Y-14713871D01*
X8549291Y-14713871D02*
X8539767Y-14694824D01*
X8539767Y-14694824D02*
X8530243Y-14666252D01*
X8530243Y-14666252D02*
X8520719Y-14618633D01*
X8520719Y-14618633D02*
X8520719Y-14580538D01*
X8520719Y-14580538D02*
X8530243Y-14532919D01*
X8530243Y-14532919D02*
X8539767Y-14504348D01*
X8539767Y-14504348D02*
X8549291Y-14485300D01*
X8549291Y-14485300D02*
X8568338Y-14456728D01*
X8568338Y-14456728D02*
X8577862Y-14447205D01*
X8758814Y-14675776D02*
X8644529Y-14675776D01*
X8701672Y-14675776D02*
X8701672Y-14475776D01*
X8701672Y-14475776D02*
X8682624Y-14504348D01*
X8682624Y-14504348D02*
X8663576Y-14523395D01*
X8663576Y-14523395D02*
X8644529Y-14532919D01*
X8835005Y-14494824D02*
X8844529Y-14485300D01*
X8844529Y-14485300D02*
X8863576Y-14475776D01*
X8863576Y-14475776D02*
X8911195Y-14475776D01*
X8911195Y-14475776D02*
X8930243Y-14485300D01*
X8930243Y-14485300D02*
X8939767Y-14494824D01*
X8939767Y-14494824D02*
X8949291Y-14513871D01*
X8949291Y-14513871D02*
X8949291Y-14532919D01*
X8949291Y-14532919D02*
X8939767Y-14561490D01*
X8939767Y-14561490D02*
X8825481Y-14675776D01*
X8825481Y-14675776D02*
X8949291Y-14675776D01*
X9155005Y-14675776D02*
X9155005Y-14475776D01*
X9240719Y-14675776D02*
X9240719Y-14571014D01*
X9240719Y-14571014D02*
X9231195Y-14551967D01*
X9231195Y-14551967D02*
X9212148Y-14542443D01*
X9212148Y-14542443D02*
X9183576Y-14542443D01*
X9183576Y-14542443D02*
X9164529Y-14551967D01*
X9164529Y-14551967D02*
X9155005Y-14561490D01*
X9364529Y-14675776D02*
X9345481Y-14666252D01*
X9345481Y-14666252D02*
X9335957Y-14656728D01*
X9335957Y-14656728D02*
X9326434Y-14637681D01*
X9326434Y-14637681D02*
X9326434Y-14580538D01*
X9326434Y-14580538D02*
X9335957Y-14561490D01*
X9335957Y-14561490D02*
X9345481Y-14551967D01*
X9345481Y-14551967D02*
X9364529Y-14542443D01*
X9364529Y-14542443D02*
X9393100Y-14542443D01*
X9393100Y-14542443D02*
X9412148Y-14551967D01*
X9412148Y-14551967D02*
X9421672Y-14561490D01*
X9421672Y-14561490D02*
X9431195Y-14580538D01*
X9431195Y-14580538D02*
X9431195Y-14637681D01*
X9431195Y-14637681D02*
X9421672Y-14656728D01*
X9421672Y-14656728D02*
X9412148Y-14666252D01*
X9412148Y-14666252D02*
X9393100Y-14675776D01*
X9393100Y-14675776D02*
X9364529Y-14675776D01*
X9545481Y-14675776D02*
X9526434Y-14666252D01*
X9526434Y-14666252D02*
X9516910Y-14647205D01*
X9516910Y-14647205D02*
X9516910Y-14475776D01*
X9697862Y-14666252D02*
X9678815Y-14675776D01*
X9678815Y-14675776D02*
X9640719Y-14675776D01*
X9640719Y-14675776D02*
X9621672Y-14666252D01*
X9621672Y-14666252D02*
X9612148Y-14647205D01*
X9612148Y-14647205D02*
X9612148Y-14571014D01*
X9612148Y-14571014D02*
X9621672Y-14551967D01*
X9621672Y-14551967D02*
X9640719Y-14542443D01*
X9640719Y-14542443D02*
X9678815Y-14542443D01*
X9678815Y-14542443D02*
X9697862Y-14551967D01*
X9697862Y-14551967D02*
X9707386Y-14571014D01*
X9707386Y-14571014D02*
X9707386Y-14590062D01*
X9707386Y-14590062D02*
X9612148Y-14609109D01*
X9783576Y-14666252D02*
X9802624Y-14675776D01*
X9802624Y-14675776D02*
X9840719Y-14675776D01*
X9840719Y-14675776D02*
X9859767Y-14666252D01*
X9859767Y-14666252D02*
X9869291Y-14647205D01*
X9869291Y-14647205D02*
X9869291Y-14637681D01*
X9869291Y-14637681D02*
X9859767Y-14618633D01*
X9859767Y-14618633D02*
X9840719Y-14609109D01*
X9840719Y-14609109D02*
X9812148Y-14609109D01*
X9812148Y-14609109D02*
X9793100Y-14599586D01*
X9793100Y-14599586D02*
X9783576Y-14580538D01*
X9783576Y-14580538D02*
X9783576Y-14571014D01*
X9783576Y-14571014D02*
X9793100Y-14551967D01*
X9793100Y-14551967D02*
X9812148Y-14542443D01*
X9812148Y-14542443D02*
X9840719Y-14542443D01*
X9840719Y-14542443D02*
X9859767Y-14551967D01*
X9935957Y-14751967D02*
X9945481Y-14742443D01*
X9945481Y-14742443D02*
X9964529Y-14713871D01*
X9964529Y-14713871D02*
X9974053Y-14694824D01*
X9974053Y-14694824D02*
X9983576Y-14666252D01*
X9983576Y-14666252D02*
X9993100Y-14618633D01*
X9993100Y-14618633D02*
X9993100Y-14580538D01*
X9993100Y-14580538D02*
X9983576Y-14532919D01*
X9983576Y-14532919D02*
X9974053Y-14504348D01*
X9974053Y-14504348D02*
X9964529Y-14485300D01*
X9964529Y-14485300D02*
X9945481Y-14456728D01*
X9945481Y-14456728D02*
X9935957Y-14447205D01*
D13*
X5113100Y-14866300D02*
G75*
G03*
X5113100Y-14866300I-25000J0D01*
G01*
D11*
X5398814Y-14739776D02*
X5417862Y-14739776D01*
X5417862Y-14739776D02*
X5436910Y-14749300D01*
X5436910Y-14749300D02*
X5446433Y-14758824D01*
X5446433Y-14758824D02*
X5455957Y-14777871D01*
X5455957Y-14777871D02*
X5465481Y-14815967D01*
X5465481Y-14815967D02*
X5465481Y-14863586D01*
X5465481Y-14863586D02*
X5455957Y-14901681D01*
X5455957Y-14901681D02*
X5446433Y-14920728D01*
X5446433Y-14920728D02*
X5436910Y-14930252D01*
X5436910Y-14930252D02*
X5417862Y-14939776D01*
X5417862Y-14939776D02*
X5398814Y-14939776D01*
X5398814Y-14939776D02*
X5379767Y-14930252D01*
X5379767Y-14930252D02*
X5370243Y-14920728D01*
X5370243Y-14920728D02*
X5360719Y-14901681D01*
X5360719Y-14901681D02*
X5351195Y-14863586D01*
X5351195Y-14863586D02*
X5351195Y-14815967D01*
X5351195Y-14815967D02*
X5360719Y-14777871D01*
X5360719Y-14777871D02*
X5370243Y-14758824D01*
X5370243Y-14758824D02*
X5379767Y-14749300D01*
X5379767Y-14749300D02*
X5398814Y-14739776D01*
X5551195Y-14920728D02*
X5560719Y-14930252D01*
X5560719Y-14930252D02*
X5551195Y-14939776D01*
X5551195Y-14939776D02*
X5541671Y-14930252D01*
X5541671Y-14930252D02*
X5551195Y-14920728D01*
X5551195Y-14920728D02*
X5551195Y-14939776D01*
X5741671Y-14739776D02*
X5646433Y-14739776D01*
X5646433Y-14739776D02*
X5636909Y-14835014D01*
X5636909Y-14835014D02*
X5646433Y-14825490D01*
X5646433Y-14825490D02*
X5665481Y-14815967D01*
X5665481Y-14815967D02*
X5713100Y-14815967D01*
X5713100Y-14815967D02*
X5732148Y-14825490D01*
X5732148Y-14825490D02*
X5741671Y-14835014D01*
X5741671Y-14835014D02*
X5751195Y-14854062D01*
X5751195Y-14854062D02*
X5751195Y-14901681D01*
X5751195Y-14901681D02*
X5741671Y-14920728D01*
X5741671Y-14920728D02*
X5732148Y-14930252D01*
X5732148Y-14930252D02*
X5713100Y-14939776D01*
X5713100Y-14939776D02*
X5665481Y-14939776D01*
X5665481Y-14939776D02*
X5646433Y-14930252D01*
X5646433Y-14930252D02*
X5636909Y-14920728D01*
X5875005Y-14739776D02*
X5894052Y-14739776D01*
X5894052Y-14739776D02*
X5913100Y-14749300D01*
X5913100Y-14749300D02*
X5922624Y-14758824D01*
X5922624Y-14758824D02*
X5932148Y-14777871D01*
X5932148Y-14777871D02*
X5941671Y-14815967D01*
X5941671Y-14815967D02*
X5941671Y-14863586D01*
X5941671Y-14863586D02*
X5932148Y-14901681D01*
X5932148Y-14901681D02*
X5922624Y-14920728D01*
X5922624Y-14920728D02*
X5913100Y-14930252D01*
X5913100Y-14930252D02*
X5894052Y-14939776D01*
X5894052Y-14939776D02*
X5875005Y-14939776D01*
X5875005Y-14939776D02*
X5855957Y-14930252D01*
X5855957Y-14930252D02*
X5846433Y-14920728D01*
X5846433Y-14920728D02*
X5836909Y-14901681D01*
X5836909Y-14901681D02*
X5827386Y-14863586D01*
X5827386Y-14863586D02*
X5827386Y-14815967D01*
X5827386Y-14815967D02*
X5836909Y-14777871D01*
X5836909Y-14777871D02*
X5846433Y-14758824D01*
X5846433Y-14758824D02*
X5855957Y-14749300D01*
X5855957Y-14749300D02*
X5875005Y-14739776D01*
X6065481Y-14739776D02*
X6084529Y-14739776D01*
X6084529Y-14739776D02*
X6103576Y-14749300D01*
X6103576Y-14749300D02*
X6113100Y-14758824D01*
X6113100Y-14758824D02*
X6122624Y-14777871D01*
X6122624Y-14777871D02*
X6132148Y-14815967D01*
X6132148Y-14815967D02*
X6132148Y-14863586D01*
X6132148Y-14863586D02*
X6122624Y-14901681D01*
X6122624Y-14901681D02*
X6113100Y-14920728D01*
X6113100Y-14920728D02*
X6103576Y-14930252D01*
X6103576Y-14930252D02*
X6084529Y-14939776D01*
X6084529Y-14939776D02*
X6065481Y-14939776D01*
X6065481Y-14939776D02*
X6046433Y-14930252D01*
X6046433Y-14930252D02*
X6036909Y-14920728D01*
X6036909Y-14920728D02*
X6027386Y-14901681D01*
X6027386Y-14901681D02*
X6017862Y-14863586D01*
X6017862Y-14863586D02*
X6017862Y-14815967D01*
X6017862Y-14815967D02*
X6027386Y-14777871D01*
X6027386Y-14777871D02*
X6036909Y-14758824D01*
X6036909Y-14758824D02*
X6046433Y-14749300D01*
X6046433Y-14749300D02*
X6065481Y-14739776D01*
X6217862Y-14939776D02*
X6217862Y-14806443D01*
X6217862Y-14825490D02*
X6227386Y-14815967D01*
X6227386Y-14815967D02*
X6246433Y-14806443D01*
X6246433Y-14806443D02*
X6275005Y-14806443D01*
X6275005Y-14806443D02*
X6294052Y-14815967D01*
X6294052Y-14815967D02*
X6303576Y-14835014D01*
X6303576Y-14835014D02*
X6303576Y-14939776D01*
X6303576Y-14835014D02*
X6313100Y-14815967D01*
X6313100Y-14815967D02*
X6332148Y-14806443D01*
X6332148Y-14806443D02*
X6360719Y-14806443D01*
X6360719Y-14806443D02*
X6379767Y-14815967D01*
X6379767Y-14815967D02*
X6389290Y-14835014D01*
X6389290Y-14835014D02*
X6389290Y-14939776D01*
X6484529Y-14939776D02*
X6484529Y-14806443D01*
X6484529Y-14825490D02*
X6494052Y-14815967D01*
X6494052Y-14815967D02*
X6513100Y-14806443D01*
X6513100Y-14806443D02*
X6541671Y-14806443D01*
X6541671Y-14806443D02*
X6560719Y-14815967D01*
X6560719Y-14815967D02*
X6570243Y-14835014D01*
X6570243Y-14835014D02*
X6570243Y-14939776D01*
X6570243Y-14835014D02*
X6579767Y-14815967D01*
X6579767Y-14815967D02*
X6598814Y-14806443D01*
X6598814Y-14806443D02*
X6627386Y-14806443D01*
X6627386Y-14806443D02*
X6646433Y-14815967D01*
X6646433Y-14815967D02*
X6655957Y-14835014D01*
X6655957Y-14835014D02*
X6655957Y-14939776D01*
X7014052Y-14730252D02*
X6842624Y-14987395D01*
X7238814Y-14739776D02*
X7257862Y-14739776D01*
X7257862Y-14739776D02*
X7276910Y-14749300D01*
X7276910Y-14749300D02*
X7286433Y-14758824D01*
X7286433Y-14758824D02*
X7295957Y-14777871D01*
X7295957Y-14777871D02*
X7305481Y-14815967D01*
X7305481Y-14815967D02*
X7305481Y-14863586D01*
X7305481Y-14863586D02*
X7295957Y-14901681D01*
X7295957Y-14901681D02*
X7286433Y-14920728D01*
X7286433Y-14920728D02*
X7276910Y-14930252D01*
X7276910Y-14930252D02*
X7257862Y-14939776D01*
X7257862Y-14939776D02*
X7238814Y-14939776D01*
X7238814Y-14939776D02*
X7219767Y-14930252D01*
X7219767Y-14930252D02*
X7210243Y-14920728D01*
X7210243Y-14920728D02*
X7200719Y-14901681D01*
X7200719Y-14901681D02*
X7191195Y-14863586D01*
X7191195Y-14863586D02*
X7191195Y-14815967D01*
X7191195Y-14815967D02*
X7200719Y-14777871D01*
X7200719Y-14777871D02*
X7210243Y-14758824D01*
X7210243Y-14758824D02*
X7219767Y-14749300D01*
X7219767Y-14749300D02*
X7238814Y-14739776D01*
X7391195Y-14920728D02*
X7400719Y-14930252D01*
X7400719Y-14930252D02*
X7391195Y-14939776D01*
X7391195Y-14939776D02*
X7381671Y-14930252D01*
X7381671Y-14930252D02*
X7391195Y-14920728D01*
X7391195Y-14920728D02*
X7391195Y-14939776D01*
X7524529Y-14739776D02*
X7543576Y-14739776D01*
X7543576Y-14739776D02*
X7562624Y-14749300D01*
X7562624Y-14749300D02*
X7572148Y-14758824D01*
X7572148Y-14758824D02*
X7581671Y-14777871D01*
X7581671Y-14777871D02*
X7591195Y-14815967D01*
X7591195Y-14815967D02*
X7591195Y-14863586D01*
X7591195Y-14863586D02*
X7581671Y-14901681D01*
X7581671Y-14901681D02*
X7572148Y-14920728D01*
X7572148Y-14920728D02*
X7562624Y-14930252D01*
X7562624Y-14930252D02*
X7543576Y-14939776D01*
X7543576Y-14939776D02*
X7524529Y-14939776D01*
X7524529Y-14939776D02*
X7505481Y-14930252D01*
X7505481Y-14930252D02*
X7495957Y-14920728D01*
X7495957Y-14920728D02*
X7486433Y-14901681D01*
X7486433Y-14901681D02*
X7476910Y-14863586D01*
X7476910Y-14863586D02*
X7476910Y-14815967D01*
X7476910Y-14815967D02*
X7486433Y-14777871D01*
X7486433Y-14777871D02*
X7495957Y-14758824D01*
X7495957Y-14758824D02*
X7505481Y-14749300D01*
X7505481Y-14749300D02*
X7524529Y-14739776D01*
X7781671Y-14939776D02*
X7667386Y-14939776D01*
X7724529Y-14939776D02*
X7724529Y-14739776D01*
X7724529Y-14739776D02*
X7705481Y-14768348D01*
X7705481Y-14768348D02*
X7686433Y-14787395D01*
X7686433Y-14787395D02*
X7667386Y-14796919D01*
X7876910Y-14939776D02*
X7915005Y-14939776D01*
X7915005Y-14939776D02*
X7934052Y-14930252D01*
X7934052Y-14930252D02*
X7943576Y-14920728D01*
X7943576Y-14920728D02*
X7962624Y-14892157D01*
X7962624Y-14892157D02*
X7972148Y-14854062D01*
X7972148Y-14854062D02*
X7972148Y-14777871D01*
X7972148Y-14777871D02*
X7962624Y-14758824D01*
X7962624Y-14758824D02*
X7953100Y-14749300D01*
X7953100Y-14749300D02*
X7934052Y-14739776D01*
X7934052Y-14739776D02*
X7895957Y-14739776D01*
X7895957Y-14739776D02*
X7876910Y-14749300D01*
X7876910Y-14749300D02*
X7867386Y-14758824D01*
X7867386Y-14758824D02*
X7857862Y-14777871D01*
X7857862Y-14777871D02*
X7857862Y-14825490D01*
X7857862Y-14825490D02*
X7867386Y-14844538D01*
X7867386Y-14844538D02*
X7876910Y-14854062D01*
X7876910Y-14854062D02*
X7895957Y-14863586D01*
X7895957Y-14863586D02*
X7934052Y-14863586D01*
X7934052Y-14863586D02*
X7953100Y-14854062D01*
X7953100Y-14854062D02*
X7962624Y-14844538D01*
X7962624Y-14844538D02*
X7972148Y-14825490D01*
X8038814Y-14739776D02*
X8172148Y-14739776D01*
X8172148Y-14739776D02*
X8086433Y-14939776D01*
X8238814Y-14739776D02*
X8238814Y-14777871D01*
X8315005Y-14739776D02*
X8315005Y-14777871D01*
X8577862Y-15015967D02*
X8568338Y-15006443D01*
X8568338Y-15006443D02*
X8549291Y-14977871D01*
X8549291Y-14977871D02*
X8539767Y-14958824D01*
X8539767Y-14958824D02*
X8530243Y-14930252D01*
X8530243Y-14930252D02*
X8520719Y-14882633D01*
X8520719Y-14882633D02*
X8520719Y-14844538D01*
X8520719Y-14844538D02*
X8530243Y-14796919D01*
X8530243Y-14796919D02*
X8539767Y-14768348D01*
X8539767Y-14768348D02*
X8549291Y-14749300D01*
X8549291Y-14749300D02*
X8568338Y-14720728D01*
X8568338Y-14720728D02*
X8577862Y-14711205D01*
X8692148Y-14739776D02*
X8711195Y-14739776D01*
X8711195Y-14739776D02*
X8730243Y-14749300D01*
X8730243Y-14749300D02*
X8739767Y-14758824D01*
X8739767Y-14758824D02*
X8749291Y-14777871D01*
X8749291Y-14777871D02*
X8758814Y-14815967D01*
X8758814Y-14815967D02*
X8758814Y-14863586D01*
X8758814Y-14863586D02*
X8749291Y-14901681D01*
X8749291Y-14901681D02*
X8739767Y-14920728D01*
X8739767Y-14920728D02*
X8730243Y-14930252D01*
X8730243Y-14930252D02*
X8711195Y-14939776D01*
X8711195Y-14939776D02*
X8692148Y-14939776D01*
X8692148Y-14939776D02*
X8673100Y-14930252D01*
X8673100Y-14930252D02*
X8663576Y-14920728D01*
X8663576Y-14920728D02*
X8654053Y-14901681D01*
X8654053Y-14901681D02*
X8644529Y-14863586D01*
X8644529Y-14863586D02*
X8644529Y-14815967D01*
X8644529Y-14815967D02*
X8654053Y-14777871D01*
X8654053Y-14777871D02*
X8663576Y-14758824D01*
X8663576Y-14758824D02*
X8673100Y-14749300D01*
X8673100Y-14749300D02*
X8692148Y-14739776D01*
X8964529Y-14939776D02*
X8964529Y-14739776D01*
X9050243Y-14939776D02*
X9050243Y-14835014D01*
X9050243Y-14835014D02*
X9040719Y-14815967D01*
X9040719Y-14815967D02*
X9021672Y-14806443D01*
X9021672Y-14806443D02*
X8993100Y-14806443D01*
X8993100Y-14806443D02*
X8974053Y-14815967D01*
X8974053Y-14815967D02*
X8964529Y-14825490D01*
X9174053Y-14939776D02*
X9155005Y-14930252D01*
X9155005Y-14930252D02*
X9145481Y-14920728D01*
X9145481Y-14920728D02*
X9135957Y-14901681D01*
X9135957Y-14901681D02*
X9135957Y-14844538D01*
X9135957Y-14844538D02*
X9145481Y-14825490D01*
X9145481Y-14825490D02*
X9155005Y-14815967D01*
X9155005Y-14815967D02*
X9174053Y-14806443D01*
X9174053Y-14806443D02*
X9202624Y-14806443D01*
X9202624Y-14806443D02*
X9221672Y-14815967D01*
X9221672Y-14815967D02*
X9231195Y-14825490D01*
X9231195Y-14825490D02*
X9240719Y-14844538D01*
X9240719Y-14844538D02*
X9240719Y-14901681D01*
X9240719Y-14901681D02*
X9231195Y-14920728D01*
X9231195Y-14920728D02*
X9221672Y-14930252D01*
X9221672Y-14930252D02*
X9202624Y-14939776D01*
X9202624Y-14939776D02*
X9174053Y-14939776D01*
X9355005Y-14939776D02*
X9335957Y-14930252D01*
X9335957Y-14930252D02*
X9326434Y-14911205D01*
X9326434Y-14911205D02*
X9326434Y-14739776D01*
X9507386Y-14930252D02*
X9488338Y-14939776D01*
X9488338Y-14939776D02*
X9450243Y-14939776D01*
X9450243Y-14939776D02*
X9431195Y-14930252D01*
X9431195Y-14930252D02*
X9421672Y-14911205D01*
X9421672Y-14911205D02*
X9421672Y-14835014D01*
X9421672Y-14835014D02*
X9431195Y-14815967D01*
X9431195Y-14815967D02*
X9450243Y-14806443D01*
X9450243Y-14806443D02*
X9488338Y-14806443D01*
X9488338Y-14806443D02*
X9507386Y-14815967D01*
X9507386Y-14815967D02*
X9516910Y-14835014D01*
X9516910Y-14835014D02*
X9516910Y-14854062D01*
X9516910Y-14854062D02*
X9421672Y-14873109D01*
X9593100Y-14930252D02*
X9612148Y-14939776D01*
X9612148Y-14939776D02*
X9650243Y-14939776D01*
X9650243Y-14939776D02*
X9669291Y-14930252D01*
X9669291Y-14930252D02*
X9678815Y-14911205D01*
X9678815Y-14911205D02*
X9678815Y-14901681D01*
X9678815Y-14901681D02*
X9669291Y-14882633D01*
X9669291Y-14882633D02*
X9650243Y-14873109D01*
X9650243Y-14873109D02*
X9621672Y-14873109D01*
X9621672Y-14873109D02*
X9602624Y-14863586D01*
X9602624Y-14863586D02*
X9593100Y-14844538D01*
X9593100Y-14844538D02*
X9593100Y-14835014D01*
X9593100Y-14835014D02*
X9602624Y-14815967D01*
X9602624Y-14815967D02*
X9621672Y-14806443D01*
X9621672Y-14806443D02*
X9650243Y-14806443D01*
X9650243Y-14806443D02*
X9669291Y-14815967D01*
X9884529Y-14863586D02*
X10036910Y-14863586D01*
X9960719Y-14939776D02*
X9960719Y-14787395D01*
X10242624Y-14758824D02*
X10252148Y-14749300D01*
X10252148Y-14749300D02*
X10271195Y-14739776D01*
X10271195Y-14739776D02*
X10318815Y-14739776D01*
X10318815Y-14739776D02*
X10337862Y-14749300D01*
X10337862Y-14749300D02*
X10347386Y-14758824D01*
X10347386Y-14758824D02*
X10356910Y-14777871D01*
X10356910Y-14777871D02*
X10356910Y-14796919D01*
X10356910Y-14796919D02*
X10347386Y-14825490D01*
X10347386Y-14825490D02*
X10233100Y-14939776D01*
X10233100Y-14939776D02*
X10356910Y-14939776D01*
X10553100Y-14930252D02*
X10572148Y-14939776D01*
X10572148Y-14939776D02*
X10610243Y-14939776D01*
X10610243Y-14939776D02*
X10629291Y-14930252D01*
X10629291Y-14930252D02*
X10638815Y-14911205D01*
X10638815Y-14911205D02*
X10638815Y-14901681D01*
X10638815Y-14901681D02*
X10629291Y-14882633D01*
X10629291Y-14882633D02*
X10610243Y-14873109D01*
X10610243Y-14873109D02*
X10581672Y-14873109D01*
X10581672Y-14873109D02*
X10562624Y-14863586D01*
X10562624Y-14863586D02*
X10553100Y-14844538D01*
X10553100Y-14844538D02*
X10553100Y-14835014D01*
X10553100Y-14835014D02*
X10562624Y-14815967D01*
X10562624Y-14815967D02*
X10581672Y-14806443D01*
X10581672Y-14806443D02*
X10610243Y-14806443D01*
X10610243Y-14806443D02*
X10629291Y-14815967D01*
X10753100Y-14939776D02*
X10734053Y-14930252D01*
X10734053Y-14930252D02*
X10724529Y-14911205D01*
X10724529Y-14911205D02*
X10724529Y-14739776D01*
X10857862Y-14939776D02*
X10838815Y-14930252D01*
X10838815Y-14930252D02*
X10829291Y-14920728D01*
X10829291Y-14920728D02*
X10819767Y-14901681D01*
X10819767Y-14901681D02*
X10819767Y-14844538D01*
X10819767Y-14844538D02*
X10829291Y-14825490D01*
X10829291Y-14825490D02*
X10838815Y-14815967D01*
X10838815Y-14815967D02*
X10857862Y-14806443D01*
X10857862Y-14806443D02*
X10886434Y-14806443D01*
X10886434Y-14806443D02*
X10905481Y-14815967D01*
X10905481Y-14815967D02*
X10915005Y-14825490D01*
X10915005Y-14825490D02*
X10924529Y-14844538D01*
X10924529Y-14844538D02*
X10924529Y-14901681D01*
X10924529Y-14901681D02*
X10915005Y-14920728D01*
X10915005Y-14920728D02*
X10905481Y-14930252D01*
X10905481Y-14930252D02*
X10886434Y-14939776D01*
X10886434Y-14939776D02*
X10857862Y-14939776D01*
X10981672Y-14806443D02*
X11057862Y-14806443D01*
X11010243Y-14739776D02*
X11010243Y-14911205D01*
X11010243Y-14911205D02*
X11019767Y-14930252D01*
X11019767Y-14930252D02*
X11038815Y-14939776D01*
X11038815Y-14939776D02*
X11057862Y-14939776D01*
X11115005Y-14930252D02*
X11134053Y-14939776D01*
X11134053Y-14939776D02*
X11172148Y-14939776D01*
X11172148Y-14939776D02*
X11191195Y-14930252D01*
X11191195Y-14930252D02*
X11200719Y-14911205D01*
X11200719Y-14911205D02*
X11200719Y-14901681D01*
X11200719Y-14901681D02*
X11191195Y-14882633D01*
X11191195Y-14882633D02*
X11172148Y-14873109D01*
X11172148Y-14873109D02*
X11143576Y-14873109D01*
X11143576Y-14873109D02*
X11124529Y-14863586D01*
X11124529Y-14863586D02*
X11115005Y-14844538D01*
X11115005Y-14844538D02*
X11115005Y-14835014D01*
X11115005Y-14835014D02*
X11124529Y-14815967D01*
X11124529Y-14815967D02*
X11143576Y-14806443D01*
X11143576Y-14806443D02*
X11172148Y-14806443D01*
X11172148Y-14806443D02*
X11191195Y-14815967D01*
X11267386Y-15015967D02*
X11276910Y-15006443D01*
X11276910Y-15006443D02*
X11295957Y-14977871D01*
X11295957Y-14977871D02*
X11305481Y-14958824D01*
X11305481Y-14958824D02*
X11315005Y-14930252D01*
X11315005Y-14930252D02*
X11324529Y-14882633D01*
X11324529Y-14882633D02*
X11324529Y-14844538D01*
X11324529Y-14844538D02*
X11315005Y-14796919D01*
X11315005Y-14796919D02*
X11305481Y-14768348D01*
X11305481Y-14768348D02*
X11295957Y-14749300D01*
X11295957Y-14749300D02*
X11276910Y-14720728D01*
X11276910Y-14720728D02*
X11267386Y-14711205D01*
D14*
X5085600Y-15102800D02*
X5085600Y-15157800D01*
X5058100Y-15130300D02*
X5113100Y-15130300D01*
D11*
X5398814Y-15003776D02*
X5417862Y-15003776D01*
X5417862Y-15003776D02*
X5436910Y-15013300D01*
X5436910Y-15013300D02*
X5446433Y-15022824D01*
X5446433Y-15022824D02*
X5455957Y-15041871D01*
X5455957Y-15041871D02*
X5465481Y-15079967D01*
X5465481Y-15079967D02*
X5465481Y-15127586D01*
X5465481Y-15127586D02*
X5455957Y-15165681D01*
X5455957Y-15165681D02*
X5446433Y-15184728D01*
X5446433Y-15184728D02*
X5436910Y-15194252D01*
X5436910Y-15194252D02*
X5417862Y-15203776D01*
X5417862Y-15203776D02*
X5398814Y-15203776D01*
X5398814Y-15203776D02*
X5379767Y-15194252D01*
X5379767Y-15194252D02*
X5370243Y-15184728D01*
X5370243Y-15184728D02*
X5360719Y-15165681D01*
X5360719Y-15165681D02*
X5351195Y-15127586D01*
X5351195Y-15127586D02*
X5351195Y-15079967D01*
X5351195Y-15079967D02*
X5360719Y-15041871D01*
X5360719Y-15041871D02*
X5370243Y-15022824D01*
X5370243Y-15022824D02*
X5379767Y-15013300D01*
X5379767Y-15013300D02*
X5398814Y-15003776D01*
X5551195Y-15184728D02*
X5560719Y-15194252D01*
X5560719Y-15194252D02*
X5551195Y-15203776D01*
X5551195Y-15203776D02*
X5541671Y-15194252D01*
X5541671Y-15194252D02*
X5551195Y-15184728D01*
X5551195Y-15184728D02*
X5551195Y-15203776D01*
X5741671Y-15003776D02*
X5646433Y-15003776D01*
X5646433Y-15003776D02*
X5636909Y-15099014D01*
X5636909Y-15099014D02*
X5646433Y-15089490D01*
X5646433Y-15089490D02*
X5665481Y-15079967D01*
X5665481Y-15079967D02*
X5713100Y-15079967D01*
X5713100Y-15079967D02*
X5732148Y-15089490D01*
X5732148Y-15089490D02*
X5741671Y-15099014D01*
X5741671Y-15099014D02*
X5751195Y-15118062D01*
X5751195Y-15118062D02*
X5751195Y-15165681D01*
X5751195Y-15165681D02*
X5741671Y-15184728D01*
X5741671Y-15184728D02*
X5732148Y-15194252D01*
X5732148Y-15194252D02*
X5713100Y-15203776D01*
X5713100Y-15203776D02*
X5665481Y-15203776D01*
X5665481Y-15203776D02*
X5646433Y-15194252D01*
X5646433Y-15194252D02*
X5636909Y-15184728D01*
X5932148Y-15003776D02*
X5836909Y-15003776D01*
X5836909Y-15003776D02*
X5827386Y-15099014D01*
X5827386Y-15099014D02*
X5836909Y-15089490D01*
X5836909Y-15089490D02*
X5855957Y-15079967D01*
X5855957Y-15079967D02*
X5903576Y-15079967D01*
X5903576Y-15079967D02*
X5922624Y-15089490D01*
X5922624Y-15089490D02*
X5932148Y-15099014D01*
X5932148Y-15099014D02*
X5941671Y-15118062D01*
X5941671Y-15118062D02*
X5941671Y-15165681D01*
X5941671Y-15165681D02*
X5932148Y-15184728D01*
X5932148Y-15184728D02*
X5922624Y-15194252D01*
X5922624Y-15194252D02*
X5903576Y-15203776D01*
X5903576Y-15203776D02*
X5855957Y-15203776D01*
X5855957Y-15203776D02*
X5836909Y-15194252D01*
X5836909Y-15194252D02*
X5827386Y-15184728D01*
X6065481Y-15003776D02*
X6084529Y-15003776D01*
X6084529Y-15003776D02*
X6103576Y-15013300D01*
X6103576Y-15013300D02*
X6113100Y-15022824D01*
X6113100Y-15022824D02*
X6122624Y-15041871D01*
X6122624Y-15041871D02*
X6132148Y-15079967D01*
X6132148Y-15079967D02*
X6132148Y-15127586D01*
X6132148Y-15127586D02*
X6122624Y-15165681D01*
X6122624Y-15165681D02*
X6113100Y-15184728D01*
X6113100Y-15184728D02*
X6103576Y-15194252D01*
X6103576Y-15194252D02*
X6084529Y-15203776D01*
X6084529Y-15203776D02*
X6065481Y-15203776D01*
X6065481Y-15203776D02*
X6046433Y-15194252D01*
X6046433Y-15194252D02*
X6036909Y-15184728D01*
X6036909Y-15184728D02*
X6027386Y-15165681D01*
X6027386Y-15165681D02*
X6017862Y-15127586D01*
X6017862Y-15127586D02*
X6017862Y-15079967D01*
X6017862Y-15079967D02*
X6027386Y-15041871D01*
X6027386Y-15041871D02*
X6036909Y-15022824D01*
X6036909Y-15022824D02*
X6046433Y-15013300D01*
X6046433Y-15013300D02*
X6065481Y-15003776D01*
X6217862Y-15203776D02*
X6217862Y-15070443D01*
X6217862Y-15089490D02*
X6227386Y-15079967D01*
X6227386Y-15079967D02*
X6246433Y-15070443D01*
X6246433Y-15070443D02*
X6275005Y-15070443D01*
X6275005Y-15070443D02*
X6294052Y-15079967D01*
X6294052Y-15079967D02*
X6303576Y-15099014D01*
X6303576Y-15099014D02*
X6303576Y-15203776D01*
X6303576Y-15099014D02*
X6313100Y-15079967D01*
X6313100Y-15079967D02*
X6332148Y-15070443D01*
X6332148Y-15070443D02*
X6360719Y-15070443D01*
X6360719Y-15070443D02*
X6379767Y-15079967D01*
X6379767Y-15079967D02*
X6389290Y-15099014D01*
X6389290Y-15099014D02*
X6389290Y-15203776D01*
X6484529Y-15203776D02*
X6484529Y-15070443D01*
X6484529Y-15089490D02*
X6494052Y-15079967D01*
X6494052Y-15079967D02*
X6513100Y-15070443D01*
X6513100Y-15070443D02*
X6541671Y-15070443D01*
X6541671Y-15070443D02*
X6560719Y-15079967D01*
X6560719Y-15079967D02*
X6570243Y-15099014D01*
X6570243Y-15099014D02*
X6570243Y-15203776D01*
X6570243Y-15099014D02*
X6579767Y-15079967D01*
X6579767Y-15079967D02*
X6598814Y-15070443D01*
X6598814Y-15070443D02*
X6627386Y-15070443D01*
X6627386Y-15070443D02*
X6646433Y-15079967D01*
X6646433Y-15079967D02*
X6655957Y-15099014D01*
X6655957Y-15099014D02*
X6655957Y-15203776D01*
X7014052Y-14994252D02*
X6842624Y-15251395D01*
X7238814Y-15003776D02*
X7257862Y-15003776D01*
X7257862Y-15003776D02*
X7276910Y-15013300D01*
X7276910Y-15013300D02*
X7286433Y-15022824D01*
X7286433Y-15022824D02*
X7295957Y-15041871D01*
X7295957Y-15041871D02*
X7305481Y-15079967D01*
X7305481Y-15079967D02*
X7305481Y-15127586D01*
X7305481Y-15127586D02*
X7295957Y-15165681D01*
X7295957Y-15165681D02*
X7286433Y-15184728D01*
X7286433Y-15184728D02*
X7276910Y-15194252D01*
X7276910Y-15194252D02*
X7257862Y-15203776D01*
X7257862Y-15203776D02*
X7238814Y-15203776D01*
X7238814Y-15203776D02*
X7219767Y-15194252D01*
X7219767Y-15194252D02*
X7210243Y-15184728D01*
X7210243Y-15184728D02*
X7200719Y-15165681D01*
X7200719Y-15165681D02*
X7191195Y-15127586D01*
X7191195Y-15127586D02*
X7191195Y-15079967D01*
X7191195Y-15079967D02*
X7200719Y-15041871D01*
X7200719Y-15041871D02*
X7210243Y-15022824D01*
X7210243Y-15022824D02*
X7219767Y-15013300D01*
X7219767Y-15013300D02*
X7238814Y-15003776D01*
X7391195Y-15184728D02*
X7400719Y-15194252D01*
X7400719Y-15194252D02*
X7391195Y-15203776D01*
X7391195Y-15203776D02*
X7381671Y-15194252D01*
X7381671Y-15194252D02*
X7391195Y-15184728D01*
X7391195Y-15184728D02*
X7391195Y-15203776D01*
X7524529Y-15003776D02*
X7543576Y-15003776D01*
X7543576Y-15003776D02*
X7562624Y-15013300D01*
X7562624Y-15013300D02*
X7572148Y-15022824D01*
X7572148Y-15022824D02*
X7581671Y-15041871D01*
X7581671Y-15041871D02*
X7591195Y-15079967D01*
X7591195Y-15079967D02*
X7591195Y-15127586D01*
X7591195Y-15127586D02*
X7581671Y-15165681D01*
X7581671Y-15165681D02*
X7572148Y-15184728D01*
X7572148Y-15184728D02*
X7562624Y-15194252D01*
X7562624Y-15194252D02*
X7543576Y-15203776D01*
X7543576Y-15203776D02*
X7524529Y-15203776D01*
X7524529Y-15203776D02*
X7505481Y-15194252D01*
X7505481Y-15194252D02*
X7495957Y-15184728D01*
X7495957Y-15184728D02*
X7486433Y-15165681D01*
X7486433Y-15165681D02*
X7476910Y-15127586D01*
X7476910Y-15127586D02*
X7476910Y-15079967D01*
X7476910Y-15079967D02*
X7486433Y-15041871D01*
X7486433Y-15041871D02*
X7495957Y-15022824D01*
X7495957Y-15022824D02*
X7505481Y-15013300D01*
X7505481Y-15013300D02*
X7524529Y-15003776D01*
X7667386Y-15022824D02*
X7676910Y-15013300D01*
X7676910Y-15013300D02*
X7695957Y-15003776D01*
X7695957Y-15003776D02*
X7743576Y-15003776D01*
X7743576Y-15003776D02*
X7762624Y-15013300D01*
X7762624Y-15013300D02*
X7772148Y-15022824D01*
X7772148Y-15022824D02*
X7781671Y-15041871D01*
X7781671Y-15041871D02*
X7781671Y-15060919D01*
X7781671Y-15060919D02*
X7772148Y-15089490D01*
X7772148Y-15089490D02*
X7657862Y-15203776D01*
X7657862Y-15203776D02*
X7781671Y-15203776D01*
X7972148Y-15203776D02*
X7857862Y-15203776D01*
X7915005Y-15203776D02*
X7915005Y-15003776D01*
X7915005Y-15003776D02*
X7895957Y-15032348D01*
X7895957Y-15032348D02*
X7876910Y-15051395D01*
X7876910Y-15051395D02*
X7857862Y-15060919D01*
X8038814Y-15003776D02*
X8172148Y-15003776D01*
X8172148Y-15003776D02*
X8086433Y-15203776D01*
X8238814Y-15003776D02*
X8238814Y-15041871D01*
X8315005Y-15003776D02*
X8315005Y-15041871D01*
X8577862Y-15279967D02*
X8568338Y-15270443D01*
X8568338Y-15270443D02*
X8549291Y-15241871D01*
X8549291Y-15241871D02*
X8539767Y-15222824D01*
X8539767Y-15222824D02*
X8530243Y-15194252D01*
X8530243Y-15194252D02*
X8520719Y-15146633D01*
X8520719Y-15146633D02*
X8520719Y-15108538D01*
X8520719Y-15108538D02*
X8530243Y-15060919D01*
X8530243Y-15060919D02*
X8539767Y-15032348D01*
X8539767Y-15032348D02*
X8549291Y-15013300D01*
X8549291Y-15013300D02*
X8568338Y-14984728D01*
X8568338Y-14984728D02*
X8577862Y-14975205D01*
X8692148Y-15003776D02*
X8711195Y-15003776D01*
X8711195Y-15003776D02*
X8730243Y-15013300D01*
X8730243Y-15013300D02*
X8739767Y-15022824D01*
X8739767Y-15022824D02*
X8749291Y-15041871D01*
X8749291Y-15041871D02*
X8758814Y-15079967D01*
X8758814Y-15079967D02*
X8758814Y-15127586D01*
X8758814Y-15127586D02*
X8749291Y-15165681D01*
X8749291Y-15165681D02*
X8739767Y-15184728D01*
X8739767Y-15184728D02*
X8730243Y-15194252D01*
X8730243Y-15194252D02*
X8711195Y-15203776D01*
X8711195Y-15203776D02*
X8692148Y-15203776D01*
X8692148Y-15203776D02*
X8673100Y-15194252D01*
X8673100Y-15194252D02*
X8663576Y-15184728D01*
X8663576Y-15184728D02*
X8654053Y-15165681D01*
X8654053Y-15165681D02*
X8644529Y-15127586D01*
X8644529Y-15127586D02*
X8644529Y-15079967D01*
X8644529Y-15079967D02*
X8654053Y-15041871D01*
X8654053Y-15041871D02*
X8663576Y-15022824D01*
X8663576Y-15022824D02*
X8673100Y-15013300D01*
X8673100Y-15013300D02*
X8692148Y-15003776D01*
X8964529Y-15203776D02*
X8964529Y-15003776D01*
X9050243Y-15203776D02*
X9050243Y-15099014D01*
X9050243Y-15099014D02*
X9040719Y-15079967D01*
X9040719Y-15079967D02*
X9021672Y-15070443D01*
X9021672Y-15070443D02*
X8993100Y-15070443D01*
X8993100Y-15070443D02*
X8974053Y-15079967D01*
X8974053Y-15079967D02*
X8964529Y-15089490D01*
X9174053Y-15203776D02*
X9155005Y-15194252D01*
X9155005Y-15194252D02*
X9145481Y-15184728D01*
X9145481Y-15184728D02*
X9135957Y-15165681D01*
X9135957Y-15165681D02*
X9135957Y-15108538D01*
X9135957Y-15108538D02*
X9145481Y-15089490D01*
X9145481Y-15089490D02*
X9155005Y-15079967D01*
X9155005Y-15079967D02*
X9174053Y-15070443D01*
X9174053Y-15070443D02*
X9202624Y-15070443D01*
X9202624Y-15070443D02*
X9221672Y-15079967D01*
X9221672Y-15079967D02*
X9231195Y-15089490D01*
X9231195Y-15089490D02*
X9240719Y-15108538D01*
X9240719Y-15108538D02*
X9240719Y-15165681D01*
X9240719Y-15165681D02*
X9231195Y-15184728D01*
X9231195Y-15184728D02*
X9221672Y-15194252D01*
X9221672Y-15194252D02*
X9202624Y-15203776D01*
X9202624Y-15203776D02*
X9174053Y-15203776D01*
X9355005Y-15203776D02*
X9335957Y-15194252D01*
X9335957Y-15194252D02*
X9326434Y-15175205D01*
X9326434Y-15175205D02*
X9326434Y-15003776D01*
X9507386Y-15194252D02*
X9488338Y-15203776D01*
X9488338Y-15203776D02*
X9450243Y-15203776D01*
X9450243Y-15203776D02*
X9431195Y-15194252D01*
X9431195Y-15194252D02*
X9421672Y-15175205D01*
X9421672Y-15175205D02*
X9421672Y-15099014D01*
X9421672Y-15099014D02*
X9431195Y-15079967D01*
X9431195Y-15079967D02*
X9450243Y-15070443D01*
X9450243Y-15070443D02*
X9488338Y-15070443D01*
X9488338Y-15070443D02*
X9507386Y-15079967D01*
X9507386Y-15079967D02*
X9516910Y-15099014D01*
X9516910Y-15099014D02*
X9516910Y-15118062D01*
X9516910Y-15118062D02*
X9421672Y-15137109D01*
X9593100Y-15194252D02*
X9612148Y-15203776D01*
X9612148Y-15203776D02*
X9650243Y-15203776D01*
X9650243Y-15203776D02*
X9669291Y-15194252D01*
X9669291Y-15194252D02*
X9678815Y-15175205D01*
X9678815Y-15175205D02*
X9678815Y-15165681D01*
X9678815Y-15165681D02*
X9669291Y-15146633D01*
X9669291Y-15146633D02*
X9650243Y-15137109D01*
X9650243Y-15137109D02*
X9621672Y-15137109D01*
X9621672Y-15137109D02*
X9602624Y-15127586D01*
X9602624Y-15127586D02*
X9593100Y-15108538D01*
X9593100Y-15108538D02*
X9593100Y-15099014D01*
X9593100Y-15099014D02*
X9602624Y-15079967D01*
X9602624Y-15079967D02*
X9621672Y-15070443D01*
X9621672Y-15070443D02*
X9650243Y-15070443D01*
X9650243Y-15070443D02*
X9669291Y-15079967D01*
X9884529Y-15127586D02*
X10036910Y-15127586D01*
X9960719Y-15203776D02*
X9960719Y-15051395D01*
X10242624Y-15022824D02*
X10252148Y-15013300D01*
X10252148Y-15013300D02*
X10271195Y-15003776D01*
X10271195Y-15003776D02*
X10318815Y-15003776D01*
X10318815Y-15003776D02*
X10337862Y-15013300D01*
X10337862Y-15013300D02*
X10347386Y-15022824D01*
X10347386Y-15022824D02*
X10356910Y-15041871D01*
X10356910Y-15041871D02*
X10356910Y-15060919D01*
X10356910Y-15060919D02*
X10347386Y-15089490D01*
X10347386Y-15089490D02*
X10233100Y-15203776D01*
X10233100Y-15203776D02*
X10356910Y-15203776D01*
X10553100Y-15194252D02*
X10572148Y-15203776D01*
X10572148Y-15203776D02*
X10610243Y-15203776D01*
X10610243Y-15203776D02*
X10629291Y-15194252D01*
X10629291Y-15194252D02*
X10638815Y-15175205D01*
X10638815Y-15175205D02*
X10638815Y-15165681D01*
X10638815Y-15165681D02*
X10629291Y-15146633D01*
X10629291Y-15146633D02*
X10610243Y-15137109D01*
X10610243Y-15137109D02*
X10581672Y-15137109D01*
X10581672Y-15137109D02*
X10562624Y-15127586D01*
X10562624Y-15127586D02*
X10553100Y-15108538D01*
X10553100Y-15108538D02*
X10553100Y-15099014D01*
X10553100Y-15099014D02*
X10562624Y-15079967D01*
X10562624Y-15079967D02*
X10581672Y-15070443D01*
X10581672Y-15070443D02*
X10610243Y-15070443D01*
X10610243Y-15070443D02*
X10629291Y-15079967D01*
X10753100Y-15203776D02*
X10734053Y-15194252D01*
X10734053Y-15194252D02*
X10724529Y-15175205D01*
X10724529Y-15175205D02*
X10724529Y-15003776D01*
X10857862Y-15203776D02*
X10838815Y-15194252D01*
X10838815Y-15194252D02*
X10829291Y-15184728D01*
X10829291Y-15184728D02*
X10819767Y-15165681D01*
X10819767Y-15165681D02*
X10819767Y-15108538D01*
X10819767Y-15108538D02*
X10829291Y-15089490D01*
X10829291Y-15089490D02*
X10838815Y-15079967D01*
X10838815Y-15079967D02*
X10857862Y-15070443D01*
X10857862Y-15070443D02*
X10886434Y-15070443D01*
X10886434Y-15070443D02*
X10905481Y-15079967D01*
X10905481Y-15079967D02*
X10915005Y-15089490D01*
X10915005Y-15089490D02*
X10924529Y-15108538D01*
X10924529Y-15108538D02*
X10924529Y-15165681D01*
X10924529Y-15165681D02*
X10915005Y-15184728D01*
X10915005Y-15184728D02*
X10905481Y-15194252D01*
X10905481Y-15194252D02*
X10886434Y-15203776D01*
X10886434Y-15203776D02*
X10857862Y-15203776D01*
X10981672Y-15070443D02*
X11057862Y-15070443D01*
X11010243Y-15003776D02*
X11010243Y-15175205D01*
X11010243Y-15175205D02*
X11019767Y-15194252D01*
X11019767Y-15194252D02*
X11038815Y-15203776D01*
X11038815Y-15203776D02*
X11057862Y-15203776D01*
X11115005Y-15194252D02*
X11134053Y-15203776D01*
X11134053Y-15203776D02*
X11172148Y-15203776D01*
X11172148Y-15203776D02*
X11191195Y-15194252D01*
X11191195Y-15194252D02*
X11200719Y-15175205D01*
X11200719Y-15175205D02*
X11200719Y-15165681D01*
X11200719Y-15165681D02*
X11191195Y-15146633D01*
X11191195Y-15146633D02*
X11172148Y-15137109D01*
X11172148Y-15137109D02*
X11143576Y-15137109D01*
X11143576Y-15137109D02*
X11124529Y-15127586D01*
X11124529Y-15127586D02*
X11115005Y-15108538D01*
X11115005Y-15108538D02*
X11115005Y-15099014D01*
X11115005Y-15099014D02*
X11124529Y-15079967D01*
X11124529Y-15079967D02*
X11143576Y-15070443D01*
X11143576Y-15070443D02*
X11172148Y-15070443D01*
X11172148Y-15070443D02*
X11191195Y-15079967D01*
X11267386Y-15279967D02*
X11276910Y-15270443D01*
X11276910Y-15270443D02*
X11295957Y-15241871D01*
X11295957Y-15241871D02*
X11305481Y-15222824D01*
X11305481Y-15222824D02*
X11315005Y-15194252D01*
X11315005Y-15194252D02*
X11324529Y-15146633D01*
X11324529Y-15146633D02*
X11324529Y-15108538D01*
X11324529Y-15108538D02*
X11315005Y-15060919D01*
X11315005Y-15060919D02*
X11305481Y-15032348D01*
X11305481Y-15032348D02*
X11295957Y-15013300D01*
X11295957Y-15013300D02*
X11276910Y-14984728D01*
X11276910Y-14984728D02*
X11267386Y-14975205D01*
D15*
X5101385Y-15422584D02*
X5101385Y-15366015D01*
X5044816Y-15366015D01*
X5044816Y-15422584D01*
X5101385Y-15422584D01*
D11*
X5398814Y-15267776D02*
X5417862Y-15267776D01*
X5417862Y-15267776D02*
X5436910Y-15277300D01*
X5436910Y-15277300D02*
X5446433Y-15286824D01*
X5446433Y-15286824D02*
X5455957Y-15305871D01*
X5455957Y-15305871D02*
X5465481Y-15343967D01*
X5465481Y-15343967D02*
X5465481Y-15391586D01*
X5465481Y-15391586D02*
X5455957Y-15429681D01*
X5455957Y-15429681D02*
X5446433Y-15448728D01*
X5446433Y-15448728D02*
X5436910Y-15458252D01*
X5436910Y-15458252D02*
X5417862Y-15467776D01*
X5417862Y-15467776D02*
X5398814Y-15467776D01*
X5398814Y-15467776D02*
X5379767Y-15458252D01*
X5379767Y-15458252D02*
X5370243Y-15448728D01*
X5370243Y-15448728D02*
X5360719Y-15429681D01*
X5360719Y-15429681D02*
X5351195Y-15391586D01*
X5351195Y-15391586D02*
X5351195Y-15343967D01*
X5351195Y-15343967D02*
X5360719Y-15305871D01*
X5360719Y-15305871D02*
X5370243Y-15286824D01*
X5370243Y-15286824D02*
X5379767Y-15277300D01*
X5379767Y-15277300D02*
X5398814Y-15267776D01*
X5551195Y-15448728D02*
X5560719Y-15458252D01*
X5560719Y-15458252D02*
X5551195Y-15467776D01*
X5551195Y-15467776D02*
X5541671Y-15458252D01*
X5541671Y-15458252D02*
X5551195Y-15448728D01*
X5551195Y-15448728D02*
X5551195Y-15467776D01*
X5675005Y-15353490D02*
X5655957Y-15343967D01*
X5655957Y-15343967D02*
X5646433Y-15334443D01*
X5646433Y-15334443D02*
X5636909Y-15315395D01*
X5636909Y-15315395D02*
X5636909Y-15305871D01*
X5636909Y-15305871D02*
X5646433Y-15286824D01*
X5646433Y-15286824D02*
X5655957Y-15277300D01*
X5655957Y-15277300D02*
X5675005Y-15267776D01*
X5675005Y-15267776D02*
X5713100Y-15267776D01*
X5713100Y-15267776D02*
X5732148Y-15277300D01*
X5732148Y-15277300D02*
X5741671Y-15286824D01*
X5741671Y-15286824D02*
X5751195Y-15305871D01*
X5751195Y-15305871D02*
X5751195Y-15315395D01*
X5751195Y-15315395D02*
X5741671Y-15334443D01*
X5741671Y-15334443D02*
X5732148Y-15343967D01*
X5732148Y-15343967D02*
X5713100Y-15353490D01*
X5713100Y-15353490D02*
X5675005Y-15353490D01*
X5675005Y-15353490D02*
X5655957Y-15363014D01*
X5655957Y-15363014D02*
X5646433Y-15372538D01*
X5646433Y-15372538D02*
X5636909Y-15391586D01*
X5636909Y-15391586D02*
X5636909Y-15429681D01*
X5636909Y-15429681D02*
X5646433Y-15448728D01*
X5646433Y-15448728D02*
X5655957Y-15458252D01*
X5655957Y-15458252D02*
X5675005Y-15467776D01*
X5675005Y-15467776D02*
X5713100Y-15467776D01*
X5713100Y-15467776D02*
X5732148Y-15458252D01*
X5732148Y-15458252D02*
X5741671Y-15448728D01*
X5741671Y-15448728D02*
X5751195Y-15429681D01*
X5751195Y-15429681D02*
X5751195Y-15391586D01*
X5751195Y-15391586D02*
X5741671Y-15372538D01*
X5741671Y-15372538D02*
X5732148Y-15363014D01*
X5732148Y-15363014D02*
X5713100Y-15353490D01*
X5875005Y-15267776D02*
X5894052Y-15267776D01*
X5894052Y-15267776D02*
X5913100Y-15277300D01*
X5913100Y-15277300D02*
X5922624Y-15286824D01*
X5922624Y-15286824D02*
X5932148Y-15305871D01*
X5932148Y-15305871D02*
X5941671Y-15343967D01*
X5941671Y-15343967D02*
X5941671Y-15391586D01*
X5941671Y-15391586D02*
X5932148Y-15429681D01*
X5932148Y-15429681D02*
X5922624Y-15448728D01*
X5922624Y-15448728D02*
X5913100Y-15458252D01*
X5913100Y-15458252D02*
X5894052Y-15467776D01*
X5894052Y-15467776D02*
X5875005Y-15467776D01*
X5875005Y-15467776D02*
X5855957Y-15458252D01*
X5855957Y-15458252D02*
X5846433Y-15448728D01*
X5846433Y-15448728D02*
X5836909Y-15429681D01*
X5836909Y-15429681D02*
X5827386Y-15391586D01*
X5827386Y-15391586D02*
X5827386Y-15343967D01*
X5827386Y-15343967D02*
X5836909Y-15305871D01*
X5836909Y-15305871D02*
X5846433Y-15286824D01*
X5846433Y-15286824D02*
X5855957Y-15277300D01*
X5855957Y-15277300D02*
X5875005Y-15267776D01*
X6065481Y-15267776D02*
X6084529Y-15267776D01*
X6084529Y-15267776D02*
X6103576Y-15277300D01*
X6103576Y-15277300D02*
X6113100Y-15286824D01*
X6113100Y-15286824D02*
X6122624Y-15305871D01*
X6122624Y-15305871D02*
X6132148Y-15343967D01*
X6132148Y-15343967D02*
X6132148Y-15391586D01*
X6132148Y-15391586D02*
X6122624Y-15429681D01*
X6122624Y-15429681D02*
X6113100Y-15448728D01*
X6113100Y-15448728D02*
X6103576Y-15458252D01*
X6103576Y-15458252D02*
X6084529Y-15467776D01*
X6084529Y-15467776D02*
X6065481Y-15467776D01*
X6065481Y-15467776D02*
X6046433Y-15458252D01*
X6046433Y-15458252D02*
X6036909Y-15448728D01*
X6036909Y-15448728D02*
X6027386Y-15429681D01*
X6027386Y-15429681D02*
X6017862Y-15391586D01*
X6017862Y-15391586D02*
X6017862Y-15343967D01*
X6017862Y-15343967D02*
X6027386Y-15305871D01*
X6027386Y-15305871D02*
X6036909Y-15286824D01*
X6036909Y-15286824D02*
X6046433Y-15277300D01*
X6046433Y-15277300D02*
X6065481Y-15267776D01*
X6217862Y-15467776D02*
X6217862Y-15334443D01*
X6217862Y-15353490D02*
X6227386Y-15343967D01*
X6227386Y-15343967D02*
X6246433Y-15334443D01*
X6246433Y-15334443D02*
X6275005Y-15334443D01*
X6275005Y-15334443D02*
X6294052Y-15343967D01*
X6294052Y-15343967D02*
X6303576Y-15363014D01*
X6303576Y-15363014D02*
X6303576Y-15467776D01*
X6303576Y-15363014D02*
X6313100Y-15343967D01*
X6313100Y-15343967D02*
X6332148Y-15334443D01*
X6332148Y-15334443D02*
X6360719Y-15334443D01*
X6360719Y-15334443D02*
X6379767Y-15343967D01*
X6379767Y-15343967D02*
X6389290Y-15363014D01*
X6389290Y-15363014D02*
X6389290Y-15467776D01*
X6484529Y-15467776D02*
X6484529Y-15334443D01*
X6484529Y-15353490D02*
X6494052Y-15343967D01*
X6494052Y-15343967D02*
X6513100Y-15334443D01*
X6513100Y-15334443D02*
X6541671Y-15334443D01*
X6541671Y-15334443D02*
X6560719Y-15343967D01*
X6560719Y-15343967D02*
X6570243Y-15363014D01*
X6570243Y-15363014D02*
X6570243Y-15467776D01*
X6570243Y-15363014D02*
X6579767Y-15343967D01*
X6579767Y-15343967D02*
X6598814Y-15334443D01*
X6598814Y-15334443D02*
X6627386Y-15334443D01*
X6627386Y-15334443D02*
X6646433Y-15343967D01*
X6646433Y-15343967D02*
X6655957Y-15363014D01*
X6655957Y-15363014D02*
X6655957Y-15467776D01*
X7014052Y-15258252D02*
X6842624Y-15515395D01*
X7238814Y-15267776D02*
X7257862Y-15267776D01*
X7257862Y-15267776D02*
X7276910Y-15277300D01*
X7276910Y-15277300D02*
X7286433Y-15286824D01*
X7286433Y-15286824D02*
X7295957Y-15305871D01*
X7295957Y-15305871D02*
X7305481Y-15343967D01*
X7305481Y-15343967D02*
X7305481Y-15391586D01*
X7305481Y-15391586D02*
X7295957Y-15429681D01*
X7295957Y-15429681D02*
X7286433Y-15448728D01*
X7286433Y-15448728D02*
X7276910Y-15458252D01*
X7276910Y-15458252D02*
X7257862Y-15467776D01*
X7257862Y-15467776D02*
X7238814Y-15467776D01*
X7238814Y-15467776D02*
X7219767Y-15458252D01*
X7219767Y-15458252D02*
X7210243Y-15448728D01*
X7210243Y-15448728D02*
X7200719Y-15429681D01*
X7200719Y-15429681D02*
X7191195Y-15391586D01*
X7191195Y-15391586D02*
X7191195Y-15343967D01*
X7191195Y-15343967D02*
X7200719Y-15305871D01*
X7200719Y-15305871D02*
X7210243Y-15286824D01*
X7210243Y-15286824D02*
X7219767Y-15277300D01*
X7219767Y-15277300D02*
X7238814Y-15267776D01*
X7391195Y-15448728D02*
X7400719Y-15458252D01*
X7400719Y-15458252D02*
X7391195Y-15467776D01*
X7391195Y-15467776D02*
X7381671Y-15458252D01*
X7381671Y-15458252D02*
X7391195Y-15448728D01*
X7391195Y-15448728D02*
X7391195Y-15467776D01*
X7524529Y-15267776D02*
X7543576Y-15267776D01*
X7543576Y-15267776D02*
X7562624Y-15277300D01*
X7562624Y-15277300D02*
X7572148Y-15286824D01*
X7572148Y-15286824D02*
X7581671Y-15305871D01*
X7581671Y-15305871D02*
X7591195Y-15343967D01*
X7591195Y-15343967D02*
X7591195Y-15391586D01*
X7591195Y-15391586D02*
X7581671Y-15429681D01*
X7581671Y-15429681D02*
X7572148Y-15448728D01*
X7572148Y-15448728D02*
X7562624Y-15458252D01*
X7562624Y-15458252D02*
X7543576Y-15467776D01*
X7543576Y-15467776D02*
X7524529Y-15467776D01*
X7524529Y-15467776D02*
X7505481Y-15458252D01*
X7505481Y-15458252D02*
X7495957Y-15448728D01*
X7495957Y-15448728D02*
X7486433Y-15429681D01*
X7486433Y-15429681D02*
X7476910Y-15391586D01*
X7476910Y-15391586D02*
X7476910Y-15343967D01*
X7476910Y-15343967D02*
X7486433Y-15305871D01*
X7486433Y-15305871D02*
X7495957Y-15286824D01*
X7495957Y-15286824D02*
X7505481Y-15277300D01*
X7505481Y-15277300D02*
X7524529Y-15267776D01*
X7657862Y-15267776D02*
X7781671Y-15267776D01*
X7781671Y-15267776D02*
X7715005Y-15343967D01*
X7715005Y-15343967D02*
X7743576Y-15343967D01*
X7743576Y-15343967D02*
X7762624Y-15353490D01*
X7762624Y-15353490D02*
X7772148Y-15363014D01*
X7772148Y-15363014D02*
X7781671Y-15382062D01*
X7781671Y-15382062D02*
X7781671Y-15429681D01*
X7781671Y-15429681D02*
X7772148Y-15448728D01*
X7772148Y-15448728D02*
X7762624Y-15458252D01*
X7762624Y-15458252D02*
X7743576Y-15467776D01*
X7743576Y-15467776D02*
X7686433Y-15467776D01*
X7686433Y-15467776D02*
X7667386Y-15458252D01*
X7667386Y-15458252D02*
X7657862Y-15448728D01*
X7972148Y-15467776D02*
X7857862Y-15467776D01*
X7915005Y-15467776D02*
X7915005Y-15267776D01*
X7915005Y-15267776D02*
X7895957Y-15296348D01*
X7895957Y-15296348D02*
X7876910Y-15315395D01*
X7876910Y-15315395D02*
X7857862Y-15324919D01*
X8153100Y-15267776D02*
X8057862Y-15267776D01*
X8057862Y-15267776D02*
X8048338Y-15363014D01*
X8048338Y-15363014D02*
X8057862Y-15353490D01*
X8057862Y-15353490D02*
X8076910Y-15343967D01*
X8076910Y-15343967D02*
X8124529Y-15343967D01*
X8124529Y-15343967D02*
X8143576Y-15353490D01*
X8143576Y-15353490D02*
X8153100Y-15363014D01*
X8153100Y-15363014D02*
X8162624Y-15382062D01*
X8162624Y-15382062D02*
X8162624Y-15429681D01*
X8162624Y-15429681D02*
X8153100Y-15448728D01*
X8153100Y-15448728D02*
X8143576Y-15458252D01*
X8143576Y-15458252D02*
X8124529Y-15467776D01*
X8124529Y-15467776D02*
X8076910Y-15467776D01*
X8076910Y-15467776D02*
X8057862Y-15458252D01*
X8057862Y-15458252D02*
X8048338Y-15448728D01*
X8238814Y-15267776D02*
X8238814Y-15305871D01*
X8315005Y-15267776D02*
X8315005Y-15305871D01*
X8577862Y-15543967D02*
X8568338Y-15534443D01*
X8568338Y-15534443D02*
X8549291Y-15505871D01*
X8549291Y-15505871D02*
X8539767Y-15486824D01*
X8539767Y-15486824D02*
X8530243Y-15458252D01*
X8530243Y-15458252D02*
X8520719Y-15410633D01*
X8520719Y-15410633D02*
X8520719Y-15372538D01*
X8520719Y-15372538D02*
X8530243Y-15324919D01*
X8530243Y-15324919D02*
X8539767Y-15296348D01*
X8539767Y-15296348D02*
X8549291Y-15277300D01*
X8549291Y-15277300D02*
X8568338Y-15248728D01*
X8568338Y-15248728D02*
X8577862Y-15239205D01*
X8758814Y-15467776D02*
X8644529Y-15467776D01*
X8701672Y-15467776D02*
X8701672Y-15267776D01*
X8701672Y-15267776D02*
X8682624Y-15296348D01*
X8682624Y-15296348D02*
X8663576Y-15315395D01*
X8663576Y-15315395D02*
X8644529Y-15324919D01*
X8882624Y-15267776D02*
X8901672Y-15267776D01*
X8901672Y-15267776D02*
X8920719Y-15277300D01*
X8920719Y-15277300D02*
X8930243Y-15286824D01*
X8930243Y-15286824D02*
X8939767Y-15305871D01*
X8939767Y-15305871D02*
X8949291Y-15343967D01*
X8949291Y-15343967D02*
X8949291Y-15391586D01*
X8949291Y-15391586D02*
X8939767Y-15429681D01*
X8939767Y-15429681D02*
X8930243Y-15448728D01*
X8930243Y-15448728D02*
X8920719Y-15458252D01*
X8920719Y-15458252D02*
X8901672Y-15467776D01*
X8901672Y-15467776D02*
X8882624Y-15467776D01*
X8882624Y-15467776D02*
X8863576Y-15458252D01*
X8863576Y-15458252D02*
X8854053Y-15448728D01*
X8854053Y-15448728D02*
X8844529Y-15429681D01*
X8844529Y-15429681D02*
X8835005Y-15391586D01*
X8835005Y-15391586D02*
X8835005Y-15343967D01*
X8835005Y-15343967D02*
X8844529Y-15305871D01*
X8844529Y-15305871D02*
X8854053Y-15286824D01*
X8854053Y-15286824D02*
X8863576Y-15277300D01*
X8863576Y-15277300D02*
X8882624Y-15267776D01*
X9155005Y-15467776D02*
X9155005Y-15267776D01*
X9240719Y-15467776D02*
X9240719Y-15363014D01*
X9240719Y-15363014D02*
X9231195Y-15343967D01*
X9231195Y-15343967D02*
X9212148Y-15334443D01*
X9212148Y-15334443D02*
X9183576Y-15334443D01*
X9183576Y-15334443D02*
X9164529Y-15343967D01*
X9164529Y-15343967D02*
X9155005Y-15353490D01*
X9364529Y-15467776D02*
X9345481Y-15458252D01*
X9345481Y-15458252D02*
X9335957Y-15448728D01*
X9335957Y-15448728D02*
X9326434Y-15429681D01*
X9326434Y-15429681D02*
X9326434Y-15372538D01*
X9326434Y-15372538D02*
X9335957Y-15353490D01*
X9335957Y-15353490D02*
X9345481Y-15343967D01*
X9345481Y-15343967D02*
X9364529Y-15334443D01*
X9364529Y-15334443D02*
X9393100Y-15334443D01*
X9393100Y-15334443D02*
X9412148Y-15343967D01*
X9412148Y-15343967D02*
X9421672Y-15353490D01*
X9421672Y-15353490D02*
X9431195Y-15372538D01*
X9431195Y-15372538D02*
X9431195Y-15429681D01*
X9431195Y-15429681D02*
X9421672Y-15448728D01*
X9421672Y-15448728D02*
X9412148Y-15458252D01*
X9412148Y-15458252D02*
X9393100Y-15467776D01*
X9393100Y-15467776D02*
X9364529Y-15467776D01*
X9545481Y-15467776D02*
X9526434Y-15458252D01*
X9526434Y-15458252D02*
X9516910Y-15439205D01*
X9516910Y-15439205D02*
X9516910Y-15267776D01*
X9697862Y-15458252D02*
X9678815Y-15467776D01*
X9678815Y-15467776D02*
X9640719Y-15467776D01*
X9640719Y-15467776D02*
X9621672Y-15458252D01*
X9621672Y-15458252D02*
X9612148Y-15439205D01*
X9612148Y-15439205D02*
X9612148Y-15363014D01*
X9612148Y-15363014D02*
X9621672Y-15343967D01*
X9621672Y-15343967D02*
X9640719Y-15334443D01*
X9640719Y-15334443D02*
X9678815Y-15334443D01*
X9678815Y-15334443D02*
X9697862Y-15343967D01*
X9697862Y-15343967D02*
X9707386Y-15363014D01*
X9707386Y-15363014D02*
X9707386Y-15382062D01*
X9707386Y-15382062D02*
X9612148Y-15401109D01*
X9783576Y-15458252D02*
X9802624Y-15467776D01*
X9802624Y-15467776D02*
X9840719Y-15467776D01*
X9840719Y-15467776D02*
X9859767Y-15458252D01*
X9859767Y-15458252D02*
X9869291Y-15439205D01*
X9869291Y-15439205D02*
X9869291Y-15429681D01*
X9869291Y-15429681D02*
X9859767Y-15410633D01*
X9859767Y-15410633D02*
X9840719Y-15401109D01*
X9840719Y-15401109D02*
X9812148Y-15401109D01*
X9812148Y-15401109D02*
X9793100Y-15391586D01*
X9793100Y-15391586D02*
X9783576Y-15372538D01*
X9783576Y-15372538D02*
X9783576Y-15363014D01*
X9783576Y-15363014D02*
X9793100Y-15343967D01*
X9793100Y-15343967D02*
X9812148Y-15334443D01*
X9812148Y-15334443D02*
X9840719Y-15334443D01*
X9840719Y-15334443D02*
X9859767Y-15343967D01*
X9935957Y-15543967D02*
X9945481Y-15534443D01*
X9945481Y-15534443D02*
X9964529Y-15505871D01*
X9964529Y-15505871D02*
X9974053Y-15486824D01*
X9974053Y-15486824D02*
X9983576Y-15458252D01*
X9983576Y-15458252D02*
X9993100Y-15410633D01*
X9993100Y-15410633D02*
X9993100Y-15372538D01*
X9993100Y-15372538D02*
X9983576Y-15324919D01*
X9983576Y-15324919D02*
X9974053Y-15296348D01*
X9974053Y-15296348D02*
X9964529Y-15277300D01*
X9964529Y-15277300D02*
X9945481Y-15248728D01*
X9945481Y-15248728D02*
X9935957Y-15239205D01*
D10*
X5063100Y-15708300D02*
X5113100Y-15658300D01*
X5063100Y-15608300D01*
X5013100Y-15658300D01*
X5063100Y-15708300D01*
D11*
X5465481Y-15731776D02*
X5351195Y-15731776D01*
X5408338Y-15731776D02*
X5408338Y-15531776D01*
X5408338Y-15531776D02*
X5389290Y-15560348D01*
X5389290Y-15560348D02*
X5370243Y-15579395D01*
X5370243Y-15579395D02*
X5351195Y-15588919D01*
X5551195Y-15712728D02*
X5560719Y-15722252D01*
X5560719Y-15722252D02*
X5551195Y-15731776D01*
X5551195Y-15731776D02*
X5541671Y-15722252D01*
X5541671Y-15722252D02*
X5551195Y-15712728D01*
X5551195Y-15712728D02*
X5551195Y-15731776D01*
X5684528Y-15531776D02*
X5703576Y-15531776D01*
X5703576Y-15531776D02*
X5722624Y-15541300D01*
X5722624Y-15541300D02*
X5732148Y-15550824D01*
X5732148Y-15550824D02*
X5741671Y-15569871D01*
X5741671Y-15569871D02*
X5751195Y-15607967D01*
X5751195Y-15607967D02*
X5751195Y-15655586D01*
X5751195Y-15655586D02*
X5741671Y-15693681D01*
X5741671Y-15693681D02*
X5732148Y-15712728D01*
X5732148Y-15712728D02*
X5722624Y-15722252D01*
X5722624Y-15722252D02*
X5703576Y-15731776D01*
X5703576Y-15731776D02*
X5684528Y-15731776D01*
X5684528Y-15731776D02*
X5665481Y-15722252D01*
X5665481Y-15722252D02*
X5655957Y-15712728D01*
X5655957Y-15712728D02*
X5646433Y-15693681D01*
X5646433Y-15693681D02*
X5636909Y-15655586D01*
X5636909Y-15655586D02*
X5636909Y-15607967D01*
X5636909Y-15607967D02*
X5646433Y-15569871D01*
X5646433Y-15569871D02*
X5655957Y-15550824D01*
X5655957Y-15550824D02*
X5665481Y-15541300D01*
X5665481Y-15541300D02*
X5684528Y-15531776D01*
X5875005Y-15531776D02*
X5894052Y-15531776D01*
X5894052Y-15531776D02*
X5913100Y-15541300D01*
X5913100Y-15541300D02*
X5922624Y-15550824D01*
X5922624Y-15550824D02*
X5932148Y-15569871D01*
X5932148Y-15569871D02*
X5941671Y-15607967D01*
X5941671Y-15607967D02*
X5941671Y-15655586D01*
X5941671Y-15655586D02*
X5932148Y-15693681D01*
X5932148Y-15693681D02*
X5922624Y-15712728D01*
X5922624Y-15712728D02*
X5913100Y-15722252D01*
X5913100Y-15722252D02*
X5894052Y-15731776D01*
X5894052Y-15731776D02*
X5875005Y-15731776D01*
X5875005Y-15731776D02*
X5855957Y-15722252D01*
X5855957Y-15722252D02*
X5846433Y-15712728D01*
X5846433Y-15712728D02*
X5836909Y-15693681D01*
X5836909Y-15693681D02*
X5827386Y-15655586D01*
X5827386Y-15655586D02*
X5827386Y-15607967D01*
X5827386Y-15607967D02*
X5836909Y-15569871D01*
X5836909Y-15569871D02*
X5846433Y-15550824D01*
X5846433Y-15550824D02*
X5855957Y-15541300D01*
X5855957Y-15541300D02*
X5875005Y-15531776D01*
X6065481Y-15531776D02*
X6084529Y-15531776D01*
X6084529Y-15531776D02*
X6103576Y-15541300D01*
X6103576Y-15541300D02*
X6113100Y-15550824D01*
X6113100Y-15550824D02*
X6122624Y-15569871D01*
X6122624Y-15569871D02*
X6132148Y-15607967D01*
X6132148Y-15607967D02*
X6132148Y-15655586D01*
X6132148Y-15655586D02*
X6122624Y-15693681D01*
X6122624Y-15693681D02*
X6113100Y-15712728D01*
X6113100Y-15712728D02*
X6103576Y-15722252D01*
X6103576Y-15722252D02*
X6084529Y-15731776D01*
X6084529Y-15731776D02*
X6065481Y-15731776D01*
X6065481Y-15731776D02*
X6046433Y-15722252D01*
X6046433Y-15722252D02*
X6036909Y-15712728D01*
X6036909Y-15712728D02*
X6027386Y-15693681D01*
X6027386Y-15693681D02*
X6017862Y-15655586D01*
X6017862Y-15655586D02*
X6017862Y-15607967D01*
X6017862Y-15607967D02*
X6027386Y-15569871D01*
X6027386Y-15569871D02*
X6036909Y-15550824D01*
X6036909Y-15550824D02*
X6046433Y-15541300D01*
X6046433Y-15541300D02*
X6065481Y-15531776D01*
X6217862Y-15731776D02*
X6217862Y-15598443D01*
X6217862Y-15617490D02*
X6227386Y-15607967D01*
X6227386Y-15607967D02*
X6246433Y-15598443D01*
X6246433Y-15598443D02*
X6275005Y-15598443D01*
X6275005Y-15598443D02*
X6294052Y-15607967D01*
X6294052Y-15607967D02*
X6303576Y-15627014D01*
X6303576Y-15627014D02*
X6303576Y-15731776D01*
X6303576Y-15627014D02*
X6313100Y-15607967D01*
X6313100Y-15607967D02*
X6332148Y-15598443D01*
X6332148Y-15598443D02*
X6360719Y-15598443D01*
X6360719Y-15598443D02*
X6379767Y-15607967D01*
X6379767Y-15607967D02*
X6389290Y-15627014D01*
X6389290Y-15627014D02*
X6389290Y-15731776D01*
X6484529Y-15731776D02*
X6484529Y-15598443D01*
X6484529Y-15617490D02*
X6494052Y-15607967D01*
X6494052Y-15607967D02*
X6513100Y-15598443D01*
X6513100Y-15598443D02*
X6541671Y-15598443D01*
X6541671Y-15598443D02*
X6560719Y-15607967D01*
X6560719Y-15607967D02*
X6570243Y-15627014D01*
X6570243Y-15627014D02*
X6570243Y-15731776D01*
X6570243Y-15627014D02*
X6579767Y-15607967D01*
X6579767Y-15607967D02*
X6598814Y-15598443D01*
X6598814Y-15598443D02*
X6627386Y-15598443D01*
X6627386Y-15598443D02*
X6646433Y-15607967D01*
X6646433Y-15607967D02*
X6655957Y-15627014D01*
X6655957Y-15627014D02*
X6655957Y-15731776D01*
X7014052Y-15522252D02*
X6842624Y-15779395D01*
X7238814Y-15531776D02*
X7257862Y-15531776D01*
X7257862Y-15531776D02*
X7276910Y-15541300D01*
X7276910Y-15541300D02*
X7286433Y-15550824D01*
X7286433Y-15550824D02*
X7295957Y-15569871D01*
X7295957Y-15569871D02*
X7305481Y-15607967D01*
X7305481Y-15607967D02*
X7305481Y-15655586D01*
X7305481Y-15655586D02*
X7295957Y-15693681D01*
X7295957Y-15693681D02*
X7286433Y-15712728D01*
X7286433Y-15712728D02*
X7276910Y-15722252D01*
X7276910Y-15722252D02*
X7257862Y-15731776D01*
X7257862Y-15731776D02*
X7238814Y-15731776D01*
X7238814Y-15731776D02*
X7219767Y-15722252D01*
X7219767Y-15722252D02*
X7210243Y-15712728D01*
X7210243Y-15712728D02*
X7200719Y-15693681D01*
X7200719Y-15693681D02*
X7191195Y-15655586D01*
X7191195Y-15655586D02*
X7191195Y-15607967D01*
X7191195Y-15607967D02*
X7200719Y-15569871D01*
X7200719Y-15569871D02*
X7210243Y-15550824D01*
X7210243Y-15550824D02*
X7219767Y-15541300D01*
X7219767Y-15541300D02*
X7238814Y-15531776D01*
X7391195Y-15712728D02*
X7400719Y-15722252D01*
X7400719Y-15722252D02*
X7391195Y-15731776D01*
X7391195Y-15731776D02*
X7381671Y-15722252D01*
X7381671Y-15722252D02*
X7391195Y-15712728D01*
X7391195Y-15712728D02*
X7391195Y-15731776D01*
X7524529Y-15531776D02*
X7543576Y-15531776D01*
X7543576Y-15531776D02*
X7562624Y-15541300D01*
X7562624Y-15541300D02*
X7572148Y-15550824D01*
X7572148Y-15550824D02*
X7581671Y-15569871D01*
X7581671Y-15569871D02*
X7591195Y-15607967D01*
X7591195Y-15607967D02*
X7591195Y-15655586D01*
X7591195Y-15655586D02*
X7581671Y-15693681D01*
X7581671Y-15693681D02*
X7572148Y-15712728D01*
X7572148Y-15712728D02*
X7562624Y-15722252D01*
X7562624Y-15722252D02*
X7543576Y-15731776D01*
X7543576Y-15731776D02*
X7524529Y-15731776D01*
X7524529Y-15731776D02*
X7505481Y-15722252D01*
X7505481Y-15722252D02*
X7495957Y-15712728D01*
X7495957Y-15712728D02*
X7486433Y-15693681D01*
X7486433Y-15693681D02*
X7476910Y-15655586D01*
X7476910Y-15655586D02*
X7476910Y-15607967D01*
X7476910Y-15607967D02*
X7486433Y-15569871D01*
X7486433Y-15569871D02*
X7495957Y-15550824D01*
X7495957Y-15550824D02*
X7505481Y-15541300D01*
X7505481Y-15541300D02*
X7524529Y-15531776D01*
X7657862Y-15531776D02*
X7781671Y-15531776D01*
X7781671Y-15531776D02*
X7715005Y-15607967D01*
X7715005Y-15607967D02*
X7743576Y-15607967D01*
X7743576Y-15607967D02*
X7762624Y-15617490D01*
X7762624Y-15617490D02*
X7772148Y-15627014D01*
X7772148Y-15627014D02*
X7781671Y-15646062D01*
X7781671Y-15646062D02*
X7781671Y-15693681D01*
X7781671Y-15693681D02*
X7772148Y-15712728D01*
X7772148Y-15712728D02*
X7762624Y-15722252D01*
X7762624Y-15722252D02*
X7743576Y-15731776D01*
X7743576Y-15731776D02*
X7686433Y-15731776D01*
X7686433Y-15731776D02*
X7667386Y-15722252D01*
X7667386Y-15722252D02*
X7657862Y-15712728D01*
X7876910Y-15731776D02*
X7915005Y-15731776D01*
X7915005Y-15731776D02*
X7934052Y-15722252D01*
X7934052Y-15722252D02*
X7943576Y-15712728D01*
X7943576Y-15712728D02*
X7962624Y-15684157D01*
X7962624Y-15684157D02*
X7972148Y-15646062D01*
X7972148Y-15646062D02*
X7972148Y-15569871D01*
X7972148Y-15569871D02*
X7962624Y-15550824D01*
X7962624Y-15550824D02*
X7953100Y-15541300D01*
X7953100Y-15541300D02*
X7934052Y-15531776D01*
X7934052Y-15531776D02*
X7895957Y-15531776D01*
X7895957Y-15531776D02*
X7876910Y-15541300D01*
X7876910Y-15541300D02*
X7867386Y-15550824D01*
X7867386Y-15550824D02*
X7857862Y-15569871D01*
X7857862Y-15569871D02*
X7857862Y-15617490D01*
X7857862Y-15617490D02*
X7867386Y-15636538D01*
X7867386Y-15636538D02*
X7876910Y-15646062D01*
X7876910Y-15646062D02*
X7895957Y-15655586D01*
X7895957Y-15655586D02*
X7934052Y-15655586D01*
X7934052Y-15655586D02*
X7953100Y-15646062D01*
X7953100Y-15646062D02*
X7962624Y-15636538D01*
X7962624Y-15636538D02*
X7972148Y-15617490D01*
X8143576Y-15598443D02*
X8143576Y-15731776D01*
X8095957Y-15522252D02*
X8048338Y-15665109D01*
X8048338Y-15665109D02*
X8172148Y-15665109D01*
X8238814Y-15531776D02*
X8238814Y-15569871D01*
X8315005Y-15531776D02*
X8315005Y-15569871D01*
X8577862Y-15807967D02*
X8568338Y-15798443D01*
X8568338Y-15798443D02*
X8549291Y-15769871D01*
X8549291Y-15769871D02*
X8539767Y-15750824D01*
X8539767Y-15750824D02*
X8530243Y-15722252D01*
X8530243Y-15722252D02*
X8520719Y-15674633D01*
X8520719Y-15674633D02*
X8520719Y-15636538D01*
X8520719Y-15636538D02*
X8530243Y-15588919D01*
X8530243Y-15588919D02*
X8539767Y-15560348D01*
X8539767Y-15560348D02*
X8549291Y-15541300D01*
X8549291Y-15541300D02*
X8568338Y-15512728D01*
X8568338Y-15512728D02*
X8577862Y-15503205D01*
X8758814Y-15731776D02*
X8644529Y-15731776D01*
X8701672Y-15731776D02*
X8701672Y-15531776D01*
X8701672Y-15531776D02*
X8682624Y-15560348D01*
X8682624Y-15560348D02*
X8663576Y-15579395D01*
X8663576Y-15579395D02*
X8644529Y-15588919D01*
X8825481Y-15531776D02*
X8949291Y-15531776D01*
X8949291Y-15531776D02*
X8882624Y-15607967D01*
X8882624Y-15607967D02*
X8911195Y-15607967D01*
X8911195Y-15607967D02*
X8930243Y-15617490D01*
X8930243Y-15617490D02*
X8939767Y-15627014D01*
X8939767Y-15627014D02*
X8949291Y-15646062D01*
X8949291Y-15646062D02*
X8949291Y-15693681D01*
X8949291Y-15693681D02*
X8939767Y-15712728D01*
X8939767Y-15712728D02*
X8930243Y-15722252D01*
X8930243Y-15722252D02*
X8911195Y-15731776D01*
X8911195Y-15731776D02*
X8854053Y-15731776D01*
X8854053Y-15731776D02*
X8835005Y-15722252D01*
X8835005Y-15722252D02*
X8825481Y-15712728D01*
X9155005Y-15731776D02*
X9155005Y-15531776D01*
X9240719Y-15731776D02*
X9240719Y-15627014D01*
X9240719Y-15627014D02*
X9231195Y-15607967D01*
X9231195Y-15607967D02*
X9212148Y-15598443D01*
X9212148Y-15598443D02*
X9183576Y-15598443D01*
X9183576Y-15598443D02*
X9164529Y-15607967D01*
X9164529Y-15607967D02*
X9155005Y-15617490D01*
X9364529Y-15731776D02*
X9345481Y-15722252D01*
X9345481Y-15722252D02*
X9335957Y-15712728D01*
X9335957Y-15712728D02*
X9326434Y-15693681D01*
X9326434Y-15693681D02*
X9326434Y-15636538D01*
X9326434Y-15636538D02*
X9335957Y-15617490D01*
X9335957Y-15617490D02*
X9345481Y-15607967D01*
X9345481Y-15607967D02*
X9364529Y-15598443D01*
X9364529Y-15598443D02*
X9393100Y-15598443D01*
X9393100Y-15598443D02*
X9412148Y-15607967D01*
X9412148Y-15607967D02*
X9421672Y-15617490D01*
X9421672Y-15617490D02*
X9431195Y-15636538D01*
X9431195Y-15636538D02*
X9431195Y-15693681D01*
X9431195Y-15693681D02*
X9421672Y-15712728D01*
X9421672Y-15712728D02*
X9412148Y-15722252D01*
X9412148Y-15722252D02*
X9393100Y-15731776D01*
X9393100Y-15731776D02*
X9364529Y-15731776D01*
X9545481Y-15731776D02*
X9526434Y-15722252D01*
X9526434Y-15722252D02*
X9516910Y-15703205D01*
X9516910Y-15703205D02*
X9516910Y-15531776D01*
X9697862Y-15722252D02*
X9678815Y-15731776D01*
X9678815Y-15731776D02*
X9640719Y-15731776D01*
X9640719Y-15731776D02*
X9621672Y-15722252D01*
X9621672Y-15722252D02*
X9612148Y-15703205D01*
X9612148Y-15703205D02*
X9612148Y-15627014D01*
X9612148Y-15627014D02*
X9621672Y-15607967D01*
X9621672Y-15607967D02*
X9640719Y-15598443D01*
X9640719Y-15598443D02*
X9678815Y-15598443D01*
X9678815Y-15598443D02*
X9697862Y-15607967D01*
X9697862Y-15607967D02*
X9707386Y-15627014D01*
X9707386Y-15627014D02*
X9707386Y-15646062D01*
X9707386Y-15646062D02*
X9612148Y-15665109D01*
X9783576Y-15722252D02*
X9802624Y-15731776D01*
X9802624Y-15731776D02*
X9840719Y-15731776D01*
X9840719Y-15731776D02*
X9859767Y-15722252D01*
X9859767Y-15722252D02*
X9869291Y-15703205D01*
X9869291Y-15703205D02*
X9869291Y-15693681D01*
X9869291Y-15693681D02*
X9859767Y-15674633D01*
X9859767Y-15674633D02*
X9840719Y-15665109D01*
X9840719Y-15665109D02*
X9812148Y-15665109D01*
X9812148Y-15665109D02*
X9793100Y-15655586D01*
X9793100Y-15655586D02*
X9783576Y-15636538D01*
X9783576Y-15636538D02*
X9783576Y-15627014D01*
X9783576Y-15627014D02*
X9793100Y-15607967D01*
X9793100Y-15607967D02*
X9812148Y-15598443D01*
X9812148Y-15598443D02*
X9840719Y-15598443D01*
X9840719Y-15598443D02*
X9859767Y-15607967D01*
X9935957Y-15807967D02*
X9945481Y-15798443D01*
X9945481Y-15798443D02*
X9964529Y-15769871D01*
X9964529Y-15769871D02*
X9974053Y-15750824D01*
X9974053Y-15750824D02*
X9983576Y-15722252D01*
X9983576Y-15722252D02*
X9993100Y-15674633D01*
X9993100Y-15674633D02*
X9993100Y-15636538D01*
X9993100Y-15636538D02*
X9983576Y-15588919D01*
X9983576Y-15588919D02*
X9974053Y-15560348D01*
X9974053Y-15560348D02*
X9964529Y-15541300D01*
X9964529Y-15541300D02*
X9945481Y-15512728D01*
X9945481Y-15512728D02*
X9935957Y-15503205D01*
D16*
X5011100Y-15871300D02*
X5113100Y-15973300D01*
X5113100Y-15871300D02*
X5011100Y-15973300D01*
X5113100Y-15922300D02*
G75*
G03*
X5113100Y-15922300I-51000J0D01*
G01*
D11*
X5465481Y-15995776D02*
X5351195Y-15995776D01*
X5408338Y-15995776D02*
X5408338Y-15795776D01*
X5408338Y-15795776D02*
X5389290Y-15824348D01*
X5389290Y-15824348D02*
X5370243Y-15843395D01*
X5370243Y-15843395D02*
X5351195Y-15852919D01*
X5551195Y-15976728D02*
X5560719Y-15986252D01*
X5560719Y-15986252D02*
X5551195Y-15995776D01*
X5551195Y-15995776D02*
X5541671Y-15986252D01*
X5541671Y-15986252D02*
X5551195Y-15976728D01*
X5551195Y-15976728D02*
X5551195Y-15995776D01*
X5684528Y-15795776D02*
X5703576Y-15795776D01*
X5703576Y-15795776D02*
X5722624Y-15805300D01*
X5722624Y-15805300D02*
X5732148Y-15814824D01*
X5732148Y-15814824D02*
X5741671Y-15833871D01*
X5741671Y-15833871D02*
X5751195Y-15871967D01*
X5751195Y-15871967D02*
X5751195Y-15919586D01*
X5751195Y-15919586D02*
X5741671Y-15957681D01*
X5741671Y-15957681D02*
X5732148Y-15976728D01*
X5732148Y-15976728D02*
X5722624Y-15986252D01*
X5722624Y-15986252D02*
X5703576Y-15995776D01*
X5703576Y-15995776D02*
X5684528Y-15995776D01*
X5684528Y-15995776D02*
X5665481Y-15986252D01*
X5665481Y-15986252D02*
X5655957Y-15976728D01*
X5655957Y-15976728D02*
X5646433Y-15957681D01*
X5646433Y-15957681D02*
X5636909Y-15919586D01*
X5636909Y-15919586D02*
X5636909Y-15871967D01*
X5636909Y-15871967D02*
X5646433Y-15833871D01*
X5646433Y-15833871D02*
X5655957Y-15814824D01*
X5655957Y-15814824D02*
X5665481Y-15805300D01*
X5665481Y-15805300D02*
X5684528Y-15795776D01*
X5827386Y-15814824D02*
X5836909Y-15805300D01*
X5836909Y-15805300D02*
X5855957Y-15795776D01*
X5855957Y-15795776D02*
X5903576Y-15795776D01*
X5903576Y-15795776D02*
X5922624Y-15805300D01*
X5922624Y-15805300D02*
X5932148Y-15814824D01*
X5932148Y-15814824D02*
X5941671Y-15833871D01*
X5941671Y-15833871D02*
X5941671Y-15852919D01*
X5941671Y-15852919D02*
X5932148Y-15881490D01*
X5932148Y-15881490D02*
X5817862Y-15995776D01*
X5817862Y-15995776D02*
X5941671Y-15995776D01*
X6065481Y-15795776D02*
X6084529Y-15795776D01*
X6084529Y-15795776D02*
X6103576Y-15805300D01*
X6103576Y-15805300D02*
X6113100Y-15814824D01*
X6113100Y-15814824D02*
X6122624Y-15833871D01*
X6122624Y-15833871D02*
X6132148Y-15871967D01*
X6132148Y-15871967D02*
X6132148Y-15919586D01*
X6132148Y-15919586D02*
X6122624Y-15957681D01*
X6122624Y-15957681D02*
X6113100Y-15976728D01*
X6113100Y-15976728D02*
X6103576Y-15986252D01*
X6103576Y-15986252D02*
X6084529Y-15995776D01*
X6084529Y-15995776D02*
X6065481Y-15995776D01*
X6065481Y-15995776D02*
X6046433Y-15986252D01*
X6046433Y-15986252D02*
X6036909Y-15976728D01*
X6036909Y-15976728D02*
X6027386Y-15957681D01*
X6027386Y-15957681D02*
X6017862Y-15919586D01*
X6017862Y-15919586D02*
X6017862Y-15871967D01*
X6017862Y-15871967D02*
X6027386Y-15833871D01*
X6027386Y-15833871D02*
X6036909Y-15814824D01*
X6036909Y-15814824D02*
X6046433Y-15805300D01*
X6046433Y-15805300D02*
X6065481Y-15795776D01*
X6217862Y-15995776D02*
X6217862Y-15862443D01*
X6217862Y-15881490D02*
X6227386Y-15871967D01*
X6227386Y-15871967D02*
X6246433Y-15862443D01*
X6246433Y-15862443D02*
X6275005Y-15862443D01*
X6275005Y-15862443D02*
X6294052Y-15871967D01*
X6294052Y-15871967D02*
X6303576Y-15891014D01*
X6303576Y-15891014D02*
X6303576Y-15995776D01*
X6303576Y-15891014D02*
X6313100Y-15871967D01*
X6313100Y-15871967D02*
X6332148Y-15862443D01*
X6332148Y-15862443D02*
X6360719Y-15862443D01*
X6360719Y-15862443D02*
X6379767Y-15871967D01*
X6379767Y-15871967D02*
X6389290Y-15891014D01*
X6389290Y-15891014D02*
X6389290Y-15995776D01*
X6484529Y-15995776D02*
X6484529Y-15862443D01*
X6484529Y-15881490D02*
X6494052Y-15871967D01*
X6494052Y-15871967D02*
X6513100Y-15862443D01*
X6513100Y-15862443D02*
X6541671Y-15862443D01*
X6541671Y-15862443D02*
X6560719Y-15871967D01*
X6560719Y-15871967D02*
X6570243Y-15891014D01*
X6570243Y-15891014D02*
X6570243Y-15995776D01*
X6570243Y-15891014D02*
X6579767Y-15871967D01*
X6579767Y-15871967D02*
X6598814Y-15862443D01*
X6598814Y-15862443D02*
X6627386Y-15862443D01*
X6627386Y-15862443D02*
X6646433Y-15871967D01*
X6646433Y-15871967D02*
X6655957Y-15891014D01*
X6655957Y-15891014D02*
X6655957Y-15995776D01*
X7014052Y-15786252D02*
X6842624Y-16043395D01*
X7238814Y-15795776D02*
X7257862Y-15795776D01*
X7257862Y-15795776D02*
X7276910Y-15805300D01*
X7276910Y-15805300D02*
X7286433Y-15814824D01*
X7286433Y-15814824D02*
X7295957Y-15833871D01*
X7295957Y-15833871D02*
X7305481Y-15871967D01*
X7305481Y-15871967D02*
X7305481Y-15919586D01*
X7305481Y-15919586D02*
X7295957Y-15957681D01*
X7295957Y-15957681D02*
X7286433Y-15976728D01*
X7286433Y-15976728D02*
X7276910Y-15986252D01*
X7276910Y-15986252D02*
X7257862Y-15995776D01*
X7257862Y-15995776D02*
X7238814Y-15995776D01*
X7238814Y-15995776D02*
X7219767Y-15986252D01*
X7219767Y-15986252D02*
X7210243Y-15976728D01*
X7210243Y-15976728D02*
X7200719Y-15957681D01*
X7200719Y-15957681D02*
X7191195Y-15919586D01*
X7191195Y-15919586D02*
X7191195Y-15871967D01*
X7191195Y-15871967D02*
X7200719Y-15833871D01*
X7200719Y-15833871D02*
X7210243Y-15814824D01*
X7210243Y-15814824D02*
X7219767Y-15805300D01*
X7219767Y-15805300D02*
X7238814Y-15795776D01*
X7391195Y-15976728D02*
X7400719Y-15986252D01*
X7400719Y-15986252D02*
X7391195Y-15995776D01*
X7391195Y-15995776D02*
X7381671Y-15986252D01*
X7381671Y-15986252D02*
X7391195Y-15976728D01*
X7391195Y-15976728D02*
X7391195Y-15995776D01*
X7524529Y-15795776D02*
X7543576Y-15795776D01*
X7543576Y-15795776D02*
X7562624Y-15805300D01*
X7562624Y-15805300D02*
X7572148Y-15814824D01*
X7572148Y-15814824D02*
X7581671Y-15833871D01*
X7581671Y-15833871D02*
X7591195Y-15871967D01*
X7591195Y-15871967D02*
X7591195Y-15919586D01*
X7591195Y-15919586D02*
X7581671Y-15957681D01*
X7581671Y-15957681D02*
X7572148Y-15976728D01*
X7572148Y-15976728D02*
X7562624Y-15986252D01*
X7562624Y-15986252D02*
X7543576Y-15995776D01*
X7543576Y-15995776D02*
X7524529Y-15995776D01*
X7524529Y-15995776D02*
X7505481Y-15986252D01*
X7505481Y-15986252D02*
X7495957Y-15976728D01*
X7495957Y-15976728D02*
X7486433Y-15957681D01*
X7486433Y-15957681D02*
X7476910Y-15919586D01*
X7476910Y-15919586D02*
X7476910Y-15871967D01*
X7476910Y-15871967D02*
X7486433Y-15833871D01*
X7486433Y-15833871D02*
X7495957Y-15814824D01*
X7495957Y-15814824D02*
X7505481Y-15805300D01*
X7505481Y-15805300D02*
X7524529Y-15795776D01*
X7762624Y-15862443D02*
X7762624Y-15995776D01*
X7715005Y-15786252D02*
X7667386Y-15929109D01*
X7667386Y-15929109D02*
X7791195Y-15929109D01*
X7905481Y-15795776D02*
X7924529Y-15795776D01*
X7924529Y-15795776D02*
X7943576Y-15805300D01*
X7943576Y-15805300D02*
X7953100Y-15814824D01*
X7953100Y-15814824D02*
X7962624Y-15833871D01*
X7962624Y-15833871D02*
X7972148Y-15871967D01*
X7972148Y-15871967D02*
X7972148Y-15919586D01*
X7972148Y-15919586D02*
X7962624Y-15957681D01*
X7962624Y-15957681D02*
X7953100Y-15976728D01*
X7953100Y-15976728D02*
X7943576Y-15986252D01*
X7943576Y-15986252D02*
X7924529Y-15995776D01*
X7924529Y-15995776D02*
X7905481Y-15995776D01*
X7905481Y-15995776D02*
X7886433Y-15986252D01*
X7886433Y-15986252D02*
X7876910Y-15976728D01*
X7876910Y-15976728D02*
X7867386Y-15957681D01*
X7867386Y-15957681D02*
X7857862Y-15919586D01*
X7857862Y-15919586D02*
X7857862Y-15871967D01*
X7857862Y-15871967D02*
X7867386Y-15833871D01*
X7867386Y-15833871D02*
X7876910Y-15814824D01*
X7876910Y-15814824D02*
X7886433Y-15805300D01*
X7886433Y-15805300D02*
X7905481Y-15795776D01*
X8048338Y-15814824D02*
X8057862Y-15805300D01*
X8057862Y-15805300D02*
X8076910Y-15795776D01*
X8076910Y-15795776D02*
X8124529Y-15795776D01*
X8124529Y-15795776D02*
X8143576Y-15805300D01*
X8143576Y-15805300D02*
X8153100Y-15814824D01*
X8153100Y-15814824D02*
X8162624Y-15833871D01*
X8162624Y-15833871D02*
X8162624Y-15852919D01*
X8162624Y-15852919D02*
X8153100Y-15881490D01*
X8153100Y-15881490D02*
X8038814Y-15995776D01*
X8038814Y-15995776D02*
X8162624Y-15995776D01*
X8238814Y-15795776D02*
X8238814Y-15833871D01*
X8315005Y-15795776D02*
X8315005Y-15833871D01*
X8577862Y-16071967D02*
X8568338Y-16062443D01*
X8568338Y-16062443D02*
X8549291Y-16033871D01*
X8549291Y-16033871D02*
X8539767Y-16014824D01*
X8539767Y-16014824D02*
X8530243Y-15986252D01*
X8530243Y-15986252D02*
X8520719Y-15938633D01*
X8520719Y-15938633D02*
X8520719Y-15900538D01*
X8520719Y-15900538D02*
X8530243Y-15852919D01*
X8530243Y-15852919D02*
X8539767Y-15824348D01*
X8539767Y-15824348D02*
X8549291Y-15805300D01*
X8549291Y-15805300D02*
X8568338Y-15776728D01*
X8568338Y-15776728D02*
X8577862Y-15767205D01*
X8682624Y-15881490D02*
X8663576Y-15871967D01*
X8663576Y-15871967D02*
X8654053Y-15862443D01*
X8654053Y-15862443D02*
X8644529Y-15843395D01*
X8644529Y-15843395D02*
X8644529Y-15833871D01*
X8644529Y-15833871D02*
X8654053Y-15814824D01*
X8654053Y-15814824D02*
X8663576Y-15805300D01*
X8663576Y-15805300D02*
X8682624Y-15795776D01*
X8682624Y-15795776D02*
X8720719Y-15795776D01*
X8720719Y-15795776D02*
X8739767Y-15805300D01*
X8739767Y-15805300D02*
X8749291Y-15814824D01*
X8749291Y-15814824D02*
X8758814Y-15833871D01*
X8758814Y-15833871D02*
X8758814Y-15843395D01*
X8758814Y-15843395D02*
X8749291Y-15862443D01*
X8749291Y-15862443D02*
X8739767Y-15871967D01*
X8739767Y-15871967D02*
X8720719Y-15881490D01*
X8720719Y-15881490D02*
X8682624Y-15881490D01*
X8682624Y-15881490D02*
X8663576Y-15891014D01*
X8663576Y-15891014D02*
X8654053Y-15900538D01*
X8654053Y-15900538D02*
X8644529Y-15919586D01*
X8644529Y-15919586D02*
X8644529Y-15957681D01*
X8644529Y-15957681D02*
X8654053Y-15976728D01*
X8654053Y-15976728D02*
X8663576Y-15986252D01*
X8663576Y-15986252D02*
X8682624Y-15995776D01*
X8682624Y-15995776D02*
X8720719Y-15995776D01*
X8720719Y-15995776D02*
X8739767Y-15986252D01*
X8739767Y-15986252D02*
X8749291Y-15976728D01*
X8749291Y-15976728D02*
X8758814Y-15957681D01*
X8758814Y-15957681D02*
X8758814Y-15919586D01*
X8758814Y-15919586D02*
X8749291Y-15900538D01*
X8749291Y-15900538D02*
X8739767Y-15891014D01*
X8739767Y-15891014D02*
X8720719Y-15881490D01*
X8835005Y-15814824D02*
X8844529Y-15805300D01*
X8844529Y-15805300D02*
X8863576Y-15795776D01*
X8863576Y-15795776D02*
X8911195Y-15795776D01*
X8911195Y-15795776D02*
X8930243Y-15805300D01*
X8930243Y-15805300D02*
X8939767Y-15814824D01*
X8939767Y-15814824D02*
X8949291Y-15833871D01*
X8949291Y-15833871D02*
X8949291Y-15852919D01*
X8949291Y-15852919D02*
X8939767Y-15881490D01*
X8939767Y-15881490D02*
X8825481Y-15995776D01*
X8825481Y-15995776D02*
X8949291Y-15995776D01*
X9155005Y-15995776D02*
X9155005Y-15795776D01*
X9240719Y-15995776D02*
X9240719Y-15891014D01*
X9240719Y-15891014D02*
X9231195Y-15871967D01*
X9231195Y-15871967D02*
X9212148Y-15862443D01*
X9212148Y-15862443D02*
X9183576Y-15862443D01*
X9183576Y-15862443D02*
X9164529Y-15871967D01*
X9164529Y-15871967D02*
X9155005Y-15881490D01*
X9364529Y-15995776D02*
X9345481Y-15986252D01*
X9345481Y-15986252D02*
X9335957Y-15976728D01*
X9335957Y-15976728D02*
X9326434Y-15957681D01*
X9326434Y-15957681D02*
X9326434Y-15900538D01*
X9326434Y-15900538D02*
X9335957Y-15881490D01*
X9335957Y-15881490D02*
X9345481Y-15871967D01*
X9345481Y-15871967D02*
X9364529Y-15862443D01*
X9364529Y-15862443D02*
X9393100Y-15862443D01*
X9393100Y-15862443D02*
X9412148Y-15871967D01*
X9412148Y-15871967D02*
X9421672Y-15881490D01*
X9421672Y-15881490D02*
X9431195Y-15900538D01*
X9431195Y-15900538D02*
X9431195Y-15957681D01*
X9431195Y-15957681D02*
X9421672Y-15976728D01*
X9421672Y-15976728D02*
X9412148Y-15986252D01*
X9412148Y-15986252D02*
X9393100Y-15995776D01*
X9393100Y-15995776D02*
X9364529Y-15995776D01*
X9545481Y-15995776D02*
X9526434Y-15986252D01*
X9526434Y-15986252D02*
X9516910Y-15967205D01*
X9516910Y-15967205D02*
X9516910Y-15795776D01*
X9697862Y-15986252D02*
X9678815Y-15995776D01*
X9678815Y-15995776D02*
X9640719Y-15995776D01*
X9640719Y-15995776D02*
X9621672Y-15986252D01*
X9621672Y-15986252D02*
X9612148Y-15967205D01*
X9612148Y-15967205D02*
X9612148Y-15891014D01*
X9612148Y-15891014D02*
X9621672Y-15871967D01*
X9621672Y-15871967D02*
X9640719Y-15862443D01*
X9640719Y-15862443D02*
X9678815Y-15862443D01*
X9678815Y-15862443D02*
X9697862Y-15871967D01*
X9697862Y-15871967D02*
X9707386Y-15891014D01*
X9707386Y-15891014D02*
X9707386Y-15910062D01*
X9707386Y-15910062D02*
X9612148Y-15929109D01*
X9783576Y-15986252D02*
X9802624Y-15995776D01*
X9802624Y-15995776D02*
X9840719Y-15995776D01*
X9840719Y-15995776D02*
X9859767Y-15986252D01*
X9859767Y-15986252D02*
X9869291Y-15967205D01*
X9869291Y-15967205D02*
X9869291Y-15957681D01*
X9869291Y-15957681D02*
X9859767Y-15938633D01*
X9859767Y-15938633D02*
X9840719Y-15929109D01*
X9840719Y-15929109D02*
X9812148Y-15929109D01*
X9812148Y-15929109D02*
X9793100Y-15919586D01*
X9793100Y-15919586D02*
X9783576Y-15900538D01*
X9783576Y-15900538D02*
X9783576Y-15891014D01*
X9783576Y-15891014D02*
X9793100Y-15871967D01*
X9793100Y-15871967D02*
X9812148Y-15862443D01*
X9812148Y-15862443D02*
X9840719Y-15862443D01*
X9840719Y-15862443D02*
X9859767Y-15871967D01*
X9935957Y-16071967D02*
X9945481Y-16062443D01*
X9945481Y-16062443D02*
X9964529Y-16033871D01*
X9964529Y-16033871D02*
X9974053Y-16014824D01*
X9974053Y-16014824D02*
X9983576Y-15986252D01*
X9983576Y-15986252D02*
X9993100Y-15938633D01*
X9993100Y-15938633D02*
X9993100Y-15900538D01*
X9993100Y-15900538D02*
X9983576Y-15852919D01*
X9983576Y-15852919D02*
X9974053Y-15824348D01*
X9974053Y-15824348D02*
X9964529Y-15805300D01*
X9964529Y-15805300D02*
X9945481Y-15776728D01*
X9945481Y-15776728D02*
X9935957Y-15767205D01*
M02*
