%TF.GenerationSoftware,KiCad,Pcbnew,(7.0.0)*%
%TF.CreationDate,2023-04-04T11:39:15+02:00*%
%TF.ProjectId,overall scematic,6f766572-616c-46c2-9073-63656d617469,rev?*%
%TF.SameCoordinates,Original*%
%TF.FileFunction,Soldermask,Top*%
%TF.FilePolarity,Negative*%
%FSLAX46Y46*%
G04 Gerber Fmt 4.6, Leading zero omitted, Abs format (unit mm)*
G04 Created by KiCad (PCBNEW (7.0.0)) date 2023-04-04 11:39:15*
%MOMM*%
%LPD*%
G01*
G04 APERTURE LIST*
G04 Aperture macros list*
%AMRoundRect*
0 Rectangle with rounded corners*
0 $1 Rounding radius*
0 $2 $3 $4 $5 $6 $7 $8 $9 X,Y pos of 4 corners*
0 Add a 4 corners polygon primitive as box body*
4,1,4,$2,$3,$4,$5,$6,$7,$8,$9,$2,$3,0*
0 Add four circle primitives for the rounded corners*
1,1,$1+$1,$2,$3*
1,1,$1+$1,$4,$5*
1,1,$1+$1,$6,$7*
1,1,$1+$1,$8,$9*
0 Add four rect primitives between the rounded corners*
20,1,$1+$1,$2,$3,$4,$5,0*
20,1,$1+$1,$4,$5,$6,$7,0*
20,1,$1+$1,$6,$7,$8,$9,0*
20,1,$1+$1,$8,$9,$2,$3,0*%
%AMFreePoly0*
4,1,9,3.862500,-0.866500,0.737500,-0.866500,0.737500,-0.450000,-0.737500,-0.450000,-0.737500,0.450000,0.737500,0.450000,0.737500,0.866500,3.862500,0.866500,3.862500,-0.866500,3.862500,-0.866500,$1*%
G04 Aperture macros list end*
%ADD10R,1.700000X1.700000*%
%ADD11O,1.700000X1.700000*%
%ADD12R,1.475000X0.450000*%
%ADD13R,1.000000X1.500000*%
%ADD14R,1.525000X0.700000*%
%ADD15R,2.513000X3.402000*%
%ADD16R,1.200000X0.650000*%
%ADD17RoundRect,0.070000X-0.650000X-0.300000X0.650000X-0.300000X0.650000X0.300000X-0.650000X0.300000X0*%
%ADD18RoundRect,0.150000X0.512500X0.150000X-0.512500X0.150000X-0.512500X-0.150000X0.512500X-0.150000X0*%
%ADD19R,1.300000X0.900000*%
%ADD20FreePoly0,0.000000*%
%ADD21R,1.500000X2.400000*%
%ADD22R,0.600000X0.400000*%
%ADD23O,1.600000X1.600000*%
%ADD24C,1.600000*%
%ADD25RoundRect,0.135000X-0.135000X-0.185000X0.135000X-0.185000X0.135000X0.185000X-0.135000X0.185000X0*%
%ADD26R,1.370000X1.370000*%
%ADD27C,1.370000*%
%ADD28O,0.890000X1.550000*%
%ADD29R,1.500000X1.550000*%
%ADD30O,1.250000X0.950000*%
%ADD31R,1.200000X1.550000*%
%ADD32R,0.400000X1.350000*%
%ADD33RoundRect,0.243750X-0.243750X-0.456250X0.243750X-0.456250X0.243750X0.456250X-0.243750X0.456250X0*%
%ADD34RoundRect,0.140000X-0.140000X-0.170000X0.140000X-0.170000X0.140000X0.170000X-0.140000X0.170000X0*%
%ADD35R,1.150000X1.450000*%
%ADD36RoundRect,0.140000X0.170000X-0.140000X0.170000X0.140000X-0.170000X0.140000X-0.170000X-0.140000X0*%
%ADD37R,2.000000X2.000000*%
%ADD38C,2.000000*%
G04 APERTURE END LIST*
D10*
%TO.C,J7*%
X109854999Y-114421999D03*
D11*
X109854999Y-116961999D03*
%TD*%
D10*
%TO.C,J6*%
X67182999Y-72775999D03*
D11*
X67182999Y-70235999D03*
%TD*%
D10*
%TO.C,J5*%
X60324999Y-117855999D03*
D11*
X60324999Y-120395999D03*
%TD*%
%TO.C,J4*%
X60197999Y-105790999D03*
D10*
X60197999Y-108330999D03*
%TD*%
%TO.C,J2*%
X101218999Y-109605999D03*
D11*
X101218999Y-107065999D03*
%TD*%
D12*
%TO.C,Q1*%
X119726999Y-99029999D03*
X119726999Y-99679999D03*
X119726999Y-100329999D03*
X119726999Y-100979999D03*
X125602999Y-100979999D03*
X125602999Y-100329999D03*
X125602999Y-99679999D03*
X125602999Y-99029999D03*
%TD*%
D13*
%TO.C,JP2*%
X115412999Y-132714999D03*
X116712999Y-132714999D03*
%TD*%
%TO.C,JP1*%
X115412999Y-129164999D03*
X116712999Y-129164999D03*
%TD*%
D14*
%TO.C,J3*%
X76662999Y-93598999D03*
X76662999Y-94868999D03*
X76662999Y-96138999D03*
X76662999Y-97408999D03*
X82086999Y-97408999D03*
X82086999Y-96138999D03*
X82086999Y-94868999D03*
X82086999Y-93598999D03*
D15*
X79374999Y-95503999D03*
%TD*%
D16*
%TO.C,IC1*%
X115626999Y-92726999D03*
X115626999Y-93676999D03*
X115626999Y-94626999D03*
X118126999Y-94626999D03*
X118126999Y-93676999D03*
X118126999Y-92726999D03*
%TD*%
D17*
%TO.C,U5*%
X93466500Y-69413000D03*
X93466500Y-71313000D03*
X95566500Y-70363000D03*
%TD*%
D18*
%TO.C,U4*%
X89402500Y-71054000D03*
X89402500Y-70104000D03*
X89402500Y-69154000D03*
X87127500Y-69154000D03*
X87127500Y-71054000D03*
%TD*%
D19*
%TO.C,U2*%
X60960999Y-86510999D03*
D20*
X61048500Y-88011000D03*
D19*
X60960999Y-89510999D03*
%TD*%
D21*
%TO.C,U1*%
X101345999Y-70103999D03*
D22*
X102745999Y-69153999D03*
X102745999Y-70103999D03*
X102745999Y-71053999D03*
X99945999Y-71053999D03*
X99945999Y-70103999D03*
X99945999Y-69153999D03*
%TD*%
D23*
%TO.C,R6*%
X122845999Y-86818999D03*
D24*
X122846000Y-96979000D03*
%TD*%
D23*
%TO.C,R5*%
X125729999Y-83311999D03*
D24*
X115570000Y-83312000D03*
%TD*%
D23*
%TO.C,R4*%
X88849999Y-94379999D03*
D24*
X99010000Y-94380000D03*
%TD*%
D23*
%TO.C,R3*%
X88849999Y-98429999D03*
D24*
X99010000Y-98430000D03*
%TD*%
D25*
%TO.C,R2*%
X107898000Y-94126000D03*
X108918000Y-94126000D03*
%TD*%
D23*
%TO.C,R1*%
X70992999Y-78612999D03*
D24*
X70993000Y-88773000D03*
%TD*%
D10*
%TO.C,J10*%
X125385999Y-130174999D03*
D11*
X125385999Y-132714999D03*
X125385999Y-135254999D03*
%TD*%
D26*
%TO.C,J9*%
X56133999Y-66166999D03*
D27*
X53594000Y-66167000D03*
X56134000Y-68707000D03*
X53594000Y-68707000D03*
X56134000Y-71247000D03*
X53594000Y-71247000D03*
X56134000Y-73787000D03*
X53594000Y-73787000D03*
X56134000Y-76327000D03*
X53594000Y-76327000D03*
X56134000Y-78867000D03*
X53594000Y-78867000D03*
X56134000Y-81407000D03*
X53594000Y-81407000D03*
X56134000Y-83947000D03*
X53594000Y-83947000D03*
X56134000Y-86487000D03*
X53594000Y-86487000D03*
X56134000Y-89027000D03*
X53594000Y-89027000D03*
X56134000Y-91567000D03*
X53594000Y-91567000D03*
X56134000Y-94107000D03*
X53594000Y-94107000D03*
X56134000Y-96647000D03*
X53594000Y-96647000D03*
X56134000Y-99187000D03*
X53594000Y-99187000D03*
X56134000Y-101727000D03*
X53594000Y-101727000D03*
X56134000Y-104267000D03*
X53594000Y-104267000D03*
X56134000Y-106807000D03*
X53594000Y-106807000D03*
X56134000Y-109347000D03*
X53594000Y-109347000D03*
X56134000Y-111887000D03*
X53594000Y-111887000D03*
X56134000Y-114427000D03*
X53594000Y-114427000D03*
%TD*%
D26*
%TO.C,J8*%
X136143999Y-66293999D03*
D27*
X133604000Y-66294000D03*
X136144000Y-68834000D03*
X133604000Y-68834000D03*
X136144000Y-71374000D03*
X133604000Y-71374000D03*
X136144000Y-73914000D03*
X133604000Y-73914000D03*
X136144000Y-76454000D03*
X133604000Y-76454000D03*
X136144000Y-78994000D03*
X133604000Y-78994000D03*
X136144000Y-81534000D03*
X133604000Y-81534000D03*
X136144000Y-84074000D03*
X133604000Y-84074000D03*
X136144000Y-86614000D03*
X133604000Y-86614000D03*
X136144000Y-89154000D03*
X133604000Y-89154000D03*
X136144000Y-91694000D03*
X133604000Y-91694000D03*
X136144000Y-94234000D03*
X133604000Y-94234000D03*
X136144000Y-96774000D03*
X133604000Y-96774000D03*
X136144000Y-99314000D03*
X133604000Y-99314000D03*
X136144000Y-101854000D03*
X133604000Y-101854000D03*
X136144000Y-104394000D03*
X133604000Y-104394000D03*
X136144000Y-106934000D03*
X133604000Y-106934000D03*
X136144000Y-109474000D03*
X133604000Y-109474000D03*
X136144000Y-112014000D03*
X133604000Y-112014000D03*
X136144000Y-114554000D03*
X133604000Y-114554000D03*
%TD*%
D28*
%TO.C,J1*%
X129230999Y-133349999D03*
D29*
X131730999Y-133349999D03*
D30*
X130230999Y-130649999D03*
D31*
X135630999Y-133349999D03*
D28*
X136230999Y-133349999D03*
D29*
X133730999Y-133349999D03*
D30*
X135230999Y-130649999D03*
D31*
X129830999Y-133349999D03*
D32*
X134030999Y-130649999D03*
X133380999Y-130649999D03*
X132730999Y-130649999D03*
X132080999Y-130649999D03*
X131430999Y-130649999D03*
%TD*%
D33*
%TO.C,D2*%
X104979000Y-97420000D03*
X103104000Y-97420000D03*
%TD*%
%TO.C,D1*%
X104979000Y-94380000D03*
X103104000Y-94380000D03*
%TD*%
D34*
%TO.C,C6*%
X124869000Y-103251000D03*
X125829000Y-103251000D03*
%TD*%
D35*
%TO.C,C5*%
X107049999Y-83057999D03*
X108849999Y-83057999D03*
%TD*%
D34*
%TO.C,C4*%
X64417000Y-107061000D03*
X65377000Y-107061000D03*
%TD*%
%TO.C,C3*%
X67564000Y-77851000D03*
X66604000Y-77851000D03*
%TD*%
%TO.C,C2*%
X60198000Y-96901000D03*
X61158000Y-96901000D03*
%TD*%
D36*
%TO.C,C1*%
X79420000Y-91920000D03*
X79420000Y-90960000D03*
%TD*%
D37*
%TO.C,BT1*%
X65456999Y-130047999D03*
D38*
X110157000Y-130048000D03*
%TD*%
M02*
