%TF.GenerationSoftware,KiCad,Pcbnew,(7.0.0)*%
%TF.CreationDate,2023-04-04T11:35:40+02:00*%
%TF.ProjectId,overall scematic,6f766572-616c-46c2-9073-63656d617469,rev?*%
%TF.SameCoordinates,Original*%
%TF.FileFunction,Drillmap*%
%TF.FilePolarity,Positive*%
%FSLAX45Y45*%
G04 Gerber Fmt 4.5, Leading zero omitted, Abs format (unit mm)*
G04 Created by KiCad (PCBNEW (7.0.0)) date 2023-04-04 11:35:40*
%MOMM*%
%LPD*%
G01*
G04 APERTURE LIST*
%ADD10C,0.100000*%
%ADD11C,0.200000*%
G04 APERTURE END LIST*
D10*
X13970000Y-13957300D02*
X5130800Y-13944600D01*
X5130800Y-13944600D02*
X5118100Y-6337300D01*
X5118100Y-6337300D02*
X13970000Y-6337300D01*
X13970000Y-6337300D02*
X13970000Y-13957300D01*
D11*
X5360719Y-14255776D02*
X5360719Y-14055776D01*
X5360719Y-14055776D02*
X5408338Y-14055776D01*
X5408338Y-14055776D02*
X5436910Y-14065300D01*
X5436910Y-14065300D02*
X5455957Y-14084348D01*
X5455957Y-14084348D02*
X5465481Y-14103395D01*
X5465481Y-14103395D02*
X5475005Y-14141490D01*
X5475005Y-14141490D02*
X5475005Y-14170062D01*
X5475005Y-14170062D02*
X5465481Y-14208157D01*
X5465481Y-14208157D02*
X5455957Y-14227205D01*
X5455957Y-14227205D02*
X5436910Y-14246252D01*
X5436910Y-14246252D02*
X5408338Y-14255776D01*
X5408338Y-14255776D02*
X5360719Y-14255776D01*
X5560719Y-14255776D02*
X5560719Y-14122443D01*
X5560719Y-14160538D02*
X5570243Y-14141490D01*
X5570243Y-14141490D02*
X5579767Y-14131967D01*
X5579767Y-14131967D02*
X5598814Y-14122443D01*
X5598814Y-14122443D02*
X5617862Y-14122443D01*
X5684528Y-14255776D02*
X5684528Y-14122443D01*
X5684528Y-14055776D02*
X5675005Y-14065300D01*
X5675005Y-14065300D02*
X5684528Y-14074824D01*
X5684528Y-14074824D02*
X5694052Y-14065300D01*
X5694052Y-14065300D02*
X5684528Y-14055776D01*
X5684528Y-14055776D02*
X5684528Y-14074824D01*
X5808338Y-14255776D02*
X5789290Y-14246252D01*
X5789290Y-14246252D02*
X5779767Y-14227205D01*
X5779767Y-14227205D02*
X5779767Y-14055776D01*
X5913100Y-14255776D02*
X5894052Y-14246252D01*
X5894052Y-14246252D02*
X5884528Y-14227205D01*
X5884528Y-14227205D02*
X5884528Y-14055776D01*
X6109290Y-14255776D02*
X6109290Y-14055776D01*
X6109290Y-14055776D02*
X6175957Y-14198633D01*
X6175957Y-14198633D02*
X6242624Y-14055776D01*
X6242624Y-14055776D02*
X6242624Y-14255776D01*
X6423576Y-14255776D02*
X6423576Y-14151014D01*
X6423576Y-14151014D02*
X6414052Y-14131967D01*
X6414052Y-14131967D02*
X6395005Y-14122443D01*
X6395005Y-14122443D02*
X6356909Y-14122443D01*
X6356909Y-14122443D02*
X6337862Y-14131967D01*
X6423576Y-14246252D02*
X6404528Y-14255776D01*
X6404528Y-14255776D02*
X6356909Y-14255776D01*
X6356909Y-14255776D02*
X6337862Y-14246252D01*
X6337862Y-14246252D02*
X6328338Y-14227205D01*
X6328338Y-14227205D02*
X6328338Y-14208157D01*
X6328338Y-14208157D02*
X6337862Y-14189109D01*
X6337862Y-14189109D02*
X6356909Y-14179586D01*
X6356909Y-14179586D02*
X6404528Y-14179586D01*
X6404528Y-14179586D02*
X6423576Y-14170062D01*
X6518814Y-14122443D02*
X6518814Y-14322443D01*
X6518814Y-14131967D02*
X6537862Y-14122443D01*
X6537862Y-14122443D02*
X6575957Y-14122443D01*
X6575957Y-14122443D02*
X6595005Y-14131967D01*
X6595005Y-14131967D02*
X6604528Y-14141490D01*
X6604528Y-14141490D02*
X6614052Y-14160538D01*
X6614052Y-14160538D02*
X6614052Y-14217681D01*
X6614052Y-14217681D02*
X6604528Y-14236728D01*
X6604528Y-14236728D02*
X6595005Y-14246252D01*
X6595005Y-14246252D02*
X6575957Y-14255776D01*
X6575957Y-14255776D02*
X6537862Y-14255776D01*
X6537862Y-14255776D02*
X6518814Y-14246252D01*
X6699767Y-14236728D02*
X6709290Y-14246252D01*
X6709290Y-14246252D02*
X6699767Y-14255776D01*
X6699767Y-14255776D02*
X6690243Y-14246252D01*
X6690243Y-14246252D02*
X6699767Y-14236728D01*
X6699767Y-14236728D02*
X6699767Y-14255776D01*
X6699767Y-14131967D02*
X6709290Y-14141490D01*
X6709290Y-14141490D02*
X6699767Y-14151014D01*
X6699767Y-14151014D02*
X6690243Y-14141490D01*
X6690243Y-14141490D02*
X6699767Y-14131967D01*
X6699767Y-14131967D02*
X6699767Y-14151014D01*
M02*
