M48
; DRILL file {KiCad (7.0.0)} date Tue Apr  4 11:39:21 2023
; FORMAT={-:-/ absolute / inch / decimal}
; #@! TF.CreationDate,2023-04-04T11:39:21+02:00
; #@! TF.GenerationSoftware,Kicad,Pcbnew,(7.0.0)
; #@! TF.FileFunction,Plated,1,2,PTH
FMAT,2
INCH
; #@! TA.AperFunction,Plated,PTH,ViaDrill
T1C0.0157
; #@! TA.AperFunction,Plated,PTH,ComponentDrill
T2C0.0197
; #@! TA.AperFunction,Plated,PTH,ComponentDrill
T3C0.0217
; #@! TA.AperFunction,Plated,PTH,ComponentDrill
T4C0.0315
; #@! TA.AperFunction,Plated,PTH,ComponentDrill
T5C0.0394
; #@! TA.AperFunction,Plated,PTH,ComponentDrill
T6C0.0402
%
G90
G05
T1
X2.415Y-3.34
X2.48Y-3.835
X2.625Y-4.255
X2.95Y-3.785
X2.995Y-3.625
X3.14Y-3.525
X3.575Y-2.76
X3.635Y-2.66
X3.845Y-2.775
X4.08Y-2.76
X4.35Y-3.27
X4.65Y-3.89
T4
X2.795Y-3.095
X2.795Y-3.495
X3.498Y-3.7157
X3.498Y-3.8752
X3.898Y-3.7157
X3.898Y-3.8752
X4.55Y-3.28
X4.8365Y-3.4181
X4.8365Y-3.8181
X4.95Y-3.28
T5
X2.37Y-4.165
X2.37Y-4.265
X2.375Y-4.64
X2.375Y-4.74
X2.645Y-2.7652
X2.645Y-2.8652
X3.985Y-4.2152
X3.985Y-4.3152
X4.325Y-4.5048
X4.325Y-4.6048
X4.9365Y-5.125
X4.9365Y-5.225
X4.9365Y-5.325
T6
X2.11Y-2.605
X2.11Y-2.705
X2.11Y-2.805
X2.11Y-2.905
X2.11Y-3.005
X2.11Y-3.105
X2.11Y-3.205
X2.11Y-3.305
X2.11Y-3.405
X2.11Y-3.505
X2.11Y-3.605
X2.11Y-3.705
X2.11Y-3.805
X2.11Y-3.905
X2.11Y-4.005
X2.11Y-4.105
X2.11Y-4.205
X2.11Y-4.305
X2.11Y-4.405
X2.11Y-4.505
X2.21Y-2.605
X2.21Y-2.705
X2.21Y-2.805
X2.21Y-2.905
X2.21Y-3.005
X2.21Y-3.105
X2.21Y-3.205
X2.21Y-3.305
X2.21Y-3.405
X2.21Y-3.505
X2.21Y-3.605
X2.21Y-3.705
X2.21Y-3.805
X2.21Y-3.905
X2.21Y-4.005
X2.21Y-4.105
X2.21Y-4.205
X2.21Y-4.305
X2.21Y-4.405
X2.21Y-4.505
X2.577Y-5.12
X4.3369Y-5.12
X5.26Y-2.61
X5.26Y-2.71
X5.26Y-2.81
X5.26Y-2.91
X5.26Y-3.01
X5.26Y-3.11
X5.26Y-3.21
X5.26Y-3.31
X5.26Y-3.41
X5.26Y-3.51
X5.26Y-3.61
X5.26Y-3.71
X5.26Y-3.81
X5.26Y-3.91
X5.26Y-4.01
X5.26Y-4.11
X5.26Y-4.21
X5.26Y-4.31
X5.26Y-4.41
X5.26Y-4.51
X5.36Y-2.61
X5.36Y-2.71
X5.36Y-2.81
X5.36Y-2.91
X5.36Y-3.01
X5.36Y-3.11
X5.36Y-3.21
X5.36Y-3.31
X5.36Y-3.41
X5.36Y-3.51
X5.36Y-3.61
X5.36Y-3.71
X5.36Y-3.81
X5.36Y-3.91
X5.36Y-4.01
X5.36Y-4.11
X5.36Y-4.21
X5.36Y-4.31
X5.36Y-4.41
X5.36Y-4.51
T2
G00X5.0878Y-5.2372
M15
G01X5.0878Y-5.2628
M16
G05
G00X5.3634Y-5.2372
M15
G01X5.3634Y-5.2628
M16
G05
T3
G00X5.1213Y-5.1437
M15
G01X5.1331Y-5.1437
M16
G05
G00X5.3181Y-5.1437
M15
G01X5.33Y-5.1437
M16
G05
T0
M30
