M48
; DRILL file {KiCad (7.0.0)} date Mon Mar 20 21:56:31 2023
; FORMAT={-:-/ absolute / inch / decimal}
; #@! TF.CreationDate,2023-03-20T21:56:31+02:00
; #@! TF.GenerationSoftware,Kicad,Pcbnew,(7.0.0)
; #@! TF.FileFunction,Plated,1,2,PTH
FMAT,2
INCH
; #@! TA.AperFunction,Plated,PTH,ViaDrill
T1C0.0157
; #@! TA.AperFunction,Plated,PTH,ComponentDrill
T2C0.0197
; #@! TA.AperFunction,Plated,PTH,ComponentDrill
T3C0.0217
; #@! TA.AperFunction,Plated,PTH,ComponentDrill
T4C0.0315
; #@! TA.AperFunction,Plated,PTH,ComponentDrill
T5C0.0394
; #@! TA.AperFunction,Plated,PTH,ComponentDrill
T6C0.0402
%
G90
G05
T1
X3.185Y-2.07
X3.365Y-2.29
X3.755Y-1.985
X4.27Y-2.18
X4.3Y-2.505
X4.535Y-2.595
X5.08Y-2.35
X5.3Y-2.3
X5.395Y-2.32
T4
X3.9406Y-2.1
X3.9406Y-2.5
X4.1Y-2.1
X4.1Y-2.5
X4.5Y-2.1
X4.5Y-2.5
X4.6Y-3.2
X4.7Y-2.3
X4.7Y-2.7
X5.0Y-3.2
T5
X3.1293Y-1.8398
X3.1293Y-1.9398
X3.1293Y-2.49
X3.1293Y-2.59
X3.3707Y-1.6608
X3.4707Y-1.6608
X3.6502Y-2.1278
X3.7502Y-2.1278
X4.7Y-2.0
X4.7Y-2.1
X4.9Y-2.1
X4.9Y-2.2
T6
X2.7Y-1.3
X2.7Y-1.4
X2.7Y-1.5
X2.7Y-1.6
X2.7Y-1.7
X2.7Y-1.8
X2.7Y-1.9
X2.7Y-2.0
X2.7Y-2.1
X2.7Y-2.2
X2.7Y-2.3
X2.7Y-2.4
X2.7Y-2.5
X2.7Y-2.6
X2.7Y-2.7
X2.7Y-2.8
X2.7Y-2.9
X2.7Y-3.0
X2.7Y-3.1
X2.7Y-3.2
X2.8Y-1.3
X2.8Y-1.4
X2.8Y-1.5
X2.8Y-1.6
X2.8Y-1.7
X2.8Y-1.8
X2.8Y-1.9
X2.8Y-2.0
X2.8Y-2.1
X2.8Y-2.2
X2.8Y-2.3
X2.8Y-2.4
X2.8Y-2.5
X2.8Y-2.6
X2.8Y-2.7
X2.8Y-2.8
X2.8Y-2.9
X2.8Y-3.0
X2.8Y-3.1
X2.8Y-3.2
X3.722Y-1.5
X5.4819Y-1.5
X5.7Y-1.3
X5.7Y-1.4
X5.7Y-1.5
X5.7Y-1.6
X5.7Y-1.7
X5.7Y-1.8
X5.7Y-1.9
X5.7Y-2.0
X5.7Y-2.1
X5.7Y-2.2
X5.7Y-2.3
X5.7Y-2.4
X5.7Y-2.5
X5.7Y-2.6
X5.7Y-2.7
X5.7Y-2.8
X5.7Y-2.9
X5.7Y-3.0
X5.7Y-3.1
X5.7Y-3.2
X5.8Y-1.3
X5.8Y-1.4
X5.8Y-1.5
X5.8Y-1.6
X5.8Y-1.7
X5.8Y-1.8
X5.8Y-1.9
X5.8Y-2.0
X5.8Y-2.1
X5.8Y-2.2
X5.8Y-2.3
X5.8Y-2.4
X5.8Y-2.5
X5.8Y-2.6
X5.8Y-2.7
X5.8Y-2.8
X5.8Y-2.9
X5.8Y-3.0
X5.8Y-3.1
X5.8Y-3.2
T2
G00X2.9689Y-1.6014
M15
G01X2.9689Y-1.5758
M16
G05
G00X3.2445Y-1.6014
M15
G01X3.2445Y-1.5758
M16
G05
T3
G00X3.0142Y-1.6949
M15
G01X3.0024Y-1.6949
M16
G05
G00X3.211Y-1.6949
M15
G01X3.1992Y-1.6949
M16
G05
T0
M30
