%TF.GenerationSoftware,KiCad,Pcbnew,(7.0.0)*%
%TF.CreationDate,2023-03-20T21:56:37+02:00*%
%TF.ProjectId,overall scematic,6f766572-616c-46c2-9073-63656d617469,rev?*%
%TF.SameCoordinates,Original*%
%TF.FileFunction,Soldermask,Bot*%
%TF.FilePolarity,Negative*%
%FSLAX46Y46*%
G04 Gerber Fmt 4.6, Leading zero omitted, Abs format (unit mm)*
G04 Created by KiCad (PCBNEW (7.0.0)) date 2023-03-20 21:56:37*
%MOMM*%
%LPD*%
G01*
G04 APERTURE LIST*
%ADD10R,1.700000X1.700000*%
%ADD11O,1.700000X1.700000*%
%ADD12R,2.000000X2.000000*%
%ADD13C,2.000000*%
%ADD14C,1.600000*%
%ADD15O,1.600000X1.600000*%
%ADD16O,0.890000X1.550000*%
%ADD17O,1.250000X0.950000*%
%ADD18R,1.370000X1.370000*%
%ADD19C,1.370000*%
G04 APERTURE END LIST*
D10*
%TO.C,J11*%
X124459999Y-53339999D03*
D11*
X124459999Y-55879999D03*
%TD*%
D10*
%TO.C,J4*%
X79484999Y-46729999D03*
D11*
X79484999Y-49269999D03*
%TD*%
D12*
%TO.C,BT1*%
X94539999Y-38099999D03*
D13*
X139240000Y-38100000D03*
%TD*%
D14*
%TO.C,R3*%
X104140000Y-53340000D03*
D15*
X104139999Y-63499999D03*
%TD*%
D11*
%TO.C,J2*%
X88154999Y-42184999D03*
D10*
X85614999Y-42184999D03*
%TD*%
D15*
%TO.C,R6*%
X119379999Y-58419999D03*
D14*
X119380000Y-68580000D03*
%TD*%
D10*
%TO.C,J5*%
X95254999Y-54044999D03*
D11*
X92714999Y-54044999D03*
%TD*%
D15*
%TO.C,R1*%
X114299999Y-63499999D03*
D14*
X114300000Y-53340000D03*
%TD*%
%TO.C,R5*%
X116840000Y-81280000D03*
D15*
X126999999Y-81279999D03*
%TD*%
D10*
%TO.C,J10*%
X119379999Y-53339999D03*
D11*
X119379999Y-50799999D03*
%TD*%
D16*
%TO.C,J1*%
X75409999Y-40349999D03*
D17*
X76409999Y-43049999D03*
X81409999Y-43049999D03*
D16*
X82409999Y-40349999D03*
%TD*%
D14*
%TO.C,R4*%
X100090000Y-53340000D03*
D15*
X100089999Y-63499999D03*
%TD*%
D18*
%TO.C,J8*%
X147319999Y-33019999D03*
D19*
X144780000Y-33020000D03*
X147320000Y-35560000D03*
X144780000Y-35560000D03*
X147320000Y-38100000D03*
X144780000Y-38100000D03*
X147320000Y-40640000D03*
X144780000Y-40640000D03*
X147320000Y-43180000D03*
X144780000Y-43180000D03*
X147320000Y-45720000D03*
X144780000Y-45720000D03*
X147320000Y-48260000D03*
X144780000Y-48260000D03*
X147320000Y-50800000D03*
X144780000Y-50800000D03*
X147320000Y-53340000D03*
X144780000Y-53340000D03*
X147320000Y-55880000D03*
X144780000Y-55880000D03*
X147320000Y-58420000D03*
X144780000Y-58420000D03*
X147320000Y-60960000D03*
X144780000Y-60960000D03*
X147320000Y-63500000D03*
X144780000Y-63500000D03*
X147320000Y-66040000D03*
X144780000Y-66040000D03*
X147320000Y-68580000D03*
X144780000Y-68580000D03*
X147320000Y-71120000D03*
X144780000Y-71120000D03*
X147320000Y-73660000D03*
X144780000Y-73660000D03*
X147320000Y-76200000D03*
X144780000Y-76200000D03*
X147320000Y-78740000D03*
X144780000Y-78740000D03*
X147320000Y-81280000D03*
X144780000Y-81280000D03*
%TD*%
D18*
%TO.C,J9*%
X71119999Y-33019999D03*
D19*
X68580000Y-33020000D03*
X71120000Y-35560000D03*
X68580000Y-35560000D03*
X71120000Y-38100000D03*
X68580000Y-38100000D03*
X71120000Y-40640000D03*
X68580000Y-40640000D03*
X71120000Y-43180000D03*
X68580000Y-43180000D03*
X71120000Y-45720000D03*
X68580000Y-45720000D03*
X71120000Y-48260000D03*
X68580000Y-48260000D03*
X71120000Y-50800000D03*
X68580000Y-50800000D03*
X71120000Y-53340000D03*
X68580000Y-53340000D03*
X71120000Y-55880000D03*
X68580000Y-55880000D03*
X71120000Y-58420000D03*
X68580000Y-58420000D03*
X71120000Y-60960000D03*
X68580000Y-60960000D03*
X71120000Y-63500000D03*
X68580000Y-63500000D03*
X71120000Y-66040000D03*
X68580000Y-66040000D03*
X71120000Y-68580000D03*
X68580000Y-68580000D03*
X71120000Y-71120000D03*
X68580000Y-71120000D03*
X71120000Y-73660000D03*
X68580000Y-73660000D03*
X71120000Y-76200000D03*
X68580000Y-76200000D03*
X71120000Y-78740000D03*
X68580000Y-78740000D03*
X71120000Y-81280000D03*
X68580000Y-81280000D03*
%TD*%
D10*
%TO.C,J6*%
X79484999Y-63244999D03*
D11*
X79484999Y-65784999D03*
%TD*%
M02*
