M48
; DRILL file {KiCad (7.0.0)} date Fri Apr 14 03:48:41 2023
; FORMAT={-:-/ absolute / inch / decimal}
; #@! TF.CreationDate,2023-04-14T03:48:41+02:00
; #@! TF.GenerationSoftware,Kicad,Pcbnew,(7.0.0)
; #@! TF.FileFunction,Plated,1,2,PTH
FMAT,2
INCH
; #@! TA.AperFunction,Plated,PTH,ViaDrill
T1C0.0157
; #@! TA.AperFunction,Plated,PTH,ComponentDrill
T2C0.0197
; #@! TA.AperFunction,Plated,PTH,ComponentDrill
T3C0.0217
; #@! TA.AperFunction,Plated,PTH,ComponentDrill
T4C0.0300
; #@! TA.AperFunction,Plated,PTH,ComponentDrill
T5C0.0315
; #@! TA.AperFunction,Plated,PTH,ComponentDrill
T6C0.0394
; #@! TA.AperFunction,Plated,PTH,ComponentDrill
T7C0.0402
; #@! TA.AperFunction,Plated,PTH,ComponentDrill
T8C0.0433
; #@! TA.AperFunction,Plated,PTH,ComponentDrill
T9C0.0945
; #@! TA.AperFunction,Plated,PTH,ComponentDrill
T10C0.1457
%
G90
G05
T1
X5.4125Y-3.6796
X5.4959Y-4.1009
X5.6035Y-3.8385
X5.6099Y-3.7811
X5.6325Y-3.6766
X5.6378Y-4.03
X5.6544Y-3.9372
X5.6755Y-4.0843
X5.9196Y-4.2376
X6.4701Y-3.1463
X6.5901Y-4.6369
X6.6554Y-4.9735
T4
X3.637Y-3.5433
X3.637Y-4.3433
X3.737Y-3.5433
X3.737Y-4.3433
X3.837Y-3.5433
X3.837Y-4.3433
X3.937Y-3.5433
X3.937Y-4.3433
X4.037Y-4.3433
X5.3234Y-3.0624
X5.3234Y-3.1624
X5.3234Y-3.2624
X5.3234Y-3.3624
X5.3234Y-3.4624
X5.3234Y-3.5624
X5.3234Y-3.6624
X5.3234Y-3.7624
X5.3234Y-3.8624
X5.3234Y-3.9624
X5.3234Y-4.0624
X5.3234Y-4.1624
X5.3234Y-4.2624
X5.3234Y-4.3624
X5.3234Y-4.4624
X5.3234Y-4.5624
X5.3234Y-4.6624
X5.3234Y-4.7624
X5.3234Y-4.8624
X5.3234Y-4.9624
X5.3234Y-5.0624
X5.3234Y-5.1624
X5.3234Y-5.2624
X5.3234Y-5.3624
X5.9734Y-3.0624
X5.9734Y-3.1624
X5.9734Y-3.2624
X5.9734Y-3.3624
X5.9734Y-3.4624
X5.9734Y-3.5624
X5.9734Y-3.6624
X5.9734Y-3.7624
X5.9734Y-3.8624
X5.9734Y-3.9624
X5.9734Y-4.0624
X5.9734Y-4.1624
X5.9734Y-4.2624
X5.9734Y-4.3624
X5.9734Y-4.4624
X5.9734Y-4.5624
X5.9734Y-4.6624
X5.9734Y-4.7624
X5.9734Y-4.8624
X5.9734Y-4.9624
X5.9734Y-5.0624
X5.9734Y-5.1624
X5.9734Y-5.2624
X5.9734Y-5.3624
T5
X4.9113Y-3.0167
X4.9113Y-3.1762
X5.1113Y-3.0167
X5.1113Y-3.1762
X5.9843Y-2.7165
X6.0843Y-2.7165
X6.0874Y-3.3012
X6.4874Y-3.3012
X6.5624Y-5.1756
X6.5624Y-5.335
X6.5929Y-3.5433
X6.6422Y-4.5207
X6.6422Y-4.6207
X6.6929Y-3.5433
X6.7624Y-5.1756
X6.7624Y-5.335
T6
X4.2913Y-5.1756
X4.2913Y-5.2756
X5.1338Y-3.6185
X5.1338Y-3.7185
X6.1169Y-3.0295
X6.1169Y-3.1295
X6.8504Y-4.9
X6.8504Y-5.0
X7.0472Y-2.6378
X7.0472Y-2.7378
X7.2047Y-4.4882
X7.2047Y-4.5882
T7
X5.4512Y-3.2433
X5.4512Y-3.3433
X5.4512Y-3.4433
X5.4512Y-3.5433
X5.4512Y-3.6433
X5.4512Y-3.7433
X5.4512Y-3.8433
X5.4512Y-3.9433
X5.4512Y-4.0433
X5.4512Y-4.1433
X5.4512Y-4.2433
X5.4512Y-4.3433
X5.4512Y-4.4433
X5.4512Y-4.5433
X5.4512Y-4.6433
X5.4512Y-4.7433
X5.4512Y-4.8433
X5.4512Y-4.9433
X5.4512Y-5.0433
X5.4512Y-5.1433
X5.5512Y-3.2433
X5.5512Y-3.3433
X5.5512Y-3.4433
X5.5512Y-3.5433
X5.5512Y-3.6433
X5.5512Y-3.7433
X5.5512Y-3.8433
X5.5512Y-3.9433
X5.5512Y-4.0433
X5.5512Y-4.1433
X5.5512Y-4.2433
X5.5512Y-4.3433
X5.5512Y-4.4433
X5.5512Y-4.5433
X5.5512Y-4.6433
X5.5512Y-4.7433
X5.5512Y-4.8433
X5.5512Y-4.9433
X5.5512Y-5.0433
X5.5512Y-5.1433
X5.7071Y-3.2433
X5.7071Y-3.3433
X5.7071Y-3.4433
X5.7071Y-3.5433
X5.7071Y-3.6433
X5.7071Y-3.7433
X5.7071Y-3.8433
X5.7071Y-3.9433
X5.7071Y-4.0433
X5.7071Y-4.1433
X5.7071Y-4.2433
X5.7071Y-4.3433
X5.7071Y-4.4433
X5.7071Y-4.5433
X5.7071Y-4.6433
X5.7071Y-4.7433
X5.7071Y-4.8433
X5.7071Y-4.9433
X5.7071Y-5.0433
X5.7071Y-5.1433
X5.8071Y-3.2433
X5.8071Y-3.3433
X5.8071Y-3.4433
X5.8071Y-3.5433
X5.8071Y-3.6433
X5.8071Y-3.7433
X5.8071Y-3.8433
X5.8071Y-3.9433
X5.8071Y-4.0433
X5.8071Y-4.1433
X5.8071Y-4.2433
X5.8071Y-4.3433
X5.8071Y-4.4433
X5.8071Y-4.5433
X5.8071Y-4.6433
X5.8071Y-4.7433
X5.8071Y-4.8433
X5.8071Y-4.9433
X5.8071Y-5.0433
X5.8071Y-5.1433
T8
X3.5236Y-3.189
X3.5236Y-3.3661
X3.7795Y-3.189
X3.7795Y-3.3661
T9
X6.6858Y-2.3022
T10
X4.189Y-2.3022
X6.3622Y-1.6722
T2
G00X3.6093Y-3.7565
M15
G01X3.6348Y-3.7565
M16
G05
G00X3.6093Y-4.0321
M15
G01X3.6348Y-4.0321
M16
G05
T3
G00X3.5157Y-3.8018
M15
G01X3.5157Y-3.79
M16
G05
G00X3.5157Y-3.9986
M15
G01X3.5157Y-3.9868
M16
G05
T0
M30
