%TF.GenerationSoftware,KiCad,Pcbnew,(7.0.0)*%
%TF.CreationDate,2023-04-14T03:48:35+02:00*%
%TF.ProjectId,overall scematic,6f766572-616c-46c2-9073-63656d617469,rev?*%
%TF.SameCoordinates,Original*%
%TF.FileFunction,Legend,Top*%
%TF.FilePolarity,Positive*%
%FSLAX46Y46*%
G04 Gerber Fmt 4.6, Leading zero omitted, Abs format (unit mm)*
G04 Created by KiCad (PCBNEW (7.0.0)) date 2023-04-14 03:48:35*
%MOMM*%
%LPD*%
G01*
G04 APERTURE LIST*
%ADD10C,0.150000*%
%ADD11C,0.254000*%
%ADD12C,0.120000*%
%ADD13C,1.000000*%
%ADD14C,0.200000*%
%ADD15C,0.100000*%
%ADD16C,0.059995*%
%ADD17C,0.152400*%
G04 APERTURE END LIST*
D10*
X173000000Y-85000000D02*
X178000000Y-85000000D01*
X178000000Y-85000000D02*
X178000000Y-91000000D01*
X178000000Y-91000000D02*
X173000000Y-91000000D01*
X173000000Y-91000000D02*
X173000000Y-85000000D01*
X173000000Y-91000000D02*
X178000000Y-91000000D01*
X178000000Y-91000000D02*
X178000000Y-91000000D01*
X178000000Y-91000000D02*
X173000000Y-91000000D01*
X173000000Y-91000000D02*
X173000000Y-91000000D01*
X173000000Y-85000000D02*
X178000000Y-85000000D01*
X178000000Y-85000000D02*
X178000000Y-85000000D01*
X178000000Y-85000000D02*
X173000000Y-85000000D01*
X173000000Y-85000000D02*
X173000000Y-85000000D01*
X112000000Y-70000000D02*
X127000000Y-70000000D01*
X127000000Y-70000000D02*
X127000000Y-105000000D01*
X127000000Y-105000000D02*
X112000000Y-105000000D01*
X112000000Y-105000000D02*
X112000000Y-70000000D01*
%TO.C,J4*%
X182666666Y-118237380D02*
X182666666Y-118951666D01*
X182666666Y-118951666D02*
X182619047Y-119094523D01*
X182619047Y-119094523D02*
X182523809Y-119189761D01*
X182523809Y-119189761D02*
X182380952Y-119237380D01*
X182380952Y-119237380D02*
X182285714Y-119237380D01*
X183571428Y-118570714D02*
X183571428Y-119237380D01*
X183333333Y-118189761D02*
X183095238Y-118904047D01*
X183095238Y-118904047D02*
X183714285Y-118904047D01*
%TO.C,J2*%
X155036666Y-73987380D02*
X155036666Y-74701666D01*
X155036666Y-74701666D02*
X154989047Y-74844523D01*
X154989047Y-74844523D02*
X154893809Y-74939761D01*
X154893809Y-74939761D02*
X154750952Y-74987380D01*
X154750952Y-74987380D02*
X154655714Y-74987380D01*
X155465238Y-74082619D02*
X155512857Y-74035000D01*
X155512857Y-74035000D02*
X155608095Y-73987380D01*
X155608095Y-73987380D02*
X155846190Y-73987380D01*
X155846190Y-73987380D02*
X155941428Y-74035000D01*
X155941428Y-74035000D02*
X155989047Y-74082619D01*
X155989047Y-74082619D02*
X156036666Y-74177857D01*
X156036666Y-74177857D02*
X156036666Y-74273095D01*
X156036666Y-74273095D02*
X155989047Y-74415952D01*
X155989047Y-74415952D02*
X155417619Y-74987380D01*
X155417619Y-74987380D02*
X156036666Y-74987380D01*
%TO.C,BT1*%
X133214285Y-50343571D02*
X133357142Y-50391190D01*
X133357142Y-50391190D02*
X133404761Y-50438809D01*
X133404761Y-50438809D02*
X133452380Y-50534047D01*
X133452380Y-50534047D02*
X133452380Y-50676904D01*
X133452380Y-50676904D02*
X133404761Y-50772142D01*
X133404761Y-50772142D02*
X133357142Y-50819761D01*
X133357142Y-50819761D02*
X133261904Y-50867380D01*
X133261904Y-50867380D02*
X132880952Y-50867380D01*
X132880952Y-50867380D02*
X132880952Y-49867380D01*
X132880952Y-49867380D02*
X133214285Y-49867380D01*
X133214285Y-49867380D02*
X133309523Y-49915000D01*
X133309523Y-49915000D02*
X133357142Y-49962619D01*
X133357142Y-49962619D02*
X133404761Y-50057857D01*
X133404761Y-50057857D02*
X133404761Y-50153095D01*
X133404761Y-50153095D02*
X133357142Y-50248333D01*
X133357142Y-50248333D02*
X133309523Y-50295952D01*
X133309523Y-50295952D02*
X133214285Y-50343571D01*
X133214285Y-50343571D02*
X132880952Y-50343571D01*
X133738095Y-49867380D02*
X134309523Y-49867380D01*
X134023809Y-50867380D02*
X134023809Y-49867380D01*
X135166666Y-50867380D02*
X134595238Y-50867380D01*
X134880952Y-50867380D02*
X134880952Y-49867380D01*
X134880952Y-49867380D02*
X134785714Y-50010238D01*
X134785714Y-50010238D02*
X134690476Y-50105476D01*
X134690476Y-50105476D02*
X134595238Y-50153095D01*
%TO.C,C5*%
X121775833Y-93497142D02*
X121728214Y-93544761D01*
X121728214Y-93544761D02*
X121585357Y-93592380D01*
X121585357Y-93592380D02*
X121490119Y-93592380D01*
X121490119Y-93592380D02*
X121347262Y-93544761D01*
X121347262Y-93544761D02*
X121252024Y-93449523D01*
X121252024Y-93449523D02*
X121204405Y-93354285D01*
X121204405Y-93354285D02*
X121156786Y-93163809D01*
X121156786Y-93163809D02*
X121156786Y-93020952D01*
X121156786Y-93020952D02*
X121204405Y-92830476D01*
X121204405Y-92830476D02*
X121252024Y-92735238D01*
X121252024Y-92735238D02*
X121347262Y-92640000D01*
X121347262Y-92640000D02*
X121490119Y-92592380D01*
X121490119Y-92592380D02*
X121585357Y-92592380D01*
X121585357Y-92592380D02*
X121728214Y-92640000D01*
X121728214Y-92640000D02*
X121775833Y-92687619D01*
X122680595Y-92592380D02*
X122204405Y-92592380D01*
X122204405Y-92592380D02*
X122156786Y-93068571D01*
X122156786Y-93068571D02*
X122204405Y-93020952D01*
X122204405Y-93020952D02*
X122299643Y-92973333D01*
X122299643Y-92973333D02*
X122537738Y-92973333D01*
X122537738Y-92973333D02*
X122632976Y-93020952D01*
X122632976Y-93020952D02*
X122680595Y-93068571D01*
X122680595Y-93068571D02*
X122728214Y-93163809D01*
X122728214Y-93163809D02*
X122728214Y-93401904D01*
X122728214Y-93401904D02*
X122680595Y-93497142D01*
X122680595Y-93497142D02*
X122632976Y-93544761D01*
X122632976Y-93544761D02*
X122537738Y-93592380D01*
X122537738Y-93592380D02*
X122299643Y-93592380D01*
X122299643Y-93592380D02*
X122204405Y-93544761D01*
X122204405Y-93544761D02*
X122156786Y-93497142D01*
D11*
%TO.C,IC1*%
X115572237Y-77091573D02*
X115572237Y-75821573D01*
X116902714Y-76970621D02*
X116842238Y-77031097D01*
X116842238Y-77031097D02*
X116660809Y-77091573D01*
X116660809Y-77091573D02*
X116539857Y-77091573D01*
X116539857Y-77091573D02*
X116358428Y-77031097D01*
X116358428Y-77031097D02*
X116237476Y-76910145D01*
X116237476Y-76910145D02*
X116176999Y-76789192D01*
X116176999Y-76789192D02*
X116116523Y-76547288D01*
X116116523Y-76547288D02*
X116116523Y-76365859D01*
X116116523Y-76365859D02*
X116176999Y-76123954D01*
X116176999Y-76123954D02*
X116237476Y-76003002D01*
X116237476Y-76003002D02*
X116358428Y-75882050D01*
X116358428Y-75882050D02*
X116539857Y-75821573D01*
X116539857Y-75821573D02*
X116660809Y-75821573D01*
X116660809Y-75821573D02*
X116842238Y-75882050D01*
X116842238Y-75882050D02*
X116902714Y-75942526D01*
X118112238Y-77091573D02*
X117386523Y-77091573D01*
X117749380Y-77091573D02*
X117749380Y-75821573D01*
X117749380Y-75821573D02*
X117628428Y-76003002D01*
X117628428Y-76003002D02*
X117507476Y-76123954D01*
X117507476Y-76123954D02*
X117386523Y-76184430D01*
%TO.C,Q1*%
X115879047Y-81587526D02*
X115758095Y-81527050D01*
X115758095Y-81527050D02*
X115637142Y-81406097D01*
X115637142Y-81406097D02*
X115455714Y-81224669D01*
X115455714Y-81224669D02*
X115334761Y-81164192D01*
X115334761Y-81164192D02*
X115213809Y-81164192D01*
X115274285Y-81466573D02*
X115153333Y-81406097D01*
X115153333Y-81406097D02*
X115032380Y-81285145D01*
X115032380Y-81285145D02*
X114971904Y-81043240D01*
X114971904Y-81043240D02*
X114971904Y-80619907D01*
X114971904Y-80619907D02*
X115032380Y-80378002D01*
X115032380Y-80378002D02*
X115153333Y-80257050D01*
X115153333Y-80257050D02*
X115274285Y-80196573D01*
X115274285Y-80196573D02*
X115516190Y-80196573D01*
X115516190Y-80196573D02*
X115637142Y-80257050D01*
X115637142Y-80257050D02*
X115758095Y-80378002D01*
X115758095Y-80378002D02*
X115818571Y-80619907D01*
X115818571Y-80619907D02*
X115818571Y-81043240D01*
X115818571Y-81043240D02*
X115758095Y-81285145D01*
X115758095Y-81285145D02*
X115637142Y-81406097D01*
X115637142Y-81406097D02*
X115516190Y-81466573D01*
X115516190Y-81466573D02*
X115274285Y-81466573D01*
X117028095Y-81466573D02*
X116302380Y-81466573D01*
X116665237Y-81466573D02*
X116665237Y-80196573D01*
X116665237Y-80196573D02*
X116544285Y-80378002D01*
X116544285Y-80378002D02*
X116423333Y-80498954D01*
X116423333Y-80498954D02*
X116302380Y-80559430D01*
D10*
%TO.C,J13*%
X141237380Y-130799523D02*
X141951666Y-130799523D01*
X141951666Y-130799523D02*
X142094523Y-130847142D01*
X142094523Y-130847142D02*
X142189761Y-130942380D01*
X142189761Y-130942380D02*
X142237380Y-131085237D01*
X142237380Y-131085237D02*
X142237380Y-131180475D01*
X142237380Y-129799523D02*
X142237380Y-130370951D01*
X142237380Y-130085237D02*
X141237380Y-130085237D01*
X141237380Y-130085237D02*
X141380238Y-130180475D01*
X141380238Y-130180475D02*
X141475476Y-130275713D01*
X141475476Y-130275713D02*
X141523095Y-130370951D01*
X141237380Y-129466189D02*
X141237380Y-128847142D01*
X141237380Y-128847142D02*
X141618333Y-129180475D01*
X141618333Y-129180475D02*
X141618333Y-129037618D01*
X141618333Y-129037618D02*
X141665952Y-128942380D01*
X141665952Y-128942380D02*
X141713571Y-128894761D01*
X141713571Y-128894761D02*
X141808809Y-128847142D01*
X141808809Y-128847142D02*
X142046904Y-128847142D01*
X142046904Y-128847142D02*
X142142142Y-128894761D01*
X142142142Y-128894761D02*
X142189761Y-128942380D01*
X142189761Y-128942380D02*
X142237380Y-129037618D01*
X142237380Y-129037618D02*
X142237380Y-129323332D01*
X142237380Y-129323332D02*
X142189761Y-129418570D01*
X142189761Y-129418570D02*
X142142142Y-129466189D01*
%TO.C,J12*%
X134737380Y-130799523D02*
X135451666Y-130799523D01*
X135451666Y-130799523D02*
X135594523Y-130847142D01*
X135594523Y-130847142D02*
X135689761Y-130942380D01*
X135689761Y-130942380D02*
X135737380Y-131085237D01*
X135737380Y-131085237D02*
X135737380Y-131180475D01*
X135737380Y-129799523D02*
X135737380Y-130370951D01*
X135737380Y-130085237D02*
X134737380Y-130085237D01*
X134737380Y-130085237D02*
X134880238Y-130180475D01*
X134880238Y-130180475D02*
X134975476Y-130275713D01*
X134975476Y-130275713D02*
X135023095Y-130370951D01*
X134832619Y-129418570D02*
X134785000Y-129370951D01*
X134785000Y-129370951D02*
X134737380Y-129275713D01*
X134737380Y-129275713D02*
X134737380Y-129037618D01*
X134737380Y-129037618D02*
X134785000Y-128942380D01*
X134785000Y-128942380D02*
X134832619Y-128894761D01*
X134832619Y-128894761D02*
X134927857Y-128847142D01*
X134927857Y-128847142D02*
X135023095Y-128847142D01*
X135023095Y-128847142D02*
X135165952Y-128894761D01*
X135165952Y-128894761D02*
X135737380Y-129466189D01*
X135737380Y-129466189D02*
X135737380Y-128847142D01*
%TO.C,U5*%
X115495595Y-98367380D02*
X115495595Y-99176904D01*
X115495595Y-99176904D02*
X115543214Y-99272142D01*
X115543214Y-99272142D02*
X115590833Y-99319761D01*
X115590833Y-99319761D02*
X115686071Y-99367380D01*
X115686071Y-99367380D02*
X115876547Y-99367380D01*
X115876547Y-99367380D02*
X115971785Y-99319761D01*
X115971785Y-99319761D02*
X116019404Y-99272142D01*
X116019404Y-99272142D02*
X116067023Y-99176904D01*
X116067023Y-99176904D02*
X116067023Y-98367380D01*
X117019404Y-98367380D02*
X116543214Y-98367380D01*
X116543214Y-98367380D02*
X116495595Y-98843571D01*
X116495595Y-98843571D02*
X116543214Y-98795952D01*
X116543214Y-98795952D02*
X116638452Y-98748333D01*
X116638452Y-98748333D02*
X116876547Y-98748333D01*
X116876547Y-98748333D02*
X116971785Y-98795952D01*
X116971785Y-98795952D02*
X117019404Y-98843571D01*
X117019404Y-98843571D02*
X117067023Y-98938809D01*
X117067023Y-98938809D02*
X117067023Y-99176904D01*
X117067023Y-99176904D02*
X117019404Y-99272142D01*
X117019404Y-99272142D02*
X116971785Y-99319761D01*
X116971785Y-99319761D02*
X116876547Y-99367380D01*
X116876547Y-99367380D02*
X116638452Y-99367380D01*
X116638452Y-99367380D02*
X116543214Y-99319761D01*
X116543214Y-99319761D02*
X116495595Y-99272142D01*
%TO.C,U1*%
X175238095Y-90903575D02*
X175238095Y-91713099D01*
X175238095Y-91713099D02*
X175285714Y-91808337D01*
X175285714Y-91808337D02*
X175333333Y-91855956D01*
X175333333Y-91855956D02*
X175428571Y-91903575D01*
X175428571Y-91903575D02*
X175619047Y-91903575D01*
X175619047Y-91903575D02*
X175714285Y-91855956D01*
X175714285Y-91855956D02*
X175761904Y-91808337D01*
X175761904Y-91808337D02*
X175809523Y-91713099D01*
X175809523Y-91713099D02*
X175809523Y-90903575D01*
X176809523Y-91903575D02*
X176238095Y-91903575D01*
X176523809Y-91903575D02*
X176523809Y-90903575D01*
X176523809Y-90903575D02*
X176428571Y-91046433D01*
X176428571Y-91046433D02*
X176333333Y-91141671D01*
X176333333Y-91141671D02*
X176238095Y-91189290D01*
%TO.C,U3*%
X89078095Y-86827380D02*
X89078095Y-87636904D01*
X89078095Y-87636904D02*
X89125714Y-87732142D01*
X89125714Y-87732142D02*
X89173333Y-87779761D01*
X89173333Y-87779761D02*
X89268571Y-87827380D01*
X89268571Y-87827380D02*
X89459047Y-87827380D01*
X89459047Y-87827380D02*
X89554285Y-87779761D01*
X89554285Y-87779761D02*
X89601904Y-87732142D01*
X89601904Y-87732142D02*
X89649523Y-87636904D01*
X89649523Y-87636904D02*
X89649523Y-86827380D01*
X90030476Y-86827380D02*
X90649523Y-86827380D01*
X90649523Y-86827380D02*
X90316190Y-87208333D01*
X90316190Y-87208333D02*
X90459047Y-87208333D01*
X90459047Y-87208333D02*
X90554285Y-87255952D01*
X90554285Y-87255952D02*
X90601904Y-87303571D01*
X90601904Y-87303571D02*
X90649523Y-87398809D01*
X90649523Y-87398809D02*
X90649523Y-87636904D01*
X90649523Y-87636904D02*
X90601904Y-87732142D01*
X90601904Y-87732142D02*
X90554285Y-87779761D01*
X90554285Y-87779761D02*
X90459047Y-87827380D01*
X90459047Y-87827380D02*
X90173333Y-87827380D01*
X90173333Y-87827380D02*
X90078095Y-87779761D01*
X90078095Y-87779761D02*
X90030476Y-87732142D01*
%TO.C,J9*%
X138882380Y-108718333D02*
X139596666Y-108718333D01*
X139596666Y-108718333D02*
X139739523Y-108765952D01*
X139739523Y-108765952D02*
X139834761Y-108861190D01*
X139834761Y-108861190D02*
X139882380Y-109004047D01*
X139882380Y-109004047D02*
X139882380Y-109099285D01*
X139882380Y-108194523D02*
X139882380Y-108004047D01*
X139882380Y-108004047D02*
X139834761Y-107908809D01*
X139834761Y-107908809D02*
X139787142Y-107861190D01*
X139787142Y-107861190D02*
X139644285Y-107765952D01*
X139644285Y-107765952D02*
X139453809Y-107718333D01*
X139453809Y-107718333D02*
X139072857Y-107718333D01*
X139072857Y-107718333D02*
X138977619Y-107765952D01*
X138977619Y-107765952D02*
X138930000Y-107813571D01*
X138930000Y-107813571D02*
X138882380Y-107908809D01*
X138882380Y-107908809D02*
X138882380Y-108099285D01*
X138882380Y-108099285D02*
X138930000Y-108194523D01*
X138930000Y-108194523D02*
X138977619Y-108242142D01*
X138977619Y-108242142D02*
X139072857Y-108289761D01*
X139072857Y-108289761D02*
X139310952Y-108289761D01*
X139310952Y-108289761D02*
X139406190Y-108242142D01*
X139406190Y-108242142D02*
X139453809Y-108194523D01*
X139453809Y-108194523D02*
X139501428Y-108099285D01*
X139501428Y-108099285D02*
X139501428Y-107908809D01*
X139501428Y-107908809D02*
X139453809Y-107813571D01*
X139453809Y-107813571D02*
X139406190Y-107765952D01*
X139406190Y-107765952D02*
X139310952Y-107718333D01*
D11*
%TO.C,J3*%
X166576667Y-122656573D02*
X166576667Y-123563716D01*
X166576667Y-123563716D02*
X166516190Y-123745145D01*
X166516190Y-123745145D02*
X166395238Y-123866097D01*
X166395238Y-123866097D02*
X166213809Y-123926573D01*
X166213809Y-123926573D02*
X166092857Y-123926573D01*
X167060476Y-122656573D02*
X167846667Y-122656573D01*
X167846667Y-122656573D02*
X167423333Y-123140383D01*
X167423333Y-123140383D02*
X167604762Y-123140383D01*
X167604762Y-123140383D02*
X167725714Y-123200859D01*
X167725714Y-123200859D02*
X167786190Y-123261335D01*
X167786190Y-123261335D02*
X167846667Y-123382288D01*
X167846667Y-123382288D02*
X167846667Y-123684669D01*
X167846667Y-123684669D02*
X167786190Y-123805621D01*
X167786190Y-123805621D02*
X167725714Y-123866097D01*
X167725714Y-123866097D02*
X167604762Y-123926573D01*
X167604762Y-123926573D02*
X167241905Y-123926573D01*
X167241905Y-123926573D02*
X167120952Y-123866097D01*
X167120952Y-123866097D02*
X167060476Y-123805621D01*
D10*
%TO.C,SW1*%
X91416667Y-79319761D02*
X91559524Y-79367380D01*
X91559524Y-79367380D02*
X91797619Y-79367380D01*
X91797619Y-79367380D02*
X91892857Y-79319761D01*
X91892857Y-79319761D02*
X91940476Y-79272142D01*
X91940476Y-79272142D02*
X91988095Y-79176904D01*
X91988095Y-79176904D02*
X91988095Y-79081666D01*
X91988095Y-79081666D02*
X91940476Y-78986428D01*
X91940476Y-78986428D02*
X91892857Y-78938809D01*
X91892857Y-78938809D02*
X91797619Y-78891190D01*
X91797619Y-78891190D02*
X91607143Y-78843571D01*
X91607143Y-78843571D02*
X91511905Y-78795952D01*
X91511905Y-78795952D02*
X91464286Y-78748333D01*
X91464286Y-78748333D02*
X91416667Y-78653095D01*
X91416667Y-78653095D02*
X91416667Y-78557857D01*
X91416667Y-78557857D02*
X91464286Y-78462619D01*
X91464286Y-78462619D02*
X91511905Y-78415000D01*
X91511905Y-78415000D02*
X91607143Y-78367380D01*
X91607143Y-78367380D02*
X91845238Y-78367380D01*
X91845238Y-78367380D02*
X91988095Y-78415000D01*
X92321429Y-78367380D02*
X92559524Y-79367380D01*
X92559524Y-79367380D02*
X92750000Y-78653095D01*
X92750000Y-78653095D02*
X92940476Y-79367380D01*
X92940476Y-79367380D02*
X93178572Y-78367380D01*
X94083333Y-79367380D02*
X93511905Y-79367380D01*
X93797619Y-79367380D02*
X93797619Y-78367380D01*
X93797619Y-78367380D02*
X93702381Y-78510238D01*
X93702381Y-78510238D02*
X93607143Y-78605476D01*
X93607143Y-78605476D02*
X93511905Y-78653095D01*
%TO.C,C3*%
X167313333Y-81112142D02*
X167265714Y-81159761D01*
X167265714Y-81159761D02*
X167122857Y-81207380D01*
X167122857Y-81207380D02*
X167027619Y-81207380D01*
X167027619Y-81207380D02*
X166884762Y-81159761D01*
X166884762Y-81159761D02*
X166789524Y-81064523D01*
X166789524Y-81064523D02*
X166741905Y-80969285D01*
X166741905Y-80969285D02*
X166694286Y-80778809D01*
X166694286Y-80778809D02*
X166694286Y-80635952D01*
X166694286Y-80635952D02*
X166741905Y-80445476D01*
X166741905Y-80445476D02*
X166789524Y-80350238D01*
X166789524Y-80350238D02*
X166884762Y-80255000D01*
X166884762Y-80255000D02*
X167027619Y-80207380D01*
X167027619Y-80207380D02*
X167122857Y-80207380D01*
X167122857Y-80207380D02*
X167265714Y-80255000D01*
X167265714Y-80255000D02*
X167313333Y-80302619D01*
X167646667Y-80207380D02*
X168265714Y-80207380D01*
X168265714Y-80207380D02*
X167932381Y-80588333D01*
X167932381Y-80588333D02*
X168075238Y-80588333D01*
X168075238Y-80588333D02*
X168170476Y-80635952D01*
X168170476Y-80635952D02*
X168218095Y-80683571D01*
X168218095Y-80683571D02*
X168265714Y-80778809D01*
X168265714Y-80778809D02*
X168265714Y-81016904D01*
X168265714Y-81016904D02*
X168218095Y-81112142D01*
X168218095Y-81112142D02*
X168170476Y-81159761D01*
X168170476Y-81159761D02*
X168075238Y-81207380D01*
X168075238Y-81207380D02*
X167789524Y-81207380D01*
X167789524Y-81207380D02*
X167694286Y-81159761D01*
X167694286Y-81159761D02*
X167646667Y-81112142D01*
%TO.C,C4*%
X165065333Y-119797142D02*
X165017714Y-119844761D01*
X165017714Y-119844761D02*
X164874857Y-119892380D01*
X164874857Y-119892380D02*
X164779619Y-119892380D01*
X164779619Y-119892380D02*
X164636762Y-119844761D01*
X164636762Y-119844761D02*
X164541524Y-119749523D01*
X164541524Y-119749523D02*
X164493905Y-119654285D01*
X164493905Y-119654285D02*
X164446286Y-119463809D01*
X164446286Y-119463809D02*
X164446286Y-119320952D01*
X164446286Y-119320952D02*
X164493905Y-119130476D01*
X164493905Y-119130476D02*
X164541524Y-119035238D01*
X164541524Y-119035238D02*
X164636762Y-118940000D01*
X164636762Y-118940000D02*
X164779619Y-118892380D01*
X164779619Y-118892380D02*
X164874857Y-118892380D01*
X164874857Y-118892380D02*
X165017714Y-118940000D01*
X165017714Y-118940000D02*
X165065333Y-118987619D01*
X165922476Y-119225714D02*
X165922476Y-119892380D01*
X165684381Y-118844761D02*
X165446286Y-119559047D01*
X165446286Y-119559047D02*
X166065333Y-119559047D01*
%TO.C,C6*%
X121313333Y-83432142D02*
X121265714Y-83479761D01*
X121265714Y-83479761D02*
X121122857Y-83527380D01*
X121122857Y-83527380D02*
X121027619Y-83527380D01*
X121027619Y-83527380D02*
X120884762Y-83479761D01*
X120884762Y-83479761D02*
X120789524Y-83384523D01*
X120789524Y-83384523D02*
X120741905Y-83289285D01*
X120741905Y-83289285D02*
X120694286Y-83098809D01*
X120694286Y-83098809D02*
X120694286Y-82955952D01*
X120694286Y-82955952D02*
X120741905Y-82765476D01*
X120741905Y-82765476D02*
X120789524Y-82670238D01*
X120789524Y-82670238D02*
X120884762Y-82575000D01*
X120884762Y-82575000D02*
X121027619Y-82527380D01*
X121027619Y-82527380D02*
X121122857Y-82527380D01*
X121122857Y-82527380D02*
X121265714Y-82575000D01*
X121265714Y-82575000D02*
X121313333Y-82622619D01*
X122170476Y-82527380D02*
X121980000Y-82527380D01*
X121980000Y-82527380D02*
X121884762Y-82575000D01*
X121884762Y-82575000D02*
X121837143Y-82622619D01*
X121837143Y-82622619D02*
X121741905Y-82765476D01*
X121741905Y-82765476D02*
X121694286Y-82955952D01*
X121694286Y-82955952D02*
X121694286Y-83336904D01*
X121694286Y-83336904D02*
X121741905Y-83432142D01*
X121741905Y-83432142D02*
X121789524Y-83479761D01*
X121789524Y-83479761D02*
X121884762Y-83527380D01*
X121884762Y-83527380D02*
X122075238Y-83527380D01*
X122075238Y-83527380D02*
X122170476Y-83479761D01*
X122170476Y-83479761D02*
X122218095Y-83432142D01*
X122218095Y-83432142D02*
X122265714Y-83336904D01*
X122265714Y-83336904D02*
X122265714Y-83098809D01*
X122265714Y-83098809D02*
X122218095Y-83003571D01*
X122218095Y-83003571D02*
X122170476Y-82955952D01*
X122170476Y-82955952D02*
X122075238Y-82908333D01*
X122075238Y-82908333D02*
X121884762Y-82908333D01*
X121884762Y-82908333D02*
X121789524Y-82955952D01*
X121789524Y-82955952D02*
X121741905Y-83003571D01*
X121741905Y-83003571D02*
X121694286Y-83098809D01*
%TO.C,C2*%
X164313333Y-112112142D02*
X164265714Y-112159761D01*
X164265714Y-112159761D02*
X164122857Y-112207380D01*
X164122857Y-112207380D02*
X164027619Y-112207380D01*
X164027619Y-112207380D02*
X163884762Y-112159761D01*
X163884762Y-112159761D02*
X163789524Y-112064523D01*
X163789524Y-112064523D02*
X163741905Y-111969285D01*
X163741905Y-111969285D02*
X163694286Y-111778809D01*
X163694286Y-111778809D02*
X163694286Y-111635952D01*
X163694286Y-111635952D02*
X163741905Y-111445476D01*
X163741905Y-111445476D02*
X163789524Y-111350238D01*
X163789524Y-111350238D02*
X163884762Y-111255000D01*
X163884762Y-111255000D02*
X164027619Y-111207380D01*
X164027619Y-111207380D02*
X164122857Y-111207380D01*
X164122857Y-111207380D02*
X164265714Y-111255000D01*
X164265714Y-111255000D02*
X164313333Y-111302619D01*
X164694286Y-111302619D02*
X164741905Y-111255000D01*
X164741905Y-111255000D02*
X164837143Y-111207380D01*
X164837143Y-111207380D02*
X165075238Y-111207380D01*
X165075238Y-111207380D02*
X165170476Y-111255000D01*
X165170476Y-111255000D02*
X165218095Y-111302619D01*
X165218095Y-111302619D02*
X165265714Y-111397857D01*
X165265714Y-111397857D02*
X165265714Y-111493095D01*
X165265714Y-111493095D02*
X165218095Y-111635952D01*
X165218095Y-111635952D02*
X164646667Y-112207380D01*
X164646667Y-112207380D02*
X165265714Y-112207380D01*
%TO.C,C1*%
X164353333Y-78112142D02*
X164305714Y-78159761D01*
X164305714Y-78159761D02*
X164162857Y-78207380D01*
X164162857Y-78207380D02*
X164067619Y-78207380D01*
X164067619Y-78207380D02*
X163924762Y-78159761D01*
X163924762Y-78159761D02*
X163829524Y-78064523D01*
X163829524Y-78064523D02*
X163781905Y-77969285D01*
X163781905Y-77969285D02*
X163734286Y-77778809D01*
X163734286Y-77778809D02*
X163734286Y-77635952D01*
X163734286Y-77635952D02*
X163781905Y-77445476D01*
X163781905Y-77445476D02*
X163829524Y-77350238D01*
X163829524Y-77350238D02*
X163924762Y-77255000D01*
X163924762Y-77255000D02*
X164067619Y-77207380D01*
X164067619Y-77207380D02*
X164162857Y-77207380D01*
X164162857Y-77207380D02*
X164305714Y-77255000D01*
X164305714Y-77255000D02*
X164353333Y-77302619D01*
X165305714Y-78207380D02*
X164734286Y-78207380D01*
X165020000Y-78207380D02*
X165020000Y-77207380D01*
X165020000Y-77207380D02*
X164924762Y-77350238D01*
X164924762Y-77350238D02*
X164829524Y-77445476D01*
X164829524Y-77445476D02*
X164734286Y-77493095D01*
%TO.C,C10*%
X98357142Y-136272142D02*
X98309523Y-136319761D01*
X98309523Y-136319761D02*
X98166666Y-136367380D01*
X98166666Y-136367380D02*
X98071428Y-136367380D01*
X98071428Y-136367380D02*
X97928571Y-136319761D01*
X97928571Y-136319761D02*
X97833333Y-136224523D01*
X97833333Y-136224523D02*
X97785714Y-136129285D01*
X97785714Y-136129285D02*
X97738095Y-135938809D01*
X97738095Y-135938809D02*
X97738095Y-135795952D01*
X97738095Y-135795952D02*
X97785714Y-135605476D01*
X97785714Y-135605476D02*
X97833333Y-135510238D01*
X97833333Y-135510238D02*
X97928571Y-135415000D01*
X97928571Y-135415000D02*
X98071428Y-135367380D01*
X98071428Y-135367380D02*
X98166666Y-135367380D01*
X98166666Y-135367380D02*
X98309523Y-135415000D01*
X98309523Y-135415000D02*
X98357142Y-135462619D01*
X99309523Y-136367380D02*
X98738095Y-136367380D01*
X99023809Y-136367380D02*
X99023809Y-135367380D01*
X99023809Y-135367380D02*
X98928571Y-135510238D01*
X98928571Y-135510238D02*
X98833333Y-135605476D01*
X98833333Y-135605476D02*
X98738095Y-135653095D01*
X99928571Y-135367380D02*
X100023809Y-135367380D01*
X100023809Y-135367380D02*
X100119047Y-135415000D01*
X100119047Y-135415000D02*
X100166666Y-135462619D01*
X100166666Y-135462619D02*
X100214285Y-135557857D01*
X100214285Y-135557857D02*
X100261904Y-135748333D01*
X100261904Y-135748333D02*
X100261904Y-135986428D01*
X100261904Y-135986428D02*
X100214285Y-136176904D01*
X100214285Y-136176904D02*
X100166666Y-136272142D01*
X100166666Y-136272142D02*
X100119047Y-136319761D01*
X100119047Y-136319761D02*
X100023809Y-136367380D01*
X100023809Y-136367380D02*
X99928571Y-136367380D01*
X99928571Y-136367380D02*
X99833333Y-136319761D01*
X99833333Y-136319761D02*
X99785714Y-136272142D01*
X99785714Y-136272142D02*
X99738095Y-136176904D01*
X99738095Y-136176904D02*
X99690476Y-135986428D01*
X99690476Y-135986428D02*
X99690476Y-135748333D01*
X99690476Y-135748333D02*
X99738095Y-135557857D01*
X99738095Y-135557857D02*
X99785714Y-135462619D01*
X99785714Y-135462619D02*
X99833333Y-135415000D01*
X99833333Y-135415000D02*
X99928571Y-135367380D01*
%TO.C,J19*%
X108190476Y-135697380D02*
X108190476Y-136411666D01*
X108190476Y-136411666D02*
X108142857Y-136554523D01*
X108142857Y-136554523D02*
X108047619Y-136649761D01*
X108047619Y-136649761D02*
X107904762Y-136697380D01*
X107904762Y-136697380D02*
X107809524Y-136697380D01*
X109190476Y-136697380D02*
X108619048Y-136697380D01*
X108904762Y-136697380D02*
X108904762Y-135697380D01*
X108904762Y-135697380D02*
X108809524Y-135840238D01*
X108809524Y-135840238D02*
X108714286Y-135935476D01*
X108714286Y-135935476D02*
X108619048Y-135983095D01*
X109666667Y-136697380D02*
X109857143Y-136697380D01*
X109857143Y-136697380D02*
X109952381Y-136649761D01*
X109952381Y-136649761D02*
X110000000Y-136602142D01*
X110000000Y-136602142D02*
X110095238Y-136459285D01*
X110095238Y-136459285D02*
X110142857Y-136268809D01*
X110142857Y-136268809D02*
X110142857Y-135887857D01*
X110142857Y-135887857D02*
X110095238Y-135792619D01*
X110095238Y-135792619D02*
X110047619Y-135745000D01*
X110047619Y-135745000D02*
X109952381Y-135697380D01*
X109952381Y-135697380D02*
X109761905Y-135697380D01*
X109761905Y-135697380D02*
X109666667Y-135745000D01*
X109666667Y-135745000D02*
X109619048Y-135792619D01*
X109619048Y-135792619D02*
X109571429Y-135887857D01*
X109571429Y-135887857D02*
X109571429Y-136125952D01*
X109571429Y-136125952D02*
X109619048Y-136221190D01*
X109619048Y-136221190D02*
X109666667Y-136268809D01*
X109666667Y-136268809D02*
X109761905Y-136316428D01*
X109761905Y-136316428D02*
X109952381Y-136316428D01*
X109952381Y-136316428D02*
X110047619Y-136268809D01*
X110047619Y-136268809D02*
X110095238Y-136221190D01*
X110095238Y-136221190D02*
X110142857Y-136125952D01*
%TO.C,J5*%
X173666666Y-121497380D02*
X173666666Y-122211666D01*
X173666666Y-122211666D02*
X173619047Y-122354523D01*
X173619047Y-122354523D02*
X173523809Y-122449761D01*
X173523809Y-122449761D02*
X173380952Y-122497380D01*
X173380952Y-122497380D02*
X173285714Y-122497380D01*
X174619047Y-121497380D02*
X174142857Y-121497380D01*
X174142857Y-121497380D02*
X174095238Y-121973571D01*
X174095238Y-121973571D02*
X174142857Y-121925952D01*
X174142857Y-121925952D02*
X174238095Y-121878333D01*
X174238095Y-121878333D02*
X174476190Y-121878333D01*
X174476190Y-121878333D02*
X174571428Y-121925952D01*
X174571428Y-121925952D02*
X174619047Y-121973571D01*
X174619047Y-121973571D02*
X174666666Y-122068809D01*
X174666666Y-122068809D02*
X174666666Y-122306904D01*
X174666666Y-122306904D02*
X174619047Y-122402142D01*
X174619047Y-122402142D02*
X174571428Y-122449761D01*
X174571428Y-122449761D02*
X174476190Y-122497380D01*
X174476190Y-122497380D02*
X174238095Y-122497380D01*
X174238095Y-122497380D02*
X174142857Y-122449761D01*
X174142857Y-122449761D02*
X174095238Y-122402142D01*
%TO.C,J6*%
X130064166Y-88947380D02*
X130064166Y-89661666D01*
X130064166Y-89661666D02*
X130016547Y-89804523D01*
X130016547Y-89804523D02*
X129921309Y-89899761D01*
X129921309Y-89899761D02*
X129778452Y-89947380D01*
X129778452Y-89947380D02*
X129683214Y-89947380D01*
X130968928Y-88947380D02*
X130778452Y-88947380D01*
X130778452Y-88947380D02*
X130683214Y-88995000D01*
X130683214Y-88995000D02*
X130635595Y-89042619D01*
X130635595Y-89042619D02*
X130540357Y-89185476D01*
X130540357Y-89185476D02*
X130492738Y-89375952D01*
X130492738Y-89375952D02*
X130492738Y-89756904D01*
X130492738Y-89756904D02*
X130540357Y-89852142D01*
X130540357Y-89852142D02*
X130587976Y-89899761D01*
X130587976Y-89899761D02*
X130683214Y-89947380D01*
X130683214Y-89947380D02*
X130873690Y-89947380D01*
X130873690Y-89947380D02*
X130968928Y-89899761D01*
X130968928Y-89899761D02*
X131016547Y-89852142D01*
X131016547Y-89852142D02*
X131064166Y-89756904D01*
X131064166Y-89756904D02*
X131064166Y-89518809D01*
X131064166Y-89518809D02*
X131016547Y-89423571D01*
X131016547Y-89423571D02*
X130968928Y-89375952D01*
X130968928Y-89375952D02*
X130873690Y-89328333D01*
X130873690Y-89328333D02*
X130683214Y-89328333D01*
X130683214Y-89328333D02*
X130587976Y-89375952D01*
X130587976Y-89375952D02*
X130540357Y-89423571D01*
X130540357Y-89423571D02*
X130492738Y-89518809D01*
%TO.C,J7*%
X178666666Y-64037380D02*
X178666666Y-64751666D01*
X178666666Y-64751666D02*
X178619047Y-64894523D01*
X178619047Y-64894523D02*
X178523809Y-64989761D01*
X178523809Y-64989761D02*
X178380952Y-65037380D01*
X178380952Y-65037380D02*
X178285714Y-65037380D01*
X179047619Y-64037380D02*
X179714285Y-64037380D01*
X179714285Y-64037380D02*
X179285714Y-65037380D01*
%TO.C,J1*%
X86567380Y-99248333D02*
X87281666Y-99248333D01*
X87281666Y-99248333D02*
X87424523Y-99295952D01*
X87424523Y-99295952D02*
X87519761Y-99391190D01*
X87519761Y-99391190D02*
X87567380Y-99534047D01*
X87567380Y-99534047D02*
X87567380Y-99629285D01*
X87567380Y-98248333D02*
X87567380Y-98819761D01*
X87567380Y-98534047D02*
X86567380Y-98534047D01*
X86567380Y-98534047D02*
X86710238Y-98629285D01*
X86710238Y-98629285D02*
X86805476Y-98724523D01*
X86805476Y-98724523D02*
X86853095Y-98819761D01*
%TO.C,D1*%
X159717380Y-129675594D02*
X158717380Y-129675594D01*
X158717380Y-129675594D02*
X158717380Y-129437499D01*
X158717380Y-129437499D02*
X158765000Y-129294642D01*
X158765000Y-129294642D02*
X158860238Y-129199404D01*
X158860238Y-129199404D02*
X158955476Y-129151785D01*
X158955476Y-129151785D02*
X159145952Y-129104166D01*
X159145952Y-129104166D02*
X159288809Y-129104166D01*
X159288809Y-129104166D02*
X159479285Y-129151785D01*
X159479285Y-129151785D02*
X159574523Y-129199404D01*
X159574523Y-129199404D02*
X159669761Y-129294642D01*
X159669761Y-129294642D02*
X159717380Y-129437499D01*
X159717380Y-129437499D02*
X159717380Y-129675594D01*
X159717380Y-128151785D02*
X159717380Y-128723213D01*
X159717380Y-128437499D02*
X158717380Y-128437499D01*
X158717380Y-128437499D02*
X158860238Y-128532737D01*
X158860238Y-128532737D02*
X158955476Y-128627975D01*
X158955476Y-128627975D02*
X159003095Y-128723213D01*
%TO.C,JP2*%
X116228666Y-70242380D02*
X116228666Y-70956666D01*
X116228666Y-70956666D02*
X116181047Y-71099523D01*
X116181047Y-71099523D02*
X116085809Y-71194761D01*
X116085809Y-71194761D02*
X115942952Y-71242380D01*
X115942952Y-71242380D02*
X115847714Y-71242380D01*
X116704857Y-71242380D02*
X116704857Y-70242380D01*
X116704857Y-70242380D02*
X117085809Y-70242380D01*
X117085809Y-70242380D02*
X117181047Y-70290000D01*
X117181047Y-70290000D02*
X117228666Y-70337619D01*
X117228666Y-70337619D02*
X117276285Y-70432857D01*
X117276285Y-70432857D02*
X117276285Y-70575714D01*
X117276285Y-70575714D02*
X117228666Y-70670952D01*
X117228666Y-70670952D02*
X117181047Y-70718571D01*
X117181047Y-70718571D02*
X117085809Y-70766190D01*
X117085809Y-70766190D02*
X116704857Y-70766190D01*
X117657238Y-70337619D02*
X117704857Y-70290000D01*
X117704857Y-70290000D02*
X117800095Y-70242380D01*
X117800095Y-70242380D02*
X118038190Y-70242380D01*
X118038190Y-70242380D02*
X118133428Y-70290000D01*
X118133428Y-70290000D02*
X118181047Y-70337619D01*
X118181047Y-70337619D02*
X118228666Y-70432857D01*
X118228666Y-70432857D02*
X118228666Y-70528095D01*
X118228666Y-70528095D02*
X118181047Y-70670952D01*
X118181047Y-70670952D02*
X117609619Y-71242380D01*
X117609619Y-71242380D02*
X118228666Y-71242380D01*
X119328667Y-72042380D02*
X119947714Y-72042380D01*
X119947714Y-72042380D02*
X119614381Y-72423333D01*
X119614381Y-72423333D02*
X119757238Y-72423333D01*
X119757238Y-72423333D02*
X119852476Y-72470952D01*
X119852476Y-72470952D02*
X119900095Y-72518571D01*
X119900095Y-72518571D02*
X119947714Y-72613809D01*
X119947714Y-72613809D02*
X119947714Y-72851904D01*
X119947714Y-72851904D02*
X119900095Y-72947142D01*
X119900095Y-72947142D02*
X119852476Y-72994761D01*
X119852476Y-72994761D02*
X119757238Y-73042380D01*
X119757238Y-73042380D02*
X119471524Y-73042380D01*
X119471524Y-73042380D02*
X119376286Y-72994761D01*
X119376286Y-72994761D02*
X119328667Y-72947142D01*
X114747714Y-73042380D02*
X114176286Y-73042380D01*
X114462000Y-73042380D02*
X114462000Y-72042380D01*
X114462000Y-72042380D02*
X114366762Y-72185238D01*
X114366762Y-72185238D02*
X114271524Y-72280476D01*
X114271524Y-72280476D02*
X114176286Y-72328095D01*
%TO.C,JP1*%
X172567380Y-59833333D02*
X173281666Y-59833333D01*
X173281666Y-59833333D02*
X173424523Y-59880952D01*
X173424523Y-59880952D02*
X173519761Y-59976190D01*
X173519761Y-59976190D02*
X173567380Y-60119047D01*
X173567380Y-60119047D02*
X173567380Y-60214285D01*
X173567380Y-59357142D02*
X172567380Y-59357142D01*
X172567380Y-59357142D02*
X172567380Y-58976190D01*
X172567380Y-58976190D02*
X172615000Y-58880952D01*
X172615000Y-58880952D02*
X172662619Y-58833333D01*
X172662619Y-58833333D02*
X172757857Y-58785714D01*
X172757857Y-58785714D02*
X172900714Y-58785714D01*
X172900714Y-58785714D02*
X172995952Y-58833333D01*
X172995952Y-58833333D02*
X173043571Y-58880952D01*
X173043571Y-58880952D02*
X173091190Y-58976190D01*
X173091190Y-58976190D02*
X173091190Y-59357142D01*
X173567380Y-57833333D02*
X173567380Y-58404761D01*
X173567380Y-58119047D02*
X172567380Y-58119047D01*
X172567380Y-58119047D02*
X172710238Y-58214285D01*
X172710238Y-58214285D02*
X172805476Y-58309523D01*
X172805476Y-58309523D02*
X172853095Y-58404761D01*
X174367380Y-56733332D02*
X174367380Y-56114285D01*
X174367380Y-56114285D02*
X174748333Y-56447618D01*
X174748333Y-56447618D02*
X174748333Y-56304761D01*
X174748333Y-56304761D02*
X174795952Y-56209523D01*
X174795952Y-56209523D02*
X174843571Y-56161904D01*
X174843571Y-56161904D02*
X174938809Y-56114285D01*
X174938809Y-56114285D02*
X175176904Y-56114285D01*
X175176904Y-56114285D02*
X175272142Y-56161904D01*
X175272142Y-56161904D02*
X175319761Y-56209523D01*
X175319761Y-56209523D02*
X175367380Y-56304761D01*
X175367380Y-56304761D02*
X175367380Y-56590475D01*
X175367380Y-56590475D02*
X175319761Y-56685713D01*
X175319761Y-56685713D02*
X175272142Y-56733332D01*
X175367380Y-61314285D02*
X175367380Y-61885713D01*
X175367380Y-61599999D02*
X174367380Y-61599999D01*
X174367380Y-61599999D02*
X174510238Y-61695237D01*
X174510238Y-61695237D02*
X174605476Y-61790475D01*
X174605476Y-61790475D02*
X174653095Y-61885713D01*
%TO.C,D2*%
X161717380Y-133800594D02*
X160717380Y-133800594D01*
X160717380Y-133800594D02*
X160717380Y-133562499D01*
X160717380Y-133562499D02*
X160765000Y-133419642D01*
X160765000Y-133419642D02*
X160860238Y-133324404D01*
X160860238Y-133324404D02*
X160955476Y-133276785D01*
X160955476Y-133276785D02*
X161145952Y-133229166D01*
X161145952Y-133229166D02*
X161288809Y-133229166D01*
X161288809Y-133229166D02*
X161479285Y-133276785D01*
X161479285Y-133276785D02*
X161574523Y-133324404D01*
X161574523Y-133324404D02*
X161669761Y-133419642D01*
X161669761Y-133419642D02*
X161717380Y-133562499D01*
X161717380Y-133562499D02*
X161717380Y-133800594D01*
X160812619Y-132848213D02*
X160765000Y-132800594D01*
X160765000Y-132800594D02*
X160717380Y-132705356D01*
X160717380Y-132705356D02*
X160717380Y-132467261D01*
X160717380Y-132467261D02*
X160765000Y-132372023D01*
X160765000Y-132372023D02*
X160812619Y-132324404D01*
X160812619Y-132324404D02*
X160907857Y-132276785D01*
X160907857Y-132276785D02*
X161003095Y-132276785D01*
X161003095Y-132276785D02*
X161145952Y-132324404D01*
X161145952Y-132324404D02*
X161717380Y-132895832D01*
X161717380Y-132895832D02*
X161717380Y-132276785D01*
%TO.C,U2*%
X120035595Y-87657380D02*
X120035595Y-88466904D01*
X120035595Y-88466904D02*
X120083214Y-88562142D01*
X120083214Y-88562142D02*
X120130833Y-88609761D01*
X120130833Y-88609761D02*
X120226071Y-88657380D01*
X120226071Y-88657380D02*
X120416547Y-88657380D01*
X120416547Y-88657380D02*
X120511785Y-88609761D01*
X120511785Y-88609761D02*
X120559404Y-88562142D01*
X120559404Y-88562142D02*
X120607023Y-88466904D01*
X120607023Y-88466904D02*
X120607023Y-87657380D01*
X121035595Y-87752619D02*
X121083214Y-87705000D01*
X121083214Y-87705000D02*
X121178452Y-87657380D01*
X121178452Y-87657380D02*
X121416547Y-87657380D01*
X121416547Y-87657380D02*
X121511785Y-87705000D01*
X121511785Y-87705000D02*
X121559404Y-87752619D01*
X121559404Y-87752619D02*
X121607023Y-87847857D01*
X121607023Y-87847857D02*
X121607023Y-87943095D01*
X121607023Y-87943095D02*
X121559404Y-88085952D01*
X121559404Y-88085952D02*
X120987976Y-88657380D01*
X120987976Y-88657380D02*
X121607023Y-88657380D01*
%TO.C,U4*%
X94375595Y-133717380D02*
X94375595Y-134526904D01*
X94375595Y-134526904D02*
X94423214Y-134622142D01*
X94423214Y-134622142D02*
X94470833Y-134669761D01*
X94470833Y-134669761D02*
X94566071Y-134717380D01*
X94566071Y-134717380D02*
X94756547Y-134717380D01*
X94756547Y-134717380D02*
X94851785Y-134669761D01*
X94851785Y-134669761D02*
X94899404Y-134622142D01*
X94899404Y-134622142D02*
X94947023Y-134526904D01*
X94947023Y-134526904D02*
X94947023Y-133717380D01*
X95851785Y-134050714D02*
X95851785Y-134717380D01*
X95613690Y-133669761D02*
X95375595Y-134384047D01*
X95375595Y-134384047D02*
X95994642Y-134384047D01*
%TO.C,R2*%
X159833333Y-78197380D02*
X159500000Y-77721190D01*
X159261905Y-78197380D02*
X159261905Y-77197380D01*
X159261905Y-77197380D02*
X159642857Y-77197380D01*
X159642857Y-77197380D02*
X159738095Y-77245000D01*
X159738095Y-77245000D02*
X159785714Y-77292619D01*
X159785714Y-77292619D02*
X159833333Y-77387857D01*
X159833333Y-77387857D02*
X159833333Y-77530714D01*
X159833333Y-77530714D02*
X159785714Y-77625952D01*
X159785714Y-77625952D02*
X159738095Y-77673571D01*
X159738095Y-77673571D02*
X159642857Y-77721190D01*
X159642857Y-77721190D02*
X159261905Y-77721190D01*
X160214286Y-77292619D02*
X160261905Y-77245000D01*
X160261905Y-77245000D02*
X160357143Y-77197380D01*
X160357143Y-77197380D02*
X160595238Y-77197380D01*
X160595238Y-77197380D02*
X160690476Y-77245000D01*
X160690476Y-77245000D02*
X160738095Y-77292619D01*
X160738095Y-77292619D02*
X160785714Y-77387857D01*
X160785714Y-77387857D02*
X160785714Y-77483095D01*
X160785714Y-77483095D02*
X160738095Y-77625952D01*
X160738095Y-77625952D02*
X160166667Y-78197380D01*
X160166667Y-78197380D02*
X160785714Y-78197380D01*
%TO.C,R10*%
X101777142Y-130767380D02*
X101443809Y-130291190D01*
X101205714Y-130767380D02*
X101205714Y-129767380D01*
X101205714Y-129767380D02*
X101586666Y-129767380D01*
X101586666Y-129767380D02*
X101681904Y-129815000D01*
X101681904Y-129815000D02*
X101729523Y-129862619D01*
X101729523Y-129862619D02*
X101777142Y-129957857D01*
X101777142Y-129957857D02*
X101777142Y-130100714D01*
X101777142Y-130100714D02*
X101729523Y-130195952D01*
X101729523Y-130195952D02*
X101681904Y-130243571D01*
X101681904Y-130243571D02*
X101586666Y-130291190D01*
X101586666Y-130291190D02*
X101205714Y-130291190D01*
X102729523Y-130767380D02*
X102158095Y-130767380D01*
X102443809Y-130767380D02*
X102443809Y-129767380D01*
X102443809Y-129767380D02*
X102348571Y-129910238D01*
X102348571Y-129910238D02*
X102253333Y-130005476D01*
X102253333Y-130005476D02*
X102158095Y-130053095D01*
X103348571Y-129767380D02*
X103443809Y-129767380D01*
X103443809Y-129767380D02*
X103539047Y-129815000D01*
X103539047Y-129815000D02*
X103586666Y-129862619D01*
X103586666Y-129862619D02*
X103634285Y-129957857D01*
X103634285Y-129957857D02*
X103681904Y-130148333D01*
X103681904Y-130148333D02*
X103681904Y-130386428D01*
X103681904Y-130386428D02*
X103634285Y-130576904D01*
X103634285Y-130576904D02*
X103586666Y-130672142D01*
X103586666Y-130672142D02*
X103539047Y-130719761D01*
X103539047Y-130719761D02*
X103443809Y-130767380D01*
X103443809Y-130767380D02*
X103348571Y-130767380D01*
X103348571Y-130767380D02*
X103253333Y-130719761D01*
X103253333Y-130719761D02*
X103205714Y-130672142D01*
X103205714Y-130672142D02*
X103158095Y-130576904D01*
X103158095Y-130576904D02*
X103110476Y-130386428D01*
X103110476Y-130386428D02*
X103110476Y-130148333D01*
X103110476Y-130148333D02*
X103158095Y-129957857D01*
X103158095Y-129957857D02*
X103205714Y-129862619D01*
X103205714Y-129862619D02*
X103253333Y-129815000D01*
X103253333Y-129815000D02*
X103348571Y-129767380D01*
%TO.C,R11*%
X101182142Y-126797380D02*
X100848809Y-126321190D01*
X100610714Y-126797380D02*
X100610714Y-125797380D01*
X100610714Y-125797380D02*
X100991666Y-125797380D01*
X100991666Y-125797380D02*
X101086904Y-125845000D01*
X101086904Y-125845000D02*
X101134523Y-125892619D01*
X101134523Y-125892619D02*
X101182142Y-125987857D01*
X101182142Y-125987857D02*
X101182142Y-126130714D01*
X101182142Y-126130714D02*
X101134523Y-126225952D01*
X101134523Y-126225952D02*
X101086904Y-126273571D01*
X101086904Y-126273571D02*
X100991666Y-126321190D01*
X100991666Y-126321190D02*
X100610714Y-126321190D01*
X102134523Y-126797380D02*
X101563095Y-126797380D01*
X101848809Y-126797380D02*
X101848809Y-125797380D01*
X101848809Y-125797380D02*
X101753571Y-125940238D01*
X101753571Y-125940238D02*
X101658333Y-126035476D01*
X101658333Y-126035476D02*
X101563095Y-126083095D01*
X103086904Y-126797380D02*
X102515476Y-126797380D01*
X102801190Y-126797380D02*
X102801190Y-125797380D01*
X102801190Y-125797380D02*
X102705952Y-125940238D01*
X102705952Y-125940238D02*
X102610714Y-126035476D01*
X102610714Y-126035476D02*
X102515476Y-126083095D01*
%TO.C,R9*%
X102053333Y-122017380D02*
X101720000Y-121541190D01*
X101481905Y-122017380D02*
X101481905Y-121017380D01*
X101481905Y-121017380D02*
X101862857Y-121017380D01*
X101862857Y-121017380D02*
X101958095Y-121065000D01*
X101958095Y-121065000D02*
X102005714Y-121112619D01*
X102005714Y-121112619D02*
X102053333Y-121207857D01*
X102053333Y-121207857D02*
X102053333Y-121350714D01*
X102053333Y-121350714D02*
X102005714Y-121445952D01*
X102005714Y-121445952D02*
X101958095Y-121493571D01*
X101958095Y-121493571D02*
X101862857Y-121541190D01*
X101862857Y-121541190D02*
X101481905Y-121541190D01*
X102529524Y-122017380D02*
X102720000Y-122017380D01*
X102720000Y-122017380D02*
X102815238Y-121969761D01*
X102815238Y-121969761D02*
X102862857Y-121922142D01*
X102862857Y-121922142D02*
X102958095Y-121779285D01*
X102958095Y-121779285D02*
X103005714Y-121588809D01*
X103005714Y-121588809D02*
X103005714Y-121207857D01*
X103005714Y-121207857D02*
X102958095Y-121112619D01*
X102958095Y-121112619D02*
X102910476Y-121065000D01*
X102910476Y-121065000D02*
X102815238Y-121017380D01*
X102815238Y-121017380D02*
X102624762Y-121017380D01*
X102624762Y-121017380D02*
X102529524Y-121065000D01*
X102529524Y-121065000D02*
X102481905Y-121112619D01*
X102481905Y-121112619D02*
X102434286Y-121207857D01*
X102434286Y-121207857D02*
X102434286Y-121445952D01*
X102434286Y-121445952D02*
X102481905Y-121541190D01*
X102481905Y-121541190D02*
X102529524Y-121588809D01*
X102529524Y-121588809D02*
X102624762Y-121636428D01*
X102624762Y-121636428D02*
X102815238Y-121636428D01*
X102815238Y-121636428D02*
X102910476Y-121588809D01*
X102910476Y-121588809D02*
X102958095Y-121541190D01*
X102958095Y-121541190D02*
X103005714Y-121445952D01*
%TO.C,R8*%
X115920833Y-91717380D02*
X115587500Y-91241190D01*
X115349405Y-91717380D02*
X115349405Y-90717380D01*
X115349405Y-90717380D02*
X115730357Y-90717380D01*
X115730357Y-90717380D02*
X115825595Y-90765000D01*
X115825595Y-90765000D02*
X115873214Y-90812619D01*
X115873214Y-90812619D02*
X115920833Y-90907857D01*
X115920833Y-90907857D02*
X115920833Y-91050714D01*
X115920833Y-91050714D02*
X115873214Y-91145952D01*
X115873214Y-91145952D02*
X115825595Y-91193571D01*
X115825595Y-91193571D02*
X115730357Y-91241190D01*
X115730357Y-91241190D02*
X115349405Y-91241190D01*
X116492262Y-91145952D02*
X116397024Y-91098333D01*
X116397024Y-91098333D02*
X116349405Y-91050714D01*
X116349405Y-91050714D02*
X116301786Y-90955476D01*
X116301786Y-90955476D02*
X116301786Y-90907857D01*
X116301786Y-90907857D02*
X116349405Y-90812619D01*
X116349405Y-90812619D02*
X116397024Y-90765000D01*
X116397024Y-90765000D02*
X116492262Y-90717380D01*
X116492262Y-90717380D02*
X116682738Y-90717380D01*
X116682738Y-90717380D02*
X116777976Y-90765000D01*
X116777976Y-90765000D02*
X116825595Y-90812619D01*
X116825595Y-90812619D02*
X116873214Y-90907857D01*
X116873214Y-90907857D02*
X116873214Y-90955476D01*
X116873214Y-90955476D02*
X116825595Y-91050714D01*
X116825595Y-91050714D02*
X116777976Y-91098333D01*
X116777976Y-91098333D02*
X116682738Y-91145952D01*
X116682738Y-91145952D02*
X116492262Y-91145952D01*
X116492262Y-91145952D02*
X116397024Y-91193571D01*
X116397024Y-91193571D02*
X116349405Y-91241190D01*
X116349405Y-91241190D02*
X116301786Y-91336428D01*
X116301786Y-91336428D02*
X116301786Y-91526904D01*
X116301786Y-91526904D02*
X116349405Y-91622142D01*
X116349405Y-91622142D02*
X116397024Y-91669761D01*
X116397024Y-91669761D02*
X116492262Y-91717380D01*
X116492262Y-91717380D02*
X116682738Y-91717380D01*
X116682738Y-91717380D02*
X116777976Y-91669761D01*
X116777976Y-91669761D02*
X116825595Y-91622142D01*
X116825595Y-91622142D02*
X116873214Y-91526904D01*
X116873214Y-91526904D02*
X116873214Y-91336428D01*
X116873214Y-91336428D02*
X116825595Y-91241190D01*
X116825595Y-91241190D02*
X116777976Y-91193571D01*
X116777976Y-91193571D02*
X116682738Y-91145952D01*
%TO.C,R7*%
X115920833Y-88767380D02*
X115587500Y-88291190D01*
X115349405Y-88767380D02*
X115349405Y-87767380D01*
X115349405Y-87767380D02*
X115730357Y-87767380D01*
X115730357Y-87767380D02*
X115825595Y-87815000D01*
X115825595Y-87815000D02*
X115873214Y-87862619D01*
X115873214Y-87862619D02*
X115920833Y-87957857D01*
X115920833Y-87957857D02*
X115920833Y-88100714D01*
X115920833Y-88100714D02*
X115873214Y-88195952D01*
X115873214Y-88195952D02*
X115825595Y-88243571D01*
X115825595Y-88243571D02*
X115730357Y-88291190D01*
X115730357Y-88291190D02*
X115349405Y-88291190D01*
X116254167Y-87767380D02*
X116920833Y-87767380D01*
X116920833Y-87767380D02*
X116492262Y-88767380D01*
%TO.C,R1*%
X159533333Y-81847380D02*
X159200000Y-81371190D01*
X158961905Y-81847380D02*
X158961905Y-80847380D01*
X158961905Y-80847380D02*
X159342857Y-80847380D01*
X159342857Y-80847380D02*
X159438095Y-80895000D01*
X159438095Y-80895000D02*
X159485714Y-80942619D01*
X159485714Y-80942619D02*
X159533333Y-81037857D01*
X159533333Y-81037857D02*
X159533333Y-81180714D01*
X159533333Y-81180714D02*
X159485714Y-81275952D01*
X159485714Y-81275952D02*
X159438095Y-81323571D01*
X159438095Y-81323571D02*
X159342857Y-81371190D01*
X159342857Y-81371190D02*
X158961905Y-81371190D01*
X160485714Y-81847380D02*
X159914286Y-81847380D01*
X160200000Y-81847380D02*
X160200000Y-80847380D01*
X160200000Y-80847380D02*
X160104762Y-80990238D01*
X160104762Y-80990238D02*
X160009524Y-81085476D01*
X160009524Y-81085476D02*
X159914286Y-81133095D01*
%TO.C,R5*%
X127120333Y-74622380D02*
X126787000Y-74146190D01*
X126548905Y-74622380D02*
X126548905Y-73622380D01*
X126548905Y-73622380D02*
X126929857Y-73622380D01*
X126929857Y-73622380D02*
X127025095Y-73670000D01*
X127025095Y-73670000D02*
X127072714Y-73717619D01*
X127072714Y-73717619D02*
X127120333Y-73812857D01*
X127120333Y-73812857D02*
X127120333Y-73955714D01*
X127120333Y-73955714D02*
X127072714Y-74050952D01*
X127072714Y-74050952D02*
X127025095Y-74098571D01*
X127025095Y-74098571D02*
X126929857Y-74146190D01*
X126929857Y-74146190D02*
X126548905Y-74146190D01*
X128025095Y-73622380D02*
X127548905Y-73622380D01*
X127548905Y-73622380D02*
X127501286Y-74098571D01*
X127501286Y-74098571D02*
X127548905Y-74050952D01*
X127548905Y-74050952D02*
X127644143Y-74003333D01*
X127644143Y-74003333D02*
X127882238Y-74003333D01*
X127882238Y-74003333D02*
X127977476Y-74050952D01*
X127977476Y-74050952D02*
X128025095Y-74098571D01*
X128025095Y-74098571D02*
X128072714Y-74193809D01*
X128072714Y-74193809D02*
X128072714Y-74431904D01*
X128072714Y-74431904D02*
X128025095Y-74527142D01*
X128025095Y-74527142D02*
X127977476Y-74574761D01*
X127977476Y-74574761D02*
X127882238Y-74622380D01*
X127882238Y-74622380D02*
X127644143Y-74622380D01*
X127644143Y-74622380D02*
X127548905Y-74574761D01*
X127548905Y-74574761D02*
X127501286Y-74527142D01*
%TO.C,R6*%
X127120333Y-78672380D02*
X126787000Y-78196190D01*
X126548905Y-78672380D02*
X126548905Y-77672380D01*
X126548905Y-77672380D02*
X126929857Y-77672380D01*
X126929857Y-77672380D02*
X127025095Y-77720000D01*
X127025095Y-77720000D02*
X127072714Y-77767619D01*
X127072714Y-77767619D02*
X127120333Y-77862857D01*
X127120333Y-77862857D02*
X127120333Y-78005714D01*
X127120333Y-78005714D02*
X127072714Y-78100952D01*
X127072714Y-78100952D02*
X127025095Y-78148571D01*
X127025095Y-78148571D02*
X126929857Y-78196190D01*
X126929857Y-78196190D02*
X126548905Y-78196190D01*
X127977476Y-77672380D02*
X127787000Y-77672380D01*
X127787000Y-77672380D02*
X127691762Y-77720000D01*
X127691762Y-77720000D02*
X127644143Y-77767619D01*
X127644143Y-77767619D02*
X127548905Y-77910476D01*
X127548905Y-77910476D02*
X127501286Y-78100952D01*
X127501286Y-78100952D02*
X127501286Y-78481904D01*
X127501286Y-78481904D02*
X127548905Y-78577142D01*
X127548905Y-78577142D02*
X127596524Y-78624761D01*
X127596524Y-78624761D02*
X127691762Y-78672380D01*
X127691762Y-78672380D02*
X127882238Y-78672380D01*
X127882238Y-78672380D02*
X127977476Y-78624761D01*
X127977476Y-78624761D02*
X128025095Y-78577142D01*
X128025095Y-78577142D02*
X128072714Y-78481904D01*
X128072714Y-78481904D02*
X128072714Y-78243809D01*
X128072714Y-78243809D02*
X128025095Y-78148571D01*
X128025095Y-78148571D02*
X127977476Y-78100952D01*
X127977476Y-78100952D02*
X127882238Y-78053333D01*
X127882238Y-78053333D02*
X127691762Y-78053333D01*
X127691762Y-78053333D02*
X127596524Y-78100952D01*
X127596524Y-78100952D02*
X127548905Y-78148571D01*
X127548905Y-78148571D02*
X127501286Y-78243809D01*
%TO.C,R3*%
X169058333Y-129457380D02*
X168725000Y-128981190D01*
X168486905Y-129457380D02*
X168486905Y-128457380D01*
X168486905Y-128457380D02*
X168867857Y-128457380D01*
X168867857Y-128457380D02*
X168963095Y-128505000D01*
X168963095Y-128505000D02*
X169010714Y-128552619D01*
X169010714Y-128552619D02*
X169058333Y-128647857D01*
X169058333Y-128647857D02*
X169058333Y-128790714D01*
X169058333Y-128790714D02*
X169010714Y-128885952D01*
X169010714Y-128885952D02*
X168963095Y-128933571D01*
X168963095Y-128933571D02*
X168867857Y-128981190D01*
X168867857Y-128981190D02*
X168486905Y-128981190D01*
X169391667Y-128457380D02*
X170010714Y-128457380D01*
X170010714Y-128457380D02*
X169677381Y-128838333D01*
X169677381Y-128838333D02*
X169820238Y-128838333D01*
X169820238Y-128838333D02*
X169915476Y-128885952D01*
X169915476Y-128885952D02*
X169963095Y-128933571D01*
X169963095Y-128933571D02*
X170010714Y-129028809D01*
X170010714Y-129028809D02*
X170010714Y-129266904D01*
X170010714Y-129266904D02*
X169963095Y-129362142D01*
X169963095Y-129362142D02*
X169915476Y-129409761D01*
X169915476Y-129409761D02*
X169820238Y-129457380D01*
X169820238Y-129457380D02*
X169534524Y-129457380D01*
X169534524Y-129457380D02*
X169439286Y-129409761D01*
X169439286Y-129409761D02*
X169391667Y-129362142D01*
%TO.C,R4*%
X169058333Y-133507380D02*
X168725000Y-133031190D01*
X168486905Y-133507380D02*
X168486905Y-132507380D01*
X168486905Y-132507380D02*
X168867857Y-132507380D01*
X168867857Y-132507380D02*
X168963095Y-132555000D01*
X168963095Y-132555000D02*
X169010714Y-132602619D01*
X169010714Y-132602619D02*
X169058333Y-132697857D01*
X169058333Y-132697857D02*
X169058333Y-132840714D01*
X169058333Y-132840714D02*
X169010714Y-132935952D01*
X169010714Y-132935952D02*
X168963095Y-132983571D01*
X168963095Y-132983571D02*
X168867857Y-133031190D01*
X168867857Y-133031190D02*
X168486905Y-133031190D01*
X169915476Y-132840714D02*
X169915476Y-133507380D01*
X169677381Y-132459761D02*
X169439286Y-133174047D01*
X169439286Y-133174047D02*
X170058333Y-133174047D01*
%TO.C,TP1*%
X152038095Y-66367380D02*
X152609523Y-66367380D01*
X152323809Y-67367380D02*
X152323809Y-66367380D01*
X152942857Y-67367380D02*
X152942857Y-66367380D01*
X152942857Y-66367380D02*
X153323809Y-66367380D01*
X153323809Y-66367380D02*
X153419047Y-66415000D01*
X153419047Y-66415000D02*
X153466666Y-66462619D01*
X153466666Y-66462619D02*
X153514285Y-66557857D01*
X153514285Y-66557857D02*
X153514285Y-66700714D01*
X153514285Y-66700714D02*
X153466666Y-66795952D01*
X153466666Y-66795952D02*
X153419047Y-66843571D01*
X153419047Y-66843571D02*
X153323809Y-66891190D01*
X153323809Y-66891190D02*
X152942857Y-66891190D01*
X154466666Y-67367380D02*
X153895238Y-67367380D01*
X154180952Y-67367380D02*
X154180952Y-66367380D01*
X154180952Y-66367380D02*
X154085714Y-66510238D01*
X154085714Y-66510238D02*
X153990476Y-66605476D01*
X153990476Y-66605476D02*
X153895238Y-66653095D01*
%TO.C,TP2*%
X167438095Y-91367380D02*
X168009523Y-91367380D01*
X167723809Y-92367380D02*
X167723809Y-91367380D01*
X168342857Y-92367380D02*
X168342857Y-91367380D01*
X168342857Y-91367380D02*
X168723809Y-91367380D01*
X168723809Y-91367380D02*
X168819047Y-91415000D01*
X168819047Y-91415000D02*
X168866666Y-91462619D01*
X168866666Y-91462619D02*
X168914285Y-91557857D01*
X168914285Y-91557857D02*
X168914285Y-91700714D01*
X168914285Y-91700714D02*
X168866666Y-91795952D01*
X168866666Y-91795952D02*
X168819047Y-91843571D01*
X168819047Y-91843571D02*
X168723809Y-91891190D01*
X168723809Y-91891190D02*
X168342857Y-91891190D01*
X169295238Y-91462619D02*
X169342857Y-91415000D01*
X169342857Y-91415000D02*
X169438095Y-91367380D01*
X169438095Y-91367380D02*
X169676190Y-91367380D01*
X169676190Y-91367380D02*
X169771428Y-91415000D01*
X169771428Y-91415000D02*
X169819047Y-91462619D01*
X169819047Y-91462619D02*
X169866666Y-91557857D01*
X169866666Y-91557857D02*
X169866666Y-91653095D01*
X169866666Y-91653095D02*
X169819047Y-91795952D01*
X169819047Y-91795952D02*
X169247619Y-92367380D01*
X169247619Y-92367380D02*
X169866666Y-92367380D01*
%TO.C,TP3*%
X166079380Y-117326904D02*
X166079380Y-116755476D01*
X167079380Y-117041190D02*
X166079380Y-117041190D01*
X167079380Y-116422142D02*
X166079380Y-116422142D01*
X166079380Y-116422142D02*
X166079380Y-116041190D01*
X166079380Y-116041190D02*
X166127000Y-115945952D01*
X166127000Y-115945952D02*
X166174619Y-115898333D01*
X166174619Y-115898333D02*
X166269857Y-115850714D01*
X166269857Y-115850714D02*
X166412714Y-115850714D01*
X166412714Y-115850714D02*
X166507952Y-115898333D01*
X166507952Y-115898333D02*
X166555571Y-115945952D01*
X166555571Y-115945952D02*
X166603190Y-116041190D01*
X166603190Y-116041190D02*
X166603190Y-116422142D01*
X166079380Y-115517380D02*
X166079380Y-114898333D01*
X166079380Y-114898333D02*
X166460333Y-115231666D01*
X166460333Y-115231666D02*
X166460333Y-115088809D01*
X166460333Y-115088809D02*
X166507952Y-114993571D01*
X166507952Y-114993571D02*
X166555571Y-114945952D01*
X166555571Y-114945952D02*
X166650809Y-114898333D01*
X166650809Y-114898333D02*
X166888904Y-114898333D01*
X166888904Y-114898333D02*
X166984142Y-114945952D01*
X166984142Y-114945952D02*
X167031761Y-114993571D01*
X167031761Y-114993571D02*
X167079380Y-115088809D01*
X167079380Y-115088809D02*
X167079380Y-115374523D01*
X167079380Y-115374523D02*
X167031761Y-115469761D01*
X167031761Y-115469761D02*
X166984142Y-115517380D01*
D12*
%TO.C,J4*%
X184330000Y-116540000D02*
X184330000Y-117870000D01*
X184330000Y-112670000D02*
X181670000Y-112670000D01*
X184330000Y-115270000D02*
X184330000Y-112670000D01*
X184330000Y-115270000D02*
X181670000Y-115270000D01*
X184330000Y-117870000D02*
X183000000Y-117870000D01*
X181670000Y-115270000D02*
X181670000Y-112670000D01*
%TO.C,J2*%
X154040000Y-76950000D02*
X154040000Y-75620000D01*
X154040000Y-80820000D02*
X156700000Y-80820000D01*
X154040000Y-78220000D02*
X154040000Y-80820000D01*
X154040000Y-78220000D02*
X156700000Y-78220000D01*
X154040000Y-75620000D02*
X155370000Y-75620000D01*
X156700000Y-78220000D02*
X156700000Y-80820000D01*
D10*
%TO.C,BT1*%
X95475000Y-40150000D02*
X172525000Y-40150000D01*
X95475000Y-60800000D02*
X172525000Y-60800000D01*
X95480900Y-47122200D02*
X95480900Y-40149900D01*
X95480900Y-60800100D02*
X95480900Y-53815100D01*
D13*
X161500000Y-47975000D02*
X161500000Y-52975000D01*
X164000000Y-50449600D02*
X159000000Y-50449600D01*
D10*
X172519100Y-40162600D02*
X172519100Y-47173000D01*
X172519100Y-60787400D02*
X172519100Y-53777000D01*
D14*
%TO.C,C5*%
X120567500Y-94310000D02*
X120567500Y-95410000D01*
%TO.C,IC1*%
X114962000Y-75000000D02*
X116162000Y-75000000D01*
X116512000Y-75200000D02*
X117112000Y-75200000D01*
X116512000Y-78050000D02*
X116512000Y-75200000D01*
X117112000Y-75200000D02*
X117112000Y-78050000D01*
X117112000Y-78050000D02*
X116512000Y-78050000D01*
%TO.C,Q1*%
X112325000Y-79450000D02*
X113800000Y-79450000D01*
X114150000Y-79535000D02*
X117850000Y-79535000D01*
X114150000Y-82465000D02*
X114150000Y-79535000D01*
X117850000Y-79535000D02*
X117850000Y-82465000D01*
X117850000Y-82465000D02*
X114150000Y-82465000D01*
%TO.C,J13*%
X148705000Y-132165000D02*
X143755000Y-132165000D01*
X143755000Y-80855000D02*
X143755000Y-132165000D01*
X143755000Y-80855000D02*
X148705000Y-80855000D01*
X148705000Y-80855000D02*
X148705000Y-132165000D01*
X147600000Y-80205000D02*
G75*
G03*
X147600000Y-80205000I-100000J0D01*
G01*
%TO.C,J12*%
X142205000Y-132165000D02*
X137255000Y-132165000D01*
X137255000Y-80855000D02*
X137255000Y-132165000D01*
X137255000Y-80855000D02*
X142205000Y-80855000D01*
X142205000Y-80855000D02*
X142205000Y-132165000D01*
X141100000Y-80205000D02*
G75*
G03*
X141100000Y-80205000I-100000J0D01*
G01*
D15*
%TO.C,U5*%
X115407500Y-99485000D02*
X115407500Y-99535000D01*
X115407500Y-99535000D02*
X114632500Y-99535000D01*
X115407500Y-102510000D02*
X115407500Y-102160000D01*
X115782500Y-99210000D02*
X115407500Y-99485000D01*
X115882500Y-102510000D02*
X115407500Y-102510000D01*
X116057500Y-99210000D02*
X115782500Y-99210000D01*
X116682500Y-99210000D02*
X117057500Y-99210000D01*
X117057500Y-99210000D02*
X117057500Y-99510000D01*
X117057500Y-102210000D02*
X117057500Y-102510000D01*
X117057500Y-102285000D02*
X117057500Y-102160000D01*
X117057500Y-102510000D02*
X116607500Y-102510000D01*
D16*
%TO.C,U1*%
X174630124Y-86540005D02*
G75*
G03*
X174630124Y-86540005I-29997J0D01*
G01*
D17*
X175123927Y-86463805D02*
X176876327Y-86463805D01*
X175123927Y-88455398D02*
X175123927Y-87544602D01*
X175123927Y-89536195D02*
X176876327Y-89536195D01*
X176876327Y-86463805D02*
X176876327Y-87505410D01*
X176876327Y-89536195D02*
X176876327Y-88494590D01*
D12*
%TO.C,U3*%
X87300000Y-88730000D02*
X106350000Y-88730000D01*
X87300000Y-111590000D02*
X87300000Y-88730000D01*
X106350000Y-88730000D02*
X106350000Y-111590000D01*
X106350000Y-111590000D02*
X87300000Y-111590000D01*
%TO.C,J9*%
X133945000Y-137475000D02*
X152995000Y-137475000D01*
X133945000Y-137475000D02*
X133945000Y-76515000D01*
X133945000Y-76515000D02*
X152995000Y-76515000D01*
X152995000Y-76515000D02*
X152995000Y-137475000D01*
D14*
%TO.C,J3*%
X163525000Y-120855000D02*
X165050000Y-120855000D01*
D12*
%TO.C,SW1*%
X96250000Y-84000000D02*
X96250000Y-82500000D01*
X95000000Y-80000000D02*
X90500000Y-80000000D01*
X89250000Y-82500000D02*
X89250000Y-84000000D01*
X90500000Y-86500000D02*
X95000000Y-86500000D01*
%TO.C,C3*%
X167372164Y-81640000D02*
X167587836Y-81640000D01*
X167372164Y-82360000D02*
X167587836Y-82360000D01*
%TO.C,C4*%
X165339836Y-118725000D02*
X165124164Y-118725000D01*
X165339836Y-118005000D02*
X165124164Y-118005000D01*
%TO.C,C6*%
X121587836Y-82360000D02*
X121372164Y-82360000D01*
X121587836Y-81640000D02*
X121372164Y-81640000D01*
%TO.C,C2*%
X164372164Y-112640000D02*
X164587836Y-112640000D01*
X164372164Y-113360000D02*
X164587836Y-113360000D01*
%TO.C,C1*%
X164412164Y-78640000D02*
X164627836Y-78640000D01*
X164412164Y-79360000D02*
X164627836Y-79360000D01*
%TO.C,C10*%
X102811252Y-136660000D02*
X101388748Y-136660000D01*
X102811252Y-134840000D02*
X101388748Y-134840000D01*
%TO.C,J19*%
X110330000Y-134000000D02*
X110330000Y-135330000D01*
X110330000Y-130130000D02*
X107670000Y-130130000D01*
X110330000Y-132730000D02*
X110330000Y-130130000D01*
X110330000Y-132730000D02*
X107670000Y-132730000D01*
X110330000Y-135330000D02*
X109000000Y-135330000D01*
X107670000Y-132730000D02*
X107670000Y-130130000D01*
%TO.C,J5*%
X172670000Y-124460000D02*
X172670000Y-123130000D01*
X172670000Y-128330000D02*
X175330000Y-128330000D01*
X172670000Y-125730000D02*
X172670000Y-128330000D01*
X172670000Y-125730000D02*
X175330000Y-125730000D01*
X172670000Y-123130000D02*
X174000000Y-123130000D01*
X175330000Y-125730000D02*
X175330000Y-128330000D01*
%TO.C,J6*%
X131727500Y-93180000D02*
X131727500Y-95780000D01*
X129067500Y-90580000D02*
X130397500Y-90580000D01*
X129067500Y-93180000D02*
X131727500Y-93180000D01*
X129067500Y-93180000D02*
X129067500Y-95780000D01*
X129067500Y-95780000D02*
X131727500Y-95780000D01*
X129067500Y-91910000D02*
X129067500Y-90580000D01*
%TO.C,J7*%
X180330000Y-68270000D02*
X180330000Y-70870000D01*
X177670000Y-65670000D02*
X179000000Y-65670000D01*
X177670000Y-68270000D02*
X180330000Y-68270000D01*
X177670000Y-68270000D02*
X177670000Y-70870000D01*
X177670000Y-70870000D02*
X180330000Y-70870000D01*
X177670000Y-67000000D02*
X177670000Y-65670000D01*
%TO.C,J1*%
X88360000Y-100225000D02*
X88360000Y-100675000D01*
X89040000Y-95155000D02*
X89040000Y-95575000D01*
X88810000Y-100675000D02*
X88360000Y-100675000D01*
X93390000Y-102675000D02*
X92990000Y-102675000D01*
X92990000Y-95155000D02*
X93390000Y-95155000D01*
X91020000Y-95155000D02*
X89040000Y-95155000D01*
X91020000Y-102675000D02*
X89040000Y-102675000D01*
X89040000Y-102675000D02*
X89040000Y-102255000D01*
%TO.C,D1*%
X161960000Y-130622500D02*
X161960000Y-127937500D01*
X160040000Y-130622500D02*
X161960000Y-130622500D01*
X160040000Y-127937500D02*
X160040000Y-130622500D01*
%TO.C,JP2*%
X115012000Y-71675000D02*
X119112000Y-71675000D01*
X119112000Y-71675000D02*
X119112000Y-73675000D01*
X119112000Y-73675000D02*
X115012000Y-73675000D01*
X115012000Y-73675000D02*
X115012000Y-71675000D01*
%TO.C,JP1*%
X174000000Y-61050000D02*
X174000000Y-56950000D01*
X174000000Y-56950000D02*
X176000000Y-56950000D01*
X176000000Y-56950000D02*
X176000000Y-61050000D01*
X176000000Y-61050000D02*
X174000000Y-61050000D01*
%TO.C,D2*%
X162040000Y-132062500D02*
X162040000Y-134747500D01*
X162040000Y-134747500D02*
X163960000Y-134747500D01*
X163960000Y-134747500D02*
X163960000Y-132062500D01*
D10*
%TO.C,U2*%
X121897500Y-92660000D02*
X119697500Y-92660000D01*
X122272500Y-89260000D02*
X119322500Y-89260000D01*
D12*
%TO.C,U4*%
X95137500Y-130390000D02*
X95937500Y-130390000D01*
X95137500Y-133510000D02*
X96937500Y-133510000D01*
X95137500Y-133510000D02*
X94337500Y-133510000D01*
X95137500Y-130390000D02*
X94337500Y-130390000D01*
%TO.C,R2*%
X159846359Y-79380000D02*
X160153641Y-79380000D01*
X159846359Y-78620000D02*
X160153641Y-78620000D01*
%TO.C,R10*%
X102657258Y-128447500D02*
X102182742Y-128447500D01*
X102657258Y-129492500D02*
X102182742Y-129492500D01*
%TO.C,R11*%
X102062258Y-124477500D02*
X101587742Y-124477500D01*
X102062258Y-125522500D02*
X101587742Y-125522500D01*
%TO.C,R9*%
X102447064Y-120735000D02*
X101992936Y-120735000D01*
X102447064Y-119265000D02*
X101992936Y-119265000D01*
%TO.C,R8*%
X115860436Y-92265000D02*
X116314564Y-92265000D01*
X115860436Y-93735000D02*
X116314564Y-93735000D01*
%TO.C,R7*%
X115860436Y-89315000D02*
X116314564Y-89315000D01*
X115860436Y-90785000D02*
X116314564Y-90785000D01*
%TO.C,R1*%
X162970000Y-82480000D02*
X156430000Y-82480000D01*
X156430000Y-85220000D02*
X162970000Y-85220000D01*
X162970000Y-85220000D02*
X162970000Y-82480000D01*
X156430000Y-82480000D02*
X156430000Y-85220000D01*
X155660000Y-83850000D02*
X156430000Y-83850000D01*
X163740000Y-83850000D02*
X162970000Y-83850000D01*
%TO.C,R5*%
X126117000Y-76625000D02*
X128727000Y-76625000D01*
X126117000Y-76625000D02*
G75*
G03*
X126117000Y-76625000I-1370000J0D01*
G01*
%TO.C,R6*%
X126117000Y-80675000D02*
X128727000Y-80675000D01*
X126117000Y-80675000D02*
G75*
G03*
X126117000Y-80675000I-1370000J0D01*
G01*
%TO.C,R3*%
X168055000Y-131460000D02*
X170665000Y-131460000D01*
X168055000Y-131460000D02*
G75*
G03*
X168055000Y-131460000I-1370000J0D01*
G01*
%TO.C,R4*%
X168055000Y-135510000D02*
X170665000Y-135510000D01*
X168055000Y-135510000D02*
G75*
G03*
X168055000Y-135510000I-1370000J0D01*
G01*
D10*
%TO.C,TP1*%
X155070000Y-69900000D02*
X151470000Y-69900000D01*
X155570000Y-68600000D02*
X155570000Y-69400000D01*
X150970000Y-69400000D02*
X150970000Y-68600000D01*
X151470000Y-69900000D02*
X150970000Y-69400000D01*
X151470000Y-68100000D02*
X155070000Y-68100000D01*
X155070000Y-68100000D02*
X155570000Y-68600000D01*
X155570000Y-69400000D02*
X155070000Y-69900000D01*
X150970000Y-68600000D02*
X151470000Y-68100000D01*
%TO.C,TP2*%
X166930000Y-89100000D02*
X170530000Y-89100000D01*
X166430000Y-90400000D02*
X166430000Y-89600000D01*
X171030000Y-89600000D02*
X171030000Y-90400000D01*
X170530000Y-89100000D02*
X171030000Y-89600000D01*
X170530000Y-90900000D02*
X166930000Y-90900000D01*
X166930000Y-90900000D02*
X166430000Y-90400000D01*
X166430000Y-89600000D02*
X166930000Y-89100000D01*
X171030000Y-90400000D02*
X170530000Y-90900000D01*
%TO.C,TP3*%
X169612000Y-114295000D02*
X169612000Y-117895000D01*
X168312000Y-113795000D02*
X169112000Y-113795000D01*
X169112000Y-118395000D02*
X168312000Y-118395000D01*
X169612000Y-117895000D02*
X169112000Y-118395000D01*
X167812000Y-117895000D02*
X167812000Y-114295000D01*
X167812000Y-114295000D02*
X168312000Y-113795000D01*
X169112000Y-113795000D02*
X169612000Y-114295000D01*
X168312000Y-118395000D02*
X167812000Y-117895000D01*
%TD*%
M02*
