%TF.GenerationSoftware,KiCad,Pcbnew,(7.0.0)*%
%TF.CreationDate,2023-04-14T03:48:35+02:00*%
%TF.ProjectId,overall scematic,6f766572-616c-46c2-9073-63656d617469,rev?*%
%TF.SameCoordinates,Original*%
%TF.FileFunction,Paste,Top*%
%TF.FilePolarity,Positive*%
%FSLAX46Y46*%
G04 Gerber Fmt 4.6, Leading zero omitted, Abs format (unit mm)*
G04 Created by KiCad (PCBNEW (7.0.0)) date 2023-04-14 03:48:35*
%MOMM*%
%LPD*%
G01*
G04 APERTURE LIST*
G04 Aperture macros list*
%AMRoundRect*
0 Rectangle with rounded corners*
0 $1 Rounding radius*
0 $2 $3 $4 $5 $6 $7 $8 $9 X,Y pos of 4 corners*
0 Add a 4 corners polygon primitive as box body*
4,1,4,$2,$3,$4,$5,$6,$7,$8,$9,$2,$3,0*
0 Add four circle primitives for the rounded corners*
1,1,$1+$1,$2,$3*
1,1,$1+$1,$4,$5*
1,1,$1+$1,$6,$7*
1,1,$1+$1,$8,$9*
0 Add four rect primitives between the rounded corners*
20,1,$1+$1,$2,$3,$4,$5,0*
20,1,$1+$1,$4,$5,$6,$7,0*
20,1,$1+$1,$6,$7,$8,$9,0*
20,1,$1+$1,$8,$9,$2,$3,0*%
G04 Aperture macros list end*
%ADD10RoundRect,1.625000X-2.125000X-1.625000X2.125000X-1.625000X2.125000X1.625000X-2.125000X1.625000X0*%
%ADD11R,1.150000X1.450000*%
%ADD12R,1.200000X0.650000*%
%ADD13R,1.475000X0.450000*%
%ADD14R,1.300000X0.600000*%
%ADD15R,1.070003X0.600000*%
%ADD16R,1.525000X0.700000*%
%ADD17R,2.513000X3.402000*%
%ADD18RoundRect,0.140000X-0.140000X-0.170000X0.140000X-0.170000X0.140000X0.170000X-0.140000X0.170000X0*%
%ADD19RoundRect,0.140000X0.140000X0.170000X-0.140000X0.170000X-0.140000X-0.170000X0.140000X-0.170000X0*%
%ADD20RoundRect,0.250000X0.325000X0.650000X-0.325000X0.650000X-0.325000X-0.650000X0.325000X-0.650000X0*%
%ADD21O,1.550000X0.890000*%
%ADD22O,0.950000X1.250000*%
%ADD23R,1.350000X0.400000*%
%ADD24R,1.550000X1.200000*%
%ADD25R,1.550000X1.500000*%
%ADD26RoundRect,0.243750X0.456250X-0.243750X0.456250X0.243750X-0.456250X0.243750X-0.456250X-0.243750X0*%
%ADD27R,0.600000X0.400000*%
%ADD28R,1.500000X2.400000*%
%ADD29RoundRect,0.150000X0.512500X0.150000X-0.512500X0.150000X-0.512500X-0.150000X0.512500X-0.150000X0*%
%ADD30RoundRect,0.135000X-0.135000X-0.185000X0.135000X-0.185000X0.135000X0.185000X-0.135000X0.185000X0*%
%ADD31RoundRect,0.200000X0.200000X0.275000X-0.200000X0.275000X-0.200000X-0.275000X0.200000X-0.275000X0*%
%ADD32RoundRect,0.250000X0.262500X0.450000X-0.262500X0.450000X-0.262500X-0.450000X0.262500X-0.450000X0*%
%ADD33RoundRect,0.250000X-0.262500X-0.450000X0.262500X-0.450000X0.262500X0.450000X-0.262500X0.450000X0*%
G04 APERTURE END LIST*
D10*
%TO.C,BT1*%
X173650000Y-50475000D03*
X94350000Y-50475000D03*
%TD*%
D11*
%TO.C,C5*%
X119667499Y-94859999D03*
X121467499Y-94859999D03*
%TD*%
D12*
%TO.C,IC1*%
X115561999Y-75674999D03*
X115561999Y-76624999D03*
X115561999Y-77574999D03*
X118061999Y-77574999D03*
X118061999Y-76624999D03*
X118061999Y-75674999D03*
%TD*%
D13*
%TO.C,Q1*%
X113061999Y-80024999D03*
X113061999Y-80674999D03*
X113061999Y-81324999D03*
X113061999Y-81974999D03*
X118937999Y-81974999D03*
X118937999Y-81324999D03*
X118937999Y-80674999D03*
X118937999Y-80024999D03*
%TD*%
D14*
%TO.C,U5*%
X115182499Y-99909999D03*
X115182499Y-101809999D03*
X117282499Y-100859999D03*
%TD*%
D15*
%TO.C,U1*%
X177235076Y-87999999D03*
X174764922Y-88949961D03*
X174764922Y-87050037D03*
%TD*%
D16*
%TO.C,J3*%
X164287999Y-121554999D03*
X164287999Y-122824999D03*
X164287999Y-124094999D03*
X164287999Y-125364999D03*
X169711999Y-125364999D03*
X169711999Y-124094999D03*
X169711999Y-122824999D03*
X169711999Y-121554999D03*
D17*
X166999999Y-123459999D03*
%TD*%
D18*
%TO.C,C3*%
X167960000Y-82000000D03*
X167000000Y-82000000D03*
%TD*%
D19*
%TO.C,C4*%
X164752000Y-118365000D03*
X165712000Y-118365000D03*
%TD*%
%TO.C,C6*%
X121000000Y-82000000D03*
X121960000Y-82000000D03*
%TD*%
D18*
%TO.C,C2*%
X164960000Y-113000000D03*
X164000000Y-113000000D03*
%TD*%
%TO.C,C1*%
X165000000Y-79000000D03*
X164040000Y-79000000D03*
%TD*%
D20*
%TO.C,C10*%
X103575000Y-135750000D03*
X100625000Y-135750000D03*
%TD*%
D21*
%TO.C,J1*%
X91999999Y-102414999D03*
X91999999Y-95414999D03*
D22*
X89299999Y-96414999D03*
X89299999Y-101414999D03*
D23*
X89299999Y-100214999D03*
X89299999Y-99564999D03*
X89299999Y-98914999D03*
X89299999Y-98264999D03*
X89299999Y-97614999D03*
D24*
X91999999Y-101814999D03*
D25*
X91999999Y-97914999D03*
D24*
X91999999Y-96014999D03*
D25*
X91999999Y-99914999D03*
%TD*%
D26*
%TO.C,D1*%
X161000000Y-128000000D03*
X161000000Y-129875000D03*
%TD*%
%TO.C,D2*%
X163000000Y-132125000D03*
X163000000Y-134000000D03*
%TD*%
D27*
%TO.C,U2*%
X119397499Y-90009999D03*
X119397499Y-90959999D03*
X119397499Y-91909999D03*
X122197499Y-91909999D03*
X122197499Y-90959999D03*
X122197499Y-90009999D03*
D28*
X120797499Y-90959999D03*
%TD*%
D29*
%TO.C,U4*%
X96275000Y-132900000D03*
X96275000Y-131950000D03*
X96275000Y-131000000D03*
X94000000Y-131000000D03*
X94000000Y-132900000D03*
%TD*%
D30*
%TO.C,R2*%
X160510000Y-79000000D03*
X159490000Y-79000000D03*
%TD*%
D31*
%TO.C,R10*%
X103245000Y-128970000D03*
X101595000Y-128970000D03*
%TD*%
%TO.C,R11*%
X102650000Y-125000000D03*
X101000000Y-125000000D03*
%TD*%
D32*
%TO.C,R9*%
X103132500Y-120000000D03*
X101307500Y-120000000D03*
%TD*%
D33*
%TO.C,R8*%
X115175000Y-93000000D03*
X117000000Y-93000000D03*
%TD*%
%TO.C,R7*%
X115175000Y-90050000D03*
X117000000Y-90050000D03*
%TD*%
M02*
