%TF.GenerationSoftware,KiCad,Pcbnew,(7.0.0)*%
%TF.CreationDate,2023-04-14T03:48:35+02:00*%
%TF.ProjectId,overall scematic,6f766572-616c-46c2-9073-63656d617469,rev?*%
%TF.SameCoordinates,Original*%
%TF.FileFunction,Soldermask,Top*%
%TF.FilePolarity,Negative*%
%FSLAX46Y46*%
G04 Gerber Fmt 4.6, Leading zero omitted, Abs format (unit mm)*
G04 Created by KiCad (PCBNEW (7.0.0)) date 2023-04-14 03:48:35*
%MOMM*%
%LPD*%
G01*
G04 APERTURE LIST*
G04 Aperture macros list*
%AMRoundRect*
0 Rectangle with rounded corners*
0 $1 Rounding radius*
0 $2 $3 $4 $5 $6 $7 $8 $9 X,Y pos of 4 corners*
0 Add a 4 corners polygon primitive as box body*
4,1,4,$2,$3,$4,$5,$6,$7,$8,$9,$2,$3,0*
0 Add four circle primitives for the rounded corners*
1,1,$1+$1,$2,$3*
1,1,$1+$1,$4,$5*
1,1,$1+$1,$6,$7*
1,1,$1+$1,$8,$9*
0 Add four rect primitives between the rounded corners*
20,1,$1+$1,$2,$3,$4,$5,0*
20,1,$1+$1,$4,$5,$6,$7,0*
20,1,$1+$1,$6,$7,$8,$9,0*
20,1,$1+$1,$8,$9,$2,$3,0*%
G04 Aperture macros list end*
%ADD10R,1.700000X1.700000*%
%ADD11O,1.700000X1.700000*%
%ADD12C,4.000000*%
%ADD13C,2.700000*%
%ADD14RoundRect,1.625000X-2.125000X-1.625000X2.125000X-1.625000X2.125000X1.625000X-2.125000X1.625000X0*%
%ADD15R,1.150000X1.450000*%
%ADD16R,1.200000X0.650000*%
%ADD17R,1.475000X0.450000*%
%ADD18R,1.370000X1.370000*%
%ADD19C,1.370000*%
%ADD20RoundRect,0.070000X-0.650000X-0.300000X0.650000X-0.300000X0.650000X0.300000X-0.650000X0.300000X0*%
%ADD21R,1.070003X0.600000*%
%ADD22C,1.524000*%
%ADD23R,1.525000X0.700000*%
%ADD24R,2.513000X3.402000*%
%ADD25C,2.000000*%
%ADD26RoundRect,0.140000X-0.140000X-0.170000X0.140000X-0.170000X0.140000X0.170000X-0.140000X0.170000X0*%
%ADD27RoundRect,0.140000X0.140000X0.170000X-0.140000X0.170000X-0.140000X-0.170000X0.140000X-0.170000X0*%
%ADD28RoundRect,0.250000X0.325000X0.650000X-0.325000X0.650000X-0.325000X-0.650000X0.325000X-0.650000X0*%
%ADD29R,1.350000X0.400000*%
%ADD30R,1.550000X1.200000*%
%ADD31O,0.950000X1.250000*%
%ADD32R,1.550000X1.500000*%
%ADD33O,1.550000X0.890000*%
%ADD34RoundRect,0.243750X0.456250X-0.243750X0.456250X0.243750X-0.456250X0.243750X-0.456250X-0.243750X0*%
%ADD35R,1.000000X1.500000*%
%ADD36R,1.500000X1.000000*%
%ADD37R,0.600000X0.400000*%
%ADD38R,1.500000X2.400000*%
%ADD39RoundRect,0.150000X0.512500X0.150000X-0.512500X0.150000X-0.512500X-0.150000X0.512500X-0.150000X0*%
%ADD40RoundRect,0.135000X-0.135000X-0.185000X0.135000X-0.185000X0.135000X0.185000X-0.135000X0.185000X0*%
%ADD41RoundRect,0.200000X0.200000X0.275000X-0.200000X0.275000X-0.200000X-0.275000X0.200000X-0.275000X0*%
%ADD42RoundRect,0.250000X0.262500X0.450000X-0.262500X0.450000X-0.262500X-0.450000X0.262500X-0.450000X0*%
%ADD43RoundRect,0.250000X-0.262500X-0.450000X0.262500X-0.450000X0.262500X0.450000X-0.262500X0.450000X0*%
%ADD44O,1.600000X1.600000*%
%ADD45C,1.600000*%
%ADD46C,1.400000*%
G04 APERTURE END LIST*
D10*
%TO.C,J4*%
X182999999Y-116539999D03*
D11*
X182999999Y-113999999D03*
%TD*%
D10*
%TO.C,J2*%
X155369999Y-76949999D03*
D11*
X155369999Y-79489999D03*
%TD*%
D12*
%TO.C,BT1*%
X106400000Y-58475000D03*
X161600000Y-42475000D03*
D13*
X169820000Y-58475000D03*
D14*
X173650000Y-50475000D03*
X94350000Y-50475000D03*
%TD*%
D15*
%TO.C,C5*%
X119667499Y-94859999D03*
X121467499Y-94859999D03*
%TD*%
D16*
%TO.C,IC1*%
X115561999Y-75674999D03*
X115561999Y-76624999D03*
X115561999Y-77574999D03*
X118061999Y-77574999D03*
X118061999Y-76624999D03*
X118061999Y-75674999D03*
%TD*%
D17*
%TO.C,Q1*%
X113061999Y-80024999D03*
X113061999Y-80674999D03*
X113061999Y-81324999D03*
X113061999Y-81974999D03*
X118937999Y-81974999D03*
X118937999Y-81324999D03*
X118937999Y-80674999D03*
X118937999Y-80024999D03*
%TD*%
D18*
%TO.C,J13*%
X147499999Y-82379999D03*
D19*
X144960000Y-82380000D03*
X147500000Y-84920000D03*
X144960000Y-84920000D03*
X147500000Y-87460000D03*
X144960000Y-87460000D03*
X147500000Y-90000000D03*
X144960000Y-90000000D03*
X147500000Y-92540000D03*
X144960000Y-92540000D03*
X147500000Y-95080000D03*
X144960000Y-95080000D03*
X147500000Y-97620000D03*
X144960000Y-97620000D03*
X147500000Y-100160000D03*
X144960000Y-100160000D03*
X147500000Y-102700000D03*
X144960000Y-102700000D03*
X147500000Y-105240000D03*
X144960000Y-105240000D03*
X147500000Y-107780000D03*
X144960000Y-107780000D03*
X147500000Y-110320000D03*
X144960000Y-110320000D03*
X147500000Y-112860000D03*
X144960000Y-112860000D03*
X147500000Y-115400000D03*
X144960000Y-115400000D03*
X147500000Y-117940000D03*
X144960000Y-117940000D03*
X147500000Y-120480000D03*
X144960000Y-120480000D03*
X147500000Y-123020000D03*
X144960000Y-123020000D03*
X147500000Y-125560000D03*
X144960000Y-125560000D03*
X147500000Y-128100000D03*
X144960000Y-128100000D03*
X147500000Y-130640000D03*
X144960000Y-130640000D03*
%TD*%
D18*
%TO.C,J12*%
X140999999Y-82379999D03*
D19*
X138460000Y-82380000D03*
X141000000Y-84920000D03*
X138460000Y-84920000D03*
X141000000Y-87460000D03*
X138460000Y-87460000D03*
X141000000Y-90000000D03*
X138460000Y-90000000D03*
X141000000Y-92540000D03*
X138460000Y-92540000D03*
X141000000Y-95080000D03*
X138460000Y-95080000D03*
X141000000Y-97620000D03*
X138460000Y-97620000D03*
X141000000Y-100160000D03*
X138460000Y-100160000D03*
X141000000Y-102700000D03*
X138460000Y-102700000D03*
X141000000Y-105240000D03*
X138460000Y-105240000D03*
X141000000Y-107780000D03*
X138460000Y-107780000D03*
X141000000Y-110320000D03*
X138460000Y-110320000D03*
X141000000Y-112860000D03*
X138460000Y-112860000D03*
X141000000Y-115400000D03*
X138460000Y-115400000D03*
X141000000Y-117940000D03*
X138460000Y-117940000D03*
X141000000Y-120480000D03*
X138460000Y-120480000D03*
X141000000Y-123020000D03*
X138460000Y-123020000D03*
X141000000Y-125560000D03*
X138460000Y-125560000D03*
X141000000Y-128100000D03*
X138460000Y-128100000D03*
X141000000Y-130640000D03*
X138460000Y-130640000D03*
%TD*%
D20*
%TO.C,U5*%
X115182500Y-99910000D03*
X115182500Y-101810000D03*
X117282500Y-100860000D03*
%TD*%
D21*
%TO.C,U1*%
X177235076Y-87999999D03*
X174764922Y-88949961D03*
X174764922Y-87050037D03*
%TD*%
D22*
%TO.C,U3*%
X102540000Y-110320000D03*
X100000000Y-110320000D03*
X97460000Y-110320000D03*
X94920000Y-110320000D03*
X92380000Y-110320000D03*
X100000000Y-90000000D03*
X97460000Y-90000000D03*
X94920000Y-90000000D03*
X92380000Y-90000000D03*
%TD*%
%TO.C,J9*%
X151725000Y-136205000D03*
X151725000Y-133665000D03*
X151725000Y-131125000D03*
X151725000Y-128585000D03*
X151725000Y-126045000D03*
X151725000Y-123505000D03*
X151725000Y-120965000D03*
X151725000Y-118425000D03*
X151725000Y-115885000D03*
X151725000Y-113345000D03*
X151725000Y-110805000D03*
X151725000Y-108265000D03*
X151725000Y-105725000D03*
X151725000Y-103185000D03*
X151725000Y-100645000D03*
X151725000Y-98105000D03*
X151725000Y-95565000D03*
X151725000Y-93025000D03*
X151725000Y-90485000D03*
X151725000Y-87945000D03*
X151725000Y-85405000D03*
X151725000Y-82865000D03*
X151725000Y-80325000D03*
X151725000Y-77785000D03*
X135215000Y-77785000D03*
X135215000Y-80325000D03*
X135215000Y-82865000D03*
X135215000Y-85405000D03*
X135215000Y-87945000D03*
X135215000Y-90485000D03*
X135215000Y-93025000D03*
X135215000Y-95565000D03*
X135215000Y-98105000D03*
X135215000Y-100645000D03*
X135215000Y-103185000D03*
X135215000Y-105725000D03*
X135215000Y-108265000D03*
X135215000Y-110805000D03*
X135215000Y-113345000D03*
X135215000Y-115885000D03*
X135215000Y-118425000D03*
X135215000Y-120965000D03*
X135215000Y-123505000D03*
X135215000Y-126045000D03*
X135215000Y-128585000D03*
X135215000Y-131125000D03*
X135215000Y-133665000D03*
X135215000Y-136205000D03*
%TD*%
D23*
%TO.C,J3*%
X164287999Y-121554999D03*
X164287999Y-122824999D03*
X164287999Y-124094999D03*
X164287999Y-125364999D03*
X169711999Y-125364999D03*
X169711999Y-124094999D03*
X169711999Y-122824999D03*
X169711999Y-121554999D03*
D24*
X166999999Y-123459999D03*
%TD*%
D25*
%TO.C,SW1*%
X96000000Y-81000000D03*
X89500000Y-81000000D03*
X96000000Y-85500000D03*
X89500000Y-85500000D03*
%TD*%
D26*
%TO.C,C3*%
X167960000Y-82000000D03*
X167000000Y-82000000D03*
%TD*%
D27*
%TO.C,C4*%
X164752000Y-118365000D03*
X165712000Y-118365000D03*
%TD*%
%TO.C,C6*%
X121000000Y-82000000D03*
X121960000Y-82000000D03*
%TD*%
D26*
%TO.C,C2*%
X164960000Y-113000000D03*
X164000000Y-113000000D03*
%TD*%
%TO.C,C1*%
X165000000Y-79000000D03*
X164040000Y-79000000D03*
%TD*%
D28*
%TO.C,C10*%
X103575000Y-135750000D03*
X100625000Y-135750000D03*
%TD*%
D10*
%TO.C,J19*%
X108999999Y-133999999D03*
D11*
X108999999Y-131459999D03*
%TD*%
D10*
%TO.C,J5*%
X173999999Y-124459999D03*
D11*
X173999999Y-126999999D03*
%TD*%
%TO.C,J6*%
X130397499Y-94449999D03*
D10*
X130397499Y-91909999D03*
%TD*%
D11*
%TO.C,J7*%
X178999999Y-69539999D03*
D10*
X178999999Y-66999999D03*
%TD*%
D29*
%TO.C,J1*%
X89299999Y-100214999D03*
X89299999Y-99564999D03*
X89299999Y-98914999D03*
X89299999Y-98264999D03*
X89299999Y-97614999D03*
D30*
X91999999Y-101814999D03*
D31*
X89299999Y-96414999D03*
D32*
X91999999Y-97914999D03*
D33*
X91999999Y-95414999D03*
D30*
X91999999Y-96014999D03*
D31*
X89299999Y-101414999D03*
D32*
X91999999Y-99914999D03*
D33*
X91999999Y-102414999D03*
%TD*%
D34*
%TO.C,D1*%
X161000000Y-128000000D03*
X161000000Y-129875000D03*
%TD*%
D35*
%TO.C,JP2*%
X115761999Y-72674999D03*
X117061999Y-72674999D03*
X118361999Y-72674999D03*
%TD*%
D36*
%TO.C,JP1*%
X174999999Y-60299999D03*
X174999999Y-58999999D03*
X174999999Y-57699999D03*
%TD*%
D34*
%TO.C,D2*%
X163000000Y-132125000D03*
X163000000Y-134000000D03*
%TD*%
D37*
%TO.C,U2*%
X119397499Y-90009999D03*
X119397499Y-90959999D03*
X119397499Y-91909999D03*
X122197499Y-91909999D03*
X122197499Y-90959999D03*
X122197499Y-90009999D03*
D38*
X120797499Y-90959999D03*
%TD*%
D39*
%TO.C,U4*%
X96275000Y-132900000D03*
X96275000Y-131950000D03*
X96275000Y-131000000D03*
X94000000Y-131000000D03*
X94000000Y-132900000D03*
%TD*%
D40*
%TO.C,R2*%
X160510000Y-79000000D03*
X159490000Y-79000000D03*
%TD*%
D41*
%TO.C,R10*%
X103245000Y-128970000D03*
X101595000Y-128970000D03*
%TD*%
%TO.C,R11*%
X102650000Y-125000000D03*
X101000000Y-125000000D03*
%TD*%
D42*
%TO.C,R9*%
X103132500Y-120000000D03*
X101307500Y-120000000D03*
%TD*%
D43*
%TO.C,R8*%
X115175000Y-93000000D03*
X117000000Y-93000000D03*
%TD*%
%TO.C,R7*%
X115175000Y-90050000D03*
X117000000Y-90050000D03*
%TD*%
D44*
%TO.C,R1*%
X164779999Y-83849999D03*
D45*
X154620000Y-83850000D03*
%TD*%
%TO.C,R5*%
X124747000Y-76625000D03*
D44*
X129826999Y-76624999D03*
%TD*%
D45*
%TO.C,R6*%
X124747000Y-80675000D03*
D44*
X129826999Y-80674999D03*
%TD*%
D45*
%TO.C,R3*%
X166685000Y-131460000D03*
D44*
X171764999Y-131459999D03*
%TD*%
D45*
%TO.C,R4*%
X166685000Y-135510000D03*
D44*
X171764999Y-135509999D03*
%TD*%
D46*
%TO.C,TP1*%
X154540000Y-69000000D03*
X152000000Y-69000000D03*
%TD*%
%TO.C,TP2*%
X167460000Y-90000000D03*
X170000000Y-90000000D03*
%TD*%
%TO.C,TP3*%
X168712000Y-114825000D03*
X168712000Y-117365000D03*
%TD*%
M02*
