%TF.GenerationSoftware,KiCad,Pcbnew,(7.0.0)*%
%TF.CreationDate,2023-04-14T03:48:35+02:00*%
%TF.ProjectId,overall scematic,6f766572-616c-46c2-9073-63656d617469,rev?*%
%TF.SameCoordinates,Original*%
%TF.FileFunction,Soldermask,Bot*%
%TF.FilePolarity,Negative*%
%FSLAX46Y46*%
G04 Gerber Fmt 4.6, Leading zero omitted, Abs format (unit mm)*
G04 Created by KiCad (PCBNEW (7.0.0)) date 2023-04-14 03:48:35*
%MOMM*%
%LPD*%
G01*
G04 APERTURE LIST*
%ADD10R,1.700000X1.700000*%
%ADD11O,1.700000X1.700000*%
%ADD12C,4.000000*%
%ADD13C,2.700000*%
%ADD14R,1.370000X1.370000*%
%ADD15C,1.370000*%
%ADD16C,1.524000*%
%ADD17C,2.000000*%
%ADD18O,0.950000X1.250000*%
%ADD19O,1.550000X0.890000*%
%ADD20O,1.600000X1.600000*%
%ADD21C,1.600000*%
%ADD22C,1.400000*%
G04 APERTURE END LIST*
D10*
%TO.C,J4*%
X182999999Y-116539999D03*
D11*
X182999999Y-113999999D03*
%TD*%
D10*
%TO.C,J2*%
X155369999Y-76949999D03*
D11*
X155369999Y-79489999D03*
%TD*%
D12*
%TO.C,BT1*%
X106400000Y-58475000D03*
X161600000Y-42475000D03*
D13*
X169820000Y-58475000D03*
%TD*%
D14*
%TO.C,J13*%
X147499999Y-82379999D03*
D15*
X144960000Y-82380000D03*
X147500000Y-84920000D03*
X144960000Y-84920000D03*
X147500000Y-87460000D03*
X144960000Y-87460000D03*
X147500000Y-90000000D03*
X144960000Y-90000000D03*
X147500000Y-92540000D03*
X144960000Y-92540000D03*
X147500000Y-95080000D03*
X144960000Y-95080000D03*
X147500000Y-97620000D03*
X144960000Y-97620000D03*
X147500000Y-100160000D03*
X144960000Y-100160000D03*
X147500000Y-102700000D03*
X144960000Y-102700000D03*
X147500000Y-105240000D03*
X144960000Y-105240000D03*
X147500000Y-107780000D03*
X144960000Y-107780000D03*
X147500000Y-110320000D03*
X144960000Y-110320000D03*
X147500000Y-112860000D03*
X144960000Y-112860000D03*
X147500000Y-115400000D03*
X144960000Y-115400000D03*
X147500000Y-117940000D03*
X144960000Y-117940000D03*
X147500000Y-120480000D03*
X144960000Y-120480000D03*
X147500000Y-123020000D03*
X144960000Y-123020000D03*
X147500000Y-125560000D03*
X144960000Y-125560000D03*
X147500000Y-128100000D03*
X144960000Y-128100000D03*
X147500000Y-130640000D03*
X144960000Y-130640000D03*
%TD*%
D14*
%TO.C,J12*%
X140999999Y-82379999D03*
D15*
X138460000Y-82380000D03*
X141000000Y-84920000D03*
X138460000Y-84920000D03*
X141000000Y-87460000D03*
X138460000Y-87460000D03*
X141000000Y-90000000D03*
X138460000Y-90000000D03*
X141000000Y-92540000D03*
X138460000Y-92540000D03*
X141000000Y-95080000D03*
X138460000Y-95080000D03*
X141000000Y-97620000D03*
X138460000Y-97620000D03*
X141000000Y-100160000D03*
X138460000Y-100160000D03*
X141000000Y-102700000D03*
X138460000Y-102700000D03*
X141000000Y-105240000D03*
X138460000Y-105240000D03*
X141000000Y-107780000D03*
X138460000Y-107780000D03*
X141000000Y-110320000D03*
X138460000Y-110320000D03*
X141000000Y-112860000D03*
X138460000Y-112860000D03*
X141000000Y-115400000D03*
X138460000Y-115400000D03*
X141000000Y-117940000D03*
X138460000Y-117940000D03*
X141000000Y-120480000D03*
X138460000Y-120480000D03*
X141000000Y-123020000D03*
X138460000Y-123020000D03*
X141000000Y-125560000D03*
X138460000Y-125560000D03*
X141000000Y-128100000D03*
X138460000Y-128100000D03*
X141000000Y-130640000D03*
X138460000Y-130640000D03*
%TD*%
D16*
%TO.C,U3*%
X102540000Y-110320000D03*
X100000000Y-110320000D03*
X97460000Y-110320000D03*
X94920000Y-110320000D03*
X92380000Y-110320000D03*
X100000000Y-90000000D03*
X97460000Y-90000000D03*
X94920000Y-90000000D03*
X92380000Y-90000000D03*
%TD*%
%TO.C,J9*%
X151725000Y-136205000D03*
X151725000Y-133665000D03*
X151725000Y-131125000D03*
X151725000Y-128585000D03*
X151725000Y-126045000D03*
X151725000Y-123505000D03*
X151725000Y-120965000D03*
X151725000Y-118425000D03*
X151725000Y-115885000D03*
X151725000Y-113345000D03*
X151725000Y-110805000D03*
X151725000Y-108265000D03*
X151725000Y-105725000D03*
X151725000Y-103185000D03*
X151725000Y-100645000D03*
X151725000Y-98105000D03*
X151725000Y-95565000D03*
X151725000Y-93025000D03*
X151725000Y-90485000D03*
X151725000Y-87945000D03*
X151725000Y-85405000D03*
X151725000Y-82865000D03*
X151725000Y-80325000D03*
X151725000Y-77785000D03*
X135215000Y-77785000D03*
X135215000Y-80325000D03*
X135215000Y-82865000D03*
X135215000Y-85405000D03*
X135215000Y-87945000D03*
X135215000Y-90485000D03*
X135215000Y-93025000D03*
X135215000Y-95565000D03*
X135215000Y-98105000D03*
X135215000Y-100645000D03*
X135215000Y-103185000D03*
X135215000Y-105725000D03*
X135215000Y-108265000D03*
X135215000Y-110805000D03*
X135215000Y-113345000D03*
X135215000Y-115885000D03*
X135215000Y-118425000D03*
X135215000Y-120965000D03*
X135215000Y-123505000D03*
X135215000Y-126045000D03*
X135215000Y-128585000D03*
X135215000Y-131125000D03*
X135215000Y-133665000D03*
X135215000Y-136205000D03*
%TD*%
D17*
%TO.C,SW1*%
X96000000Y-81000000D03*
X89500000Y-81000000D03*
X96000000Y-85500000D03*
X89500000Y-85500000D03*
%TD*%
D10*
%TO.C,J19*%
X108999999Y-133999999D03*
D11*
X108999999Y-131459999D03*
%TD*%
D10*
%TO.C,J5*%
X173999999Y-124459999D03*
D11*
X173999999Y-126999999D03*
%TD*%
%TO.C,J6*%
X130397499Y-94449999D03*
D10*
X130397499Y-91909999D03*
%TD*%
D11*
%TO.C,J7*%
X178999999Y-69539999D03*
D10*
X178999999Y-66999999D03*
%TD*%
D18*
%TO.C,J1*%
X89299999Y-96414999D03*
D19*
X91999999Y-95414999D03*
D18*
X89299999Y-101414999D03*
D19*
X91999999Y-102414999D03*
%TD*%
D20*
%TO.C,R1*%
X164779999Y-83849999D03*
D21*
X154620000Y-83850000D03*
%TD*%
%TO.C,R5*%
X124747000Y-76625000D03*
D20*
X129826999Y-76624999D03*
%TD*%
D21*
%TO.C,R6*%
X124747000Y-80675000D03*
D20*
X129826999Y-80674999D03*
%TD*%
D21*
%TO.C,R3*%
X166685000Y-131460000D03*
D20*
X171764999Y-131459999D03*
%TD*%
D21*
%TO.C,R4*%
X166685000Y-135510000D03*
D20*
X171764999Y-135509999D03*
%TD*%
D22*
%TO.C,TP1*%
X154540000Y-69000000D03*
X152000000Y-69000000D03*
%TD*%
%TO.C,TP2*%
X167460000Y-90000000D03*
X170000000Y-90000000D03*
%TD*%
%TO.C,TP3*%
X168712000Y-114825000D03*
X168712000Y-117365000D03*
%TD*%
M02*
